<svg xmlns="http://www.w3.org/2000/svg" viewBox="-0.5 -0.5 24 24" fill="none" stroke="currentColor" stroke-linecap="round" stroke-linejoin="round" id="Circuit-Board--Streamline-Lucide" height="24" width="24">
  <desc>
    Circuit Board Streamline Icon: https://streamlinehq.com
  </desc>
  <path d="M4.791666666666667 2.875h13.416666666666668s1.9166666666666667 0 1.9166666666666667 1.9166666666666667v13.416666666666668s0 1.9166666666666667 -1.9166666666666667 1.9166666666666667H4.791666666666667s-1.9166666666666667 0 -1.9166666666666667 -1.9166666666666667V4.791666666666667s0 -1.9166666666666667 1.9166666666666667 -1.9166666666666667" stroke-width="1.5"></path>
  <path d="M10.541666666666668 8.625h3.8333333333333335a1.9166666666666667 1.9166666666666667 0 0 0 1.9166666666666667 -1.9166666666666667V2.875" stroke-width="1.5"></path>
  <path d="M6.708333333333334 8.625a1.9166666666666667 1.9166666666666667 0 1 0 3.8333333333333335 0 1.9166666666666667 1.9166666666666667 0 1 0 -3.8333333333333335 0" stroke-width="1.5"></path>
  <path d="M6.708333333333334 20.125v-3.8333333333333335a1.9166666666666667 1.9166666666666667 0 0 1 1.9166666666666667 -1.9166666666666667h3.8333333333333335" stroke-width="1.5"></path>
  <path d="M12.458333333333334 14.375a1.9166666666666667 1.9166666666666667 0 1 0 3.8333333333333335 0 1.9166666666666667 1.9166666666666667 0 1 0 -3.8333333333333335 0" stroke-width="1.5"></path>
</svg>