G04 #@! TF.GenerationSoftware,KiCad,Pcbnew,8.0.6*
G04 #@! TF.CreationDate,2025-06-21T10:27:38-07:00*
G04 #@! TF.ProjectId,complete_EPG,636f6d70-6c65-4746-955f-4550472e6b69,rev?*
G04 #@! TF.SameCoordinates,Original*
G04 #@! TF.FileFunction,Paste,Top*
G04 #@! TF.FilePolarity,Positive*
%FSLAX46Y46*%
G04 Gerber Fmt 4.6, Leading zero omitted, Abs format (unit mm)*
G04 Created by KiCad (PCBNEW 8.0.6) date 2025-06-21 10:27:38*
%MOMM*%
%LPD*%
G01*
G04 APERTURE LIST*
G04 Aperture macros list*
%AMRoundRect*
0 Rectangle with rounded corners*
0 $1 Rounding radius*
0 $2 $3 $4 $5 $6 $7 $8 $9 X,Y pos of 4 corners*
0 Add a 4 corners polygon primitive as box body*
4,1,4,$2,$3,$4,$5,$6,$7,$8,$9,$2,$3,0*
0 Add four circle primitives for the rounded corners*
1,1,$1+$1,$2,$3*
1,1,$1+$1,$4,$5*
1,1,$1+$1,$6,$7*
1,1,$1+$1,$8,$9*
0 Add four rect primitives between the rounded corners*
20,1,$1+$1,$2,$3,$4,$5,0*
20,1,$1+$1,$4,$5,$6,$7,0*
20,1,$1+$1,$6,$7,$8,$9,0*
20,1,$1+$1,$8,$9,$2,$3,0*%
G04 Aperture macros list end*
%ADD10R,0.787400X0.254000*%
%ADD11R,1.752600X2.489200*%
%ADD12RoundRect,0.250000X-0.475000X0.337500X-0.475000X-0.337500X0.475000X-0.337500X0.475000X0.337500X0*%
%ADD13RoundRect,0.250000X0.450000X-0.350000X0.450000X0.350000X-0.450000X0.350000X-0.450000X-0.350000X0*%
%ADD14RoundRect,0.250000X0.337500X0.475000X-0.337500X0.475000X-0.337500X-0.475000X0.337500X-0.475000X0*%
%ADD15RoundRect,0.250000X0.475000X-0.337500X0.475000X0.337500X-0.475000X0.337500X-0.475000X-0.337500X0*%
%ADD16RoundRect,0.125000X-0.537500X-0.125000X0.537500X-0.125000X0.537500X0.125000X-0.537500X0.125000X0*%
%ADD17RoundRect,0.250000X-0.450000X0.325000X-0.450000X-0.325000X0.450000X-0.325000X0.450000X0.325000X0*%
%ADD18RoundRect,0.250000X0.325000X0.450000X-0.325000X0.450000X-0.325000X-0.450000X0.325000X-0.450000X0*%
%ADD19RoundRect,0.250000X-0.350000X-0.450000X0.350000X-0.450000X0.350000X0.450000X-0.350000X0.450000X0*%
%ADD20RoundRect,0.250000X0.350000X0.450000X-0.350000X0.450000X-0.350000X-0.450000X0.350000X-0.450000X0*%
%ADD21RoundRect,0.250000X-0.450000X0.350000X-0.450000X-0.350000X0.450000X-0.350000X0.450000X0.350000X0*%
%ADD22RoundRect,0.150000X0.150000X-0.825000X0.150000X0.825000X-0.150000X0.825000X-0.150000X-0.825000X0*%
%ADD23RoundRect,0.062500X-0.365000X-0.062500X0.365000X-0.062500X0.365000X0.062500X-0.365000X0.062500X0*%
%ADD24RoundRect,0.160000X-0.170000X-0.160000X0.170000X-0.160000X0.170000X0.160000X-0.170000X0.160000X0*%
%ADD25RoundRect,0.150000X-0.825000X-0.150000X0.825000X-0.150000X0.825000X0.150000X-0.825000X0.150000X0*%
%ADD26RoundRect,0.150000X-0.512500X-0.150000X0.512500X-0.150000X0.512500X0.150000X-0.512500X0.150000X0*%
%ADD27RoundRect,0.250000X-0.337500X-0.475000X0.337500X-0.475000X0.337500X0.475000X-0.337500X0.475000X0*%
%ADD28RoundRect,0.250000X-0.325000X-0.450000X0.325000X-0.450000X0.325000X0.450000X-0.325000X0.450000X0*%
%ADD29R,0.700000X1.525000*%
%ADD30RoundRect,0.150000X0.512500X0.150000X-0.512500X0.150000X-0.512500X-0.150000X0.512500X-0.150000X0*%
%ADD31RoundRect,0.150000X0.150000X-0.875000X0.150000X0.875000X-0.150000X0.875000X-0.150000X-0.875000X0*%
G04 APERTURE END LIST*
D10*
X132291600Y-40247001D03*
X132291600Y-39747000D03*
X132291600Y-39247000D03*
X132291600Y-38746999D03*
X129370600Y-38746999D03*
X129370600Y-39247000D03*
X129370600Y-39747000D03*
X129370600Y-40247001D03*
D11*
X130831100Y-39497000D03*
D12*
X46553000Y-40394500D03*
X46553000Y-42469500D03*
X44648000Y-48797000D03*
X44648000Y-50872000D03*
D13*
X95428000Y-60889500D03*
X95428000Y-58889500D03*
D14*
X131745500Y-51507000D03*
X129670500Y-51507000D03*
D15*
X127458000Y-41964500D03*
X127458000Y-39889500D03*
D13*
X42158000Y-41237000D03*
X42158000Y-39237000D03*
X117847286Y-60869500D03*
X117847286Y-58869500D03*
D16*
X98925500Y-46008000D03*
X98925500Y-46658000D03*
X98925500Y-47308000D03*
X98925500Y-47958000D03*
X96650500Y-47958000D03*
X96650500Y-47308000D03*
X96650500Y-46658000D03*
X96650500Y-46008000D03*
D14*
X33225500Y-40887000D03*
X31150500Y-40887000D03*
D12*
X20578000Y-69019500D03*
X20578000Y-71094500D03*
D17*
X95428000Y-62967000D03*
X95428000Y-65017000D03*
D13*
X92918000Y-60918250D03*
X92918000Y-58918250D03*
D12*
X42528000Y-48797000D03*
X42528000Y-50872000D03*
D18*
X138348000Y-61127000D03*
X136298000Y-61127000D03*
D19*
X71928000Y-35777000D03*
X73928000Y-35777000D03*
D20*
X114778000Y-52197000D03*
X112778000Y-52197000D03*
D21*
X116998000Y-37387000D03*
X116998000Y-39387000D03*
D19*
X87728000Y-40982000D03*
X89728000Y-40982000D03*
D15*
X134068000Y-43274500D03*
X134068000Y-41199500D03*
D21*
X127070500Y-30147000D03*
X127070500Y-32147000D03*
D22*
X48238000Y-49638000D03*
X49508000Y-49638000D03*
X50778000Y-49638000D03*
X52048000Y-49638000D03*
X52048000Y-44688000D03*
X50778000Y-44688000D03*
X49508000Y-44688000D03*
X48238000Y-44688000D03*
D12*
X29453000Y-63694500D03*
X29453000Y-65769500D03*
X18353000Y-69019500D03*
X18353000Y-71094500D03*
D20*
X38148000Y-36237000D03*
X36148000Y-36237000D03*
D15*
X29848000Y-73204500D03*
X29848000Y-71129500D03*
D12*
X52738000Y-51869500D03*
X52738000Y-53944500D03*
D21*
X97798000Y-50947000D03*
X97798000Y-52947000D03*
D23*
X27325500Y-65532000D03*
X27325500Y-66032000D03*
X27325500Y-66532000D03*
X27325500Y-67032000D03*
X27325500Y-67532000D03*
X24430500Y-67532000D03*
X24430500Y-67032000D03*
X24430500Y-66532000D03*
X24430500Y-66032000D03*
X24430500Y-65532000D03*
D24*
X26288000Y-67322000D03*
X26288000Y-66532000D03*
X26288000Y-65742000D03*
X25468000Y-67322000D03*
X25468000Y-66532000D03*
X25468000Y-65742000D03*
D25*
X112913000Y-42557000D03*
X112913000Y-43827000D03*
X112913000Y-45097000D03*
X112913000Y-46367000D03*
X112913000Y-47637000D03*
X112913000Y-48907000D03*
X112913000Y-50177000D03*
X117863000Y-50177000D03*
X117863000Y-48907000D03*
X117863000Y-47637000D03*
X117863000Y-46367000D03*
X117863000Y-45097000D03*
X117863000Y-43827000D03*
X117863000Y-42557000D03*
D19*
X47488000Y-52177000D03*
X49488000Y-52177000D03*
D17*
X117758000Y-62947000D03*
X117758000Y-64997000D03*
D21*
X34453000Y-50782000D03*
X34453000Y-52782000D03*
D26*
X134138000Y-29587000D03*
X134138000Y-31487000D03*
X131863000Y-31487000D03*
X131863000Y-30537000D03*
X131863000Y-29587000D03*
D27*
X107720500Y-46647000D03*
X109795500Y-46647000D03*
D17*
X108893000Y-62945750D03*
X108893000Y-64995750D03*
D21*
X40453000Y-50782000D03*
X40453000Y-52782000D03*
D28*
X140823000Y-63407000D03*
X142873000Y-63407000D03*
D27*
X63870500Y-35737000D03*
X65945500Y-35737000D03*
D28*
X142825500Y-70865000D03*
X140775500Y-70865000D03*
D21*
X38453000Y-50782000D03*
X38453000Y-52782000D03*
D29*
X40533000Y-43305000D03*
X39263000Y-43305000D03*
X37993000Y-43305000D03*
X36723000Y-43305000D03*
X35453000Y-43305000D03*
X34183000Y-43305000D03*
X32913000Y-43305000D03*
X31643000Y-43305000D03*
X31643000Y-48729000D03*
X32913000Y-48729000D03*
X34183000Y-48729000D03*
X35453000Y-48729000D03*
X36723000Y-48729000D03*
X37993000Y-48729000D03*
X39263000Y-48729000D03*
X40533000Y-48729000D03*
D17*
X115240857Y-63019321D03*
X115240857Y-65069321D03*
D20*
X49438000Y-54277000D03*
X47438000Y-54277000D03*
D17*
X109578000Y-31602000D03*
X109578000Y-33652000D03*
D20*
X38158000Y-40617000D03*
X36158000Y-40617000D03*
D27*
X120950500Y-44777000D03*
X123025500Y-44777000D03*
D13*
X130598000Y-60967000D03*
X130598000Y-58967000D03*
D14*
X33165500Y-38687000D03*
X31090500Y-38687000D03*
D28*
X136223000Y-63367000D03*
X138273000Y-63367000D03*
D27*
X120968000Y-34142000D03*
X123043000Y-34142000D03*
D14*
X81455500Y-51002000D03*
X79380500Y-51002000D03*
D19*
X133938000Y-39327000D03*
X135938000Y-39327000D03*
D13*
X43968000Y-73527000D03*
X43968000Y-71527000D03*
X90338000Y-60848250D03*
X90338000Y-58848250D03*
D21*
X70458000Y-52077000D03*
X70458000Y-54077000D03*
D13*
X120163000Y-50937000D03*
X120163000Y-48937000D03*
D27*
X36060500Y-70152000D03*
X38135500Y-70152000D03*
D19*
X144958000Y-70865000D03*
X146958000Y-70865000D03*
D15*
X41328000Y-60269500D03*
X41328000Y-58194500D03*
D30*
X125063000Y-31947000D03*
X125063000Y-30997000D03*
X125063000Y-30047000D03*
X122788000Y-30047000D03*
X122788000Y-31947000D03*
D21*
X99928000Y-51032000D03*
X99928000Y-53032000D03*
D14*
X132060500Y-33417000D03*
X134135500Y-33417000D03*
D19*
X144932000Y-68725000D03*
X146932000Y-68725000D03*
D21*
X35830500Y-58404500D03*
X35830500Y-60404500D03*
D13*
X29018000Y-40547000D03*
X29018000Y-38547000D03*
D12*
X48623000Y-40369500D03*
X48623000Y-42444500D03*
D15*
X136108000Y-31479500D03*
X136108000Y-33554500D03*
D14*
X89735500Y-45423000D03*
X87660500Y-45423000D03*
X63840500Y-52282000D03*
X61765500Y-52282000D03*
D18*
X142800500Y-61087000D03*
X140750500Y-61087000D03*
D19*
X57788000Y-38097000D03*
X59788000Y-38097000D03*
X31780500Y-60344500D03*
X33780500Y-60344500D03*
D13*
X31803000Y-65132000D03*
X31803000Y-63132000D03*
D19*
X147808000Y-61087000D03*
X145808000Y-61087000D03*
D27*
X63890500Y-37857000D03*
X65965500Y-37857000D03*
D19*
X147768000Y-63367000D03*
X145768000Y-63367000D03*
D15*
X92503000Y-48419500D03*
X92503000Y-46344500D03*
D22*
X34438000Y-67729500D03*
X35708000Y-67729500D03*
X36978000Y-67729500D03*
X38248000Y-67729500D03*
X39518000Y-67729500D03*
X40788000Y-67729500D03*
X42058000Y-67729500D03*
X42058000Y-62779500D03*
X40788000Y-62779500D03*
X39518000Y-62779500D03*
X38248000Y-62779500D03*
X36978000Y-62779500D03*
X35708000Y-62779500D03*
X34438000Y-62779500D03*
D20*
X127268000Y-51427000D03*
X125268000Y-51427000D03*
X87453000Y-53182000D03*
X85453000Y-53182000D03*
D17*
X103398000Y-62934500D03*
X103398000Y-64984500D03*
D15*
X120795500Y-32214500D03*
X120795500Y-30139500D03*
D17*
X120508000Y-62977000D03*
X120508000Y-65027000D03*
D14*
X22328000Y-64732000D03*
X20253000Y-64732000D03*
D13*
X120579429Y-60899500D03*
X120579429Y-58899500D03*
X23448000Y-73357000D03*
X23448000Y-71357000D03*
D21*
X43900500Y-66194500D03*
X43900500Y-68194500D03*
D17*
X127942285Y-63041285D03*
X127942285Y-65091285D03*
D19*
X71928000Y-33617000D03*
X73928000Y-33617000D03*
X36188000Y-38367000D03*
X38188000Y-38367000D03*
D14*
X63810500Y-54332000D03*
X61735500Y-54332000D03*
D27*
X36040500Y-72207000D03*
X38115500Y-72207000D03*
D13*
X115248000Y-60941821D03*
X115248000Y-58941821D03*
D14*
X22353000Y-66932000D03*
X20278000Y-66932000D03*
D26*
X25445500Y-71707000D03*
X25445500Y-72657000D03*
X25445500Y-73607000D03*
X27720500Y-73607000D03*
X27720500Y-71707000D03*
D17*
X92918000Y-62995750D03*
X92918000Y-65045750D03*
D14*
X26778000Y-63282000D03*
X24703000Y-63282000D03*
X103015500Y-45243000D03*
X100940500Y-45243000D03*
D13*
X108893000Y-60868250D03*
X108893000Y-58868250D03*
D18*
X140653000Y-68645000D03*
X142703000Y-68645000D03*
D13*
X98218000Y-60927750D03*
X98218000Y-58927750D03*
D21*
X74148000Y-50297000D03*
X74148000Y-52297000D03*
D20*
X87478000Y-51082000D03*
X85478000Y-51082000D03*
D15*
X39328000Y-60269500D03*
X39328000Y-58194500D03*
D19*
X102298000Y-48907000D03*
X104298000Y-48907000D03*
X122168000Y-48997000D03*
X124168000Y-48997000D03*
D15*
X94523000Y-48439500D03*
X94523000Y-46364500D03*
D27*
X107720500Y-44507000D03*
X109795500Y-44507000D03*
D21*
X36453000Y-50782000D03*
X36453000Y-52782000D03*
D16*
X85745500Y-46023000D03*
X85745500Y-46673000D03*
X85745500Y-47323000D03*
X85745500Y-47973000D03*
X83470500Y-47973000D03*
X83470500Y-47323000D03*
X83470500Y-46673000D03*
X83470500Y-46023000D03*
D13*
X127878000Y-60963785D03*
X127878000Y-58963785D03*
D17*
X125308000Y-62984500D03*
X125308000Y-65034500D03*
X130580143Y-63044500D03*
X130580143Y-65094500D03*
D20*
X113588000Y-39407000D03*
X111588000Y-39407000D03*
D31*
X57793000Y-49782000D03*
X59063000Y-49782000D03*
X60333000Y-49782000D03*
X61603000Y-49782000D03*
X62873000Y-49782000D03*
X64143000Y-49782000D03*
X65413000Y-49782000D03*
X66683000Y-49782000D03*
X67953000Y-49782000D03*
X69223000Y-49782000D03*
X70493000Y-49782000D03*
X71763000Y-49782000D03*
X71763000Y-40482000D03*
X70493000Y-40482000D03*
X69223000Y-40482000D03*
X67953000Y-40482000D03*
X66683000Y-40482000D03*
X65413000Y-40482000D03*
X64143000Y-40482000D03*
X62873000Y-40482000D03*
X61603000Y-40482000D03*
X60333000Y-40482000D03*
X59063000Y-40482000D03*
X57793000Y-40482000D03*
D12*
X136128000Y-29524500D03*
X136128000Y-27449500D03*
D13*
X44158000Y-41237000D03*
X44158000Y-39237000D03*
X43890500Y-64254500D03*
X43890500Y-62254500D03*
D17*
X109598000Y-37724500D03*
X109598000Y-35674500D03*
D14*
X81415500Y-48882000D03*
X79340500Y-48882000D03*
X126933000Y-34142000D03*
X124858000Y-34142000D03*
D27*
X120950500Y-46777000D03*
X123025500Y-46777000D03*
D13*
X125336572Y-60907000D03*
X125336572Y-58907000D03*
D14*
X89735500Y-43193000D03*
X87660500Y-43193000D03*
D13*
X103383000Y-60833000D03*
X103383000Y-58833000D03*
D17*
X98218000Y-63005250D03*
X98218000Y-65055250D03*
D14*
X103015500Y-43013000D03*
X100940500Y-43013000D03*
D17*
X90338000Y-62925750D03*
X90338000Y-64975750D03*
D12*
X54698000Y-51859500D03*
X54698000Y-53934500D03*
M02*
