G04 #@! TF.GenerationSoftware,KiCad,Pcbnew,8.0.6*
G04 #@! TF.CreationDate,2025-06-21T10:27:38-07:00*
G04 #@! TF.ProjectId,complete_EPG,636f6d70-6c65-4746-955f-4550472e6b69,rev?*
G04 #@! TF.SameCoordinates,Original*
G04 #@! TF.FileFunction,Legend,Bot*
G04 #@! TF.FilePolarity,Positive*
%FSLAX46Y46*%
G04 Gerber Fmt 4.6, Leading zero omitted, Abs format (unit mm)*
G04 Created by KiCad (PCBNEW 8.0.6) date 2025-06-21 10:27:38*
%MOMM*%
%LPD*%
G01*
G04 APERTURE LIST*
G04 Aperture macros list*
%AMRoundRect*
0 Rectangle with rounded corners*
0 $1 Rounding radius*
0 $2 $3 $4 $5 $6 $7 $8 $9 X,Y pos of 4 corners*
0 Add a 4 corners polygon primitive as box body*
4,1,4,$2,$3,$4,$5,$6,$7,$8,$9,$2,$3,0*
0 Add four circle primitives for the rounded corners*
1,1,$1+$1,$2,$3*
1,1,$1+$1,$4,$5*
1,1,$1+$1,$6,$7*
1,1,$1+$1,$8,$9*
0 Add four rect primitives between the rounded corners*
20,1,$1+$1,$2,$3,$4,$5,0*
20,1,$1+$1,$4,$5,$6,$7,0*
20,1,$1+$1,$6,$7,$8,$9,0*
20,1,$1+$1,$8,$9,$2,$3,0*%
G04 Aperture macros list end*
%ADD10C,0.150000*%
%ADD11C,1.700000*%
%ADD12C,3.810000*%
%ADD13C,1.905000*%
%ADD14C,5.600000*%
%ADD15R,2.200000X2.200000*%
%ADD16C,2.200000*%
%ADD17O,1.700000X1.700000*%
%ADD18R,1.700000X1.700000*%
%ADD19C,1.400000*%
%ADD20RoundRect,0.250000X0.450000X-0.450000X0.450000X0.450000X-0.450000X0.450000X-0.450000X-0.450000X0*%
%ADD21R,2.600000X2.600000*%
%ADD22C,2.600000*%
%ADD23C,2.000000*%
G04 APERTURE END LIST*
D10*
X43451220Y-69576987D02*
X43451220Y-68576987D01*
X43451220Y-68576987D02*
X43213125Y-68576987D01*
X43213125Y-68576987D02*
X43070268Y-68624606D01*
X43070268Y-68624606D02*
X42975030Y-68719844D01*
X42975030Y-68719844D02*
X42927411Y-68815082D01*
X42927411Y-68815082D02*
X42879792Y-69005558D01*
X42879792Y-69005558D02*
X42879792Y-69148415D01*
X42879792Y-69148415D02*
X42927411Y-69338891D01*
X42927411Y-69338891D02*
X42975030Y-69434129D01*
X42975030Y-69434129D02*
X43070268Y-69529368D01*
X43070268Y-69529368D02*
X43213125Y-69576987D01*
X43213125Y-69576987D02*
X43451220Y-69576987D01*
X41879792Y-69576987D02*
X42213125Y-69100796D01*
X42451220Y-69576987D02*
X42451220Y-68576987D01*
X42451220Y-68576987D02*
X42070268Y-68576987D01*
X42070268Y-68576987D02*
X41975030Y-68624606D01*
X41975030Y-68624606D02*
X41927411Y-68672225D01*
X41927411Y-68672225D02*
X41879792Y-68767463D01*
X41879792Y-68767463D02*
X41879792Y-68910320D01*
X41879792Y-68910320D02*
X41927411Y-69005558D01*
X41927411Y-69005558D02*
X41975030Y-69053177D01*
X41975030Y-69053177D02*
X42070268Y-69100796D01*
X42070268Y-69100796D02*
X42451220Y-69100796D01*
X41546458Y-68576987D02*
X40927411Y-68576987D01*
X40927411Y-68576987D02*
X41260744Y-68957939D01*
X41260744Y-68957939D02*
X41117887Y-68957939D01*
X41117887Y-68957939D02*
X41022649Y-69005558D01*
X41022649Y-69005558D02*
X40975030Y-69053177D01*
X40975030Y-69053177D02*
X40927411Y-69148415D01*
X40927411Y-69148415D02*
X40927411Y-69386510D01*
X40927411Y-69386510D02*
X40975030Y-69481748D01*
X40975030Y-69481748D02*
X41022649Y-69529368D01*
X41022649Y-69529368D02*
X41117887Y-69576987D01*
X41117887Y-69576987D02*
X41403601Y-69576987D01*
X41403601Y-69576987D02*
X41498839Y-69529368D01*
X41498839Y-69529368D02*
X41546458Y-69481748D01*
X39736934Y-69053177D02*
X39403601Y-69053177D01*
X39260744Y-69576987D02*
X39736934Y-69576987D01*
X39736934Y-69576987D02*
X39736934Y-68576987D01*
X39736934Y-68576987D02*
X39260744Y-68576987D01*
X38832172Y-69576987D02*
X38832172Y-68576987D01*
X38832172Y-68576987D02*
X38451220Y-68576987D01*
X38451220Y-68576987D02*
X38355982Y-68624606D01*
X38355982Y-68624606D02*
X38308363Y-68672225D01*
X38308363Y-68672225D02*
X38260744Y-68767463D01*
X38260744Y-68767463D02*
X38260744Y-68910320D01*
X38260744Y-68910320D02*
X38308363Y-69005558D01*
X38308363Y-69005558D02*
X38355982Y-69053177D01*
X38355982Y-69053177D02*
X38451220Y-69100796D01*
X38451220Y-69100796D02*
X38832172Y-69100796D01*
X37308363Y-68624606D02*
X37403601Y-68576987D01*
X37403601Y-68576987D02*
X37546458Y-68576987D01*
X37546458Y-68576987D02*
X37689315Y-68624606D01*
X37689315Y-68624606D02*
X37784553Y-68719844D01*
X37784553Y-68719844D02*
X37832172Y-68815082D01*
X37832172Y-68815082D02*
X37879791Y-69005558D01*
X37879791Y-69005558D02*
X37879791Y-69148415D01*
X37879791Y-69148415D02*
X37832172Y-69338891D01*
X37832172Y-69338891D02*
X37784553Y-69434129D01*
X37784553Y-69434129D02*
X37689315Y-69529368D01*
X37689315Y-69529368D02*
X37546458Y-69576987D01*
X37546458Y-69576987D02*
X37451220Y-69576987D01*
X37451220Y-69576987D02*
X37308363Y-69529368D01*
X37308363Y-69529368D02*
X37260744Y-69481748D01*
X37260744Y-69481748D02*
X37260744Y-69148415D01*
X37260744Y-69148415D02*
X37451220Y-69148415D01*
X36070267Y-69196034D02*
X35308363Y-69196034D01*
X33879791Y-68576987D02*
X33784553Y-68576987D01*
X33784553Y-68576987D02*
X33689315Y-68624606D01*
X33689315Y-68624606D02*
X33641696Y-68672225D01*
X33641696Y-68672225D02*
X33594077Y-68767463D01*
X33594077Y-68767463D02*
X33546458Y-68957939D01*
X33546458Y-68957939D02*
X33546458Y-69196034D01*
X33546458Y-69196034D02*
X33594077Y-69386510D01*
X33594077Y-69386510D02*
X33641696Y-69481748D01*
X33641696Y-69481748D02*
X33689315Y-69529368D01*
X33689315Y-69529368D02*
X33784553Y-69576987D01*
X33784553Y-69576987D02*
X33879791Y-69576987D01*
X33879791Y-69576987D02*
X33975029Y-69529368D01*
X33975029Y-69529368D02*
X34022648Y-69481748D01*
X34022648Y-69481748D02*
X34070267Y-69386510D01*
X34070267Y-69386510D02*
X34117886Y-69196034D01*
X34117886Y-69196034D02*
X34117886Y-68957939D01*
X34117886Y-68957939D02*
X34070267Y-68767463D01*
X34070267Y-68767463D02*
X34022648Y-68672225D01*
X34022648Y-68672225D02*
X33975029Y-68624606D01*
X33975029Y-68624606D02*
X33879791Y-68576987D01*
X32689315Y-68576987D02*
X32879791Y-68576987D01*
X32879791Y-68576987D02*
X32975029Y-68624606D01*
X32975029Y-68624606D02*
X33022648Y-68672225D01*
X33022648Y-68672225D02*
X33117886Y-68815082D01*
X33117886Y-68815082D02*
X33165505Y-69005558D01*
X33165505Y-69005558D02*
X33165505Y-69386510D01*
X33165505Y-69386510D02*
X33117886Y-69481748D01*
X33117886Y-69481748D02*
X33070267Y-69529368D01*
X33070267Y-69529368D02*
X32975029Y-69576987D01*
X32975029Y-69576987D02*
X32784553Y-69576987D01*
X32784553Y-69576987D02*
X32689315Y-69529368D01*
X32689315Y-69529368D02*
X32641696Y-69481748D01*
X32641696Y-69481748D02*
X32594077Y-69386510D01*
X32594077Y-69386510D02*
X32594077Y-69148415D01*
X32594077Y-69148415D02*
X32641696Y-69053177D01*
X32641696Y-69053177D02*
X32689315Y-69005558D01*
X32689315Y-69005558D02*
X32784553Y-68957939D01*
X32784553Y-68957939D02*
X32975029Y-68957939D01*
X32975029Y-68957939D02*
X33070267Y-69005558D01*
X33070267Y-69005558D02*
X33117886Y-69053177D01*
X33117886Y-69053177D02*
X33165505Y-69148415D01*
X31451220Y-68529368D02*
X32308362Y-69815082D01*
X31165505Y-68672225D02*
X31117886Y-68624606D01*
X31117886Y-68624606D02*
X31022648Y-68576987D01*
X31022648Y-68576987D02*
X30784553Y-68576987D01*
X30784553Y-68576987D02*
X30689315Y-68624606D01*
X30689315Y-68624606D02*
X30641696Y-68672225D01*
X30641696Y-68672225D02*
X30594077Y-68767463D01*
X30594077Y-68767463D02*
X30594077Y-68862701D01*
X30594077Y-68862701D02*
X30641696Y-69005558D01*
X30641696Y-69005558D02*
X31213124Y-69576987D01*
X31213124Y-69576987D02*
X30594077Y-69576987D01*
X29975029Y-68576987D02*
X29879791Y-68576987D01*
X29879791Y-68576987D02*
X29784553Y-68624606D01*
X29784553Y-68624606D02*
X29736934Y-68672225D01*
X29736934Y-68672225D02*
X29689315Y-68767463D01*
X29689315Y-68767463D02*
X29641696Y-68957939D01*
X29641696Y-68957939D02*
X29641696Y-69196034D01*
X29641696Y-69196034D02*
X29689315Y-69386510D01*
X29689315Y-69386510D02*
X29736934Y-69481748D01*
X29736934Y-69481748D02*
X29784553Y-69529368D01*
X29784553Y-69529368D02*
X29879791Y-69576987D01*
X29879791Y-69576987D02*
X29975029Y-69576987D01*
X29975029Y-69576987D02*
X30070267Y-69529368D01*
X30070267Y-69529368D02*
X30117886Y-69481748D01*
X30117886Y-69481748D02*
X30165505Y-69386510D01*
X30165505Y-69386510D02*
X30213124Y-69196034D01*
X30213124Y-69196034D02*
X30213124Y-68957939D01*
X30213124Y-68957939D02*
X30165505Y-68767463D01*
X30165505Y-68767463D02*
X30117886Y-68672225D01*
X30117886Y-68672225D02*
X30070267Y-68624606D01*
X30070267Y-68624606D02*
X29975029Y-68576987D01*
X28498839Y-68529368D02*
X29355981Y-69815082D01*
X28213124Y-68672225D02*
X28165505Y-68624606D01*
X28165505Y-68624606D02*
X28070267Y-68576987D01*
X28070267Y-68576987D02*
X27832172Y-68576987D01*
X27832172Y-68576987D02*
X27736934Y-68624606D01*
X27736934Y-68624606D02*
X27689315Y-68672225D01*
X27689315Y-68672225D02*
X27641696Y-68767463D01*
X27641696Y-68767463D02*
X27641696Y-68862701D01*
X27641696Y-68862701D02*
X27689315Y-69005558D01*
X27689315Y-69005558D02*
X28260743Y-69576987D01*
X28260743Y-69576987D02*
X27641696Y-69576987D01*
X27022648Y-68576987D02*
X26927410Y-68576987D01*
X26927410Y-68576987D02*
X26832172Y-68624606D01*
X26832172Y-68624606D02*
X26784553Y-68672225D01*
X26784553Y-68672225D02*
X26736934Y-68767463D01*
X26736934Y-68767463D02*
X26689315Y-68957939D01*
X26689315Y-68957939D02*
X26689315Y-69196034D01*
X26689315Y-69196034D02*
X26736934Y-69386510D01*
X26736934Y-69386510D02*
X26784553Y-69481748D01*
X26784553Y-69481748D02*
X26832172Y-69529368D01*
X26832172Y-69529368D02*
X26927410Y-69576987D01*
X26927410Y-69576987D02*
X27022648Y-69576987D01*
X27022648Y-69576987D02*
X27117886Y-69529368D01*
X27117886Y-69529368D02*
X27165505Y-69481748D01*
X27165505Y-69481748D02*
X27213124Y-69386510D01*
X27213124Y-69386510D02*
X27260743Y-69196034D01*
X27260743Y-69196034D02*
X27260743Y-68957939D01*
X27260743Y-68957939D02*
X27213124Y-68767463D01*
X27213124Y-68767463D02*
X27165505Y-68672225D01*
X27165505Y-68672225D02*
X27117886Y-68624606D01*
X27117886Y-68624606D02*
X27022648Y-68576987D01*
X26308362Y-68672225D02*
X26260743Y-68624606D01*
X26260743Y-68624606D02*
X26165505Y-68576987D01*
X26165505Y-68576987D02*
X25927410Y-68576987D01*
X25927410Y-68576987D02*
X25832172Y-68624606D01*
X25832172Y-68624606D02*
X25784553Y-68672225D01*
X25784553Y-68672225D02*
X25736934Y-68767463D01*
X25736934Y-68767463D02*
X25736934Y-68862701D01*
X25736934Y-68862701D02*
X25784553Y-69005558D01*
X25784553Y-69005558D02*
X26355981Y-69576987D01*
X26355981Y-69576987D02*
X25736934Y-69576987D01*
X24832172Y-68576987D02*
X25308362Y-68576987D01*
X25308362Y-68576987D02*
X25355981Y-69053177D01*
X25355981Y-69053177D02*
X25308362Y-69005558D01*
X25308362Y-69005558D02*
X25213124Y-68957939D01*
X25213124Y-68957939D02*
X24975029Y-68957939D01*
X24975029Y-68957939D02*
X24879791Y-69005558D01*
X24879791Y-69005558D02*
X24832172Y-69053177D01*
X24832172Y-69053177D02*
X24784553Y-69148415D01*
X24784553Y-69148415D02*
X24784553Y-69386510D01*
X24784553Y-69386510D02*
X24832172Y-69481748D01*
X24832172Y-69481748D02*
X24879791Y-69529368D01*
X24879791Y-69529368D02*
X24975029Y-69576987D01*
X24975029Y-69576987D02*
X25213124Y-69576987D01*
X25213124Y-69576987D02*
X25308362Y-69529368D01*
X25308362Y-69529368D02*
X25355981Y-69481748D01*
X43498839Y-70901216D02*
X43022649Y-70901216D01*
X43594077Y-71186931D02*
X43260744Y-70186931D01*
X43260744Y-70186931D02*
X42927411Y-71186931D01*
X42165506Y-70520264D02*
X42165506Y-71186931D01*
X42594077Y-70520264D02*
X42594077Y-71044073D01*
X42594077Y-71044073D02*
X42546458Y-71139312D01*
X42546458Y-71139312D02*
X42451220Y-71186931D01*
X42451220Y-71186931D02*
X42308363Y-71186931D01*
X42308363Y-71186931D02*
X42213125Y-71139312D01*
X42213125Y-71139312D02*
X42165506Y-71091692D01*
X41689315Y-71186931D02*
X41689315Y-70186931D01*
X41689315Y-70567883D02*
X41594077Y-70520264D01*
X41594077Y-70520264D02*
X41403601Y-70520264D01*
X41403601Y-70520264D02*
X41308363Y-70567883D01*
X41308363Y-70567883D02*
X41260744Y-70615502D01*
X41260744Y-70615502D02*
X41213125Y-70710740D01*
X41213125Y-70710740D02*
X41213125Y-70996454D01*
X41213125Y-70996454D02*
X41260744Y-71091692D01*
X41260744Y-71091692D02*
X41308363Y-71139312D01*
X41308363Y-71139312D02*
X41403601Y-71186931D01*
X41403601Y-71186931D02*
X41594077Y-71186931D01*
X41594077Y-71186931D02*
X41689315Y-71139312D01*
X40355982Y-70520264D02*
X40355982Y-71186931D01*
X40784553Y-70520264D02*
X40784553Y-71044073D01*
X40784553Y-71044073D02*
X40736934Y-71139312D01*
X40736934Y-71139312D02*
X40641696Y-71186931D01*
X40641696Y-71186931D02*
X40498839Y-71186931D01*
X40498839Y-71186931D02*
X40403601Y-71139312D01*
X40403601Y-71139312D02*
X40355982Y-71091692D01*
X39879791Y-71186931D02*
X39879791Y-70520264D01*
X39879791Y-70710740D02*
X39832172Y-70615502D01*
X39832172Y-70615502D02*
X39784553Y-70567883D01*
X39784553Y-70567883D02*
X39689315Y-70520264D01*
X39689315Y-70520264D02*
X39594077Y-70520264D01*
X39260743Y-70520264D02*
X39260743Y-71186931D01*
X39260743Y-70615502D02*
X39213124Y-70567883D01*
X39213124Y-70567883D02*
X39117886Y-70520264D01*
X39117886Y-70520264D02*
X38975029Y-70520264D01*
X38975029Y-70520264D02*
X38879791Y-70567883D01*
X38879791Y-70567883D02*
X38832172Y-70663121D01*
X38832172Y-70663121D02*
X38832172Y-71186931D01*
X37641696Y-70139312D02*
X38498838Y-71425026D01*
X37308362Y-70186931D02*
X37308362Y-70996454D01*
X37308362Y-70996454D02*
X37260743Y-71091692D01*
X37260743Y-71091692D02*
X37213124Y-71139312D01*
X37213124Y-71139312D02*
X37117886Y-71186931D01*
X37117886Y-71186931D02*
X36927410Y-71186931D01*
X36927410Y-71186931D02*
X36832172Y-71139312D01*
X36832172Y-71139312D02*
X36784553Y-71091692D01*
X36784553Y-71091692D02*
X36736934Y-70996454D01*
X36736934Y-70996454D02*
X36736934Y-70186931D01*
X36308362Y-71139312D02*
X36165505Y-71186931D01*
X36165505Y-71186931D02*
X35927410Y-71186931D01*
X35927410Y-71186931D02*
X35832172Y-71139312D01*
X35832172Y-71139312D02*
X35784553Y-71091692D01*
X35784553Y-71091692D02*
X35736934Y-70996454D01*
X35736934Y-70996454D02*
X35736934Y-70901216D01*
X35736934Y-70901216D02*
X35784553Y-70805978D01*
X35784553Y-70805978D02*
X35832172Y-70758359D01*
X35832172Y-70758359D02*
X35927410Y-70710740D01*
X35927410Y-70710740D02*
X36117886Y-70663121D01*
X36117886Y-70663121D02*
X36213124Y-70615502D01*
X36213124Y-70615502D02*
X36260743Y-70567883D01*
X36260743Y-70567883D02*
X36308362Y-70472645D01*
X36308362Y-70472645D02*
X36308362Y-70377407D01*
X36308362Y-70377407D02*
X36260743Y-70282169D01*
X36260743Y-70282169D02*
X36213124Y-70234550D01*
X36213124Y-70234550D02*
X36117886Y-70186931D01*
X36117886Y-70186931D02*
X35879791Y-70186931D01*
X35879791Y-70186931D02*
X35736934Y-70234550D01*
X35308362Y-71186931D02*
X35308362Y-70186931D01*
X35308362Y-70186931D02*
X35070267Y-70186931D01*
X35070267Y-70186931D02*
X34927410Y-70234550D01*
X34927410Y-70234550D02*
X34832172Y-70329788D01*
X34832172Y-70329788D02*
X34784553Y-70425026D01*
X34784553Y-70425026D02*
X34736934Y-70615502D01*
X34736934Y-70615502D02*
X34736934Y-70758359D01*
X34736934Y-70758359D02*
X34784553Y-70948835D01*
X34784553Y-70948835D02*
X34832172Y-71044073D01*
X34832172Y-71044073D02*
X34927410Y-71139312D01*
X34927410Y-71139312D02*
X35070267Y-71186931D01*
X35070267Y-71186931D02*
X35308362Y-71186931D01*
X34355981Y-70901216D02*
X33879791Y-70901216D01*
X34451219Y-71186931D02*
X34117886Y-70186931D01*
X34117886Y-70186931D02*
X33784553Y-71186931D01*
X33213124Y-71520264D02*
X33213124Y-70091692D01*
X32498838Y-71186931D02*
X32498838Y-70186931D01*
X32498838Y-70663121D02*
X31927410Y-70663121D01*
X31927410Y-71186931D02*
X31927410Y-70186931D01*
X31451219Y-71186931D02*
X31451219Y-70186931D01*
X31451219Y-70186931D02*
X31117886Y-70901216D01*
X31117886Y-70901216D02*
X30784553Y-70186931D01*
X30784553Y-70186931D02*
X30784553Y-71186931D01*
X29736934Y-71091692D02*
X29784553Y-71139312D01*
X29784553Y-71139312D02*
X29927410Y-71186931D01*
X29927410Y-71186931D02*
X30022648Y-71186931D01*
X30022648Y-71186931D02*
X30165505Y-71139312D01*
X30165505Y-71139312D02*
X30260743Y-71044073D01*
X30260743Y-71044073D02*
X30308362Y-70948835D01*
X30308362Y-70948835D02*
X30355981Y-70758359D01*
X30355981Y-70758359D02*
X30355981Y-70615502D01*
X30355981Y-70615502D02*
X30308362Y-70425026D01*
X30308362Y-70425026D02*
X30260743Y-70329788D01*
X30260743Y-70329788D02*
X30165505Y-70234550D01*
X30165505Y-70234550D02*
X30022648Y-70186931D01*
X30022648Y-70186931D02*
X29927410Y-70186931D01*
X29927410Y-70186931D02*
X29784553Y-70234550D01*
X29784553Y-70234550D02*
X29736934Y-70282169D01*
X28594076Y-70901216D02*
X28117886Y-70901216D01*
X28689314Y-71186931D02*
X28355981Y-70186931D01*
X28355981Y-70186931D02*
X28022648Y-71186931D01*
X27117886Y-71091692D02*
X27165505Y-71139312D01*
X27165505Y-71139312D02*
X27308362Y-71186931D01*
X27308362Y-71186931D02*
X27403600Y-71186931D01*
X27403600Y-71186931D02*
X27546457Y-71139312D01*
X27546457Y-71139312D02*
X27641695Y-71044073D01*
X27641695Y-71044073D02*
X27689314Y-70948835D01*
X27689314Y-70948835D02*
X27736933Y-70758359D01*
X27736933Y-70758359D02*
X27736933Y-70615502D01*
X27736933Y-70615502D02*
X27689314Y-70425026D01*
X27689314Y-70425026D02*
X27641695Y-70329788D01*
X27641695Y-70329788D02*
X27546457Y-70234550D01*
X27546457Y-70234550D02*
X27403600Y-70186931D01*
X27403600Y-70186931D02*
X27308362Y-70186931D01*
X27308362Y-70186931D02*
X27165505Y-70234550D01*
X27165505Y-70234550D02*
X27117886Y-70282169D01*
X26689314Y-70663121D02*
X26355981Y-70663121D01*
X26213124Y-71186931D02*
X26689314Y-71186931D01*
X26689314Y-71186931D02*
X26689314Y-70186931D01*
X26689314Y-70186931D02*
X26213124Y-70186931D01*
X24546457Y-71186931D02*
X25022647Y-71186931D01*
X25022647Y-71186931D02*
X25022647Y-70186931D01*
X23784552Y-71186931D02*
X23784552Y-70663121D01*
X23784552Y-70663121D02*
X23832171Y-70567883D01*
X23832171Y-70567883D02*
X23927409Y-70520264D01*
X23927409Y-70520264D02*
X24117885Y-70520264D01*
X24117885Y-70520264D02*
X24213123Y-70567883D01*
X23784552Y-71139312D02*
X23879790Y-71186931D01*
X23879790Y-71186931D02*
X24117885Y-71186931D01*
X24117885Y-71186931D02*
X24213123Y-71139312D01*
X24213123Y-71139312D02*
X24260742Y-71044073D01*
X24260742Y-71044073D02*
X24260742Y-70948835D01*
X24260742Y-70948835D02*
X24213123Y-70853597D01*
X24213123Y-70853597D02*
X24117885Y-70805978D01*
X24117885Y-70805978D02*
X23879790Y-70805978D01*
X23879790Y-70805978D02*
X23784552Y-70758359D01*
X23308361Y-71186931D02*
X23308361Y-70186931D01*
X23308361Y-70567883D02*
X23213123Y-70520264D01*
X23213123Y-70520264D02*
X23022647Y-70520264D01*
X23022647Y-70520264D02*
X22927409Y-70567883D01*
X22927409Y-70567883D02*
X22879790Y-70615502D01*
X22879790Y-70615502D02*
X22832171Y-70710740D01*
X22832171Y-70710740D02*
X22832171Y-70996454D01*
X22832171Y-70996454D02*
X22879790Y-71091692D01*
X22879790Y-71091692D02*
X22927409Y-71139312D01*
X22927409Y-71139312D02*
X23022647Y-71186931D01*
X23022647Y-71186931D02*
X23213123Y-71186931D01*
X23213123Y-71186931D02*
X23308361Y-71139312D01*
X43451220Y-74406819D02*
X43451220Y-73406819D01*
X43451220Y-73406819D02*
X43070268Y-73406819D01*
X43070268Y-73406819D02*
X42975030Y-73454438D01*
X42975030Y-73454438D02*
X42927411Y-73502057D01*
X42927411Y-73502057D02*
X42879792Y-73597295D01*
X42879792Y-73597295D02*
X42879792Y-73740152D01*
X42879792Y-73740152D02*
X42927411Y-73835390D01*
X42927411Y-73835390D02*
X42975030Y-73883009D01*
X42975030Y-73883009D02*
X43070268Y-73930628D01*
X43070268Y-73930628D02*
X43451220Y-73930628D01*
X42451220Y-74406819D02*
X42451220Y-73740152D01*
X42451220Y-73406819D02*
X42498839Y-73454438D01*
X42498839Y-73454438D02*
X42451220Y-73502057D01*
X42451220Y-73502057D02*
X42403601Y-73454438D01*
X42403601Y-73454438D02*
X42451220Y-73406819D01*
X42451220Y-73406819D02*
X42451220Y-73502057D01*
X41594078Y-74359200D02*
X41689316Y-74406819D01*
X41689316Y-74406819D02*
X41879792Y-74406819D01*
X41879792Y-74406819D02*
X41975030Y-74359200D01*
X41975030Y-74359200D02*
X42022649Y-74263961D01*
X42022649Y-74263961D02*
X42022649Y-73883009D01*
X42022649Y-73883009D02*
X41975030Y-73787771D01*
X41975030Y-73787771D02*
X41879792Y-73740152D01*
X41879792Y-73740152D02*
X41689316Y-73740152D01*
X41689316Y-73740152D02*
X41594078Y-73787771D01*
X41594078Y-73787771D02*
X41546459Y-73883009D01*
X41546459Y-73883009D02*
X41546459Y-73978247D01*
X41546459Y-73978247D02*
X42022649Y-74073485D01*
X41117887Y-74406819D02*
X41117887Y-73740152D01*
X41117887Y-73930628D02*
X41070268Y-73835390D01*
X41070268Y-73835390D02*
X41022649Y-73787771D01*
X41022649Y-73787771D02*
X40927411Y-73740152D01*
X40927411Y-73740152D02*
X40832173Y-73740152D01*
X40070268Y-74359200D02*
X40165506Y-74406819D01*
X40165506Y-74406819D02*
X40355982Y-74406819D01*
X40355982Y-74406819D02*
X40451220Y-74359200D01*
X40451220Y-74359200D02*
X40498839Y-74311580D01*
X40498839Y-74311580D02*
X40546458Y-74216342D01*
X40546458Y-74216342D02*
X40546458Y-73930628D01*
X40546458Y-73930628D02*
X40498839Y-73835390D01*
X40498839Y-73835390D02*
X40451220Y-73787771D01*
X40451220Y-73787771D02*
X40355982Y-73740152D01*
X40355982Y-73740152D02*
X40165506Y-73740152D01*
X40165506Y-73740152D02*
X40070268Y-73787771D01*
X39260744Y-74359200D02*
X39355982Y-74406819D01*
X39355982Y-74406819D02*
X39546458Y-74406819D01*
X39546458Y-74406819D02*
X39641696Y-74359200D01*
X39641696Y-74359200D02*
X39689315Y-74263961D01*
X39689315Y-74263961D02*
X39689315Y-73883009D01*
X39689315Y-73883009D02*
X39641696Y-73787771D01*
X39641696Y-73787771D02*
X39546458Y-73740152D01*
X39546458Y-73740152D02*
X39355982Y-73740152D01*
X39355982Y-73740152D02*
X39260744Y-73787771D01*
X39260744Y-73787771D02*
X39213125Y-73883009D01*
X39213125Y-73883009D02*
X39213125Y-73978247D01*
X39213125Y-73978247D02*
X39689315Y-74073485D01*
X37498839Y-73454438D02*
X37594077Y-73406819D01*
X37594077Y-73406819D02*
X37736934Y-73406819D01*
X37736934Y-73406819D02*
X37879791Y-73454438D01*
X37879791Y-73454438D02*
X37975029Y-73549676D01*
X37975029Y-73549676D02*
X38022648Y-73644914D01*
X38022648Y-73644914D02*
X38070267Y-73835390D01*
X38070267Y-73835390D02*
X38070267Y-73978247D01*
X38070267Y-73978247D02*
X38022648Y-74168723D01*
X38022648Y-74168723D02*
X37975029Y-74263961D01*
X37975029Y-74263961D02*
X37879791Y-74359200D01*
X37879791Y-74359200D02*
X37736934Y-74406819D01*
X37736934Y-74406819D02*
X37641696Y-74406819D01*
X37641696Y-74406819D02*
X37498839Y-74359200D01*
X37498839Y-74359200D02*
X37451220Y-74311580D01*
X37451220Y-74311580D02*
X37451220Y-73978247D01*
X37451220Y-73978247D02*
X37641696Y-73978247D01*
X37022648Y-74406819D02*
X37022648Y-73740152D01*
X37022648Y-73930628D02*
X36975029Y-73835390D01*
X36975029Y-73835390D02*
X36927410Y-73787771D01*
X36927410Y-73787771D02*
X36832172Y-73740152D01*
X36832172Y-73740152D02*
X36736934Y-73740152D01*
X35975029Y-73740152D02*
X35975029Y-74406819D01*
X36403600Y-73740152D02*
X36403600Y-74263961D01*
X36403600Y-74263961D02*
X36355981Y-74359200D01*
X36355981Y-74359200D02*
X36260743Y-74406819D01*
X36260743Y-74406819D02*
X36117886Y-74406819D01*
X36117886Y-74406819D02*
X36022648Y-74359200D01*
X36022648Y-74359200D02*
X35975029Y-74311580D01*
X35498838Y-74406819D02*
X35498838Y-73406819D01*
X35498838Y-73787771D02*
X35403600Y-73740152D01*
X35403600Y-73740152D02*
X35213124Y-73740152D01*
X35213124Y-73740152D02*
X35117886Y-73787771D01*
X35117886Y-73787771D02*
X35070267Y-73835390D01*
X35070267Y-73835390D02*
X35022648Y-73930628D01*
X35022648Y-73930628D02*
X35022648Y-74216342D01*
X35022648Y-74216342D02*
X35070267Y-74311580D01*
X35070267Y-74311580D02*
X35117886Y-74359200D01*
X35117886Y-74359200D02*
X35213124Y-74406819D01*
X35213124Y-74406819D02*
X35403600Y-74406819D01*
X35403600Y-74406819D02*
X35498838Y-74359200D01*
X34213124Y-74359200D02*
X34308362Y-74406819D01*
X34308362Y-74406819D02*
X34498838Y-74406819D01*
X34498838Y-74406819D02*
X34594076Y-74359200D01*
X34594076Y-74359200D02*
X34641695Y-74263961D01*
X34641695Y-74263961D02*
X34641695Y-73883009D01*
X34641695Y-73883009D02*
X34594076Y-73787771D01*
X34594076Y-73787771D02*
X34498838Y-73740152D01*
X34498838Y-73740152D02*
X34308362Y-73740152D01*
X34308362Y-73740152D02*
X34213124Y-73787771D01*
X34213124Y-73787771D02*
X34165505Y-73883009D01*
X34165505Y-73883009D02*
X34165505Y-73978247D01*
X34165505Y-73978247D02*
X34641695Y-74073485D01*
X33736933Y-74406819D02*
X33736933Y-73740152D01*
X33736933Y-73930628D02*
X33689314Y-73835390D01*
X33689314Y-73835390D02*
X33641695Y-73787771D01*
X33641695Y-73787771D02*
X33546457Y-73740152D01*
X33546457Y-73740152D02*
X33451219Y-73740152D01*
X32308361Y-73406819D02*
X32403599Y-73597295D01*
X31927409Y-73502057D02*
X31879790Y-73454438D01*
X31879790Y-73454438D02*
X31784552Y-73406819D01*
X31784552Y-73406819D02*
X31546457Y-73406819D01*
X31546457Y-73406819D02*
X31451219Y-73454438D01*
X31451219Y-73454438D02*
X31403600Y-73502057D01*
X31403600Y-73502057D02*
X31355981Y-73597295D01*
X31355981Y-73597295D02*
X31355981Y-73692533D01*
X31355981Y-73692533D02*
X31403600Y-73835390D01*
X31403600Y-73835390D02*
X31975028Y-74406819D01*
X31975028Y-74406819D02*
X31355981Y-74406819D01*
X30451219Y-73406819D02*
X30927409Y-73406819D01*
X30927409Y-73406819D02*
X30975028Y-73883009D01*
X30975028Y-73883009D02*
X30927409Y-73835390D01*
X30927409Y-73835390D02*
X30832171Y-73787771D01*
X30832171Y-73787771D02*
X30594076Y-73787771D01*
X30594076Y-73787771D02*
X30498838Y-73835390D01*
X30498838Y-73835390D02*
X30451219Y-73883009D01*
X30451219Y-73883009D02*
X30403600Y-73978247D01*
X30403600Y-73978247D02*
X30403600Y-74216342D01*
X30403600Y-74216342D02*
X30451219Y-74311580D01*
X30451219Y-74311580D02*
X30498838Y-74359200D01*
X30498838Y-74359200D02*
X30594076Y-74406819D01*
X30594076Y-74406819D02*
X30832171Y-74406819D01*
X30832171Y-74406819D02*
X30927409Y-74359200D01*
X30927409Y-74359200D02*
X30975028Y-74311580D01*
X29927409Y-74359200D02*
X29927409Y-74406819D01*
X29927409Y-74406819D02*
X29975028Y-74502057D01*
X29975028Y-74502057D02*
X30022647Y-74549676D01*
X28736933Y-73883009D02*
X28403600Y-73883009D01*
X28260743Y-74406819D02*
X28736933Y-74406819D01*
X28736933Y-74406819D02*
X28736933Y-73406819D01*
X28736933Y-73406819D02*
X28260743Y-73406819D01*
X27832171Y-74406819D02*
X27832171Y-73740152D01*
X27832171Y-73835390D02*
X27784552Y-73787771D01*
X27784552Y-73787771D02*
X27689314Y-73740152D01*
X27689314Y-73740152D02*
X27546457Y-73740152D01*
X27546457Y-73740152D02*
X27451219Y-73787771D01*
X27451219Y-73787771D02*
X27403600Y-73883009D01*
X27403600Y-73883009D02*
X27403600Y-74406819D01*
X27403600Y-73883009D02*
X27355981Y-73787771D01*
X27355981Y-73787771D02*
X27260743Y-73740152D01*
X27260743Y-73740152D02*
X27117886Y-73740152D01*
X27117886Y-73740152D02*
X27022647Y-73787771D01*
X27022647Y-73787771D02*
X26975028Y-73883009D01*
X26975028Y-73883009D02*
X26975028Y-74406819D01*
X26498838Y-74406819D02*
X26498838Y-73740152D01*
X26498838Y-73835390D02*
X26451219Y-73787771D01*
X26451219Y-73787771D02*
X26355981Y-73740152D01*
X26355981Y-73740152D02*
X26213124Y-73740152D01*
X26213124Y-73740152D02*
X26117886Y-73787771D01*
X26117886Y-73787771D02*
X26070267Y-73883009D01*
X26070267Y-73883009D02*
X26070267Y-74406819D01*
X26070267Y-73883009D02*
X26022648Y-73787771D01*
X26022648Y-73787771D02*
X25927410Y-73740152D01*
X25927410Y-73740152D02*
X25784553Y-73740152D01*
X25784553Y-73740152D02*
X25689314Y-73787771D01*
X25689314Y-73787771D02*
X25641695Y-73883009D01*
X25641695Y-73883009D02*
X25641695Y-74406819D01*
X24736934Y-74406819D02*
X24736934Y-73883009D01*
X24736934Y-73883009D02*
X24784553Y-73787771D01*
X24784553Y-73787771D02*
X24879791Y-73740152D01*
X24879791Y-73740152D02*
X25070267Y-73740152D01*
X25070267Y-73740152D02*
X25165505Y-73787771D01*
X24736934Y-74359200D02*
X24832172Y-74406819D01*
X24832172Y-74406819D02*
X25070267Y-74406819D01*
X25070267Y-74406819D02*
X25165505Y-74359200D01*
X25165505Y-74359200D02*
X25213124Y-74263961D01*
X25213124Y-74263961D02*
X25213124Y-74168723D01*
X25213124Y-74168723D02*
X25165505Y-74073485D01*
X25165505Y-74073485D02*
X25070267Y-74025866D01*
X25070267Y-74025866D02*
X24832172Y-74025866D01*
X24832172Y-74025866D02*
X24736934Y-73978247D01*
X23546457Y-74121104D02*
X23070267Y-74121104D01*
X23641695Y-74406819D02*
X23308362Y-73406819D01*
X23308362Y-73406819D02*
X22975029Y-74406819D01*
X22641695Y-73740152D02*
X22641695Y-74406819D01*
X22641695Y-73835390D02*
X22594076Y-73787771D01*
X22594076Y-73787771D02*
X22498838Y-73740152D01*
X22498838Y-73740152D02*
X22355981Y-73740152D01*
X22355981Y-73740152D02*
X22260743Y-73787771D01*
X22260743Y-73787771D02*
X22213124Y-73883009D01*
X22213124Y-73883009D02*
X22213124Y-74406819D01*
X21308362Y-73740152D02*
X21308362Y-74549676D01*
X21308362Y-74549676D02*
X21355981Y-74644914D01*
X21355981Y-74644914D02*
X21403600Y-74692533D01*
X21403600Y-74692533D02*
X21498838Y-74740152D01*
X21498838Y-74740152D02*
X21641695Y-74740152D01*
X21641695Y-74740152D02*
X21736933Y-74692533D01*
X21308362Y-74359200D02*
X21403600Y-74406819D01*
X21403600Y-74406819D02*
X21594076Y-74406819D01*
X21594076Y-74406819D02*
X21689314Y-74359200D01*
X21689314Y-74359200D02*
X21736933Y-74311580D01*
X21736933Y-74311580D02*
X21784552Y-74216342D01*
X21784552Y-74216342D02*
X21784552Y-73930628D01*
X21784552Y-73930628D02*
X21736933Y-73835390D01*
X21736933Y-73835390D02*
X21689314Y-73787771D01*
X21689314Y-73787771D02*
X21594076Y-73740152D01*
X21594076Y-73740152D02*
X21403600Y-73740152D01*
X21403600Y-73740152D02*
X21308362Y-73787771D01*
X20451219Y-74359200D02*
X20546457Y-74406819D01*
X20546457Y-74406819D02*
X20736933Y-74406819D01*
X20736933Y-74406819D02*
X20832171Y-74359200D01*
X20832171Y-74359200D02*
X20879790Y-74263961D01*
X20879790Y-74263961D02*
X20879790Y-73883009D01*
X20879790Y-73883009D02*
X20832171Y-73787771D01*
X20832171Y-73787771D02*
X20736933Y-73740152D01*
X20736933Y-73740152D02*
X20546457Y-73740152D01*
X20546457Y-73740152D02*
X20451219Y-73787771D01*
X20451219Y-73787771D02*
X20403600Y-73883009D01*
X20403600Y-73883009D02*
X20403600Y-73978247D01*
X20403600Y-73978247D02*
X20879790Y-74073485D01*
X19832171Y-74406819D02*
X19927409Y-74359200D01*
X19927409Y-74359200D02*
X19975028Y-74263961D01*
X19975028Y-74263961D02*
X19975028Y-73406819D01*
X18641694Y-73406819D02*
X18736932Y-73597295D01*
X18260742Y-73502057D02*
X18213123Y-73454438D01*
X18213123Y-73454438D02*
X18117885Y-73406819D01*
X18117885Y-73406819D02*
X17879790Y-73406819D01*
X17879790Y-73406819D02*
X17784552Y-73454438D01*
X17784552Y-73454438D02*
X17736933Y-73502057D01*
X17736933Y-73502057D02*
X17689314Y-73597295D01*
X17689314Y-73597295D02*
X17689314Y-73692533D01*
X17689314Y-73692533D02*
X17736933Y-73835390D01*
X17736933Y-73835390D02*
X18308361Y-74406819D01*
X18308361Y-74406819D02*
X17689314Y-74406819D01*
X16832171Y-73406819D02*
X17022647Y-73406819D01*
X17022647Y-73406819D02*
X17117885Y-73454438D01*
X17117885Y-73454438D02*
X17165504Y-73502057D01*
X17165504Y-73502057D02*
X17260742Y-73644914D01*
X17260742Y-73644914D02*
X17308361Y-73835390D01*
X17308361Y-73835390D02*
X17308361Y-74216342D01*
X17308361Y-74216342D02*
X17260742Y-74311580D01*
X17260742Y-74311580D02*
X17213123Y-74359200D01*
X17213123Y-74359200D02*
X17117885Y-74406819D01*
X17117885Y-74406819D02*
X16927409Y-74406819D01*
X16927409Y-74406819D02*
X16832171Y-74359200D01*
X16832171Y-74359200D02*
X16784552Y-74311580D01*
X16784552Y-74311580D02*
X16736933Y-74216342D01*
X16736933Y-74216342D02*
X16736933Y-73978247D01*
X16736933Y-73978247D02*
X16784552Y-73883009D01*
X16784552Y-73883009D02*
X16832171Y-73835390D01*
X16832171Y-73835390D02*
X16927409Y-73787771D01*
X16927409Y-73787771D02*
X17117885Y-73787771D01*
X17117885Y-73787771D02*
X17213123Y-73835390D01*
X17213123Y-73835390D02*
X17260742Y-73883009D01*
X17260742Y-73883009D02*
X17308361Y-73978247D01*
%LPC*%
D11*
X85968000Y-58107000D03*
X83433000Y-65802000D03*
X75768000Y-60577000D03*
X80888000Y-60647000D03*
X68153000Y-65732000D03*
X75773000Y-65732000D03*
X73228000Y-58037000D03*
X70688000Y-58037000D03*
X70728000Y-63187000D03*
X73228000Y-60577000D03*
X68148000Y-60577000D03*
X73233000Y-65732000D03*
X80888000Y-58107000D03*
X68188000Y-63187000D03*
X80888000Y-63187000D03*
X78348000Y-60647000D03*
X83428000Y-60647000D03*
X75808000Y-63187000D03*
X75768000Y-58037000D03*
X85968000Y-63187000D03*
X70693000Y-65732000D03*
X83428000Y-63187000D03*
X68148000Y-58037000D03*
X70688000Y-60577000D03*
X80893000Y-65802000D03*
X78353000Y-65802000D03*
X85973000Y-65802000D03*
X73268000Y-63187000D03*
X78348000Y-58107000D03*
X85968000Y-60647000D03*
X83428000Y-58107000D03*
X78348000Y-63187000D03*
D12*
X47778000Y-71949500D03*
D13*
X55398000Y-66869500D03*
D12*
X57938000Y-71949500D03*
D13*
X52858000Y-66869500D03*
D12*
X17925500Y-41957000D03*
D13*
X23005500Y-49577000D03*
D12*
X17925500Y-52117000D03*
D13*
X23005500Y-47037000D03*
D14*
X135708000Y-20677000D03*
X53158000Y-20677000D03*
X21408000Y-59412000D03*
X135708000Y-68937000D03*
D11*
X20708000Y-30527000D03*
X28328000Y-30527000D03*
X25788000Y-17827000D03*
X30868000Y-20367000D03*
X23248000Y-22907000D03*
X41103000Y-25442000D03*
X41103000Y-15282000D03*
X18168000Y-22907000D03*
X30868000Y-15287000D03*
X20708000Y-25447000D03*
X15628000Y-30527000D03*
X15628000Y-25447000D03*
X28328000Y-33067000D03*
X35948000Y-27987000D03*
X30868000Y-25447000D03*
X33408000Y-15287000D03*
X36018000Y-15247000D03*
X36018000Y-22867000D03*
X46183000Y-27982000D03*
X38558000Y-20327000D03*
D15*
X144538000Y-21417000D03*
D16*
X144538000Y-18877000D03*
D11*
X73308000Y-71517000D03*
X35948000Y-33067000D03*
X43713000Y-20322000D03*
X18168000Y-27987000D03*
X43713000Y-15242000D03*
X73308000Y-74057000D03*
X41103000Y-17822000D03*
X46253000Y-17782000D03*
X30868000Y-22907000D03*
X28328000Y-25447000D03*
D17*
X85719200Y-34097000D03*
X85719200Y-31557000D03*
X88259200Y-34097000D03*
X88259200Y-31557000D03*
X90799200Y-34097000D03*
X90799200Y-31557000D03*
X93339200Y-34097000D03*
X93339200Y-31557000D03*
X95879200Y-34097000D03*
X95879200Y-31557000D03*
X98419200Y-34097000D03*
D18*
X98419200Y-31557000D03*
D11*
X25788000Y-27987000D03*
X46253000Y-20322000D03*
X28328000Y-17827000D03*
X33408000Y-33067000D03*
X38558000Y-22867000D03*
X38558000Y-15247000D03*
X23248000Y-25447000D03*
X18168000Y-20367000D03*
X33408000Y-27987000D03*
X43643000Y-27982000D03*
X18168000Y-30527000D03*
X33408000Y-17827000D03*
X18168000Y-17827000D03*
X20708000Y-33067000D03*
X18168000Y-25447000D03*
X20708000Y-15287000D03*
X23248000Y-15287000D03*
X15628000Y-20367000D03*
D19*
X76810500Y-35677000D03*
X76810500Y-38177000D03*
X76810500Y-40677000D03*
X80110500Y-35677000D03*
X80110500Y-38177000D03*
D20*
X80110500Y-40677000D03*
D11*
X43643000Y-25442000D03*
X15628000Y-22907000D03*
X15628000Y-27987000D03*
X78388000Y-71517000D03*
X28328000Y-27987000D03*
X41103000Y-27982000D03*
X25788000Y-22907000D03*
X30868000Y-27987000D03*
X20708000Y-17827000D03*
X75848000Y-71517000D03*
X30868000Y-30527000D03*
X78388000Y-74057000D03*
D21*
X142010000Y-55555920D03*
D22*
X142010000Y-50475920D03*
X142010000Y-45395920D03*
D11*
X23248000Y-20367000D03*
X43643000Y-33062000D03*
X25788000Y-30527000D03*
X46183000Y-30522000D03*
X15628000Y-33067000D03*
X23248000Y-30527000D03*
X20708000Y-20367000D03*
D18*
X107543000Y-73918000D03*
D17*
X107543000Y-71378000D03*
X110083000Y-73918000D03*
X110083000Y-71378000D03*
X112623000Y-73918000D03*
X112623000Y-71378000D03*
X115163000Y-73918000D03*
X115163000Y-71378000D03*
X117703000Y-73918000D03*
X117703000Y-71378000D03*
X120243000Y-73918000D03*
X120243000Y-71378000D03*
X122783000Y-73918000D03*
X122783000Y-71378000D03*
X125323000Y-73918000D03*
X125323000Y-71378000D03*
X127863000Y-73918000D03*
X127863000Y-71378000D03*
X130403000Y-73918000D03*
X130403000Y-71378000D03*
D11*
X46183000Y-25442000D03*
X35948000Y-25447000D03*
X33408000Y-30527000D03*
X25788000Y-20367000D03*
X41103000Y-20362000D03*
X38488000Y-33067000D03*
X75848000Y-74057000D03*
X38488000Y-25447000D03*
X18168000Y-15287000D03*
X43713000Y-17782000D03*
X38488000Y-27987000D03*
D15*
X123568000Y-17302000D03*
D16*
X123568000Y-19842000D03*
X123568000Y-22382000D03*
X123568000Y-24922000D03*
D11*
X46253000Y-15242000D03*
X20708000Y-22907000D03*
X28328000Y-20367000D03*
X33408000Y-22907000D03*
X23248000Y-33067000D03*
X41103000Y-30522000D03*
X35948000Y-30527000D03*
X33408000Y-20367000D03*
X15628000Y-17827000D03*
X38558000Y-17787000D03*
X33408000Y-25447000D03*
X23248000Y-27987000D03*
X46253000Y-22862000D03*
X41103000Y-22902000D03*
X41103000Y-33062000D03*
X28328000Y-22907000D03*
X15628000Y-15287000D03*
D18*
X90248000Y-73928000D03*
D17*
X90248000Y-71388000D03*
X92788000Y-73928000D03*
X92788000Y-71388000D03*
X95328000Y-73928000D03*
X95328000Y-71388000D03*
X97868000Y-73928000D03*
X97868000Y-71388000D03*
X100408000Y-73928000D03*
X100408000Y-71388000D03*
X102948000Y-73928000D03*
X102948000Y-71388000D03*
D11*
X43643000Y-30522000D03*
X23248000Y-17827000D03*
X145708000Y-29527000D03*
X145708000Y-33527000D03*
X145708000Y-37527000D03*
X143208000Y-29527000D03*
X143208000Y-33527000D03*
X143208000Y-37527000D03*
D23*
X147458000Y-27527000D03*
X141458000Y-27527000D03*
X147458000Y-39527000D03*
X141458000Y-39527000D03*
D11*
X36018000Y-17787000D03*
X20708000Y-27987000D03*
X18168000Y-33067000D03*
X25788000Y-33067000D03*
X25788000Y-25447000D03*
X28328000Y-15287000D03*
X30868000Y-17827000D03*
X43713000Y-22862000D03*
X25788000Y-15287000D03*
X36018000Y-20327000D03*
X46183000Y-33062000D03*
X38488000Y-30527000D03*
X30868000Y-33067000D03*
%LPD*%
M02*
