M48
; DRILL file {KiCad 8.0.6} date 2025-06-21T10:27:49-0700
; FORMAT={-:-/ absolute / metric / decimal}
; #@! TF.CreationDate,2025-06-21T10:27:49-07:00
; #@! TF.GenerationSoftware,Kicad,Pcbnew,8.0.6
; #@! TF.FileFunction,Plated,1,4,PTH
FMAT,2
METRIC
; #@! TA.AperFunction,Plated,PTH,ViaDrill
T1C0.400
; #@! TA.AperFunction,Plated,PTH,ComponentDrill
T2C0.889
; #@! TA.AperFunction,Plated,PTH,ComponentDrill
T3C0.900
; #@! TA.AperFunction,Plated,PTH,ComponentDrill
T4C1.000
; #@! TA.AperFunction,Plated,PTH,ComponentDrill
T5C1.100
; #@! TA.AperFunction,Plated,PTH,ComponentDrill
T6C1.200
; #@! TA.AperFunction,Plated,PTH,ComponentDrill
T7C1.300
; #@! TA.AperFunction,Plated,PTH,ComponentDrill
T8C2.007
; #@! TA.AperFunction,Plated,PTH,ComponentDrill
T9C3.200
%
G90
G05
T1
X16.715Y-71.094
X20.253Y-63.269
X22.328Y-63.194
X23.353Y-70.207
X25.853Y-66.557
X28.908Y-69.937
X29.628Y-37.432
X29.79Y-74.367
X31.09Y-37.319
X34.413Y-38.747
X34.87Y-70.715
X36.453Y-54.4
X37.578Y-58.404
X38.426Y-54.459
X39.753Y-70.232
X40.087Y-36.227
X40.087Y-38.337
X42.236Y-53.697
X43.115Y-60.27
X44.158Y-37.667
X44.598Y-47.837
X44.658Y-52.417
X44.828Y-70.577
X48.623Y-38.977
X50.078Y-41.632
X54.198Y-41.337
X54.218Y-48.337
X54.748Y-50.249
X55.238Y-41.487
X55.591Y-48.347
X56.398Y-53.967
X57.343Y-59.943
X58.148Y-59.35
X58.831Y-42.182
X58.953Y-58.757
X59.063Y-47.897
X59.657Y-62.258
X59.748Y-36.637
X59.798Y-57.717
X60.128Y-45.676
X60.333Y-61.521
X61.195Y-60.999
X61.603Y-38.307
X61.735Y-55.849
X61.947Y-59.866
X62.483Y-35.737
X62.873Y-48.127
X65.35Y-53.189
X67.508Y-35.737
X70.458Y-55.427
X70.493Y-38.582
X74.188Y-53.667
X74.838Y-39.717
X75.348Y-33.617
X79.378Y-52.607
X81.478Y-46.407
X81.478Y-52.582
X85.453Y-54.682
X86.428Y-43.187
X86.798Y-71.237
X87.023Y-67.652
X87.383Y-68.592
X87.398Y-70.287
X89.736Y-46.664
X90.338Y-57.667
X91.103Y-48.732
X92.503Y-44.807
X92.948Y-57.537
X95.428Y-57.467
X97.208Y-57.747
X100.941Y-41.419
X101.278Y-53.057
X104.298Y-50.217
X104.389Y-45.243
X104.828Y-58.833
X107.721Y-43.164
X107.763Y-58.122
X109.028Y-43.032
X109.608Y-39.287
X111.093Y-31.602
X113.873Y-58.942
X116.728Y-58.837
X119.748Y-58.127
X120.95Y-43.424
X120.968Y-35.614
X123.043Y-35.469
X123.138Y-43.367
X124.378Y-46.827
X125.308Y-57.677
X125.708Y-48.997
X126.178Y-39.917
X127.07Y-33.092
X127.858Y-38.683
X127.878Y-57.687
X129.028Y-41.987
X130.538Y-57.647
X130.56Y-30.554
X133.078Y-37.777
X133.138Y-51.507
X134.068Y-44.637
X134.658Y-27.437
X135.968Y-37.957
X136.108Y-34.767
X138.018Y-29.527
X138.329Y-33.508
X138.329Y-41.707
X140.608Y-67.107
X140.788Y-72.957
X147.768Y-59.397
X147.768Y-65.007
X148.248Y-70.837
X148.388Y-68.687
T2
X23.005Y-47.037
X23.005Y-49.577
X52.858Y-66.87
X55.398Y-66.87
T3
X76.81Y-35.677
X76.81Y-38.177
X76.81Y-40.677
X80.111Y-35.677
X80.111Y-38.177
X80.111Y-40.677
X143.208Y-29.527
X143.208Y-33.527
X143.208Y-37.527
X145.708Y-29.527
X145.708Y-33.527
X145.708Y-37.527
T4
X15.628Y-15.287
X15.628Y-17.827
X15.628Y-20.367
X15.628Y-22.907
X15.628Y-25.447
X15.628Y-27.987
X15.628Y-30.527
X15.628Y-33.067
X18.168Y-15.287
X18.168Y-17.827
X18.168Y-20.367
X18.168Y-22.907
X18.168Y-25.447
X18.168Y-27.987
X18.168Y-30.527
X18.168Y-33.067
X20.708Y-15.287
X20.708Y-17.827
X20.708Y-20.367
X20.708Y-22.907
X20.708Y-25.447
X20.708Y-27.987
X20.708Y-30.527
X20.708Y-33.067
X23.248Y-15.287
X23.248Y-17.827
X23.248Y-20.367
X23.248Y-22.907
X23.248Y-25.447
X23.248Y-27.987
X23.248Y-30.527
X23.248Y-33.067
X25.788Y-15.287
X25.788Y-17.827
X25.788Y-20.367
X25.788Y-22.907
X25.788Y-25.447
X25.788Y-27.987
X25.788Y-30.527
X25.788Y-33.067
X28.328Y-15.287
X28.328Y-17.827
X28.328Y-20.367
X28.328Y-22.907
X28.328Y-25.447
X28.328Y-27.987
X28.328Y-30.527
X28.328Y-33.067
X30.868Y-15.287
X30.868Y-17.827
X30.868Y-20.367
X30.868Y-22.907
X30.868Y-25.447
X30.868Y-27.987
X30.868Y-30.527
X30.868Y-33.067
X33.408Y-15.287
X33.408Y-17.827
X33.408Y-20.367
X33.408Y-22.907
X33.408Y-25.447
X33.408Y-27.987
X33.408Y-30.527
X33.408Y-33.067
X35.948Y-25.447
X35.948Y-27.987
X35.948Y-30.527
X35.948Y-33.067
X36.018Y-15.247
X36.018Y-17.787
X36.018Y-20.327
X36.018Y-22.867
X38.488Y-25.447
X38.488Y-27.987
X38.488Y-30.527
X38.488Y-33.067
X38.558Y-15.247
X38.558Y-17.787
X38.558Y-20.327
X38.558Y-22.867
X41.103Y-15.282
X41.103Y-17.822
X41.103Y-20.362
X41.103Y-22.902
X41.103Y-25.442
X41.103Y-27.982
X41.103Y-30.522
X41.103Y-33.062
X43.643Y-25.442
X43.643Y-27.982
X43.643Y-30.522
X43.643Y-33.062
X43.713Y-15.242
X43.713Y-17.782
X43.713Y-20.322
X43.713Y-22.862
X46.183Y-25.442
X46.183Y-27.982
X46.183Y-30.522
X46.183Y-33.062
X46.253Y-15.242
X46.253Y-17.782
X46.253Y-20.322
X46.253Y-22.862
X68.148Y-58.037
X68.148Y-60.577
X68.153Y-65.732
X68.188Y-63.187
X70.688Y-58.037
X70.688Y-60.577
X70.693Y-65.732
X70.728Y-63.187
X73.228Y-58.037
X73.228Y-60.577
X73.233Y-65.732
X73.268Y-63.187
X73.308Y-71.517
X73.308Y-74.057
X75.768Y-58.037
X75.768Y-60.577
X75.773Y-65.732
X75.808Y-63.187
X75.848Y-71.517
X75.848Y-74.057
X78.348Y-58.107
X78.348Y-60.647
X78.348Y-63.187
X78.353Y-65.802
X78.388Y-71.517
X78.388Y-74.057
X80.888Y-58.107
X80.888Y-60.647
X80.888Y-63.187
X80.893Y-65.802
X83.428Y-58.107
X83.428Y-60.647
X83.428Y-63.187
X83.433Y-65.802
X85.719Y-31.557
X85.719Y-34.097
X85.968Y-58.107
X85.968Y-60.647
X85.968Y-63.187
X85.973Y-65.802
X88.259Y-31.557
X88.259Y-34.097
X90.248Y-71.388
X90.248Y-73.928
X90.799Y-31.557
X90.799Y-34.097
X92.788Y-71.388
X92.788Y-73.928
X93.339Y-31.557
X93.339Y-34.097
X95.328Y-71.388
X95.328Y-73.928
X95.879Y-31.557
X95.879Y-34.097
X97.868Y-71.388
X97.868Y-73.928
X98.419Y-31.557
X98.419Y-34.097
X100.408Y-71.388
X100.408Y-73.928
X102.948Y-71.388
X102.948Y-73.928
X107.543Y-71.378
X107.543Y-73.918
X110.083Y-71.378
X110.083Y-73.918
X112.623Y-71.378
X112.623Y-73.918
X115.163Y-71.378
X115.163Y-73.918
X117.703Y-71.378
X117.703Y-73.918
X120.243Y-71.378
X120.243Y-73.918
X122.783Y-71.378
X122.783Y-73.918
X125.323Y-71.378
X125.323Y-73.918
X127.863Y-71.378
X127.863Y-73.918
X130.403Y-71.378
X130.403Y-73.918
T5
X123.568Y-17.302
X123.568Y-19.842
X123.568Y-22.382
X123.568Y-24.922
X144.538Y-18.877
X144.538Y-21.417
T6
X141.458Y-27.527
X141.458Y-39.527
X147.458Y-27.527
X147.458Y-39.527
T7
X142.01Y-45.396
X142.01Y-50.476
X142.01Y-55.556
T8
X17.925Y-41.957
X17.925Y-52.117
X47.778Y-71.95
X57.938Y-71.95
T9
X21.408Y-59.412
X53.158Y-20.677
X135.708Y-20.677
X135.708Y-68.937
M30
