%TF.GenerationSoftware,KiCad,Pcbnew,8.0.6*%
%TF.CreationDate,2025-06-21T10:28:06-07:00*%
%TF.ProjectId,complete_EPG,636f6d70-6c65-4746-955f-4550472e6b69,rev?*%
%TF.SameCoordinates,Original*%
%TF.FileFunction,Drillmap*%
%TF.FilePolarity,Positive*%
%FSLAX45Y45*%
G04 Gerber Fmt 4.5, Leading zero omitted, Abs format (unit mm)*
G04 Created by KiCad (PCBNEW 8.0.6) date 2025-06-21 10:28:06*
%MOMM*%
%LPD*%
G01*
G04 APERTURE LIST*
%ADD10C,0.100000*%
%ADD11C,0.200000*%
G04 APERTURE END LIST*
D10*
X6578800Y-2881700D02*
X6030800Y-2881700D01*
X1315300Y-1305700D02*
X1315300Y-7655700D01*
X11867800Y-2881700D02*
X6578800Y-2881700D01*
X14967800Y-7655700D02*
X14967800Y-1305700D01*
X6032800Y-1305700D02*
X1315300Y-1305700D01*
X11867800Y-1305700D02*
X11867800Y-2881700D01*
X6030800Y-2881700D02*
X6032800Y-1305700D01*
X14967800Y-1305700D02*
X11867800Y-1305700D01*
X1315300Y-7655700D02*
X14967800Y-7655700D01*
D11*
X1571077Y-7972184D02*
X1571077Y-7772184D01*
X1571077Y-7772184D02*
X1618696Y-7772184D01*
X1618696Y-7772184D02*
X1647267Y-7781708D01*
X1647267Y-7781708D02*
X1666315Y-7800755D01*
X1666315Y-7800755D02*
X1675839Y-7819803D01*
X1675839Y-7819803D02*
X1685362Y-7857898D01*
X1685362Y-7857898D02*
X1685362Y-7886469D01*
X1685362Y-7886469D02*
X1675839Y-7924565D01*
X1675839Y-7924565D02*
X1666315Y-7943612D01*
X1666315Y-7943612D02*
X1647267Y-7962660D01*
X1647267Y-7962660D02*
X1618696Y-7972184D01*
X1618696Y-7972184D02*
X1571077Y-7972184D01*
X1771077Y-7972184D02*
X1771077Y-7838850D01*
X1771077Y-7876946D02*
X1780601Y-7857898D01*
X1780601Y-7857898D02*
X1790124Y-7848374D01*
X1790124Y-7848374D02*
X1809172Y-7838850D01*
X1809172Y-7838850D02*
X1828220Y-7838850D01*
X1894886Y-7972184D02*
X1894886Y-7838850D01*
X1894886Y-7772184D02*
X1885362Y-7781708D01*
X1885362Y-7781708D02*
X1894886Y-7791231D01*
X1894886Y-7791231D02*
X1904410Y-7781708D01*
X1904410Y-7781708D02*
X1894886Y-7772184D01*
X1894886Y-7772184D02*
X1894886Y-7791231D01*
X2018696Y-7972184D02*
X1999648Y-7962660D01*
X1999648Y-7962660D02*
X1990124Y-7943612D01*
X1990124Y-7943612D02*
X1990124Y-7772184D01*
X2123458Y-7972184D02*
X2104410Y-7962660D01*
X2104410Y-7962660D02*
X2094886Y-7943612D01*
X2094886Y-7943612D02*
X2094886Y-7772184D01*
X2352029Y-7972184D02*
X2352029Y-7772184D01*
X2352029Y-7772184D02*
X2418696Y-7915041D01*
X2418696Y-7915041D02*
X2485363Y-7772184D01*
X2485363Y-7772184D02*
X2485363Y-7972184D01*
X2666315Y-7972184D02*
X2666315Y-7867422D01*
X2666315Y-7867422D02*
X2656791Y-7848374D01*
X2656791Y-7848374D02*
X2637744Y-7838850D01*
X2637744Y-7838850D02*
X2599648Y-7838850D01*
X2599648Y-7838850D02*
X2580601Y-7848374D01*
X2666315Y-7962660D02*
X2647267Y-7972184D01*
X2647267Y-7972184D02*
X2599648Y-7972184D01*
X2599648Y-7972184D02*
X2580601Y-7962660D01*
X2580601Y-7962660D02*
X2571077Y-7943612D01*
X2571077Y-7943612D02*
X2571077Y-7924565D01*
X2571077Y-7924565D02*
X2580601Y-7905517D01*
X2580601Y-7905517D02*
X2599648Y-7895993D01*
X2599648Y-7895993D02*
X2647267Y-7895993D01*
X2647267Y-7895993D02*
X2666315Y-7886469D01*
X2761553Y-7838850D02*
X2761553Y-8038850D01*
X2761553Y-7848374D02*
X2780601Y-7838850D01*
X2780601Y-7838850D02*
X2818696Y-7838850D01*
X2818696Y-7838850D02*
X2837743Y-7848374D01*
X2837743Y-7848374D02*
X2847267Y-7857898D01*
X2847267Y-7857898D02*
X2856791Y-7876946D01*
X2856791Y-7876946D02*
X2856791Y-7934088D01*
X2856791Y-7934088D02*
X2847267Y-7953136D01*
X2847267Y-7953136D02*
X2837743Y-7962660D01*
X2837743Y-7962660D02*
X2818696Y-7972184D01*
X2818696Y-7972184D02*
X2780601Y-7972184D01*
X2780601Y-7972184D02*
X2761553Y-7962660D01*
X2942505Y-7953136D02*
X2952029Y-7962660D01*
X2952029Y-7962660D02*
X2942505Y-7972184D01*
X2942505Y-7972184D02*
X2932982Y-7962660D01*
X2932982Y-7962660D02*
X2942505Y-7953136D01*
X2942505Y-7953136D02*
X2942505Y-7972184D01*
X2942505Y-7848374D02*
X2952029Y-7857898D01*
X2952029Y-7857898D02*
X2942505Y-7867422D01*
X2942505Y-7867422D02*
X2932982Y-7857898D01*
X2932982Y-7857898D02*
X2942505Y-7848374D01*
X2942505Y-7848374D02*
X2942505Y-7867422D01*
M02*
