G04 #@! TF.GenerationSoftware,KiCad,Pcbnew,8.0.6*
G04 #@! TF.CreationDate,2025-06-21T10:27:38-07:00*
G04 #@! TF.ProjectId,complete_EPG,636f6d70-6c65-4746-955f-4550472e6b69,rev?*
G04 #@! TF.SameCoordinates,Original*
G04 #@! TF.FileFunction,Other,User*
%FSLAX46Y46*%
G04 Gerber Fmt 4.6, Leading zero omitted, Abs format (unit mm)*
G04 Created by KiCad (PCBNEW 8.0.6) date 2025-06-21 10:27:38*
%MOMM*%
%LPD*%
G01*
G04 APERTURE LIST*
%ADD10C,0.152400*%
%ADD11C,0.030000*%
%ADD12C,0.050000*%
G04 APERTURE END LIST*
D10*
X132939300Y-40628000D02*
X132634500Y-40628000D01*
X132939300Y-38366000D02*
X132939300Y-40628000D01*
X132939300Y-38366000D02*
X132634500Y-38366000D01*
X132634500Y-41300400D02*
X129027700Y-41300400D01*
X132634500Y-40628000D02*
X132634500Y-41300400D01*
X132634500Y-37693600D02*
X132634500Y-38366000D01*
X129027700Y-41300400D02*
X129027700Y-40628000D01*
X129027700Y-38366000D02*
X129027700Y-37693600D01*
X129027700Y-37693600D02*
X132634500Y-37693600D01*
X128722900Y-40628000D02*
X129027700Y-40628000D01*
X128722900Y-40628000D02*
X128722900Y-38366000D01*
X128722900Y-38366000D02*
X129027700Y-38366000D01*
D11*
X86948816Y-58107000D02*
G75*
G02*
X84987184Y-58107000I-980816J0D01*
G01*
X84987184Y-58107000D02*
G75*
G02*
X86948816Y-58107000I980816J0D01*
G01*
X84413816Y-65802000D02*
G75*
G02*
X82452184Y-65802000I-980816J0D01*
G01*
X82452184Y-65802000D02*
G75*
G02*
X84413816Y-65802000I980816J0D01*
G01*
X76748816Y-60577000D02*
G75*
G02*
X74787184Y-60577000I-980816J0D01*
G01*
X74787184Y-60577000D02*
G75*
G02*
X76748816Y-60577000I980816J0D01*
G01*
X81868816Y-60647000D02*
G75*
G02*
X79907184Y-60647000I-980816J0D01*
G01*
X79907184Y-60647000D02*
G75*
G02*
X81868816Y-60647000I980816J0D01*
G01*
X69133816Y-65732000D02*
G75*
G02*
X67172184Y-65732000I-980816J0D01*
G01*
X67172184Y-65732000D02*
G75*
G02*
X69133816Y-65732000I980816J0D01*
G01*
X76753816Y-65732000D02*
G75*
G02*
X74792184Y-65732000I-980816J0D01*
G01*
X74792184Y-65732000D02*
G75*
G02*
X76753816Y-65732000I980816J0D01*
G01*
X74208816Y-58037000D02*
G75*
G02*
X72247184Y-58037000I-980816J0D01*
G01*
X72247184Y-58037000D02*
G75*
G02*
X74208816Y-58037000I980816J0D01*
G01*
X71668816Y-58037000D02*
G75*
G02*
X69707184Y-58037000I-980816J0D01*
G01*
X69707184Y-58037000D02*
G75*
G02*
X71668816Y-58037000I980816J0D01*
G01*
X71708816Y-63187000D02*
G75*
G02*
X69747184Y-63187000I-980816J0D01*
G01*
X69747184Y-63187000D02*
G75*
G02*
X71708816Y-63187000I980816J0D01*
G01*
X74208816Y-60577000D02*
G75*
G02*
X72247184Y-60577000I-980816J0D01*
G01*
X72247184Y-60577000D02*
G75*
G02*
X74208816Y-60577000I980816J0D01*
G01*
X69128816Y-60577000D02*
G75*
G02*
X67167184Y-60577000I-980816J0D01*
G01*
X67167184Y-60577000D02*
G75*
G02*
X69128816Y-60577000I980816J0D01*
G01*
X74213816Y-65732000D02*
G75*
G02*
X72252184Y-65732000I-980816J0D01*
G01*
X72252184Y-65732000D02*
G75*
G02*
X74213816Y-65732000I980816J0D01*
G01*
X81868816Y-58107000D02*
G75*
G02*
X79907184Y-58107000I-980816J0D01*
G01*
X79907184Y-58107000D02*
G75*
G02*
X81868816Y-58107000I980816J0D01*
G01*
X69168816Y-63187000D02*
G75*
G02*
X67207184Y-63187000I-980816J0D01*
G01*
X67207184Y-63187000D02*
G75*
G02*
X69168816Y-63187000I980816J0D01*
G01*
X81868816Y-63187000D02*
G75*
G02*
X79907184Y-63187000I-980816J0D01*
G01*
X79907184Y-63187000D02*
G75*
G02*
X81868816Y-63187000I980816J0D01*
G01*
X79328816Y-60647000D02*
G75*
G02*
X77367184Y-60647000I-980816J0D01*
G01*
X77367184Y-60647000D02*
G75*
G02*
X79328816Y-60647000I980816J0D01*
G01*
X84408816Y-60647000D02*
G75*
G02*
X82447184Y-60647000I-980816J0D01*
G01*
X82447184Y-60647000D02*
G75*
G02*
X84408816Y-60647000I980816J0D01*
G01*
X76788816Y-63187000D02*
G75*
G02*
X74827184Y-63187000I-980816J0D01*
G01*
X74827184Y-63187000D02*
G75*
G02*
X76788816Y-63187000I980816J0D01*
G01*
X76748816Y-58037000D02*
G75*
G02*
X74787184Y-58037000I-980816J0D01*
G01*
X74787184Y-58037000D02*
G75*
G02*
X76748816Y-58037000I980816J0D01*
G01*
X86948816Y-63187000D02*
G75*
G02*
X84987184Y-63187000I-980816J0D01*
G01*
X84987184Y-63187000D02*
G75*
G02*
X86948816Y-63187000I980816J0D01*
G01*
X71673816Y-65732000D02*
G75*
G02*
X69712184Y-65732000I-980816J0D01*
G01*
X69712184Y-65732000D02*
G75*
G02*
X71673816Y-65732000I980816J0D01*
G01*
X84408816Y-63187000D02*
G75*
G02*
X82447184Y-63187000I-980816J0D01*
G01*
X82447184Y-63187000D02*
G75*
G02*
X84408816Y-63187000I980816J0D01*
G01*
X69128816Y-58037000D02*
G75*
G02*
X67167184Y-58037000I-980816J0D01*
G01*
X67167184Y-58037000D02*
G75*
G02*
X69128816Y-58037000I980816J0D01*
G01*
X71668816Y-60577000D02*
G75*
G02*
X69707184Y-60577000I-980816J0D01*
G01*
X69707184Y-60577000D02*
G75*
G02*
X71668816Y-60577000I980816J0D01*
G01*
X81873816Y-65802000D02*
G75*
G02*
X79912184Y-65802000I-980816J0D01*
G01*
X79912184Y-65802000D02*
G75*
G02*
X81873816Y-65802000I980816J0D01*
G01*
X79333816Y-65802000D02*
G75*
G02*
X77372184Y-65802000I-980816J0D01*
G01*
X77372184Y-65802000D02*
G75*
G02*
X79333816Y-65802000I980816J0D01*
G01*
X86953816Y-65802000D02*
G75*
G02*
X84992184Y-65802000I-980816J0D01*
G01*
X84992184Y-65802000D02*
G75*
G02*
X86953816Y-65802000I980816J0D01*
G01*
X74248816Y-63187000D02*
G75*
G02*
X72287184Y-63187000I-980816J0D01*
G01*
X72287184Y-63187000D02*
G75*
G02*
X74248816Y-63187000I980816J0D01*
G01*
X79328816Y-58107000D02*
G75*
G02*
X77367184Y-58107000I-980816J0D01*
G01*
X77367184Y-58107000D02*
G75*
G02*
X79328816Y-58107000I980816J0D01*
G01*
X86948816Y-60647000D02*
G75*
G02*
X84987184Y-60647000I-980816J0D01*
G01*
X84987184Y-60647000D02*
G75*
G02*
X86948816Y-60647000I980816J0D01*
G01*
X84408816Y-58107000D02*
G75*
G02*
X82447184Y-58107000I-980816J0D01*
G01*
X82447184Y-58107000D02*
G75*
G02*
X84408816Y-58107000I980816J0D01*
G01*
X79328816Y-63187000D02*
G75*
G02*
X77367184Y-63187000I-980816J0D01*
G01*
X77367184Y-63187000D02*
G75*
G02*
X79328816Y-63187000I980816J0D01*
G01*
D12*
X138758000Y-20677000D02*
G75*
G02*
X132658000Y-20677000I-3050000J0D01*
G01*
X132658000Y-20677000D02*
G75*
G02*
X138758000Y-20677000I3050000J0D01*
G01*
X56208000Y-20677000D02*
G75*
G02*
X50108000Y-20677000I-3050000J0D01*
G01*
X50108000Y-20677000D02*
G75*
G02*
X56208000Y-20677000I3050000J0D01*
G01*
X24458000Y-59412000D02*
G75*
G02*
X18358000Y-59412000I-3050000J0D01*
G01*
X18358000Y-59412000D02*
G75*
G02*
X24458000Y-59412000I3050000J0D01*
G01*
X138758000Y-68937000D02*
G75*
G02*
X132658000Y-68937000I-3050000J0D01*
G01*
X132658000Y-68937000D02*
G75*
G02*
X138758000Y-68937000I3050000J0D01*
G01*
D11*
X21688816Y-30527000D02*
G75*
G02*
X19727184Y-30527000I-980816J0D01*
G01*
X19727184Y-30527000D02*
G75*
G02*
X21688816Y-30527000I980816J0D01*
G01*
D12*
X50748000Y-36227000D02*
X50748000Y-39227000D01*
X50748000Y-36227000D02*
X53748000Y-36227000D01*
X53748000Y-39227000D02*
X50748000Y-39227000D01*
X53748000Y-39227000D02*
X53748000Y-36227000D01*
X45573000Y-39552000D02*
X47533000Y-39552000D01*
X45573000Y-43312000D02*
X45573000Y-39552000D01*
X47533000Y-39552000D02*
X47533000Y-43312000D01*
X47533000Y-43312000D02*
X45573000Y-43312000D01*
X43668000Y-47954500D02*
X45628000Y-47954500D01*
X43668000Y-51714500D02*
X43668000Y-47954500D01*
X45628000Y-47954500D02*
X45628000Y-51714500D01*
X45628000Y-51714500D02*
X43668000Y-51714500D01*
X94478000Y-58039500D02*
X96378000Y-58039500D01*
X94478000Y-61739500D02*
X94478000Y-58039500D01*
X96378000Y-58039500D02*
X96378000Y-61739500D01*
X96378000Y-61739500D02*
X94478000Y-61739500D01*
X128828000Y-50527000D02*
X132588000Y-50527000D01*
X128828000Y-52487000D02*
X128828000Y-50527000D01*
X132588000Y-50527000D02*
X132588000Y-52487000D01*
X132588000Y-52487000D02*
X128828000Y-52487000D01*
D11*
X29308816Y-30527000D02*
G75*
G02*
X27347184Y-30527000I-980816J0D01*
G01*
X27347184Y-30527000D02*
G75*
G02*
X29308816Y-30527000I980816J0D01*
G01*
X26768816Y-17827000D02*
G75*
G02*
X24807184Y-17827000I-980816J0D01*
G01*
X24807184Y-17827000D02*
G75*
G02*
X26768816Y-17827000I980816J0D01*
G01*
D12*
X128438000Y-42807000D02*
X126478000Y-42807000D01*
X128438000Y-39047000D02*
X128438000Y-42807000D01*
X126478000Y-42807000D02*
X126478000Y-39047000D01*
X126478000Y-39047000D02*
X128438000Y-39047000D01*
X41208000Y-38387000D02*
X43108000Y-38387000D01*
X41208000Y-42087000D02*
X41208000Y-38387000D01*
X43108000Y-38387000D02*
X43108000Y-42087000D01*
X43108000Y-42087000D02*
X41208000Y-42087000D01*
D11*
X31848816Y-20367000D02*
G75*
G02*
X29887184Y-20367000I-980816J0D01*
G01*
X29887184Y-20367000D02*
G75*
G02*
X31848816Y-20367000I980816J0D01*
G01*
D12*
X94178000Y-69400500D02*
X94178000Y-66100500D01*
X94178000Y-69400500D02*
X96678000Y-69400500D01*
X96678000Y-66100500D02*
X94178000Y-66100500D01*
X96678000Y-66100500D02*
X96678000Y-69400500D01*
D11*
X24228816Y-22907000D02*
G75*
G02*
X22267184Y-22907000I-980816J0D01*
G01*
X22267184Y-22907000D02*
G75*
G02*
X24228816Y-22907000I980816J0D01*
G01*
D12*
X116897286Y-58019500D02*
X118797286Y-58019500D01*
X116897286Y-61719500D02*
X116897286Y-58019500D01*
X118797286Y-58019500D02*
X118797286Y-61719500D01*
X118797286Y-61719500D02*
X116897286Y-61719500D01*
D11*
X42083816Y-25442000D02*
G75*
G02*
X40122184Y-25442000I-980816J0D01*
G01*
X40122184Y-25442000D02*
G75*
G02*
X42083816Y-25442000I980816J0D01*
G01*
X42083816Y-15282000D02*
G75*
G02*
X40122184Y-15282000I-980816J0D01*
G01*
X40122184Y-15282000D02*
G75*
G02*
X42083816Y-15282000I980816J0D01*
G01*
D12*
X99838000Y-48683000D02*
X99838000Y-45283000D01*
X99838000Y-45283000D02*
X95738000Y-45283000D01*
X95738000Y-48683000D02*
X99838000Y-48683000D01*
X95738000Y-45283000D02*
X95738000Y-48683000D01*
X30308000Y-39907000D02*
X34068000Y-39907000D01*
X30308000Y-41867000D02*
X30308000Y-39907000D01*
X34068000Y-39907000D02*
X34068000Y-41867000D01*
X34068000Y-41867000D02*
X30308000Y-41867000D01*
D11*
X19148816Y-22907000D02*
G75*
G02*
X17187184Y-22907000I-980816J0D01*
G01*
X17187184Y-22907000D02*
G75*
G02*
X19148816Y-22907000I980816J0D01*
G01*
D12*
X27188000Y-56197000D02*
X27188000Y-53197000D01*
X27188000Y-56197000D02*
X30188000Y-56197000D01*
X30188000Y-53197000D02*
X27188000Y-53197000D01*
X30188000Y-53197000D02*
X30188000Y-56197000D01*
D11*
X31848816Y-15287000D02*
G75*
G02*
X29887184Y-15287000I-980816J0D01*
G01*
X29887184Y-15287000D02*
G75*
G02*
X31848816Y-15287000I980816J0D01*
G01*
X21688816Y-25447000D02*
G75*
G02*
X19727184Y-25447000I-980816J0D01*
G01*
X19727184Y-25447000D02*
G75*
G02*
X21688816Y-25447000I980816J0D01*
G01*
D12*
X19598000Y-68177000D02*
X21558000Y-68177000D01*
X19598000Y-71937000D02*
X19598000Y-68177000D01*
X21558000Y-68177000D02*
X21558000Y-71937000D01*
X21558000Y-71937000D02*
X19598000Y-71937000D01*
D11*
X16608816Y-30527000D02*
G75*
G02*
X14647184Y-30527000I-980816J0D01*
G01*
X14647184Y-30527000D02*
G75*
G02*
X16608816Y-30527000I980816J0D01*
G01*
D12*
X94478000Y-62142000D02*
X96378000Y-62142000D01*
X94478000Y-65842000D02*
X94478000Y-62142000D01*
X96378000Y-62142000D02*
X96378000Y-65842000D01*
X96378000Y-65842000D02*
X94478000Y-65842000D01*
D11*
X16608816Y-25447000D02*
G75*
G02*
X14647184Y-25447000I-980816J0D01*
G01*
X14647184Y-25447000D02*
G75*
G02*
X16608816Y-25447000I980816J0D01*
G01*
D12*
X91968000Y-58068250D02*
X93868000Y-58068250D01*
X91968000Y-61768250D02*
X91968000Y-58068250D01*
X93868000Y-58068250D02*
X93868000Y-61768250D01*
X93868000Y-61768250D02*
X91968000Y-61768250D01*
X41548000Y-47954500D02*
X43508000Y-47954500D01*
X41548000Y-51714500D02*
X41548000Y-47954500D01*
X43508000Y-47954500D02*
X43508000Y-51714500D01*
X43508000Y-51714500D02*
X41548000Y-51714500D01*
X139173000Y-62077000D02*
X135473000Y-62077000D01*
X139173000Y-60177000D02*
X139173000Y-62077000D01*
X135473000Y-62077000D02*
X135473000Y-60177000D01*
X135473000Y-60177000D02*
X139173000Y-60177000D01*
X117728000Y-53077000D02*
X117728000Y-56077000D01*
X117728000Y-53077000D02*
X120728000Y-53077000D01*
X120728000Y-56077000D02*
X117728000Y-56077000D01*
X120728000Y-56077000D02*
X120728000Y-53077000D01*
D11*
X29308816Y-33067000D02*
G75*
G02*
X27347184Y-33067000I-980816J0D01*
G01*
X27347184Y-33067000D02*
G75*
G02*
X29308816Y-33067000I980816J0D01*
G01*
D12*
X71078000Y-34827000D02*
X74778000Y-34827000D01*
X71078000Y-36727000D02*
X71078000Y-34827000D01*
X74778000Y-34827000D02*
X74778000Y-36727000D01*
X74778000Y-36727000D02*
X71078000Y-36727000D01*
D11*
X36928816Y-27987000D02*
G75*
G02*
X34967184Y-27987000I-980816J0D01*
G01*
X34967184Y-27987000D02*
G75*
G02*
X36928816Y-27987000I980816J0D01*
G01*
D12*
X111928000Y-51247000D02*
X115628000Y-51247000D01*
X111928000Y-53147000D02*
X111928000Y-51247000D01*
X115628000Y-51247000D02*
X115628000Y-53147000D01*
X115628000Y-53147000D02*
X111928000Y-53147000D01*
X116048000Y-36537000D02*
X117948000Y-36537000D01*
X116048000Y-40237000D02*
X116048000Y-36537000D01*
X117948000Y-36537000D02*
X117948000Y-40237000D01*
X117948000Y-40237000D02*
X116048000Y-40237000D01*
X86878000Y-40032000D02*
X90578000Y-40032000D01*
X86878000Y-41932000D02*
X86878000Y-40032000D01*
X90578000Y-40032000D02*
X90578000Y-41932000D01*
X90578000Y-41932000D02*
X86878000Y-41932000D01*
D11*
X31848816Y-25447000D02*
G75*
G02*
X29887184Y-25447000I-980816J0D01*
G01*
X29887184Y-25447000D02*
G75*
G02*
X31848816Y-25447000I980816J0D01*
G01*
X34388816Y-15287000D02*
G75*
G02*
X32427184Y-15287000I-980816J0D01*
G01*
X32427184Y-15287000D02*
G75*
G02*
X34388816Y-15287000I980816J0D01*
G01*
D12*
X135048000Y-40357000D02*
X135048000Y-44117000D01*
X133088000Y-40357000D02*
X135048000Y-40357000D01*
X135048000Y-44117000D02*
X133088000Y-44117000D01*
X133088000Y-44117000D02*
X133088000Y-40357000D01*
X89088000Y-69359250D02*
X89088000Y-66059250D01*
X89088000Y-69359250D02*
X91588000Y-69359250D01*
X91588000Y-66059250D02*
X89088000Y-66059250D01*
X91588000Y-66059250D02*
X91588000Y-69359250D01*
X126120500Y-29297000D02*
X128020500Y-29297000D01*
X126120500Y-32997000D02*
X126120500Y-29297000D01*
X128020500Y-29297000D02*
X128020500Y-32997000D01*
X128020500Y-32997000D02*
X126120500Y-32997000D01*
D11*
X36998816Y-15247000D02*
G75*
G02*
X35037184Y-15247000I-980816J0D01*
G01*
X35037184Y-15247000D02*
G75*
G02*
X36998816Y-15247000I980816J0D01*
G01*
D12*
X102143000Y-69343000D02*
X102143000Y-66043000D01*
X102143000Y-69343000D02*
X104643000Y-69343000D01*
X104643000Y-66043000D02*
X102143000Y-66043000D01*
X104643000Y-66043000D02*
X104643000Y-69343000D01*
X47443000Y-43463000D02*
X47443000Y-50863000D01*
X47443000Y-50863000D02*
X52843000Y-50863000D01*
X52843000Y-43463000D02*
X47443000Y-43463000D01*
X52843000Y-50863000D02*
X52843000Y-43463000D01*
D11*
X36998816Y-22867000D02*
G75*
G02*
X35037184Y-22867000I-980816J0D01*
G01*
X35037184Y-22867000D02*
G75*
G02*
X36998816Y-22867000I980816J0D01*
G01*
D12*
X28473000Y-62852000D02*
X30433000Y-62852000D01*
X28473000Y-66612000D02*
X28473000Y-62852000D01*
X30433000Y-62852000D02*
X30433000Y-66612000D01*
X30433000Y-66612000D02*
X28473000Y-66612000D01*
D11*
X47163816Y-27982000D02*
G75*
G02*
X45202184Y-27982000I-980816J0D01*
G01*
X45202184Y-27982000D02*
G75*
G02*
X47163816Y-27982000I980816J0D01*
G01*
X39538816Y-20327000D02*
G75*
G02*
X37577184Y-20327000I-980816J0D01*
G01*
X37577184Y-20327000D02*
G75*
G02*
X39538816Y-20327000I980816J0D01*
G01*
D12*
X140938000Y-16877000D02*
X140938000Y-23417000D01*
X140938000Y-23417000D02*
X148138000Y-23417000D01*
X148138000Y-16877000D02*
X140938000Y-16877000D01*
X148138000Y-23417000D02*
X148138000Y-16877000D01*
X17373000Y-68177000D02*
X19333000Y-68177000D01*
X17373000Y-71937000D02*
X17373000Y-68177000D01*
X19333000Y-68177000D02*
X19333000Y-71937000D01*
X19333000Y-71937000D02*
X17373000Y-71937000D01*
D11*
X74288816Y-71517000D02*
G75*
G02*
X72327184Y-71517000I-980816J0D01*
G01*
X72327184Y-71517000D02*
G75*
G02*
X74288816Y-71517000I980816J0D01*
G01*
D12*
X35298000Y-35287000D02*
X38998000Y-35287000D01*
X35298000Y-37187000D02*
X35298000Y-35287000D01*
X38998000Y-35287000D02*
X38998000Y-37187000D01*
X38998000Y-37187000D02*
X35298000Y-37187000D01*
X28868000Y-70287000D02*
X30828000Y-70287000D01*
X28868000Y-74047000D02*
X28868000Y-70287000D01*
X30828000Y-70287000D02*
X30828000Y-74047000D01*
X30828000Y-74047000D02*
X28868000Y-74047000D01*
D11*
X36928816Y-33067000D02*
G75*
G02*
X34967184Y-33067000I-980816J0D01*
G01*
X34967184Y-33067000D02*
G75*
G02*
X36928816Y-33067000I980816J0D01*
G01*
X44693816Y-20322000D02*
G75*
G02*
X42732184Y-20322000I-980816J0D01*
G01*
X42732184Y-20322000D02*
G75*
G02*
X44693816Y-20322000I980816J0D01*
G01*
X19148816Y-27987000D02*
G75*
G02*
X17187184Y-27987000I-980816J0D01*
G01*
X17187184Y-27987000D02*
G75*
G02*
X19148816Y-27987000I980816J0D01*
G01*
D12*
X51758000Y-51027000D02*
X53718000Y-51027000D01*
X51758000Y-54787000D02*
X51758000Y-51027000D01*
X53718000Y-51027000D02*
X53718000Y-54787000D01*
X53718000Y-54787000D02*
X51758000Y-54787000D01*
D11*
X44693816Y-15242000D02*
G75*
G02*
X42732184Y-15242000I-980816J0D01*
G01*
X42732184Y-15242000D02*
G75*
G02*
X44693816Y-15242000I980816J0D01*
G01*
X74288816Y-74057000D02*
G75*
G02*
X72327184Y-74057000I-980816J0D01*
G01*
X72327184Y-74057000D02*
G75*
G02*
X74288816Y-74057000I980816J0D01*
G01*
X42083816Y-17822000D02*
G75*
G02*
X40122184Y-17822000I-980816J0D01*
G01*
X40122184Y-17822000D02*
G75*
G02*
X42083816Y-17822000I980816J0D01*
G01*
X47233816Y-17782000D02*
G75*
G02*
X45272184Y-17782000I-980816J0D01*
G01*
X45272184Y-17782000D02*
G75*
G02*
X47233816Y-17782000I980816J0D01*
G01*
D12*
X96848000Y-50097000D02*
X98748000Y-50097000D01*
X96848000Y-53797000D02*
X96848000Y-50097000D01*
X98748000Y-50097000D02*
X98748000Y-53797000D01*
X98748000Y-53797000D02*
X96848000Y-53797000D01*
X28008000Y-68282000D02*
X28008000Y-64782000D01*
X28008000Y-64782000D02*
X23748000Y-64782000D01*
X23748000Y-68282000D02*
X28008000Y-68282000D01*
X23748000Y-64782000D02*
X23748000Y-68282000D01*
X111688000Y-41787000D02*
X111688000Y-50947000D01*
X111688000Y-50947000D02*
X119088000Y-50947000D01*
X119088000Y-41787000D02*
X111688000Y-41787000D01*
X119088000Y-50947000D02*
X119088000Y-41787000D01*
X46638000Y-51227000D02*
X50338000Y-51227000D01*
X46638000Y-53127000D02*
X46638000Y-51227000D01*
X50338000Y-51227000D02*
X50338000Y-53127000D01*
X50338000Y-53127000D02*
X46638000Y-53127000D01*
X96968000Y-69438750D02*
X96968000Y-66138750D01*
X96968000Y-69438750D02*
X99468000Y-69438750D01*
X99468000Y-66138750D02*
X96968000Y-66138750D01*
X99468000Y-66138750D02*
X99468000Y-69438750D01*
X116808000Y-62122000D02*
X118708000Y-62122000D01*
X116808000Y-65822000D02*
X116808000Y-62122000D01*
X118708000Y-62122000D02*
X118708000Y-65822000D01*
X118708000Y-65822000D02*
X116808000Y-65822000D01*
X33503000Y-49932000D02*
X35403000Y-49932000D01*
X33503000Y-53632000D02*
X33503000Y-49932000D01*
X35403000Y-49932000D02*
X35403000Y-53632000D01*
X35403000Y-53632000D02*
X33503000Y-53632000D01*
X130950500Y-28837000D02*
X130950500Y-32237000D01*
X130950500Y-32237000D02*
X135050500Y-32237000D01*
X135050500Y-28837000D02*
X130950500Y-28837000D01*
X135050500Y-32237000D02*
X135050500Y-28837000D01*
X106878000Y-45667000D02*
X110638000Y-45667000D01*
X106878000Y-47627000D02*
X106878000Y-45667000D01*
X110638000Y-45667000D02*
X110638000Y-47627000D01*
X110638000Y-47627000D02*
X106878000Y-47627000D01*
X107943000Y-62120750D02*
X109843000Y-62120750D01*
X107943000Y-65820750D02*
X107943000Y-62120750D01*
X109843000Y-62120750D02*
X109843000Y-65820750D01*
X109843000Y-65820750D02*
X107943000Y-65820750D01*
D11*
X31848816Y-22907000D02*
G75*
G02*
X29887184Y-22907000I-980816J0D01*
G01*
X29887184Y-22907000D02*
G75*
G02*
X31848816Y-22907000I980816J0D01*
G01*
D12*
X39503000Y-49932000D02*
X41403000Y-49932000D01*
X39503000Y-53632000D02*
X39503000Y-49932000D01*
X41403000Y-49932000D02*
X41403000Y-53632000D01*
X41403000Y-53632000D02*
X39503000Y-53632000D01*
X139998000Y-62457000D02*
X143698000Y-62457000D01*
X139998000Y-64357000D02*
X139998000Y-62457000D01*
X143698000Y-62457000D02*
X143698000Y-64357000D01*
X143698000Y-64357000D02*
X139998000Y-64357000D01*
X63028000Y-34757000D02*
X66788000Y-34757000D01*
X63028000Y-36717000D02*
X63028000Y-34757000D01*
X66788000Y-34757000D02*
X66788000Y-36717000D01*
X66788000Y-36717000D02*
X63028000Y-36717000D01*
D11*
X29308816Y-25447000D02*
G75*
G02*
X27347184Y-25447000I-980816J0D01*
G01*
X27347184Y-25447000D02*
G75*
G02*
X29308816Y-25447000I980816J0D01*
G01*
D12*
X139950500Y-69915000D02*
X143650500Y-69915000D01*
X139950500Y-71815000D02*
X139950500Y-69915000D01*
X143650500Y-69915000D02*
X143650500Y-71815000D01*
X143650500Y-71815000D02*
X139950500Y-71815000D01*
X37503000Y-49932000D02*
X39403000Y-49932000D01*
X37503000Y-53632000D02*
X37503000Y-49932000D01*
X39403000Y-49932000D02*
X39403000Y-53632000D01*
X39403000Y-53632000D02*
X37503000Y-53632000D01*
X30838000Y-42292000D02*
X41338000Y-42292000D01*
X30838000Y-49742000D02*
X30838000Y-42292000D01*
X41338000Y-42292000D02*
X41338000Y-49742000D01*
X41338000Y-49742000D02*
X30838000Y-49742000D01*
X114290857Y-62194321D02*
X116190857Y-62194321D01*
X114290857Y-65894321D02*
X114290857Y-62194321D01*
X116190857Y-62194321D02*
X116190857Y-65894321D01*
X116190857Y-65894321D02*
X114290857Y-65894321D01*
X100219200Y-35907000D02*
X100219200Y-29757000D01*
X100219200Y-29757000D02*
X83919200Y-29757000D01*
X83919200Y-35907000D02*
X100219200Y-35907000D01*
X83919200Y-29757000D02*
X83919200Y-35907000D01*
D11*
X26768816Y-27987000D02*
G75*
G02*
X24807184Y-27987000I-980816J0D01*
G01*
X24807184Y-27987000D02*
G75*
G02*
X26768816Y-27987000I980816J0D01*
G01*
D12*
X46588000Y-53327000D02*
X50288000Y-53327000D01*
X46588000Y-55227000D02*
X46588000Y-53327000D01*
X50288000Y-53327000D02*
X50288000Y-55227000D01*
X50288000Y-55227000D02*
X46588000Y-55227000D01*
D11*
X47233816Y-20322000D02*
G75*
G02*
X45272184Y-20322000I-980816J0D01*
G01*
X45272184Y-20322000D02*
G75*
G02*
X47233816Y-20322000I980816J0D01*
G01*
D12*
X108628000Y-30777000D02*
X110528000Y-30777000D01*
X108628000Y-34477000D02*
X108628000Y-30777000D01*
X110528000Y-30777000D02*
X110528000Y-34477000D01*
X110528000Y-34477000D02*
X108628000Y-34477000D01*
X35308000Y-39667000D02*
X39008000Y-39667000D01*
X35308000Y-41567000D02*
X35308000Y-39667000D01*
X39008000Y-39667000D02*
X39008000Y-41567000D01*
X39008000Y-41567000D02*
X35308000Y-41567000D01*
X120108000Y-43797000D02*
X123868000Y-43797000D01*
X120108000Y-45757000D02*
X120108000Y-43797000D01*
X123868000Y-43797000D02*
X123868000Y-45757000D01*
X123868000Y-45757000D02*
X120108000Y-45757000D01*
D11*
X29308816Y-17827000D02*
G75*
G02*
X27347184Y-17827000I-980816J0D01*
G01*
X27347184Y-17827000D02*
G75*
G02*
X29308816Y-17827000I980816J0D01*
G01*
X34388816Y-33067000D02*
G75*
G02*
X32427184Y-33067000I-980816J0D01*
G01*
X32427184Y-33067000D02*
G75*
G02*
X34388816Y-33067000I980816J0D01*
G01*
X39538816Y-22867000D02*
G75*
G02*
X37577184Y-22867000I-980816J0D01*
G01*
X37577184Y-22867000D02*
G75*
G02*
X39538816Y-22867000I980816J0D01*
G01*
X39538816Y-15247000D02*
G75*
G02*
X37577184Y-15247000I-980816J0D01*
G01*
X37577184Y-15247000D02*
G75*
G02*
X39538816Y-15247000I980816J0D01*
G01*
D12*
X23588000Y-36247000D02*
X23588000Y-39247000D01*
X23588000Y-36247000D02*
X26588000Y-36247000D01*
X26588000Y-39247000D02*
X23588000Y-39247000D01*
X26588000Y-39247000D02*
X26588000Y-36247000D01*
X129648000Y-58117000D02*
X131548000Y-58117000D01*
X129648000Y-61817000D02*
X129648000Y-58117000D01*
X131548000Y-58117000D02*
X131548000Y-61817000D01*
X131548000Y-61817000D02*
X129648000Y-61817000D01*
X30248000Y-37707000D02*
X34008000Y-37707000D01*
X30248000Y-39667000D02*
X30248000Y-37707000D01*
X34008000Y-37707000D02*
X34008000Y-39667000D01*
X34008000Y-39667000D02*
X30248000Y-39667000D01*
D11*
X24228816Y-25447000D02*
G75*
G02*
X22267184Y-25447000I-980816J0D01*
G01*
X22267184Y-25447000D02*
G75*
G02*
X24228816Y-25447000I980816J0D01*
G01*
X19148816Y-20367000D02*
G75*
G02*
X17187184Y-20367000I-980816J0D01*
G01*
X17187184Y-20367000D02*
G75*
G02*
X19148816Y-20367000I980816J0D01*
G01*
D12*
X135398000Y-62417000D02*
X139098000Y-62417000D01*
X135398000Y-64317000D02*
X135398000Y-62417000D01*
X139098000Y-62417000D02*
X139098000Y-64317000D01*
X139098000Y-64317000D02*
X135398000Y-64317000D01*
X120125500Y-33162000D02*
X123885500Y-33162000D01*
X120125500Y-35122000D02*
X120125500Y-33162000D01*
X123885500Y-33162000D02*
X123885500Y-35122000D01*
X123885500Y-35122000D02*
X120125500Y-35122000D01*
D11*
X34388816Y-27987000D02*
G75*
G02*
X32427184Y-27987000I-980816J0D01*
G01*
X32427184Y-27987000D02*
G75*
G02*
X34388816Y-27987000I980816J0D01*
G01*
X44623816Y-27982000D02*
G75*
G02*
X42662184Y-27982000I-980816J0D01*
G01*
X42662184Y-27982000D02*
G75*
G02*
X44623816Y-27982000I980816J0D01*
G01*
X19148816Y-30527000D02*
G75*
G02*
X17187184Y-30527000I-980816J0D01*
G01*
X17187184Y-30527000D02*
G75*
G02*
X19148816Y-30527000I980816J0D01*
G01*
D12*
X78538000Y-50022000D02*
X82298000Y-50022000D01*
X78538000Y-51982000D02*
X78538000Y-50022000D01*
X82298000Y-50022000D02*
X82298000Y-51982000D01*
X82298000Y-51982000D02*
X78538000Y-51982000D01*
X133088000Y-38377000D02*
X136788000Y-38377000D01*
X133088000Y-40277000D02*
X133088000Y-38377000D01*
X136788000Y-38377000D02*
X136788000Y-40277000D01*
X136788000Y-40277000D02*
X133088000Y-40277000D01*
X91668000Y-69429250D02*
X91668000Y-66129250D01*
X91668000Y-69429250D02*
X94168000Y-69429250D01*
X94168000Y-66129250D02*
X91668000Y-66129250D01*
X94168000Y-66129250D02*
X94168000Y-69429250D01*
X43018000Y-70677000D02*
X44918000Y-70677000D01*
X43018000Y-74377000D02*
X43018000Y-70677000D01*
X44918000Y-70677000D02*
X44918000Y-74377000D01*
X44918000Y-74377000D02*
X43018000Y-74377000D01*
X89388000Y-57998250D02*
X91288000Y-57998250D01*
X89388000Y-61698250D02*
X89388000Y-57998250D01*
X91288000Y-57998250D02*
X91288000Y-61698250D01*
X91288000Y-61698250D02*
X89388000Y-61698250D01*
D11*
X34388816Y-17827000D02*
G75*
G02*
X32427184Y-17827000I-980816J0D01*
G01*
X32427184Y-17827000D02*
G75*
G02*
X34388816Y-17827000I980816J0D01*
G01*
D12*
X69508000Y-51227000D02*
X71408000Y-51227000D01*
X69508000Y-54927000D02*
X69508000Y-51227000D01*
X71408000Y-51227000D02*
X71408000Y-54927000D01*
X71408000Y-54927000D02*
X69508000Y-54927000D01*
D11*
X19148816Y-17827000D02*
G75*
G02*
X17187184Y-17827000I-980816J0D01*
G01*
X17187184Y-17827000D02*
G75*
G02*
X19148816Y-17827000I980816J0D01*
G01*
X21688816Y-33067000D02*
G75*
G02*
X19727184Y-33067000I-980816J0D01*
G01*
X19727184Y-33067000D02*
G75*
G02*
X21688816Y-33067000I980816J0D01*
G01*
D12*
X119213000Y-48087000D02*
X121113000Y-48087000D01*
X119213000Y-51787000D02*
X119213000Y-48087000D01*
X121113000Y-48087000D02*
X121113000Y-51787000D01*
X121113000Y-51787000D02*
X119213000Y-51787000D01*
D11*
X19148816Y-25447000D02*
G75*
G02*
X17187184Y-25447000I-980816J0D01*
G01*
X17187184Y-25447000D02*
G75*
G02*
X19148816Y-25447000I980816J0D01*
G01*
X21688816Y-15287000D02*
G75*
G02*
X19727184Y-15287000I-980816J0D01*
G01*
X19727184Y-15287000D02*
G75*
G02*
X21688816Y-15287000I980816J0D01*
G01*
X24228816Y-15287000D02*
G75*
G02*
X22267184Y-15287000I-980816J0D01*
G01*
X22267184Y-15287000D02*
G75*
G02*
X24228816Y-15287000I980816J0D01*
G01*
X16608816Y-20367000D02*
G75*
G02*
X14647184Y-20367000I-980816J0D01*
G01*
X14647184Y-20367000D02*
G75*
G02*
X16608816Y-20367000I980816J0D01*
G01*
D12*
X81060500Y-42927000D02*
X81060500Y-33427000D01*
X81060500Y-33427000D02*
X75860500Y-33427000D01*
X75860500Y-42927000D02*
X81060500Y-42927000D01*
X75860500Y-33427000D02*
X75860500Y-42927000D01*
D11*
X44623816Y-25442000D02*
G75*
G02*
X42662184Y-25442000I-980816J0D01*
G01*
X42662184Y-25442000D02*
G75*
G02*
X44623816Y-25442000I980816J0D01*
G01*
D12*
X35218000Y-69172000D02*
X38978000Y-69172000D01*
X35218000Y-71132000D02*
X35218000Y-69172000D01*
X38978000Y-69172000D02*
X38978000Y-71132000D01*
X38978000Y-71132000D02*
X35218000Y-71132000D01*
X113930142Y-69452821D02*
X113930142Y-66152821D01*
X113930142Y-69452821D02*
X116430142Y-69452821D01*
X116430142Y-66152821D02*
X113930142Y-66152821D01*
X116430142Y-66152821D02*
X116430142Y-69452821D01*
X147808000Y-71815000D02*
X144108000Y-71815000D01*
X147808000Y-69915000D02*
X147808000Y-71815000D01*
X144108000Y-71815000D02*
X144108000Y-69915000D01*
X144108000Y-69915000D02*
X147808000Y-69915000D01*
X40348000Y-57352000D02*
X42308000Y-57352000D01*
X40348000Y-61112000D02*
X40348000Y-57352000D01*
X42308000Y-57352000D02*
X42308000Y-61112000D01*
X42308000Y-61112000D02*
X40348000Y-61112000D01*
D11*
X16608816Y-22907000D02*
G75*
G02*
X14647184Y-22907000I-980816J0D01*
G01*
X14647184Y-22907000D02*
G75*
G02*
X16608816Y-22907000I980816J0D01*
G01*
D12*
X121875500Y-29297000D02*
X121875500Y-32697000D01*
X121875500Y-32697000D02*
X125975500Y-32697000D01*
X125975500Y-29297000D02*
X121875500Y-29297000D01*
X125975500Y-32697000D02*
X125975500Y-29297000D01*
X98978000Y-50182000D02*
X100878000Y-50182000D01*
X98978000Y-53882000D02*
X98978000Y-50182000D01*
X100878000Y-50182000D02*
X100878000Y-53882000D01*
X100878000Y-53882000D02*
X98978000Y-53882000D01*
X131218000Y-32437000D02*
X134978000Y-32437000D01*
X131218000Y-34397000D02*
X131218000Y-32437000D01*
X134978000Y-32437000D02*
X134978000Y-34397000D01*
X134978000Y-34397000D02*
X131218000Y-34397000D01*
X147782000Y-69675000D02*
X144082000Y-69675000D01*
X147782000Y-67775000D02*
X147782000Y-69675000D01*
X144082000Y-69675000D02*
X144082000Y-67775000D01*
X144082000Y-67775000D02*
X147782000Y-67775000D01*
X129348000Y-69478000D02*
X129348000Y-66178000D01*
X129348000Y-69478000D02*
X131848000Y-69478000D01*
X131848000Y-66178000D02*
X129348000Y-66178000D01*
X131848000Y-66178000D02*
X131848000Y-69478000D01*
D11*
X16608816Y-27987000D02*
G75*
G02*
X14647184Y-27987000I-980816J0D01*
G01*
X14647184Y-27987000D02*
G75*
G02*
X16608816Y-27987000I980816J0D01*
G01*
D12*
X45968000Y-62467000D02*
X45968000Y-59467000D01*
X45968000Y-62467000D02*
X48968000Y-62467000D01*
X48968000Y-59467000D02*
X45968000Y-59467000D01*
X48968000Y-59467000D02*
X48968000Y-62467000D01*
D11*
X79368816Y-71517000D02*
G75*
G02*
X77407184Y-71517000I-980816J0D01*
G01*
X77407184Y-71517000D02*
G75*
G02*
X79368816Y-71517000I980816J0D01*
G01*
X29308816Y-27987000D02*
G75*
G02*
X27347184Y-27987000I-980816J0D01*
G01*
X27347184Y-27987000D02*
G75*
G02*
X29308816Y-27987000I980816J0D01*
G01*
D12*
X34880500Y-57554500D02*
X36780500Y-57554500D01*
X34880500Y-61254500D02*
X34880500Y-57554500D01*
X36780500Y-57554500D02*
X36780500Y-61254500D01*
X36780500Y-61254500D02*
X34880500Y-61254500D01*
D11*
X42083816Y-27982000D02*
G75*
G02*
X40122184Y-27982000I-980816J0D01*
G01*
X40122184Y-27982000D02*
G75*
G02*
X42083816Y-27982000I980816J0D01*
G01*
X26768816Y-22907000D02*
G75*
G02*
X24807184Y-22907000I-980816J0D01*
G01*
X24807184Y-22907000D02*
G75*
G02*
X26768816Y-22907000I980816J0D01*
G01*
X31848816Y-27987000D02*
G75*
G02*
X29887184Y-27987000I-980816J0D01*
G01*
X29887184Y-27987000D02*
G75*
G02*
X31848816Y-27987000I980816J0D01*
G01*
D12*
X28068000Y-37697000D02*
X29968000Y-37697000D01*
X28068000Y-41397000D02*
X28068000Y-37697000D01*
X29968000Y-37697000D02*
X29968000Y-41397000D01*
X29968000Y-41397000D02*
X28068000Y-41397000D01*
X47643000Y-39527000D02*
X49603000Y-39527000D01*
X47643000Y-43287000D02*
X47643000Y-39527000D01*
X49603000Y-39527000D02*
X49603000Y-43287000D01*
X49603000Y-43287000D02*
X47643000Y-43287000D01*
X116457999Y-69380500D02*
X116457999Y-66080500D01*
X116457999Y-69380500D02*
X118957999Y-69380500D01*
X118957999Y-66080500D02*
X116457999Y-66080500D01*
X118957999Y-66080500D02*
X118957999Y-69380500D01*
D11*
X21688816Y-17827000D02*
G75*
G02*
X19727184Y-17827000I-980816J0D01*
G01*
X19727184Y-17827000D02*
G75*
G02*
X21688816Y-17827000I980816J0D01*
G01*
D12*
X137088000Y-30637000D02*
X137088000Y-34397000D01*
X135128000Y-30637000D02*
X137088000Y-30637000D01*
X137088000Y-34397000D02*
X135128000Y-34397000D01*
X135128000Y-34397000D02*
X135128000Y-30637000D01*
X86818000Y-44443000D02*
X90578000Y-44443000D01*
X86818000Y-46403000D02*
X86818000Y-44443000D01*
X90578000Y-44443000D02*
X90578000Y-46403000D01*
X90578000Y-46403000D02*
X86818000Y-46403000D01*
X60923000Y-51302000D02*
X64683000Y-51302000D01*
X60923000Y-53262000D02*
X60923000Y-51302000D01*
X64683000Y-51302000D02*
X64683000Y-53262000D01*
X64683000Y-53262000D02*
X60923000Y-53262000D01*
X50398000Y-61677000D02*
X50398000Y-64677000D01*
X50398000Y-61677000D02*
X53398000Y-61677000D01*
X53398000Y-64677000D02*
X50398000Y-64677000D01*
X53398000Y-64677000D02*
X53398000Y-61677000D01*
X143625500Y-62037000D02*
X139925500Y-62037000D01*
X143625500Y-60137000D02*
X143625500Y-62037000D01*
X139925500Y-62037000D02*
X139925500Y-60137000D01*
X139925500Y-60137000D02*
X143625500Y-60137000D01*
X56938000Y-37147000D02*
X60638000Y-37147000D01*
X56938000Y-39047000D02*
X56938000Y-37147000D01*
X60638000Y-37147000D02*
X60638000Y-39047000D01*
X60638000Y-39047000D02*
X56938000Y-39047000D01*
D11*
X76828816Y-71517000D02*
G75*
G02*
X74867184Y-71517000I-980816J0D01*
G01*
X74867184Y-71517000D02*
G75*
G02*
X76828816Y-71517000I980816J0D01*
G01*
D12*
X30930500Y-59394500D02*
X34630500Y-59394500D01*
X30930500Y-61294500D02*
X30930500Y-59394500D01*
X34630500Y-59394500D02*
X34630500Y-61294500D01*
X34630500Y-61294500D02*
X30930500Y-61294500D01*
D11*
X31848816Y-30527000D02*
G75*
G02*
X29887184Y-30527000I-980816J0D01*
G01*
X29887184Y-30527000D02*
G75*
G02*
X31848816Y-30527000I980816J0D01*
G01*
X79368816Y-74057000D02*
G75*
G02*
X77407184Y-74057000I-980816J0D01*
G01*
X77407184Y-74057000D02*
G75*
G02*
X79368816Y-74057000I980816J0D01*
G01*
D12*
X136300000Y-42345920D02*
X136300000Y-58595920D01*
X136300000Y-58595920D02*
X147110000Y-58595920D01*
X147110000Y-42345920D02*
X136300000Y-42345920D01*
X147110000Y-58595920D02*
X147110000Y-42345920D01*
D11*
X24228816Y-20367000D02*
G75*
G02*
X22267184Y-20367000I-980816J0D01*
G01*
X22267184Y-20367000D02*
G75*
G02*
X24228816Y-20367000I980816J0D01*
G01*
D12*
X30853000Y-62282000D02*
X32753000Y-62282000D01*
X30853000Y-65982000D02*
X30853000Y-62282000D01*
X32753000Y-62282000D02*
X32753000Y-65982000D01*
X32753000Y-65982000D02*
X30853000Y-65982000D01*
D11*
X44623816Y-33062000D02*
G75*
G02*
X42662184Y-33062000I-980816J0D01*
G01*
X42662184Y-33062000D02*
G75*
G02*
X44623816Y-33062000I980816J0D01*
G01*
X26768816Y-30527000D02*
G75*
G02*
X24807184Y-30527000I-980816J0D01*
G01*
X24807184Y-30527000D02*
G75*
G02*
X26768816Y-30527000I980816J0D01*
G01*
D12*
X144958000Y-60137000D02*
X148658000Y-60137000D01*
X144958000Y-62037000D02*
X144958000Y-60137000D01*
X148658000Y-60137000D02*
X148658000Y-62037000D01*
X148658000Y-62037000D02*
X144958000Y-62037000D01*
D11*
X47163816Y-30522000D02*
G75*
G02*
X45202184Y-30522000I-980816J0D01*
G01*
X45202184Y-30522000D02*
G75*
G02*
X47163816Y-30522000I980816J0D01*
G01*
X16608816Y-33067000D02*
G75*
G02*
X14647184Y-33067000I-980816J0D01*
G01*
X14647184Y-33067000D02*
G75*
G02*
X16608816Y-33067000I980816J0D01*
G01*
D12*
X63048000Y-36877000D02*
X66808000Y-36877000D01*
X63048000Y-38837000D02*
X63048000Y-36877000D01*
X66808000Y-36877000D02*
X66808000Y-38837000D01*
X66808000Y-38837000D02*
X63048000Y-38837000D01*
X144918000Y-62417000D02*
X148618000Y-62417000D01*
X144918000Y-64317000D02*
X144918000Y-62417000D01*
X148618000Y-62417000D02*
X148618000Y-64317000D01*
X148618000Y-64317000D02*
X144918000Y-64317000D01*
D11*
X24228816Y-30527000D02*
G75*
G02*
X22267184Y-30527000I-980816J0D01*
G01*
X22267184Y-30527000D02*
G75*
G02*
X24228816Y-30527000I980816J0D01*
G01*
D12*
X91523000Y-45502000D02*
X93483000Y-45502000D01*
X91523000Y-49262000D02*
X91523000Y-45502000D01*
X93483000Y-45502000D02*
X93483000Y-49262000D01*
X93483000Y-49262000D02*
X91523000Y-49262000D01*
X33668000Y-61554500D02*
X33668000Y-68954500D01*
X33668000Y-68954500D02*
X42828000Y-68954500D01*
X42828000Y-61554500D02*
X33668000Y-61554500D01*
X42828000Y-68954500D02*
X42828000Y-61554500D01*
X95858000Y-42067000D02*
X95858000Y-45067000D01*
X95858000Y-42067000D02*
X98858000Y-42067000D01*
X98858000Y-45067000D02*
X95858000Y-45067000D01*
X98858000Y-45067000D02*
X98858000Y-42067000D01*
D11*
X21688816Y-20367000D02*
G75*
G02*
X19727184Y-20367000I-980816J0D01*
G01*
X19727184Y-20367000D02*
G75*
G02*
X21688816Y-20367000I980816J0D01*
G01*
D12*
X105743000Y-69568000D02*
X105743000Y-75718000D01*
X105743000Y-75718000D02*
X132193000Y-75718000D01*
X132193000Y-69568000D02*
X105743000Y-69568000D01*
X132193000Y-75718000D02*
X132193000Y-69568000D01*
D11*
X47163816Y-25442000D02*
G75*
G02*
X45202184Y-25442000I-980816J0D01*
G01*
X45202184Y-25442000D02*
G75*
G02*
X47163816Y-25442000I980816J0D01*
G01*
D12*
X128508000Y-46947000D02*
X128508000Y-49947000D01*
X128508000Y-46947000D02*
X131508000Y-46947000D01*
X131508000Y-49947000D02*
X128508000Y-49947000D01*
X131508000Y-49947000D02*
X131508000Y-46947000D01*
X124418000Y-50477000D02*
X128118000Y-50477000D01*
X124418000Y-52377000D02*
X124418000Y-50477000D01*
X128118000Y-50477000D02*
X128118000Y-52377000D01*
X128118000Y-52377000D02*
X124418000Y-52377000D01*
D11*
X36928816Y-25447000D02*
G75*
G02*
X34967184Y-25447000I-980816J0D01*
G01*
X34967184Y-25447000D02*
G75*
G02*
X36928816Y-25447000I980816J0D01*
G01*
D12*
X84603000Y-52232000D02*
X88303000Y-52232000D01*
X84603000Y-54132000D02*
X84603000Y-52232000D01*
X88303000Y-52232000D02*
X88303000Y-54132000D01*
X88303000Y-54132000D02*
X84603000Y-54132000D01*
X102448000Y-62109500D02*
X104348000Y-62109500D01*
X102448000Y-65809500D02*
X102448000Y-62109500D01*
X104348000Y-62109500D02*
X104348000Y-65809500D01*
X104348000Y-65809500D02*
X102448000Y-65809500D01*
X119815500Y-29297000D02*
X121775500Y-29297000D01*
X119815500Y-33057000D02*
X119815500Y-29297000D01*
X121775500Y-29297000D02*
X121775500Y-33057000D01*
X121775500Y-33057000D02*
X119815500Y-33057000D01*
X119558000Y-62152000D02*
X121458000Y-62152000D01*
X119558000Y-65852000D02*
X119558000Y-62152000D01*
X121458000Y-62152000D02*
X121458000Y-65852000D01*
X121458000Y-65852000D02*
X119558000Y-65852000D01*
X19410500Y-63752000D02*
X23170500Y-63752000D01*
X19410500Y-65712000D02*
X19410500Y-63752000D01*
X23170500Y-63752000D02*
X23170500Y-65712000D01*
X23170500Y-65712000D02*
X19410500Y-65712000D01*
X119629429Y-58049500D02*
X121529429Y-58049500D01*
X119629429Y-61749500D02*
X119629429Y-58049500D01*
X121529429Y-58049500D02*
X121529429Y-61749500D01*
X121529429Y-61749500D02*
X119629429Y-61749500D01*
D11*
X34388816Y-30527000D02*
G75*
G02*
X32427184Y-30527000I-980816J0D01*
G01*
X32427184Y-30527000D02*
G75*
G02*
X34388816Y-30527000I980816J0D01*
G01*
X26768816Y-20367000D02*
G75*
G02*
X24807184Y-20367000I-980816J0D01*
G01*
X24807184Y-20367000D02*
G75*
G02*
X26768816Y-20367000I980816J0D01*
G01*
D12*
X14574000Y-68151000D02*
X14574000Y-65151000D01*
X14574000Y-68151000D02*
X17574000Y-68151000D01*
X17574000Y-65151000D02*
X14574000Y-65151000D01*
X17574000Y-65151000D02*
X17574000Y-68151000D01*
X107643000Y-69379250D02*
X107643000Y-66079250D01*
X107643000Y-69379250D02*
X110143000Y-69379250D01*
X110143000Y-66079250D02*
X107643000Y-66079250D01*
X110143000Y-66079250D02*
X110143000Y-69379250D01*
X22498000Y-70507000D02*
X24398000Y-70507000D01*
X22498000Y-74207000D02*
X22498000Y-70507000D01*
X24398000Y-70507000D02*
X24398000Y-74207000D01*
X24398000Y-74207000D02*
X22498000Y-74207000D01*
X42950500Y-65344500D02*
X44850500Y-65344500D01*
X42950500Y-69044500D02*
X42950500Y-65344500D01*
X44850500Y-65344500D02*
X44850500Y-69044500D01*
X44850500Y-69044500D02*
X42950500Y-69044500D01*
D11*
X42083816Y-20362000D02*
G75*
G02*
X40122184Y-20362000I-980816J0D01*
G01*
X40122184Y-20362000D02*
G75*
G02*
X42083816Y-20362000I980816J0D01*
G01*
X39468816Y-33067000D02*
G75*
G02*
X37507184Y-33067000I-980816J0D01*
G01*
X37507184Y-33067000D02*
G75*
G02*
X39468816Y-33067000I980816J0D01*
G01*
D12*
X126992285Y-62216285D02*
X128892285Y-62216285D01*
X126992285Y-65916285D02*
X126992285Y-62216285D01*
X128892285Y-62216285D02*
X128892285Y-65916285D01*
X128892285Y-65916285D02*
X126992285Y-65916285D01*
X71078000Y-32667000D02*
X74778000Y-32667000D01*
X71078000Y-34567000D02*
X71078000Y-32667000D01*
X74778000Y-32667000D02*
X74778000Y-34567000D01*
X74778000Y-34567000D02*
X71078000Y-34567000D01*
D11*
X76828816Y-74057000D02*
G75*
G02*
X74867184Y-74057000I-980816J0D01*
G01*
X74867184Y-74057000D02*
G75*
G02*
X76828816Y-74057000I980816J0D01*
G01*
X39468816Y-25447000D02*
G75*
G02*
X37507184Y-25447000I-980816J0D01*
G01*
X37507184Y-25447000D02*
G75*
G02*
X39468816Y-25447000I980816J0D01*
G01*
X19148816Y-15287000D02*
G75*
G02*
X17187184Y-15287000I-980816J0D01*
G01*
X17187184Y-15287000D02*
G75*
G02*
X19148816Y-15287000I980816J0D01*
G01*
D12*
X82008000Y-42067000D02*
X82008000Y-45067000D01*
X82008000Y-42067000D02*
X85008000Y-42067000D01*
X85008000Y-45067000D02*
X82008000Y-45067000D01*
X85008000Y-45067000D02*
X85008000Y-42067000D01*
X35338000Y-37417000D02*
X39038000Y-37417000D01*
X35338000Y-39317000D02*
X35338000Y-37417000D01*
X39038000Y-37417000D02*
X39038000Y-39317000D01*
X39038000Y-39317000D02*
X35338000Y-39317000D01*
X60893000Y-53352000D02*
X64653000Y-53352000D01*
X60893000Y-55312000D02*
X60893000Y-53352000D01*
X64653000Y-53352000D02*
X64653000Y-55312000D01*
X64653000Y-55312000D02*
X60893000Y-55312000D01*
X35198000Y-71227000D02*
X38958000Y-71227000D01*
X35198000Y-73187000D02*
X35198000Y-71227000D01*
X38958000Y-71227000D02*
X38958000Y-73187000D01*
X38958000Y-73187000D02*
X35198000Y-73187000D01*
X114298000Y-58091821D02*
X116198000Y-58091821D01*
X114298000Y-61791821D02*
X114298000Y-58091821D01*
X116198000Y-58091821D02*
X116198000Y-61791821D01*
X116198000Y-61791821D02*
X114298000Y-61791821D01*
X19435500Y-65952000D02*
X23195500Y-65952000D01*
X19435500Y-67912000D02*
X19435500Y-65952000D01*
X23195500Y-65952000D02*
X23195500Y-67912000D01*
X23195500Y-67912000D02*
X19435500Y-67912000D01*
X24533000Y-70957000D02*
X24533000Y-74357000D01*
X24533000Y-74357000D02*
X28633000Y-74357000D01*
X28633000Y-70957000D02*
X24533000Y-70957000D01*
X28633000Y-74357000D02*
X28633000Y-70957000D01*
X91968000Y-62170750D02*
X93868000Y-62170750D01*
X91968000Y-65870750D02*
X91968000Y-62170750D01*
X93868000Y-62170750D02*
X93868000Y-65870750D01*
X93868000Y-65870750D02*
X91968000Y-65870750D01*
D11*
X44693816Y-17782000D02*
G75*
G02*
X42732184Y-17782000I-980816J0D01*
G01*
X42732184Y-17782000D02*
G75*
G02*
X44693816Y-17782000I980816J0D01*
G01*
X39468816Y-27987000D02*
G75*
G02*
X37507184Y-27987000I-980816J0D01*
G01*
X37507184Y-27987000D02*
G75*
G02*
X39468816Y-27987000I980816J0D01*
G01*
D12*
X119968000Y-15302000D02*
X119968000Y-26932000D01*
X119968000Y-26932000D02*
X127168000Y-26932000D01*
X127168000Y-15302000D02*
X119968000Y-15302000D01*
X127168000Y-26932000D02*
X127168000Y-15302000D01*
D11*
X47233816Y-15242000D02*
G75*
G02*
X45272184Y-15242000I-980816J0D01*
G01*
X45272184Y-15242000D02*
G75*
G02*
X47233816Y-15242000I980816J0D01*
G01*
X21688816Y-22907000D02*
G75*
G02*
X19727184Y-22907000I-980816J0D01*
G01*
X19727184Y-22907000D02*
G75*
G02*
X21688816Y-22907000I980816J0D01*
G01*
D12*
X23860500Y-62302000D02*
X27620500Y-62302000D01*
X23860500Y-64262000D02*
X23860500Y-62302000D01*
X27620500Y-62302000D02*
X27620500Y-64262000D01*
X27620500Y-64262000D02*
X23860500Y-64262000D01*
X100098000Y-44263000D02*
X103858000Y-44263000D01*
X100098000Y-46223000D02*
X100098000Y-44263000D01*
X103858000Y-44263000D02*
X103858000Y-46223000D01*
X103858000Y-46223000D02*
X100098000Y-46223000D01*
D11*
X29308816Y-20367000D02*
G75*
G02*
X27347184Y-20367000I-980816J0D01*
G01*
X27347184Y-20367000D02*
G75*
G02*
X29308816Y-20367000I980816J0D01*
G01*
X34388816Y-22907000D02*
G75*
G02*
X32427184Y-22907000I-980816J0D01*
G01*
X32427184Y-22907000D02*
G75*
G02*
X34388816Y-22907000I980816J0D01*
G01*
X24228816Y-33067000D02*
G75*
G02*
X22267184Y-33067000I-980816J0D01*
G01*
X22267184Y-33067000D02*
G75*
G02*
X24228816Y-33067000I980816J0D01*
G01*
X42083816Y-30522000D02*
G75*
G02*
X40122184Y-30522000I-980816J0D01*
G01*
X40122184Y-30522000D02*
G75*
G02*
X42083816Y-30522000I980816J0D01*
G01*
D12*
X107943000Y-58018250D02*
X109843000Y-58018250D01*
X107943000Y-61718250D02*
X107943000Y-58018250D01*
X109843000Y-58018250D02*
X109843000Y-61718250D01*
X109843000Y-61718250D02*
X107943000Y-61718250D01*
X139828000Y-67695000D02*
X143528000Y-67695000D01*
X139828000Y-69595000D02*
X139828000Y-67695000D01*
X143528000Y-67695000D02*
X143528000Y-69595000D01*
X143528000Y-69595000D02*
X139828000Y-69595000D01*
D11*
X36928816Y-30527000D02*
G75*
G02*
X34967184Y-30527000I-980816J0D01*
G01*
X34967184Y-30527000D02*
G75*
G02*
X36928816Y-30527000I980816J0D01*
G01*
X34388816Y-20367000D02*
G75*
G02*
X32427184Y-20367000I-980816J0D01*
G01*
X32427184Y-20367000D02*
G75*
G02*
X34388816Y-20367000I980816J0D01*
G01*
D12*
X126674426Y-69474785D02*
X126674426Y-66174785D01*
X126674426Y-69474785D02*
X129174426Y-69474785D01*
X129174426Y-66174785D02*
X126674426Y-66174785D01*
X129174426Y-66174785D02*
X129174426Y-69474785D01*
D11*
X16608816Y-17827000D02*
G75*
G02*
X14647184Y-17827000I-980816J0D01*
G01*
X14647184Y-17827000D02*
G75*
G02*
X16608816Y-17827000I980816J0D01*
G01*
D12*
X97268000Y-58077750D02*
X99168000Y-58077750D01*
X97268000Y-61777750D02*
X97268000Y-58077750D01*
X99168000Y-58077750D02*
X99168000Y-61777750D01*
X99168000Y-61777750D02*
X97268000Y-61777750D01*
D11*
X39538816Y-17787000D02*
G75*
G02*
X37577184Y-17787000I-980816J0D01*
G01*
X37577184Y-17787000D02*
G75*
G02*
X39538816Y-17787000I980816J0D01*
G01*
D12*
X104468000Y-38747000D02*
X104468000Y-41747000D01*
X104468000Y-38747000D02*
X107468000Y-38747000D01*
X107468000Y-41747000D02*
X104468000Y-41747000D01*
X107468000Y-41747000D02*
X107468000Y-38747000D01*
D11*
X34388816Y-25447000D02*
G75*
G02*
X32427184Y-25447000I-980816J0D01*
G01*
X32427184Y-25447000D02*
G75*
G02*
X34388816Y-25447000I980816J0D01*
G01*
D12*
X73198000Y-49447000D02*
X75098000Y-49447000D01*
X73198000Y-53147000D02*
X73198000Y-49447000D01*
X75098000Y-49447000D02*
X75098000Y-53147000D01*
X75098000Y-53147000D02*
X73198000Y-53147000D01*
D11*
X24228816Y-27987000D02*
G75*
G02*
X22267184Y-27987000I-980816J0D01*
G01*
X22267184Y-27987000D02*
G75*
G02*
X24228816Y-27987000I980816J0D01*
G01*
D12*
X84628000Y-50132000D02*
X88328000Y-50132000D01*
X84628000Y-52032000D02*
X84628000Y-50132000D01*
X88328000Y-50132000D02*
X88328000Y-52032000D01*
X88328000Y-52032000D02*
X84628000Y-52032000D01*
X38348000Y-57352000D02*
X40308000Y-57352000D01*
X38348000Y-61112000D02*
X38348000Y-57352000D01*
X40308000Y-57352000D02*
X40308000Y-61112000D01*
X40308000Y-61112000D02*
X38348000Y-61112000D01*
X119218713Y-69410500D02*
X119218713Y-66110500D01*
X119218713Y-69410500D02*
X121718713Y-69410500D01*
X121718713Y-66110500D02*
X119218713Y-66110500D01*
X121718713Y-66110500D02*
X121718713Y-69410500D01*
X101448000Y-47957000D02*
X105148000Y-47957000D01*
X101448000Y-49857000D02*
X101448000Y-47957000D01*
X105148000Y-47957000D02*
X105148000Y-49857000D01*
X105148000Y-49857000D02*
X101448000Y-49857000D01*
X121318000Y-48047000D02*
X125018000Y-48047000D01*
X121318000Y-49947000D02*
X121318000Y-48047000D01*
X125018000Y-48047000D02*
X125018000Y-49947000D01*
X125018000Y-49947000D02*
X121318000Y-49947000D01*
D11*
X47233816Y-22862000D02*
G75*
G02*
X45272184Y-22862000I-980816J0D01*
G01*
X45272184Y-22862000D02*
G75*
G02*
X47233816Y-22862000I980816J0D01*
G01*
X42083816Y-22902000D02*
G75*
G02*
X40122184Y-22902000I-980816J0D01*
G01*
X40122184Y-22902000D02*
G75*
G02*
X42083816Y-22902000I980816J0D01*
G01*
D12*
X93543000Y-45522000D02*
X95503000Y-45522000D01*
X93543000Y-49282000D02*
X93543000Y-45522000D01*
X95503000Y-45522000D02*
X95503000Y-49282000D01*
X95503000Y-49282000D02*
X93543000Y-49282000D01*
X106878000Y-43527000D02*
X110638000Y-43527000D01*
X106878000Y-45487000D02*
X106878000Y-43527000D01*
X110638000Y-43527000D02*
X110638000Y-45487000D01*
X110638000Y-45487000D02*
X106878000Y-45487000D01*
D11*
X42083816Y-33062000D02*
G75*
G02*
X40122184Y-33062000I-980816J0D01*
G01*
X40122184Y-33062000D02*
G75*
G02*
X42083816Y-33062000I980816J0D01*
G01*
X29308816Y-22907000D02*
G75*
G02*
X27347184Y-22907000I-980816J0D01*
G01*
X27347184Y-22907000D02*
G75*
G02*
X29308816Y-22907000I980816J0D01*
G01*
D12*
X35503000Y-49932000D02*
X37403000Y-49932000D01*
X35503000Y-53632000D02*
X35503000Y-49932000D01*
X37403000Y-49932000D02*
X37403000Y-53632000D01*
X37403000Y-53632000D02*
X35503000Y-53632000D01*
X86658000Y-48698000D02*
X86658000Y-45298000D01*
X86658000Y-45298000D02*
X82558000Y-45298000D01*
X82558000Y-48698000D02*
X86658000Y-48698000D01*
X82558000Y-45298000D02*
X82558000Y-48698000D01*
X126928000Y-58113785D02*
X128828000Y-58113785D01*
X126928000Y-61813785D02*
X126928000Y-58113785D01*
X128828000Y-58113785D02*
X128828000Y-61813785D01*
X128828000Y-61813785D02*
X126928000Y-61813785D01*
X124358000Y-62159500D02*
X126258000Y-62159500D01*
X124358000Y-65859500D02*
X124358000Y-62159500D01*
X126258000Y-62159500D02*
X126258000Y-65859500D01*
X126258000Y-65859500D02*
X124358000Y-65859500D01*
D11*
X16608816Y-15287000D02*
G75*
G02*
X14647184Y-15287000I-980816J0D01*
G01*
X14647184Y-15287000D02*
G75*
G02*
X16608816Y-15287000I980816J0D01*
G01*
D12*
X88448000Y-69578000D02*
X88448000Y-75728000D01*
X88448000Y-75728000D02*
X104748000Y-75728000D01*
X104748000Y-69578000D02*
X88448000Y-69578000D01*
X104748000Y-75728000D02*
X104748000Y-69578000D01*
X129630143Y-62219500D02*
X131530143Y-62219500D01*
X129630143Y-65919500D02*
X129630143Y-62219500D01*
X131530143Y-62219500D02*
X131530143Y-65919500D01*
X131530143Y-65919500D02*
X129630143Y-65919500D01*
D11*
X44623816Y-30522000D02*
G75*
G02*
X42662184Y-30522000I-980816J0D01*
G01*
X42662184Y-30522000D02*
G75*
G02*
X44623816Y-30522000I980816J0D01*
G01*
D12*
X124029427Y-69418000D02*
X124029427Y-66118000D01*
X124029427Y-69418000D02*
X126529427Y-69418000D01*
X126529427Y-66118000D02*
X124029427Y-66118000D01*
X126529427Y-66118000D02*
X126529427Y-69418000D01*
X110738000Y-38457000D02*
X114438000Y-38457000D01*
X110738000Y-40357000D02*
X110738000Y-38457000D01*
X114438000Y-38457000D02*
X114438000Y-40357000D01*
X114438000Y-40357000D02*
X110738000Y-40357000D01*
X56828000Y-39202000D02*
X56828000Y-51062000D01*
X56828000Y-51062000D02*
X72728000Y-51062000D01*
X72728000Y-39202000D02*
X56828000Y-39202000D01*
X72728000Y-51062000D02*
X72728000Y-39202000D01*
X137108000Y-26607000D02*
X137108000Y-30367000D01*
X135148000Y-26607000D02*
X137108000Y-26607000D01*
X137108000Y-30367000D02*
X135148000Y-30367000D01*
X135148000Y-30367000D02*
X135148000Y-26607000D01*
D11*
X24228816Y-17827000D02*
G75*
G02*
X22267184Y-17827000I-980816J0D01*
G01*
X22267184Y-17827000D02*
G75*
G02*
X24228816Y-17827000I980816J0D01*
G01*
D12*
X43208000Y-38387000D02*
X45108000Y-38387000D01*
X43208000Y-42087000D02*
X43208000Y-38387000D01*
X45108000Y-38387000D02*
X45108000Y-42087000D01*
X45108000Y-42087000D02*
X43208000Y-42087000D01*
X42940500Y-61404500D02*
X44840500Y-61404500D01*
X42940500Y-65104500D02*
X42940500Y-61404500D01*
X44840500Y-61404500D02*
X44840500Y-65104500D01*
X44840500Y-65104500D02*
X42940500Y-65104500D01*
X156958000Y-38277000D02*
X148708000Y-38277000D01*
X156958000Y-28777000D02*
X156958000Y-38277000D01*
X148708000Y-40777000D02*
X140208000Y-40777000D01*
X148708000Y-38277000D02*
X148708000Y-40777000D01*
X148708000Y-28777000D02*
X156958000Y-28777000D01*
X148708000Y-26277000D02*
X148708000Y-28777000D01*
X140208000Y-40777000D02*
X140208000Y-26277000D01*
X140208000Y-26277000D02*
X148708000Y-26277000D01*
D11*
X36998816Y-17787000D02*
G75*
G02*
X35037184Y-17787000I-980816J0D01*
G01*
X35037184Y-17787000D02*
G75*
G02*
X36998816Y-17787000I980816J0D01*
G01*
X21688816Y-27987000D02*
G75*
G02*
X19727184Y-27987000I-980816J0D01*
G01*
X19727184Y-27987000D02*
G75*
G02*
X21688816Y-27987000I980816J0D01*
G01*
D12*
X110548000Y-38549500D02*
X108648000Y-38549500D01*
X110548000Y-34849500D02*
X110548000Y-38549500D01*
X108648000Y-38549500D02*
X108648000Y-34849500D01*
X108648000Y-34849500D02*
X110548000Y-34849500D01*
X104378000Y-33107000D02*
X104378000Y-36107000D01*
X104378000Y-33107000D02*
X107378000Y-33107000D01*
X107378000Y-36107000D02*
X104378000Y-36107000D01*
X107378000Y-36107000D02*
X107378000Y-33107000D01*
D11*
X19148816Y-33067000D02*
G75*
G02*
X17187184Y-33067000I-980816J0D01*
G01*
X17187184Y-33067000D02*
G75*
G02*
X19148816Y-33067000I980816J0D01*
G01*
X26768816Y-33067000D02*
G75*
G02*
X24807184Y-33067000I-980816J0D01*
G01*
X24807184Y-33067000D02*
G75*
G02*
X26768816Y-33067000I980816J0D01*
G01*
D12*
X78498000Y-47902000D02*
X82258000Y-47902000D01*
X78498000Y-49862000D02*
X78498000Y-47902000D01*
X82258000Y-47902000D02*
X82258000Y-49862000D01*
X82258000Y-49862000D02*
X78498000Y-49862000D01*
X124015500Y-33162000D02*
X127775500Y-33162000D01*
X124015500Y-35122000D02*
X124015500Y-33162000D01*
X127775500Y-33162000D02*
X127775500Y-35122000D01*
X127775500Y-35122000D02*
X124015500Y-35122000D01*
X120108000Y-45797000D02*
X123868000Y-45797000D01*
X120108000Y-47757000D02*
X120108000Y-45797000D01*
X123868000Y-45797000D02*
X123868000Y-47757000D01*
X123868000Y-47757000D02*
X120108000Y-47757000D01*
X124386572Y-58057000D02*
X126286572Y-58057000D01*
X124386572Y-61757000D02*
X124386572Y-58057000D01*
X126286572Y-58057000D02*
X126286572Y-61757000D01*
X126286572Y-61757000D02*
X124386572Y-61757000D01*
X86818000Y-42213000D02*
X90578000Y-42213000D01*
X86818000Y-44173000D02*
X86818000Y-42213000D01*
X90578000Y-42213000D02*
X90578000Y-44173000D01*
X90578000Y-44173000D02*
X86818000Y-44173000D01*
D11*
X26768816Y-25447000D02*
G75*
G02*
X24807184Y-25447000I-980816J0D01*
G01*
X24807184Y-25447000D02*
G75*
G02*
X26768816Y-25447000I980816J0D01*
G01*
X29308816Y-15287000D02*
G75*
G02*
X27347184Y-15287000I-980816J0D01*
G01*
X27347184Y-15287000D02*
G75*
G02*
X29308816Y-15287000I980816J0D01*
G01*
X31848816Y-17827000D02*
G75*
G02*
X29887184Y-17827000I-980816J0D01*
G01*
X29887184Y-17827000D02*
G75*
G02*
X31848816Y-17827000I980816J0D01*
G01*
X44693816Y-22862000D02*
G75*
G02*
X42732184Y-22862000I-980816J0D01*
G01*
X42732184Y-22862000D02*
G75*
G02*
X44693816Y-22862000I980816J0D01*
G01*
D12*
X102433000Y-57983000D02*
X104333000Y-57983000D01*
X102433000Y-61683000D02*
X102433000Y-57983000D01*
X104333000Y-57983000D02*
X104333000Y-61683000D01*
X104333000Y-61683000D02*
X102433000Y-61683000D01*
D11*
X26768816Y-15287000D02*
G75*
G02*
X24807184Y-15287000I-980816J0D01*
G01*
X24807184Y-15287000D02*
G75*
G02*
X26768816Y-15287000I980816J0D01*
G01*
D12*
X25558000Y-60687000D02*
X25558000Y-57687000D01*
X25558000Y-60687000D02*
X28558000Y-60687000D01*
X28558000Y-57687000D02*
X25558000Y-57687000D01*
X28558000Y-57687000D02*
X28558000Y-60687000D01*
X97268000Y-62180250D02*
X99168000Y-62180250D01*
X97268000Y-65880250D02*
X97268000Y-62180250D01*
X99168000Y-62180250D02*
X99168000Y-65880250D01*
X99168000Y-65880250D02*
X97268000Y-65880250D01*
D11*
X36998816Y-20327000D02*
G75*
G02*
X35037184Y-20327000I-980816J0D01*
G01*
X35037184Y-20327000D02*
G75*
G02*
X36998816Y-20327000I980816J0D01*
G01*
D12*
X100098000Y-42033000D02*
X103858000Y-42033000D01*
X100098000Y-43993000D02*
X100098000Y-42033000D01*
X103858000Y-42033000D02*
X103858000Y-43993000D01*
X103858000Y-43993000D02*
X100098000Y-43993000D01*
D11*
X47163816Y-33062000D02*
G75*
G02*
X45202184Y-33062000I-980816J0D01*
G01*
X45202184Y-33062000D02*
G75*
G02*
X47163816Y-33062000I980816J0D01*
G01*
X39468816Y-30527000D02*
G75*
G02*
X37507184Y-30527000I-980816J0D01*
G01*
X37507184Y-30527000D02*
G75*
G02*
X39468816Y-30527000I980816J0D01*
G01*
D12*
X89388000Y-62100750D02*
X91288000Y-62100750D01*
X89388000Y-65800750D02*
X89388000Y-62100750D01*
X91288000Y-62100750D02*
X91288000Y-65800750D01*
X91288000Y-65800750D02*
X89388000Y-65800750D01*
X53308000Y-43737000D02*
X53308000Y-46737000D01*
X53308000Y-43737000D02*
X56308000Y-43737000D01*
X56308000Y-46737000D02*
X53308000Y-46737000D01*
X56308000Y-46737000D02*
X56308000Y-43737000D01*
X53718000Y-51017000D02*
X55678000Y-51017000D01*
X53718000Y-54777000D02*
X53718000Y-51017000D01*
X55678000Y-51017000D02*
X55678000Y-54777000D01*
X55678000Y-54777000D02*
X53718000Y-54777000D01*
D11*
X31848816Y-33067000D02*
G75*
G02*
X29887184Y-33067000I-980816J0D01*
G01*
X29887184Y-33067000D02*
G75*
G02*
X31848816Y-33067000I980816J0D01*
G01*
M02*
