M48
; DRILL file {KiCad 8.0.8} date 2025-07-15T12:34:10-0700
; FORMAT={-:-/ absolute / metric / decimal}
; #@! TF.CreationDate,2025-07-15T12:34:10-07:00
; #@! TF.GenerationSoftware,Kicad,Pcbnew,8.0.8
; #@! TF.FileFunction,Plated,1,4,PTH
FMAT,2
METRIC
; #@! TA.AperFunction,Plated,PTH,ViaDrill
T1C0.300
; #@! TA.AperFunction,Plated,PTH,ComponentDrill
T2C0.559
; #@! TA.AperFunction,Plated,PTH,ComponentDrill
T3C0.889
; #@! TA.AperFunction,Plated,PTH,ComponentDrill
T4C0.900
; #@! TA.AperFunction,Plated,PTH,ComponentDrill
T5C1.000
; #@! TA.AperFunction,Plated,PTH,ComponentDrill
T6C1.200
; #@! TA.AperFunction,Plated,PTH,ComponentDrill
T7C1.300
; #@! TA.AperFunction,Plated,PTH,ComponentDrill
T8C2.007
; #@! TA.AperFunction,Plated,PTH,ComponentDrill
T9C3.200
%
G90
G05
T1
X14.4Y-68.3
X14.45Y-66.35
X16.3Y-62.95
X16.3Y-73.9
X16.552Y-51.648
X20.562Y-51.5
X20.64Y-72.23
X20.7Y-66.9
X22.426Y-56.726
X24.9Y-49.8
X25.9Y-59.1
X26.6Y-58.4
X27.0Y-53.8
X27.4Y-57.6
X27.762Y-41.337
X30.06Y-49.01
X31.3Y-37.4
X32.1Y-59.0
X35.1Y-45.3
X35.562Y-49.938
X37.7Y-44.8
X38.8Y-51.6
X39.8Y-35.9
X40.8Y-39.8
X40.84Y-26.27
X40.9Y-35.9
X41.4Y-51.4
X41.86Y-35.2
X43.1Y-27.4
X43.1Y-39.9
X43.2Y-54.6
X43.48Y-44.93
X43.5Y-58.6
X43.9Y-56.8
X44.581Y-55.6
X45.2Y-46.8
X45.9Y-27.65
X46.37Y-32.84
X47.0Y-59.237
X47.038Y-57.162
X48.19Y-54.95
X48.52Y-27.72
X50.38Y-38.42
X52.15Y-27.73
X52.24Y-36.1
X54.98Y-30.017
X55.62Y-27.88
X56.1Y-50.5
X56.3Y-53.1
X56.875Y-56.675
X59.1Y-47.125
X59.3Y-53.6
X59.74Y-40.49
X60.07Y-29.4
X61.35Y-32.75
X61.56Y-34.59
X62.9Y-38.3
X62.959Y-50.059
X63.6Y-27.46
X64.0Y-47.9
X64.0Y-50.5
X64.11Y-44.99
X65.2Y-51.0
X66.41Y-45.15
X68.5Y-30.22
X68.65Y-43.44
X70.4Y-33.7
X70.4Y-56.38
X70.962Y-49.537
X71.263Y-47.462
X71.5Y-33.4
X71.5Y-36.0
X72.36Y-36.0
X72.7Y-52.4
X73.3Y-51.7
X73.9Y-51.0
X75.852Y-43.267
X86.2Y-61.7
X86.438Y-51.662
X87.55Y-41.3
X91.777Y-45.622
X91.835Y-52.335
X94.962Y-57.537
X95.062Y-62.438
X96.7Y-28.94
X97.2Y-41.2
X97.3Y-37.3
X99.3Y-38.5
T2
X101.474Y-45.47
X101.474Y-46.72
T3
X21.88Y-40.58
X21.88Y-43.12
X44.32Y-66.22
X46.86Y-66.22
T4
X94.2Y-69.0
X98.2Y-69.0
X102.2Y-69.0
T5
X16.12Y-15.52
X16.12Y-18.06
X16.12Y-20.6
X16.12Y-23.14
X16.12Y-25.68
X16.12Y-28.22
X16.12Y-30.76
X18.65Y-25.67
X18.65Y-28.21
X18.65Y-30.75
X18.66Y-15.52
X18.66Y-18.06
X18.66Y-20.6
X18.66Y-23.14
X21.19Y-25.67
X21.19Y-28.21
X21.19Y-30.75
X21.2Y-15.52
X21.2Y-18.06
X21.2Y-20.6
X21.2Y-23.14
X23.73Y-25.67
X23.73Y-28.21
X23.73Y-30.75
X26.27Y-25.67
X26.27Y-28.21
X26.27Y-30.75
X28.81Y-25.67
X28.81Y-28.21
X28.81Y-30.75
X31.35Y-25.67
X31.35Y-28.21
X31.35Y-30.75
X32.32Y-13.96
X32.32Y-16.5
X33.89Y-25.67
X33.89Y-28.21
X33.89Y-30.75
X34.86Y-13.96
X34.86Y-16.5
X37.4Y-13.96
X37.4Y-16.5
X39.94Y-13.96
X39.94Y-16.5
X42.48Y-13.96
X42.48Y-16.5
X45.02Y-13.96
X45.02Y-16.5
X47.56Y-13.96
X47.56Y-16.5
X50.1Y-13.96
X50.1Y-16.5
X52.64Y-13.96
X52.64Y-16.5
X55.18Y-13.96
X55.18Y-16.5
X61.35Y-13.96
X61.35Y-16.5
X61.54Y-70.7
X61.54Y-73.24
X63.89Y-13.96
X63.89Y-16.5
X64.08Y-70.7
X64.08Y-73.24
X66.43Y-13.96
X66.43Y-16.5
X66.62Y-70.7
X66.62Y-73.24
X68.97Y-13.96
X68.97Y-16.5
X69.16Y-70.7
X69.16Y-73.24
X71.51Y-13.96
X71.51Y-16.5
X71.7Y-70.7
X71.7Y-73.24
X74.05Y-13.96
X74.05Y-16.5
X74.24Y-70.7
X74.24Y-73.24
X77.2Y-21.24
X77.2Y-23.78
X77.2Y-26.32
X77.2Y-28.86
X77.2Y-31.4
X77.2Y-33.94
X79.31Y-13.96
X79.31Y-16.5
X79.74Y-21.24
X79.74Y-23.78
X79.74Y-26.32
X79.74Y-28.86
X79.74Y-31.4
X79.74Y-33.94
X81.85Y-13.96
X81.85Y-16.5
X82.28Y-21.24
X82.28Y-23.78
X82.28Y-26.32
X82.28Y-28.86
X82.28Y-31.4
X82.28Y-33.94
X84.39Y-13.96
X84.39Y-16.5
X84.82Y-21.24
X84.82Y-23.78
X84.82Y-26.32
X84.82Y-28.86
X84.82Y-31.4
X84.82Y-33.94
X86.93Y-13.96
X86.93Y-16.5
X87.36Y-21.24
X87.36Y-23.78
X87.36Y-26.32
X87.36Y-28.86
X87.36Y-31.4
X87.36Y-33.94
X89.47Y-13.96
X89.47Y-16.5
X89.9Y-21.24
X89.9Y-23.78
X89.9Y-26.32
X89.9Y-28.86
X89.9Y-31.4
X89.9Y-33.94
X92.01Y-13.96
X92.01Y-16.5
X92.44Y-21.24
X92.44Y-23.78
X92.44Y-26.32
X92.44Y-28.86
X92.44Y-31.4
X92.44Y-33.94
X94.55Y-13.96
X94.55Y-16.5
X97.09Y-13.96
X97.09Y-16.5
T6
X92.2Y-67.25
X92.2Y-73.25
X104.2Y-67.25
X104.2Y-73.25
T7
X102.905Y-54.865
X102.905Y-59.945
T8
X16.8Y-35.5
X16.8Y-45.66
X39.24Y-71.3
X49.4Y-71.3
T9
X27.24Y-19.62
X27.24Y-67.88
X78.04Y-62.8
X102.17Y-19.62
M30
