%TF.GenerationSoftware,KiCad,Pcbnew,8.0.8*%
%TF.CreationDate,2025-07-15T12:34:13-07:00*%
%TF.ProjectId,complete_SR1,636f6d70-6c65-4746-955f-5352312e6b69,rev?*%
%TF.SameCoordinates,Original*%
%TF.FileFunction,Drillmap*%
%TF.FilePolarity,Positive*%
%FSLAX45Y45*%
G04 Gerber Fmt 4.5, Leading zero omitted, Abs format (unit mm)*
G04 Created by KiCad (PCBNEW 8.0.8) date 2025-07-15 12:34:13*
%MOMM*%
%LPD*%
G01*
G04 APERTURE LIST*
%ADD10C,0.050000*%
%ADD11C,0.200000*%
G04 APERTURE END LIST*
D10*
X1200000Y-1200000D02*
X10852000Y-1200000D01*
X10852000Y-7550000D01*
X1200000Y-7550000D01*
X1200000Y-1200000D01*
D11*
X1458277Y-7863984D02*
X1458277Y-7663984D01*
X1458277Y-7663984D02*
X1505896Y-7663984D01*
X1505896Y-7663984D02*
X1534467Y-7673508D01*
X1534467Y-7673508D02*
X1553515Y-7692555D01*
X1553515Y-7692555D02*
X1563039Y-7711603D01*
X1563039Y-7711603D02*
X1572562Y-7749698D01*
X1572562Y-7749698D02*
X1572562Y-7778269D01*
X1572562Y-7778269D02*
X1563039Y-7816365D01*
X1563039Y-7816365D02*
X1553515Y-7835412D01*
X1553515Y-7835412D02*
X1534467Y-7854460D01*
X1534467Y-7854460D02*
X1505896Y-7863984D01*
X1505896Y-7863984D02*
X1458277Y-7863984D01*
X1658277Y-7863984D02*
X1658277Y-7730650D01*
X1658277Y-7768746D02*
X1667801Y-7749698D01*
X1667801Y-7749698D02*
X1677324Y-7740174D01*
X1677324Y-7740174D02*
X1696372Y-7730650D01*
X1696372Y-7730650D02*
X1715420Y-7730650D01*
X1782086Y-7863984D02*
X1782086Y-7730650D01*
X1782086Y-7663984D02*
X1772562Y-7673508D01*
X1772562Y-7673508D02*
X1782086Y-7683031D01*
X1782086Y-7683031D02*
X1791610Y-7673508D01*
X1791610Y-7673508D02*
X1782086Y-7663984D01*
X1782086Y-7663984D02*
X1782086Y-7683031D01*
X1905896Y-7863984D02*
X1886848Y-7854460D01*
X1886848Y-7854460D02*
X1877324Y-7835412D01*
X1877324Y-7835412D02*
X1877324Y-7663984D01*
X2010658Y-7863984D02*
X1991610Y-7854460D01*
X1991610Y-7854460D02*
X1982086Y-7835412D01*
X1982086Y-7835412D02*
X1982086Y-7663984D01*
X2239229Y-7863984D02*
X2239229Y-7663984D01*
X2239229Y-7663984D02*
X2305896Y-7806841D01*
X2305896Y-7806841D02*
X2372563Y-7663984D01*
X2372563Y-7663984D02*
X2372563Y-7863984D01*
X2553515Y-7863984D02*
X2553515Y-7759222D01*
X2553515Y-7759222D02*
X2543991Y-7740174D01*
X2543991Y-7740174D02*
X2524944Y-7730650D01*
X2524944Y-7730650D02*
X2486848Y-7730650D01*
X2486848Y-7730650D02*
X2467801Y-7740174D01*
X2553515Y-7854460D02*
X2534467Y-7863984D01*
X2534467Y-7863984D02*
X2486848Y-7863984D01*
X2486848Y-7863984D02*
X2467801Y-7854460D01*
X2467801Y-7854460D02*
X2458277Y-7835412D01*
X2458277Y-7835412D02*
X2458277Y-7816365D01*
X2458277Y-7816365D02*
X2467801Y-7797317D01*
X2467801Y-7797317D02*
X2486848Y-7787793D01*
X2486848Y-7787793D02*
X2534467Y-7787793D01*
X2534467Y-7787793D02*
X2553515Y-7778269D01*
X2648753Y-7730650D02*
X2648753Y-7930650D01*
X2648753Y-7740174D02*
X2667801Y-7730650D01*
X2667801Y-7730650D02*
X2705896Y-7730650D01*
X2705896Y-7730650D02*
X2724944Y-7740174D01*
X2724944Y-7740174D02*
X2734467Y-7749698D01*
X2734467Y-7749698D02*
X2743991Y-7768746D01*
X2743991Y-7768746D02*
X2743991Y-7825888D01*
X2743991Y-7825888D02*
X2734467Y-7844936D01*
X2734467Y-7844936D02*
X2724944Y-7854460D01*
X2724944Y-7854460D02*
X2705896Y-7863984D01*
X2705896Y-7863984D02*
X2667801Y-7863984D01*
X2667801Y-7863984D02*
X2648753Y-7854460D01*
X2829705Y-7844936D02*
X2839229Y-7854460D01*
X2839229Y-7854460D02*
X2829705Y-7863984D01*
X2829705Y-7863984D02*
X2820182Y-7854460D01*
X2820182Y-7854460D02*
X2829705Y-7844936D01*
X2829705Y-7844936D02*
X2829705Y-7863984D01*
X2829705Y-7740174D02*
X2839229Y-7749698D01*
X2839229Y-7749698D02*
X2829705Y-7759222D01*
X2829705Y-7759222D02*
X2820182Y-7749698D01*
X2820182Y-7749698D02*
X2829705Y-7740174D01*
X2829705Y-7740174D02*
X2829705Y-7759222D01*
M02*
