%TF.GenerationSoftware,KiCad,Pcbnew,8.0.8*%
%TF.CreationDate,2025-07-15T12:34:13-07:00*%
%TF.ProjectId,complete_SR1,636f6d70-6c65-4746-955f-5352312e6b69,rev?*%
%TF.SameCoordinates,Original*%
%TF.FileFunction,Drillmap*%
%TF.FilePolarity,Positive*%
%FSLAX45Y45*%
G04 Gerber Fmt 4.5, Leading zero omitted, Abs format (unit mm)*
G04 Created by KiCad (PCBNEW 8.0.8) date 2025-07-15 12:34:13*
%MOMM*%
%LPD*%
G01*
G04 APERTURE LIST*
%ADD10C,0.050000*%
%ADD11C,0.200000*%
%ADD12C,0.100000*%
%ADD13C,0.120000*%
%ADD14C,0.130000*%
%ADD15C,0.200660*%
%ADD16C,0.320000*%
G04 APERTURE END LIST*
D10*
X1200000Y-1200000D02*
X10852000Y-1200000D01*
X10852000Y-7550000D01*
X1200000Y-7550000D01*
X1200000Y-1200000D01*
D11*
D12*
X1425000Y-6815000D02*
X1455000Y-6845000D01*
X1455000Y-6815000D02*
X1425000Y-6845000D01*
X1430000Y-6620000D02*
X1460000Y-6650000D01*
X1460000Y-6620000D02*
X1430000Y-6650000D01*
X1615000Y-6280000D02*
X1645000Y-6310000D01*
X1645000Y-6280000D02*
X1615000Y-6310000D01*
X1615000Y-7375000D02*
X1645000Y-7405000D01*
X1645000Y-7375000D02*
X1615000Y-7405000D01*
X1640250Y-5149750D02*
X1670250Y-5179750D01*
X1670250Y-5149750D02*
X1640250Y-5179750D01*
X2041250Y-5135000D02*
X2071250Y-5165000D01*
X2071250Y-5135000D02*
X2041250Y-5165000D01*
X2049000Y-7208000D02*
X2079000Y-7238000D01*
X2079000Y-7208000D02*
X2049000Y-7238000D01*
X2055000Y-6675000D02*
X2085000Y-6705000D01*
X2085000Y-6675000D02*
X2055000Y-6705000D01*
X2227625Y-5657625D02*
X2257625Y-5687625D01*
X2257625Y-5657625D02*
X2227625Y-5687625D01*
X2475000Y-4965000D02*
X2505000Y-4995000D01*
X2505000Y-4965000D02*
X2475000Y-4995000D01*
X2575000Y-5895000D02*
X2605000Y-5925000D01*
X2605000Y-5895000D02*
X2575000Y-5925000D01*
X2645000Y-5825000D02*
X2675000Y-5855000D01*
X2675000Y-5825000D02*
X2645000Y-5855000D01*
X2685000Y-5365000D02*
X2715000Y-5395000D01*
X2715000Y-5365000D02*
X2685000Y-5395000D01*
X2725000Y-5745000D02*
X2755000Y-5775000D01*
X2755000Y-5745000D02*
X2725000Y-5775000D01*
X2761250Y-4118750D02*
X2791250Y-4148750D01*
X2791250Y-4118750D02*
X2761250Y-4148750D01*
X2991000Y-4886000D02*
X3021000Y-4916000D01*
X3021000Y-4886000D02*
X2991000Y-4916000D01*
X3115000Y-3725000D02*
X3145000Y-3755000D01*
X3145000Y-3725000D02*
X3115000Y-3755000D01*
X3195000Y-5885000D02*
X3225000Y-5915000D01*
X3225000Y-5885000D02*
X3195000Y-5915000D01*
X3495000Y-4515000D02*
X3525000Y-4545000D01*
X3525000Y-4515000D02*
X3495000Y-4545000D01*
X3541250Y-4978750D02*
X3571250Y-5008750D01*
X3571250Y-4978750D02*
X3541250Y-5008750D01*
X3755000Y-4465000D02*
X3785000Y-4495000D01*
X3785000Y-4465000D02*
X3755000Y-4495000D01*
X3865000Y-5145000D02*
X3895000Y-5175000D01*
X3895000Y-5145000D02*
X3865000Y-5175000D01*
X3965000Y-3575000D02*
X3995000Y-3605000D01*
X3995000Y-3575000D02*
X3965000Y-3605000D01*
X4065000Y-3965000D02*
X4095000Y-3995000D01*
X4095000Y-3965000D02*
X4065000Y-3995000D01*
X4069000Y-2612000D02*
X4099000Y-2642000D01*
X4099000Y-2612000D02*
X4069000Y-2642000D01*
X4075000Y-3575000D02*
X4105000Y-3605000D01*
X4105000Y-3575000D02*
X4075000Y-3605000D01*
X4125000Y-5125000D02*
X4155000Y-5155000D01*
X4155000Y-5125000D02*
X4125000Y-5155000D01*
X4171000Y-3505000D02*
X4201000Y-3535000D01*
X4201000Y-3505000D02*
X4171000Y-3535000D01*
X4295000Y-2725000D02*
X4325000Y-2755000D01*
X4325000Y-2725000D02*
X4295000Y-2755000D01*
X4295000Y-3975000D02*
X4325000Y-4005000D01*
X4325000Y-3975000D02*
X4295000Y-4005000D01*
X4305000Y-5445000D02*
X4335000Y-5475000D01*
X4335000Y-5445000D02*
X4305000Y-5475000D01*
X4333000Y-4478000D02*
X4363000Y-4508000D01*
X4363000Y-4478000D02*
X4333000Y-4508000D01*
X4335000Y-5845000D02*
X4365000Y-5875000D01*
X4365000Y-5845000D02*
X4335000Y-5875000D01*
X4375000Y-5665000D02*
X4405000Y-5695000D01*
X4405000Y-5665000D02*
X4375000Y-5695000D01*
X4443100Y-5545000D02*
X4473100Y-5575000D01*
X4473100Y-5545000D02*
X4443100Y-5575000D01*
X4505000Y-4665000D02*
X4535000Y-4695000D01*
X4535000Y-4665000D02*
X4505000Y-4695000D01*
X4575000Y-2750000D02*
X4605000Y-2780000D01*
X4605000Y-2750000D02*
X4575000Y-2780000D01*
X4622000Y-3269000D02*
X4652000Y-3299000D01*
X4652000Y-3269000D02*
X4622000Y-3299000D01*
X4685000Y-5908750D02*
X4715000Y-5938750D01*
X4715000Y-5908750D02*
X4685000Y-5938750D01*
X4688750Y-5701250D02*
X4718750Y-5731250D01*
X4718750Y-5701250D02*
X4688750Y-5731250D01*
X4804000Y-5480000D02*
X4834000Y-5510000D01*
X4834000Y-5480000D02*
X4804000Y-5510000D01*
X4837000Y-2757000D02*
X4867000Y-2787000D01*
X4867000Y-2757000D02*
X4837000Y-2787000D01*
X5023000Y-3827000D02*
X5053000Y-3857000D01*
X5053000Y-3827000D02*
X5023000Y-3857000D01*
X5200000Y-2758000D02*
X5230000Y-2788000D01*
X5230000Y-2758000D02*
X5200000Y-2788000D01*
X5209000Y-3595000D02*
X5239000Y-3625000D01*
X5239000Y-3595000D02*
X5209000Y-3625000D01*
X5483000Y-2986750D02*
X5513000Y-3016750D01*
X5513000Y-2986750D02*
X5483000Y-3016750D01*
X5547000Y-2773000D02*
X5577000Y-2803000D01*
X5577000Y-2773000D02*
X5547000Y-2803000D01*
X5595000Y-5035000D02*
X5625000Y-5065000D01*
X5625000Y-5035000D02*
X5595000Y-5065000D01*
X5615000Y-5295000D02*
X5645000Y-5325000D01*
X5645000Y-5295000D02*
X5615000Y-5325000D01*
X5672500Y-5652500D02*
X5702500Y-5682500D01*
X5702500Y-5652500D02*
X5672500Y-5682500D01*
X5895000Y-4697500D02*
X5925000Y-4727500D01*
X5925000Y-4697500D02*
X5895000Y-4727500D01*
X5915000Y-5345000D02*
X5945000Y-5375000D01*
X5945000Y-5345000D02*
X5915000Y-5375000D01*
X5959000Y-4034000D02*
X5989000Y-4064000D01*
X5989000Y-4034000D02*
X5959000Y-4064000D01*
X5992000Y-2925000D02*
X6022000Y-2955000D01*
X6022000Y-2925000D02*
X5992000Y-2955000D01*
X6120000Y-3260000D02*
X6150000Y-3290000D01*
X6150000Y-3260000D02*
X6120000Y-3290000D01*
X6141000Y-3444000D02*
X6171000Y-3474000D01*
X6171000Y-3444000D02*
X6141000Y-3474000D01*
X6275000Y-3815000D02*
X6305000Y-3845000D01*
X6305000Y-3815000D02*
X6275000Y-3845000D01*
X6280932Y-4990932D02*
X6310932Y-5020932D01*
X6310932Y-4990932D02*
X6280932Y-5020932D01*
X6345000Y-2731000D02*
X6375000Y-2761000D01*
X6375000Y-2731000D02*
X6345000Y-2761000D01*
X6385000Y-4775000D02*
X6415000Y-4805000D01*
X6415000Y-4775000D02*
X6385000Y-4805000D01*
X6385000Y-5035000D02*
X6415000Y-5065000D01*
X6415000Y-5035000D02*
X6385000Y-5065000D01*
X6396000Y-4484000D02*
X6426000Y-4514000D01*
X6426000Y-4484000D02*
X6396000Y-4514000D01*
X6505000Y-5085000D02*
X6535000Y-5115000D01*
X6535000Y-5085000D02*
X6505000Y-5115000D01*
X6626000Y-4500000D02*
X6656000Y-4530000D01*
X6656000Y-4500000D02*
X6626000Y-4530000D01*
X6835000Y-3007000D02*
X6865000Y-3037000D01*
X6865000Y-3007000D02*
X6835000Y-3037000D01*
X6850000Y-4329000D02*
X6880000Y-4359000D01*
X6880000Y-4329000D02*
X6850000Y-4359000D01*
X7025000Y-3355000D02*
X7055000Y-3385000D01*
X7055000Y-3355000D02*
X7025000Y-3385000D01*
X7025000Y-5623000D02*
X7055000Y-5653000D01*
X7055000Y-5623000D02*
X7025000Y-5653000D01*
X7081250Y-4938750D02*
X7111250Y-4968750D01*
X7111250Y-4938750D02*
X7081250Y-4968750D01*
X7111250Y-4731250D02*
X7141250Y-4761250D01*
X7141250Y-4731250D02*
X7111250Y-4761250D01*
X7135000Y-3325000D02*
X7165000Y-3355000D01*
X7165000Y-3325000D02*
X7135000Y-3355000D01*
X7135000Y-3585000D02*
X7165000Y-3615000D01*
X7165000Y-3585000D02*
X7135000Y-3615000D01*
X7221000Y-3585000D02*
X7251000Y-3615000D01*
X7251000Y-3585000D02*
X7221000Y-3615000D01*
X7255000Y-5225000D02*
X7285000Y-5255000D01*
X7285000Y-5225000D02*
X7255000Y-5255000D01*
X7315000Y-5155000D02*
X7345000Y-5185000D01*
X7345000Y-5155000D02*
X7315000Y-5185000D01*
X7375000Y-5085000D02*
X7405000Y-5115000D01*
X7405000Y-5085000D02*
X7375000Y-5115000D01*
X7570250Y-4311750D02*
X7600250Y-4341750D01*
X7600250Y-4311750D02*
X7570250Y-4341750D01*
X8605000Y-6155000D02*
X8635000Y-6185000D01*
X8635000Y-6155000D02*
X8605000Y-6185000D01*
X8628750Y-5151250D02*
X8658750Y-5181250D01*
X8658750Y-5151250D02*
X8628750Y-5181250D01*
X8740000Y-4115000D02*
X8770000Y-4145000D01*
X8770000Y-4115000D02*
X8740000Y-4145000D01*
X9162750Y-4547250D02*
X9192750Y-4577250D01*
X9192750Y-4547250D02*
X9162750Y-4577250D01*
X9168500Y-5218500D02*
X9198500Y-5248500D01*
X9198500Y-5218500D02*
X9168500Y-5248500D01*
X9481250Y-5738750D02*
X9511250Y-5768750D01*
X9511250Y-5738750D02*
X9481250Y-5768750D01*
X9491250Y-6228750D02*
X9521250Y-6258750D01*
X9521250Y-6228750D02*
X9491250Y-6258750D01*
X9655000Y-2879000D02*
X9685000Y-2909000D01*
X9685000Y-2879000D02*
X9655000Y-2909000D01*
X9705000Y-4105000D02*
X9735000Y-4135000D01*
X9735000Y-4105000D02*
X9705000Y-4135000D01*
X9715000Y-3715000D02*
X9745000Y-3745000D01*
X9745000Y-3715000D02*
X9715000Y-3745000D01*
X9915000Y-3835000D02*
X9945000Y-3865000D01*
X9945000Y-3835000D02*
X9915000Y-3865000D01*
X10175340Y-4547010D02*
G75*
G02*
X10119460Y-4547010I-27940J0D01*
G01*
X10119460Y-4547010D02*
G75*
G02*
X10175340Y-4547010I27940J0D01*
G01*
X10175340Y-4672010D02*
G75*
G02*
X10119460Y-4672010I-27940J0D01*
G01*
X10119460Y-4672010D02*
G75*
G02*
X10175340Y-4672010I27940J0D01*
G01*
X2188000Y-4013550D02*
X2188000Y-4102450D01*
X2143550Y-4058000D02*
X2232450Y-4058000D01*
X2188000Y-4267550D02*
X2188000Y-4356450D01*
X2143550Y-4312000D02*
X2232450Y-4312000D01*
X4432000Y-6577550D02*
X4432000Y-6666450D01*
X4387550Y-6622000D02*
X4476450Y-6622000D01*
X4686000Y-6577550D02*
X4686000Y-6666450D01*
X4641550Y-6622000D02*
X4730450Y-6622000D01*
X9451820Y-6931820D02*
X9451820Y-6868180D01*
X9388180Y-6868180D01*
X9388180Y-6931820D01*
X9451820Y-6931820D01*
X9851820Y-6931820D02*
X9851820Y-6868180D01*
X9788180Y-6868180D01*
X9788180Y-6931820D01*
X9851820Y-6931820D01*
X10251820Y-6931820D02*
X10251820Y-6868180D01*
X10188180Y-6868180D01*
X10188180Y-6931820D01*
X10251820Y-6931820D01*
X1612000Y-1602000D02*
X1662000Y-1552000D01*
X1612000Y-1502000D01*
X1562000Y-1552000D01*
X1612000Y-1602000D01*
X1612000Y-1856000D02*
X1662000Y-1806000D01*
X1612000Y-1756000D01*
X1562000Y-1806000D01*
X1612000Y-1856000D01*
X1612000Y-2110000D02*
X1662000Y-2060000D01*
X1612000Y-2010000D01*
X1562000Y-2060000D01*
X1612000Y-2110000D01*
X1612000Y-2364000D02*
X1662000Y-2314000D01*
X1612000Y-2264000D01*
X1562000Y-2314000D01*
X1612000Y-2364000D01*
X1612000Y-2618000D02*
X1662000Y-2568000D01*
X1612000Y-2518000D01*
X1562000Y-2568000D01*
X1612000Y-2618000D01*
X1612000Y-2872000D02*
X1662000Y-2822000D01*
X1612000Y-2772000D01*
X1562000Y-2822000D01*
X1612000Y-2872000D01*
X1612000Y-3126000D02*
X1662000Y-3076000D01*
X1612000Y-3026000D01*
X1562000Y-3076000D01*
X1612000Y-3126000D01*
X1865000Y-2617000D02*
X1915000Y-2567000D01*
X1865000Y-2517000D01*
X1815000Y-2567000D01*
X1865000Y-2617000D01*
X1865000Y-2871000D02*
X1915000Y-2821000D01*
X1865000Y-2771000D01*
X1815000Y-2821000D01*
X1865000Y-2871000D01*
X1865000Y-3125000D02*
X1915000Y-3075000D01*
X1865000Y-3025000D01*
X1815000Y-3075000D01*
X1865000Y-3125000D01*
X1866000Y-1602000D02*
X1916000Y-1552000D01*
X1866000Y-1502000D01*
X1816000Y-1552000D01*
X1866000Y-1602000D01*
X1866000Y-1856000D02*
X1916000Y-1806000D01*
X1866000Y-1756000D01*
X1816000Y-1806000D01*
X1866000Y-1856000D01*
X1866000Y-2110000D02*
X1916000Y-2060000D01*
X1866000Y-2010000D01*
X1816000Y-2060000D01*
X1866000Y-2110000D01*
X1866000Y-2364000D02*
X1916000Y-2314000D01*
X1866000Y-2264000D01*
X1816000Y-2314000D01*
X1866000Y-2364000D01*
X2119000Y-2617000D02*
X2169000Y-2567000D01*
X2119000Y-2517000D01*
X2069000Y-2567000D01*
X2119000Y-2617000D01*
X2119000Y-2871000D02*
X2169000Y-2821000D01*
X2119000Y-2771000D01*
X2069000Y-2821000D01*
X2119000Y-2871000D01*
X2119000Y-3125000D02*
X2169000Y-3075000D01*
X2119000Y-3025000D01*
X2069000Y-3075000D01*
X2119000Y-3125000D01*
X2120000Y-1602000D02*
X2170000Y-1552000D01*
X2120000Y-1502000D01*
X2070000Y-1552000D01*
X2120000Y-1602000D01*
X2120000Y-1856000D02*
X2170000Y-1806000D01*
X2120000Y-1756000D01*
X2070000Y-1806000D01*
X2120000Y-1856000D01*
X2120000Y-2110000D02*
X2170000Y-2060000D01*
X2120000Y-2010000D01*
X2070000Y-2060000D01*
X2120000Y-2110000D01*
X2120000Y-2364000D02*
X2170000Y-2314000D01*
X2120000Y-2264000D01*
X2070000Y-2314000D01*
X2120000Y-2364000D01*
X2373000Y-2617000D02*
X2423000Y-2567000D01*
X2373000Y-2517000D01*
X2323000Y-2567000D01*
X2373000Y-2617000D01*
X2373000Y-2871000D02*
X2423000Y-2821000D01*
X2373000Y-2771000D01*
X2323000Y-2821000D01*
X2373000Y-2871000D01*
X2373000Y-3125000D02*
X2423000Y-3075000D01*
X2373000Y-3025000D01*
X2323000Y-3075000D01*
X2373000Y-3125000D01*
X2627000Y-2617000D02*
X2677000Y-2567000D01*
X2627000Y-2517000D01*
X2577000Y-2567000D01*
X2627000Y-2617000D01*
X2627000Y-2871000D02*
X2677000Y-2821000D01*
X2627000Y-2771000D01*
X2577000Y-2821000D01*
X2627000Y-2871000D01*
X2627000Y-3125000D02*
X2677000Y-3075000D01*
X2627000Y-3025000D01*
X2577000Y-3075000D01*
X2627000Y-3125000D01*
X2881000Y-2617000D02*
X2931000Y-2567000D01*
X2881000Y-2517000D01*
X2831000Y-2567000D01*
X2881000Y-2617000D01*
X2881000Y-2871000D02*
X2931000Y-2821000D01*
X2881000Y-2771000D01*
X2831000Y-2821000D01*
X2881000Y-2871000D01*
X2881000Y-3125000D02*
X2931000Y-3075000D01*
X2881000Y-3025000D01*
X2831000Y-3075000D01*
X2881000Y-3125000D01*
X3135000Y-2617000D02*
X3185000Y-2567000D01*
X3135000Y-2517000D01*
X3085000Y-2567000D01*
X3135000Y-2617000D01*
X3135000Y-2871000D02*
X3185000Y-2821000D01*
X3135000Y-2771000D01*
X3085000Y-2821000D01*
X3135000Y-2871000D01*
X3135000Y-3125000D02*
X3185000Y-3075000D01*
X3135000Y-3025000D01*
X3085000Y-3075000D01*
X3135000Y-3125000D01*
X3232000Y-1446000D02*
X3282000Y-1396000D01*
X3232000Y-1346000D01*
X3182000Y-1396000D01*
X3232000Y-1446000D01*
X3232000Y-1700000D02*
X3282000Y-1650000D01*
X3232000Y-1600000D01*
X3182000Y-1650000D01*
X3232000Y-1700000D01*
X3389000Y-2617000D02*
X3439000Y-2567000D01*
X3389000Y-2517000D01*
X3339000Y-2567000D01*
X3389000Y-2617000D01*
X3389000Y-2871000D02*
X3439000Y-2821000D01*
X3389000Y-2771000D01*
X3339000Y-2821000D01*
X3389000Y-2871000D01*
X3389000Y-3125000D02*
X3439000Y-3075000D01*
X3389000Y-3025000D01*
X3339000Y-3075000D01*
X3389000Y-3125000D01*
X3486000Y-1446000D02*
X3536000Y-1396000D01*
X3486000Y-1346000D01*
X3436000Y-1396000D01*
X3486000Y-1446000D01*
X3486000Y-1700000D02*
X3536000Y-1650000D01*
X3486000Y-1600000D01*
X3436000Y-1650000D01*
X3486000Y-1700000D01*
X3740000Y-1446000D02*
X3790000Y-1396000D01*
X3740000Y-1346000D01*
X3690000Y-1396000D01*
X3740000Y-1446000D01*
X3740000Y-1700000D02*
X3790000Y-1650000D01*
X3740000Y-1600000D01*
X3690000Y-1650000D01*
X3740000Y-1700000D01*
X3994000Y-1446000D02*
X4044000Y-1396000D01*
X3994000Y-1346000D01*
X3944000Y-1396000D01*
X3994000Y-1446000D01*
X3994000Y-1700000D02*
X4044000Y-1650000D01*
X3994000Y-1600000D01*
X3944000Y-1650000D01*
X3994000Y-1700000D01*
X4248000Y-1446000D02*
X4298000Y-1396000D01*
X4248000Y-1346000D01*
X4198000Y-1396000D01*
X4248000Y-1446000D01*
X4248000Y-1700000D02*
X4298000Y-1650000D01*
X4248000Y-1600000D01*
X4198000Y-1650000D01*
X4248000Y-1700000D01*
X4502000Y-1446000D02*
X4552000Y-1396000D01*
X4502000Y-1346000D01*
X4452000Y-1396000D01*
X4502000Y-1446000D01*
X4502000Y-1700000D02*
X4552000Y-1650000D01*
X4502000Y-1600000D01*
X4452000Y-1650000D01*
X4502000Y-1700000D01*
X4756000Y-1446000D02*
X4806000Y-1396000D01*
X4756000Y-1346000D01*
X4706000Y-1396000D01*
X4756000Y-1446000D01*
X4756000Y-1700000D02*
X4806000Y-1650000D01*
X4756000Y-1600000D01*
X4706000Y-1650000D01*
X4756000Y-1700000D01*
X5010000Y-1446000D02*
X5060000Y-1396000D01*
X5010000Y-1346000D01*
X4960000Y-1396000D01*
X5010000Y-1446000D01*
X5010000Y-1700000D02*
X5060000Y-1650000D01*
X5010000Y-1600000D01*
X4960000Y-1650000D01*
X5010000Y-1700000D01*
X5264000Y-1446000D02*
X5314000Y-1396000D01*
X5264000Y-1346000D01*
X5214000Y-1396000D01*
X5264000Y-1446000D01*
X5264000Y-1700000D02*
X5314000Y-1650000D01*
X5264000Y-1600000D01*
X5214000Y-1650000D01*
X5264000Y-1700000D01*
X5518000Y-1446000D02*
X5568000Y-1396000D01*
X5518000Y-1346000D01*
X5468000Y-1396000D01*
X5518000Y-1446000D01*
X5518000Y-1700000D02*
X5568000Y-1650000D01*
X5518000Y-1600000D01*
X5468000Y-1650000D01*
X5518000Y-1700000D01*
X6135000Y-1446000D02*
X6185000Y-1396000D01*
X6135000Y-1346000D01*
X6085000Y-1396000D01*
X6135000Y-1446000D01*
X6135000Y-1700000D02*
X6185000Y-1650000D01*
X6135000Y-1600000D01*
X6085000Y-1650000D01*
X6135000Y-1700000D01*
X6154000Y-7120000D02*
X6204000Y-7070000D01*
X6154000Y-7020000D01*
X6104000Y-7070000D01*
X6154000Y-7120000D01*
X6154000Y-7374000D02*
X6204000Y-7324000D01*
X6154000Y-7274000D01*
X6104000Y-7324000D01*
X6154000Y-7374000D01*
X6389000Y-1446000D02*
X6439000Y-1396000D01*
X6389000Y-1346000D01*
X6339000Y-1396000D01*
X6389000Y-1446000D01*
X6389000Y-1700000D02*
X6439000Y-1650000D01*
X6389000Y-1600000D01*
X6339000Y-1650000D01*
X6389000Y-1700000D01*
X6408000Y-7120000D02*
X6458000Y-7070000D01*
X6408000Y-7020000D01*
X6358000Y-7070000D01*
X6408000Y-7120000D01*
X6408000Y-7374000D02*
X6458000Y-7324000D01*
X6408000Y-7274000D01*
X6358000Y-7324000D01*
X6408000Y-7374000D01*
X6643000Y-1446000D02*
X6693000Y-1396000D01*
X6643000Y-1346000D01*
X6593000Y-1396000D01*
X6643000Y-1446000D01*
X6643000Y-1700000D02*
X6693000Y-1650000D01*
X6643000Y-1600000D01*
X6593000Y-1650000D01*
X6643000Y-1700000D01*
X6662000Y-7120000D02*
X6712000Y-7070000D01*
X6662000Y-7020000D01*
X6612000Y-7070000D01*
X6662000Y-7120000D01*
X6662000Y-7374000D02*
X6712000Y-7324000D01*
X6662000Y-7274000D01*
X6612000Y-7324000D01*
X6662000Y-7374000D01*
X6897000Y-1446000D02*
X6947000Y-1396000D01*
X6897000Y-1346000D01*
X6847000Y-1396000D01*
X6897000Y-1446000D01*
X6897000Y-1700000D02*
X6947000Y-1650000D01*
X6897000Y-1600000D01*
X6847000Y-1650000D01*
X6897000Y-1700000D01*
X6916000Y-7120000D02*
X6966000Y-7070000D01*
X6916000Y-7020000D01*
X6866000Y-7070000D01*
X6916000Y-7120000D01*
X6916000Y-7374000D02*
X6966000Y-7324000D01*
X6916000Y-7274000D01*
X6866000Y-7324000D01*
X6916000Y-7374000D01*
X7151000Y-1446000D02*
X7201000Y-1396000D01*
X7151000Y-1346000D01*
X7101000Y-1396000D01*
X7151000Y-1446000D01*
X7151000Y-1700000D02*
X7201000Y-1650000D01*
X7151000Y-1600000D01*
X7101000Y-1650000D01*
X7151000Y-1700000D01*
X7170000Y-7120000D02*
X7220000Y-7070000D01*
X7170000Y-7020000D01*
X7120000Y-7070000D01*
X7170000Y-7120000D01*
X7170000Y-7374000D02*
X7220000Y-7324000D01*
X7170000Y-7274000D01*
X7120000Y-7324000D01*
X7170000Y-7374000D01*
X7405000Y-1446000D02*
X7455000Y-1396000D01*
X7405000Y-1346000D01*
X7355000Y-1396000D01*
X7405000Y-1446000D01*
X7405000Y-1700000D02*
X7455000Y-1650000D01*
X7405000Y-1600000D01*
X7355000Y-1650000D01*
X7405000Y-1700000D01*
X7424000Y-7120000D02*
X7474000Y-7070000D01*
X7424000Y-7020000D01*
X7374000Y-7070000D01*
X7424000Y-7120000D01*
X7424000Y-7374000D02*
X7474000Y-7324000D01*
X7424000Y-7274000D01*
X7374000Y-7324000D01*
X7424000Y-7374000D01*
X7720000Y-2174000D02*
X7770000Y-2124000D01*
X7720000Y-2074000D01*
X7670000Y-2124000D01*
X7720000Y-2174000D01*
X7720000Y-2428000D02*
X7770000Y-2378000D01*
X7720000Y-2328000D01*
X7670000Y-2378000D01*
X7720000Y-2428000D01*
X7720000Y-2682000D02*
X7770000Y-2632000D01*
X7720000Y-2582000D01*
X7670000Y-2632000D01*
X7720000Y-2682000D01*
X7720000Y-2936000D02*
X7770000Y-2886000D01*
X7720000Y-2836000D01*
X7670000Y-2886000D01*
X7720000Y-2936000D01*
X7720000Y-3190000D02*
X7770000Y-3140000D01*
X7720000Y-3090000D01*
X7670000Y-3140000D01*
X7720000Y-3190000D01*
X7720000Y-3444000D02*
X7770000Y-3394000D01*
X7720000Y-3344000D01*
X7670000Y-3394000D01*
X7720000Y-3444000D01*
X7931000Y-1446000D02*
X7981000Y-1396000D01*
X7931000Y-1346000D01*
X7881000Y-1396000D01*
X7931000Y-1446000D01*
X7931000Y-1700000D02*
X7981000Y-1650000D01*
X7931000Y-1600000D01*
X7881000Y-1650000D01*
X7931000Y-1700000D01*
X7974000Y-2174000D02*
X8024000Y-2124000D01*
X7974000Y-2074000D01*
X7924000Y-2124000D01*
X7974000Y-2174000D01*
X7974000Y-2428000D02*
X8024000Y-2378000D01*
X7974000Y-2328000D01*
X7924000Y-2378000D01*
X7974000Y-2428000D01*
X7974000Y-2682000D02*
X8024000Y-2632000D01*
X7974000Y-2582000D01*
X7924000Y-2632000D01*
X7974000Y-2682000D01*
X7974000Y-2936000D02*
X8024000Y-2886000D01*
X7974000Y-2836000D01*
X7924000Y-2886000D01*
X7974000Y-2936000D01*
X7974000Y-3190000D02*
X8024000Y-3140000D01*
X7974000Y-3090000D01*
X7924000Y-3140000D01*
X7974000Y-3190000D01*
X7974000Y-3444000D02*
X8024000Y-3394000D01*
X7974000Y-3344000D01*
X7924000Y-3394000D01*
X7974000Y-3444000D01*
X8185000Y-1446000D02*
X8235000Y-1396000D01*
X8185000Y-1346000D01*
X8135000Y-1396000D01*
X8185000Y-1446000D01*
X8185000Y-1700000D02*
X8235000Y-1650000D01*
X8185000Y-1600000D01*
X8135000Y-1650000D01*
X8185000Y-1700000D01*
X8228000Y-2174000D02*
X8278000Y-2124000D01*
X8228000Y-2074000D01*
X8178000Y-2124000D01*
X8228000Y-2174000D01*
X8228000Y-2428000D02*
X8278000Y-2378000D01*
X8228000Y-2328000D01*
X8178000Y-2378000D01*
X8228000Y-2428000D01*
X8228000Y-2682000D02*
X8278000Y-2632000D01*
X8228000Y-2582000D01*
X8178000Y-2632000D01*
X8228000Y-2682000D01*
X8228000Y-2936000D02*
X8278000Y-2886000D01*
X8228000Y-2836000D01*
X8178000Y-2886000D01*
X8228000Y-2936000D01*
X8228000Y-3190000D02*
X8278000Y-3140000D01*
X8228000Y-3090000D01*
X8178000Y-3140000D01*
X8228000Y-3190000D01*
X8228000Y-3444000D02*
X8278000Y-3394000D01*
X8228000Y-3344000D01*
X8178000Y-3394000D01*
X8228000Y-3444000D01*
X8439000Y-1446000D02*
X8489000Y-1396000D01*
X8439000Y-1346000D01*
X8389000Y-1396000D01*
X8439000Y-1446000D01*
X8439000Y-1700000D02*
X8489000Y-1650000D01*
X8439000Y-1600000D01*
X8389000Y-1650000D01*
X8439000Y-1700000D01*
X8482000Y-2174000D02*
X8532000Y-2124000D01*
X8482000Y-2074000D01*
X8432000Y-2124000D01*
X8482000Y-2174000D01*
X8482000Y-2428000D02*
X8532000Y-2378000D01*
X8482000Y-2328000D01*
X8432000Y-2378000D01*
X8482000Y-2428000D01*
X8482000Y-2682000D02*
X8532000Y-2632000D01*
X8482000Y-2582000D01*
X8432000Y-2632000D01*
X8482000Y-2682000D01*
X8482000Y-2936000D02*
X8532000Y-2886000D01*
X8482000Y-2836000D01*
X8432000Y-2886000D01*
X8482000Y-2936000D01*
X8482000Y-3190000D02*
X8532000Y-3140000D01*
X8482000Y-3090000D01*
X8432000Y-3140000D01*
X8482000Y-3190000D01*
X8482000Y-3444000D02*
X8532000Y-3394000D01*
X8482000Y-3344000D01*
X8432000Y-3394000D01*
X8482000Y-3444000D01*
X8693000Y-1446000D02*
X8743000Y-1396000D01*
X8693000Y-1346000D01*
X8643000Y-1396000D01*
X8693000Y-1446000D01*
X8693000Y-1700000D02*
X8743000Y-1650000D01*
X8693000Y-1600000D01*
X8643000Y-1650000D01*
X8693000Y-1700000D01*
X8736000Y-2174000D02*
X8786000Y-2124000D01*
X8736000Y-2074000D01*
X8686000Y-2124000D01*
X8736000Y-2174000D01*
X8736000Y-2428000D02*
X8786000Y-2378000D01*
X8736000Y-2328000D01*
X8686000Y-2378000D01*
X8736000Y-2428000D01*
X8736000Y-2682000D02*
X8786000Y-2632000D01*
X8736000Y-2582000D01*
X8686000Y-2632000D01*
X8736000Y-2682000D01*
X8736000Y-2936000D02*
X8786000Y-2886000D01*
X8736000Y-2836000D01*
X8686000Y-2886000D01*
X8736000Y-2936000D01*
X8736000Y-3190000D02*
X8786000Y-3140000D01*
X8736000Y-3090000D01*
X8686000Y-3140000D01*
X8736000Y-3190000D01*
X8736000Y-3444000D02*
X8786000Y-3394000D01*
X8736000Y-3344000D01*
X8686000Y-3394000D01*
X8736000Y-3444000D01*
X8947000Y-1446000D02*
X8997000Y-1396000D01*
X8947000Y-1346000D01*
X8897000Y-1396000D01*
X8947000Y-1446000D01*
X8947000Y-1700000D02*
X8997000Y-1650000D01*
X8947000Y-1600000D01*
X8897000Y-1650000D01*
X8947000Y-1700000D01*
X8990000Y-2174000D02*
X9040000Y-2124000D01*
X8990000Y-2074000D01*
X8940000Y-2124000D01*
X8990000Y-2174000D01*
X8990000Y-2428000D02*
X9040000Y-2378000D01*
X8990000Y-2328000D01*
X8940000Y-2378000D01*
X8990000Y-2428000D01*
X8990000Y-2682000D02*
X9040000Y-2632000D01*
X8990000Y-2582000D01*
X8940000Y-2632000D01*
X8990000Y-2682000D01*
X8990000Y-2936000D02*
X9040000Y-2886000D01*
X8990000Y-2836000D01*
X8940000Y-2886000D01*
X8990000Y-2936000D01*
X8990000Y-3190000D02*
X9040000Y-3140000D01*
X8990000Y-3090000D01*
X8940000Y-3140000D01*
X8990000Y-3190000D01*
X8990000Y-3444000D02*
X9040000Y-3394000D01*
X8990000Y-3344000D01*
X8940000Y-3394000D01*
X8990000Y-3444000D01*
X9201000Y-1446000D02*
X9251000Y-1396000D01*
X9201000Y-1346000D01*
X9151000Y-1396000D01*
X9201000Y-1446000D01*
X9201000Y-1700000D02*
X9251000Y-1650000D01*
X9201000Y-1600000D01*
X9151000Y-1650000D01*
X9201000Y-1700000D01*
X9244000Y-2174000D02*
X9294000Y-2124000D01*
X9244000Y-2074000D01*
X9194000Y-2124000D01*
X9244000Y-2174000D01*
X9244000Y-2428000D02*
X9294000Y-2378000D01*
X9244000Y-2328000D01*
X9194000Y-2378000D01*
X9244000Y-2428000D01*
X9244000Y-2682000D02*
X9294000Y-2632000D01*
X9244000Y-2582000D01*
X9194000Y-2632000D01*
X9244000Y-2682000D01*
X9244000Y-2936000D02*
X9294000Y-2886000D01*
X9244000Y-2836000D01*
X9194000Y-2886000D01*
X9244000Y-2936000D01*
X9244000Y-3190000D02*
X9294000Y-3140000D01*
X9244000Y-3090000D01*
X9194000Y-3140000D01*
X9244000Y-3190000D01*
X9244000Y-3444000D02*
X9294000Y-3394000D01*
X9244000Y-3344000D01*
X9194000Y-3394000D01*
X9244000Y-3444000D01*
X9455000Y-1446000D02*
X9505000Y-1396000D01*
X9455000Y-1346000D01*
X9405000Y-1396000D01*
X9455000Y-1446000D01*
X9455000Y-1700000D02*
X9505000Y-1650000D01*
X9455000Y-1600000D01*
X9405000Y-1650000D01*
X9455000Y-1700000D01*
X9709000Y-1446000D02*
X9759000Y-1396000D01*
X9709000Y-1346000D01*
X9659000Y-1396000D01*
X9709000Y-1446000D01*
X9709000Y-1700000D02*
X9759000Y-1650000D01*
X9709000Y-1600000D01*
X9659000Y-1650000D01*
X9709000Y-1700000D01*
D13*
X9160000Y-6665000D02*
X9280000Y-6785000D01*
X9280000Y-6665000D02*
X9160000Y-6785000D01*
X9280000Y-6725000D02*
G75*
G02*
X9160000Y-6725000I-60000J0D01*
G01*
X9160000Y-6725000D02*
G75*
G02*
X9280000Y-6725000I60000J0D01*
G01*
X9160000Y-7265000D02*
X9280000Y-7385000D01*
X9280000Y-7265000D02*
X9160000Y-7385000D01*
X9280000Y-7325000D02*
G75*
G02*
X9160000Y-7325000I-60000J0D01*
G01*
X9160000Y-7325000D02*
G75*
G02*
X9280000Y-7325000I60000J0D01*
G01*
X10360000Y-6665000D02*
X10480000Y-6785000D01*
X10480000Y-6665000D02*
X10360000Y-6785000D01*
X10480000Y-6725000D02*
G75*
G02*
X10360000Y-6725000I-60000J0D01*
G01*
X10360000Y-6725000D02*
G75*
G02*
X10480000Y-6725000I60000J0D01*
G01*
X10360000Y-7265000D02*
X10480000Y-7385000D01*
X10480000Y-7265000D02*
X10360000Y-7385000D01*
X10480000Y-7325000D02*
G75*
G02*
X10360000Y-7325000I-60000J0D01*
G01*
X10360000Y-7325000D02*
G75*
G02*
X10480000Y-7325000I60000J0D01*
G01*
D14*
X10225500Y-5421500D02*
X10355500Y-5551500D01*
X10355500Y-5421500D02*
X10225500Y-5551500D01*
X10290500Y-5421500D02*
X10290500Y-5551500D01*
X10225500Y-5486500D02*
X10355500Y-5486500D01*
X10225500Y-5929500D02*
X10355500Y-6059500D01*
X10355500Y-5929500D02*
X10225500Y-6059500D01*
X10290500Y-5929500D02*
X10290500Y-6059500D01*
X10225500Y-5994500D02*
X10355500Y-5994500D01*
D15*
X1579670Y-3449670D02*
X1780330Y-3650330D01*
X1780330Y-3449670D02*
X1579670Y-3650330D01*
X1750945Y-3620945D02*
X1750945Y-3479055D01*
X1609055Y-3479055D01*
X1609055Y-3620945D01*
X1750945Y-3620945D01*
X1579670Y-4465670D02*
X1780330Y-4666330D01*
X1780330Y-4465670D02*
X1579670Y-4666330D01*
X1750945Y-4636945D02*
X1750945Y-4495055D01*
X1609055Y-4495055D01*
X1609055Y-4636945D01*
X1750945Y-4636945D01*
X3823670Y-7029670D02*
X4024330Y-7230330D01*
X4024330Y-7029670D02*
X3823670Y-7230330D01*
X3994945Y-7200945D02*
X3994945Y-7059055D01*
X3853055Y-7059055D01*
X3853055Y-7200945D01*
X3994945Y-7200945D01*
X4839670Y-7029670D02*
X5040330Y-7230330D01*
X5040330Y-7029670D02*
X4839670Y-7230330D01*
X5010945Y-7200945D02*
X5010945Y-7059055D01*
X4869055Y-7059055D01*
X4869055Y-7200945D01*
X5010945Y-7200945D01*
D16*
X2564000Y-1802000D02*
X2884000Y-2122000D01*
X2884000Y-1802000D02*
X2564000Y-2122000D01*
X2724000Y-2122000D02*
X2884000Y-1962000D01*
X2724000Y-1802000D01*
X2564000Y-1962000D01*
X2724000Y-2122000D01*
X2564000Y-6628000D02*
X2884000Y-6948000D01*
X2884000Y-6628000D02*
X2564000Y-6948000D01*
X2724000Y-6948000D02*
X2884000Y-6788000D01*
X2724000Y-6628000D01*
X2564000Y-6788000D01*
X2724000Y-6948000D01*
X7644000Y-6120000D02*
X7964000Y-6440000D01*
X7964000Y-6120000D02*
X7644000Y-6440000D01*
X7804000Y-6440000D02*
X7964000Y-6280000D01*
X7804000Y-6120000D01*
X7644000Y-6280000D01*
X7804000Y-6440000D01*
X10057000Y-1802000D02*
X10377000Y-2122000D01*
X10377000Y-1802000D02*
X10057000Y-2122000D01*
X10217000Y-2122000D02*
X10377000Y-1962000D01*
X10217000Y-1802000D01*
X10057000Y-1962000D01*
X10217000Y-2122000D01*
D11*
X1458277Y-7863984D02*
X1458277Y-7663984D01*
X1458277Y-7663984D02*
X1505896Y-7663984D01*
X1505896Y-7663984D02*
X1534467Y-7673508D01*
X1534467Y-7673508D02*
X1553515Y-7692555D01*
X1553515Y-7692555D02*
X1563039Y-7711603D01*
X1563039Y-7711603D02*
X1572562Y-7749698D01*
X1572562Y-7749698D02*
X1572562Y-7778269D01*
X1572562Y-7778269D02*
X1563039Y-7816365D01*
X1563039Y-7816365D02*
X1553515Y-7835412D01*
X1553515Y-7835412D02*
X1534467Y-7854460D01*
X1534467Y-7854460D02*
X1505896Y-7863984D01*
X1505896Y-7863984D02*
X1458277Y-7863984D01*
X1658277Y-7863984D02*
X1658277Y-7730650D01*
X1658277Y-7768746D02*
X1667801Y-7749698D01*
X1667801Y-7749698D02*
X1677324Y-7740174D01*
X1677324Y-7740174D02*
X1696372Y-7730650D01*
X1696372Y-7730650D02*
X1715420Y-7730650D01*
X1782086Y-7863984D02*
X1782086Y-7730650D01*
X1782086Y-7663984D02*
X1772562Y-7673508D01*
X1772562Y-7673508D02*
X1782086Y-7683031D01*
X1782086Y-7683031D02*
X1791610Y-7673508D01*
X1791610Y-7673508D02*
X1782086Y-7663984D01*
X1782086Y-7663984D02*
X1782086Y-7683031D01*
X1905896Y-7863984D02*
X1886848Y-7854460D01*
X1886848Y-7854460D02*
X1877324Y-7835412D01*
X1877324Y-7835412D02*
X1877324Y-7663984D01*
X2010658Y-7863984D02*
X1991610Y-7854460D01*
X1991610Y-7854460D02*
X1982086Y-7835412D01*
X1982086Y-7835412D02*
X1982086Y-7663984D01*
X2239229Y-7863984D02*
X2239229Y-7663984D01*
X2239229Y-7663984D02*
X2305896Y-7806841D01*
X2305896Y-7806841D02*
X2372563Y-7663984D01*
X2372563Y-7663984D02*
X2372563Y-7863984D01*
X2553515Y-7863984D02*
X2553515Y-7759222D01*
X2553515Y-7759222D02*
X2543991Y-7740174D01*
X2543991Y-7740174D02*
X2524944Y-7730650D01*
X2524944Y-7730650D02*
X2486848Y-7730650D01*
X2486848Y-7730650D02*
X2467801Y-7740174D01*
X2553515Y-7854460D02*
X2534467Y-7863984D01*
X2534467Y-7863984D02*
X2486848Y-7863984D01*
X2486848Y-7863984D02*
X2467801Y-7854460D01*
X2467801Y-7854460D02*
X2458277Y-7835412D01*
X2458277Y-7835412D02*
X2458277Y-7816365D01*
X2458277Y-7816365D02*
X2467801Y-7797317D01*
X2467801Y-7797317D02*
X2486848Y-7787793D01*
X2486848Y-7787793D02*
X2534467Y-7787793D01*
X2534467Y-7787793D02*
X2553515Y-7778269D01*
X2648753Y-7730650D02*
X2648753Y-7930650D01*
X2648753Y-7740174D02*
X2667801Y-7730650D01*
X2667801Y-7730650D02*
X2705896Y-7730650D01*
X2705896Y-7730650D02*
X2724944Y-7740174D01*
X2724944Y-7740174D02*
X2734467Y-7749698D01*
X2734467Y-7749698D02*
X2743991Y-7768746D01*
X2743991Y-7768746D02*
X2743991Y-7825888D01*
X2743991Y-7825888D02*
X2734467Y-7844936D01*
X2734467Y-7844936D02*
X2724944Y-7854460D01*
X2724944Y-7854460D02*
X2705896Y-7863984D01*
X2705896Y-7863984D02*
X2667801Y-7863984D01*
X2667801Y-7863984D02*
X2648753Y-7854460D01*
X2829705Y-7844936D02*
X2839229Y-7854460D01*
X2839229Y-7854460D02*
X2829705Y-7863984D01*
X2829705Y-7863984D02*
X2820182Y-7854460D01*
X2820182Y-7854460D02*
X2829705Y-7844936D01*
X2829705Y-7844936D02*
X2829705Y-7863984D01*
X2829705Y-7740174D02*
X2839229Y-7749698D01*
X2839229Y-7749698D02*
X2829705Y-7759222D01*
X2829705Y-7759222D02*
X2820182Y-7749698D01*
X2820182Y-7749698D02*
X2829705Y-7740174D01*
X2829705Y-7740174D02*
X2829705Y-7759222D01*
D12*
X1167500Y-8177500D02*
X1197500Y-8207500D01*
X1197500Y-8177500D02*
X1167500Y-8207500D01*
D11*
X1496372Y-8083984D02*
X1515420Y-8083984D01*
X1515420Y-8083984D02*
X1534467Y-8093508D01*
X1534467Y-8093508D02*
X1543991Y-8103031D01*
X1543991Y-8103031D02*
X1553515Y-8122079D01*
X1553515Y-8122079D02*
X1563039Y-8160174D01*
X1563039Y-8160174D02*
X1563039Y-8207793D01*
X1563039Y-8207793D02*
X1553515Y-8245888D01*
X1553515Y-8245888D02*
X1543991Y-8264936D01*
X1543991Y-8264936D02*
X1534467Y-8274460D01*
X1534467Y-8274460D02*
X1515420Y-8283984D01*
X1515420Y-8283984D02*
X1496372Y-8283984D01*
X1496372Y-8283984D02*
X1477324Y-8274460D01*
X1477324Y-8274460D02*
X1467801Y-8264936D01*
X1467801Y-8264936D02*
X1458277Y-8245888D01*
X1458277Y-8245888D02*
X1448753Y-8207793D01*
X1448753Y-8207793D02*
X1448753Y-8160174D01*
X1448753Y-8160174D02*
X1458277Y-8122079D01*
X1458277Y-8122079D02*
X1467801Y-8103031D01*
X1467801Y-8103031D02*
X1477324Y-8093508D01*
X1477324Y-8093508D02*
X1496372Y-8083984D01*
X1648753Y-8264936D02*
X1658277Y-8274460D01*
X1658277Y-8274460D02*
X1648753Y-8283984D01*
X1648753Y-8283984D02*
X1639229Y-8274460D01*
X1639229Y-8274460D02*
X1648753Y-8264936D01*
X1648753Y-8264936D02*
X1648753Y-8283984D01*
X1724943Y-8083984D02*
X1848753Y-8083984D01*
X1848753Y-8083984D02*
X1782086Y-8160174D01*
X1782086Y-8160174D02*
X1810658Y-8160174D01*
X1810658Y-8160174D02*
X1829705Y-8169698D01*
X1829705Y-8169698D02*
X1839229Y-8179222D01*
X1839229Y-8179222D02*
X1848753Y-8198269D01*
X1848753Y-8198269D02*
X1848753Y-8245888D01*
X1848753Y-8245888D02*
X1839229Y-8264936D01*
X1839229Y-8264936D02*
X1829705Y-8274460D01*
X1829705Y-8274460D02*
X1810658Y-8283984D01*
X1810658Y-8283984D02*
X1753515Y-8283984D01*
X1753515Y-8283984D02*
X1734467Y-8274460D01*
X1734467Y-8274460D02*
X1724943Y-8264936D01*
X1972562Y-8083984D02*
X1991610Y-8083984D01*
X1991610Y-8083984D02*
X2010658Y-8093508D01*
X2010658Y-8093508D02*
X2020182Y-8103031D01*
X2020182Y-8103031D02*
X2029705Y-8122079D01*
X2029705Y-8122079D02*
X2039229Y-8160174D01*
X2039229Y-8160174D02*
X2039229Y-8207793D01*
X2039229Y-8207793D02*
X2029705Y-8245888D01*
X2029705Y-8245888D02*
X2020182Y-8264936D01*
X2020182Y-8264936D02*
X2010658Y-8274460D01*
X2010658Y-8274460D02*
X1991610Y-8283984D01*
X1991610Y-8283984D02*
X1972562Y-8283984D01*
X1972562Y-8283984D02*
X1953515Y-8274460D01*
X1953515Y-8274460D02*
X1943991Y-8264936D01*
X1943991Y-8264936D02*
X1934467Y-8245888D01*
X1934467Y-8245888D02*
X1924943Y-8207793D01*
X1924943Y-8207793D02*
X1924943Y-8160174D01*
X1924943Y-8160174D02*
X1934467Y-8122079D01*
X1934467Y-8122079D02*
X1943991Y-8103031D01*
X1943991Y-8103031D02*
X1953515Y-8093508D01*
X1953515Y-8093508D02*
X1972562Y-8083984D01*
X2163039Y-8083984D02*
X2182086Y-8083984D01*
X2182086Y-8083984D02*
X2201134Y-8093508D01*
X2201134Y-8093508D02*
X2210658Y-8103031D01*
X2210658Y-8103031D02*
X2220182Y-8122079D01*
X2220182Y-8122079D02*
X2229705Y-8160174D01*
X2229705Y-8160174D02*
X2229705Y-8207793D01*
X2229705Y-8207793D02*
X2220182Y-8245888D01*
X2220182Y-8245888D02*
X2210658Y-8264936D01*
X2210658Y-8264936D02*
X2201134Y-8274460D01*
X2201134Y-8274460D02*
X2182086Y-8283984D01*
X2182086Y-8283984D02*
X2163039Y-8283984D01*
X2163039Y-8283984D02*
X2143991Y-8274460D01*
X2143991Y-8274460D02*
X2134467Y-8264936D01*
X2134467Y-8264936D02*
X2124944Y-8245888D01*
X2124944Y-8245888D02*
X2115420Y-8207793D01*
X2115420Y-8207793D02*
X2115420Y-8160174D01*
X2115420Y-8160174D02*
X2124944Y-8122079D01*
X2124944Y-8122079D02*
X2134467Y-8103031D01*
X2134467Y-8103031D02*
X2143991Y-8093508D01*
X2143991Y-8093508D02*
X2163039Y-8083984D01*
X2315420Y-8283984D02*
X2315420Y-8150650D01*
X2315420Y-8169698D02*
X2324944Y-8160174D01*
X2324944Y-8160174D02*
X2343991Y-8150650D01*
X2343991Y-8150650D02*
X2372563Y-8150650D01*
X2372563Y-8150650D02*
X2391610Y-8160174D01*
X2391610Y-8160174D02*
X2401134Y-8179222D01*
X2401134Y-8179222D02*
X2401134Y-8283984D01*
X2401134Y-8179222D02*
X2410658Y-8160174D01*
X2410658Y-8160174D02*
X2429705Y-8150650D01*
X2429705Y-8150650D02*
X2458277Y-8150650D01*
X2458277Y-8150650D02*
X2477325Y-8160174D01*
X2477325Y-8160174D02*
X2486848Y-8179222D01*
X2486848Y-8179222D02*
X2486848Y-8283984D01*
X2582086Y-8283984D02*
X2582086Y-8150650D01*
X2582086Y-8169698D02*
X2591610Y-8160174D01*
X2591610Y-8160174D02*
X2610658Y-8150650D01*
X2610658Y-8150650D02*
X2639229Y-8150650D01*
X2639229Y-8150650D02*
X2658277Y-8160174D01*
X2658277Y-8160174D02*
X2667801Y-8179222D01*
X2667801Y-8179222D02*
X2667801Y-8283984D01*
X2667801Y-8179222D02*
X2677325Y-8160174D01*
X2677325Y-8160174D02*
X2696372Y-8150650D01*
X2696372Y-8150650D02*
X2724944Y-8150650D01*
X2724944Y-8150650D02*
X2743991Y-8160174D01*
X2743991Y-8160174D02*
X2753515Y-8179222D01*
X2753515Y-8179222D02*
X2753515Y-8283984D01*
X3143991Y-8074460D02*
X2972563Y-8331603D01*
X3401134Y-8083984D02*
X3420182Y-8083984D01*
X3420182Y-8083984D02*
X3439229Y-8093508D01*
X3439229Y-8093508D02*
X3448753Y-8103031D01*
X3448753Y-8103031D02*
X3458277Y-8122079D01*
X3458277Y-8122079D02*
X3467801Y-8160174D01*
X3467801Y-8160174D02*
X3467801Y-8207793D01*
X3467801Y-8207793D02*
X3458277Y-8245888D01*
X3458277Y-8245888D02*
X3448753Y-8264936D01*
X3448753Y-8264936D02*
X3439229Y-8274460D01*
X3439229Y-8274460D02*
X3420182Y-8283984D01*
X3420182Y-8283984D02*
X3401134Y-8283984D01*
X3401134Y-8283984D02*
X3382086Y-8274460D01*
X3382086Y-8274460D02*
X3372563Y-8264936D01*
X3372563Y-8264936D02*
X3363039Y-8245888D01*
X3363039Y-8245888D02*
X3353515Y-8207793D01*
X3353515Y-8207793D02*
X3353515Y-8160174D01*
X3353515Y-8160174D02*
X3363039Y-8122079D01*
X3363039Y-8122079D02*
X3372563Y-8103031D01*
X3372563Y-8103031D02*
X3382086Y-8093508D01*
X3382086Y-8093508D02*
X3401134Y-8083984D01*
X3553515Y-8264936D02*
X3563039Y-8274460D01*
X3563039Y-8274460D02*
X3553515Y-8283984D01*
X3553515Y-8283984D02*
X3543991Y-8274460D01*
X3543991Y-8274460D02*
X3553515Y-8264936D01*
X3553515Y-8264936D02*
X3553515Y-8283984D01*
X3686848Y-8083984D02*
X3705896Y-8083984D01*
X3705896Y-8083984D02*
X3724944Y-8093508D01*
X3724944Y-8093508D02*
X3734467Y-8103031D01*
X3734467Y-8103031D02*
X3743991Y-8122079D01*
X3743991Y-8122079D02*
X3753515Y-8160174D01*
X3753515Y-8160174D02*
X3753515Y-8207793D01*
X3753515Y-8207793D02*
X3743991Y-8245888D01*
X3743991Y-8245888D02*
X3734467Y-8264936D01*
X3734467Y-8264936D02*
X3724944Y-8274460D01*
X3724944Y-8274460D02*
X3705896Y-8283984D01*
X3705896Y-8283984D02*
X3686848Y-8283984D01*
X3686848Y-8283984D02*
X3667801Y-8274460D01*
X3667801Y-8274460D02*
X3658277Y-8264936D01*
X3658277Y-8264936D02*
X3648753Y-8245888D01*
X3648753Y-8245888D02*
X3639229Y-8207793D01*
X3639229Y-8207793D02*
X3639229Y-8160174D01*
X3639229Y-8160174D02*
X3648753Y-8122079D01*
X3648753Y-8122079D02*
X3658277Y-8103031D01*
X3658277Y-8103031D02*
X3667801Y-8093508D01*
X3667801Y-8093508D02*
X3686848Y-8083984D01*
X3943991Y-8283984D02*
X3829706Y-8283984D01*
X3886848Y-8283984D02*
X3886848Y-8083984D01*
X3886848Y-8083984D02*
X3867801Y-8112555D01*
X3867801Y-8112555D02*
X3848753Y-8131603D01*
X3848753Y-8131603D02*
X3829706Y-8141127D01*
X4134467Y-8283984D02*
X4020182Y-8283984D01*
X4077325Y-8283984D02*
X4077325Y-8083984D01*
X4077325Y-8083984D02*
X4058277Y-8112555D01*
X4058277Y-8112555D02*
X4039229Y-8131603D01*
X4039229Y-8131603D02*
X4020182Y-8141127D01*
X4248753Y-8169698D02*
X4229706Y-8160174D01*
X4229706Y-8160174D02*
X4220182Y-8150650D01*
X4220182Y-8150650D02*
X4210658Y-8131603D01*
X4210658Y-8131603D02*
X4210658Y-8122079D01*
X4210658Y-8122079D02*
X4220182Y-8103031D01*
X4220182Y-8103031D02*
X4229706Y-8093508D01*
X4229706Y-8093508D02*
X4248753Y-8083984D01*
X4248753Y-8083984D02*
X4286849Y-8083984D01*
X4286849Y-8083984D02*
X4305896Y-8093508D01*
X4305896Y-8093508D02*
X4315420Y-8103031D01*
X4315420Y-8103031D02*
X4324944Y-8122079D01*
X4324944Y-8122079D02*
X4324944Y-8131603D01*
X4324944Y-8131603D02*
X4315420Y-8150650D01*
X4315420Y-8150650D02*
X4305896Y-8160174D01*
X4305896Y-8160174D02*
X4286849Y-8169698D01*
X4286849Y-8169698D02*
X4248753Y-8169698D01*
X4248753Y-8169698D02*
X4229706Y-8179222D01*
X4229706Y-8179222D02*
X4220182Y-8188746D01*
X4220182Y-8188746D02*
X4210658Y-8207793D01*
X4210658Y-8207793D02*
X4210658Y-8245888D01*
X4210658Y-8245888D02*
X4220182Y-8264936D01*
X4220182Y-8264936D02*
X4229706Y-8274460D01*
X4229706Y-8274460D02*
X4248753Y-8283984D01*
X4248753Y-8283984D02*
X4286849Y-8283984D01*
X4286849Y-8283984D02*
X4305896Y-8274460D01*
X4305896Y-8274460D02*
X4315420Y-8264936D01*
X4315420Y-8264936D02*
X4324944Y-8245888D01*
X4324944Y-8245888D02*
X4324944Y-8207793D01*
X4324944Y-8207793D02*
X4315420Y-8188746D01*
X4315420Y-8188746D02*
X4305896Y-8179222D01*
X4305896Y-8179222D02*
X4286849Y-8169698D01*
X4401134Y-8083984D02*
X4401134Y-8122079D01*
X4477325Y-8083984D02*
X4477325Y-8122079D01*
X4772563Y-8360174D02*
X4763039Y-8350650D01*
X4763039Y-8350650D02*
X4743991Y-8322079D01*
X4743991Y-8322079D02*
X4734468Y-8303031D01*
X4734468Y-8303031D02*
X4724944Y-8274460D01*
X4724944Y-8274460D02*
X4715420Y-8226841D01*
X4715420Y-8226841D02*
X4715420Y-8188746D01*
X4715420Y-8188746D02*
X4724944Y-8141127D01*
X4724944Y-8141127D02*
X4734468Y-8112555D01*
X4734468Y-8112555D02*
X4743991Y-8093508D01*
X4743991Y-8093508D02*
X4763039Y-8064936D01*
X4763039Y-8064936D02*
X4772563Y-8055412D01*
X4877325Y-8169698D02*
X4858277Y-8160174D01*
X4858277Y-8160174D02*
X4848753Y-8150650D01*
X4848753Y-8150650D02*
X4839230Y-8131603D01*
X4839230Y-8131603D02*
X4839230Y-8122079D01*
X4839230Y-8122079D02*
X4848753Y-8103031D01*
X4848753Y-8103031D02*
X4858277Y-8093508D01*
X4858277Y-8093508D02*
X4877325Y-8083984D01*
X4877325Y-8083984D02*
X4915420Y-8083984D01*
X4915420Y-8083984D02*
X4934468Y-8093508D01*
X4934468Y-8093508D02*
X4943991Y-8103031D01*
X4943991Y-8103031D02*
X4953515Y-8122079D01*
X4953515Y-8122079D02*
X4953515Y-8131603D01*
X4953515Y-8131603D02*
X4943991Y-8150650D01*
X4943991Y-8150650D02*
X4934468Y-8160174D01*
X4934468Y-8160174D02*
X4915420Y-8169698D01*
X4915420Y-8169698D02*
X4877325Y-8169698D01*
X4877325Y-8169698D02*
X4858277Y-8179222D01*
X4858277Y-8179222D02*
X4848753Y-8188746D01*
X4848753Y-8188746D02*
X4839230Y-8207793D01*
X4839230Y-8207793D02*
X4839230Y-8245888D01*
X4839230Y-8245888D02*
X4848753Y-8264936D01*
X4848753Y-8264936D02*
X4858277Y-8274460D01*
X4858277Y-8274460D02*
X4877325Y-8283984D01*
X4877325Y-8283984D02*
X4915420Y-8283984D01*
X4915420Y-8283984D02*
X4934468Y-8274460D01*
X4934468Y-8274460D02*
X4943991Y-8264936D01*
X4943991Y-8264936D02*
X4953515Y-8245888D01*
X4953515Y-8245888D02*
X4953515Y-8207793D01*
X4953515Y-8207793D02*
X4943991Y-8188746D01*
X4943991Y-8188746D02*
X4934468Y-8179222D01*
X4934468Y-8179222D02*
X4915420Y-8169698D01*
X5067801Y-8169698D02*
X5048753Y-8160174D01*
X5048753Y-8160174D02*
X5039230Y-8150650D01*
X5039230Y-8150650D02*
X5029706Y-8131603D01*
X5029706Y-8131603D02*
X5029706Y-8122079D01*
X5029706Y-8122079D02*
X5039230Y-8103031D01*
X5039230Y-8103031D02*
X5048753Y-8093508D01*
X5048753Y-8093508D02*
X5067801Y-8083984D01*
X5067801Y-8083984D02*
X5105896Y-8083984D01*
X5105896Y-8083984D02*
X5124944Y-8093508D01*
X5124944Y-8093508D02*
X5134468Y-8103031D01*
X5134468Y-8103031D02*
X5143991Y-8122079D01*
X5143991Y-8122079D02*
X5143991Y-8131603D01*
X5143991Y-8131603D02*
X5134468Y-8150650D01*
X5134468Y-8150650D02*
X5124944Y-8160174D01*
X5124944Y-8160174D02*
X5105896Y-8169698D01*
X5105896Y-8169698D02*
X5067801Y-8169698D01*
X5067801Y-8169698D02*
X5048753Y-8179222D01*
X5048753Y-8179222D02*
X5039230Y-8188746D01*
X5039230Y-8188746D02*
X5029706Y-8207793D01*
X5029706Y-8207793D02*
X5029706Y-8245888D01*
X5029706Y-8245888D02*
X5039230Y-8264936D01*
X5039230Y-8264936D02*
X5048753Y-8274460D01*
X5048753Y-8274460D02*
X5067801Y-8283984D01*
X5067801Y-8283984D02*
X5105896Y-8283984D01*
X5105896Y-8283984D02*
X5124944Y-8274460D01*
X5124944Y-8274460D02*
X5134468Y-8264936D01*
X5134468Y-8264936D02*
X5143991Y-8245888D01*
X5143991Y-8245888D02*
X5143991Y-8207793D01*
X5143991Y-8207793D02*
X5134468Y-8188746D01*
X5134468Y-8188746D02*
X5124944Y-8179222D01*
X5124944Y-8179222D02*
X5105896Y-8169698D01*
X5382087Y-8283984D02*
X5382087Y-8083984D01*
X5467801Y-8283984D02*
X5467801Y-8179222D01*
X5467801Y-8179222D02*
X5458277Y-8160174D01*
X5458277Y-8160174D02*
X5439230Y-8150650D01*
X5439230Y-8150650D02*
X5410658Y-8150650D01*
X5410658Y-8150650D02*
X5391611Y-8160174D01*
X5391611Y-8160174D02*
X5382087Y-8169698D01*
X5591611Y-8283984D02*
X5572563Y-8274460D01*
X5572563Y-8274460D02*
X5563039Y-8264936D01*
X5563039Y-8264936D02*
X5553515Y-8245888D01*
X5553515Y-8245888D02*
X5553515Y-8188746D01*
X5553515Y-8188746D02*
X5563039Y-8169698D01*
X5563039Y-8169698D02*
X5572563Y-8160174D01*
X5572563Y-8160174D02*
X5591611Y-8150650D01*
X5591611Y-8150650D02*
X5620182Y-8150650D01*
X5620182Y-8150650D02*
X5639230Y-8160174D01*
X5639230Y-8160174D02*
X5648753Y-8169698D01*
X5648753Y-8169698D02*
X5658277Y-8188746D01*
X5658277Y-8188746D02*
X5658277Y-8245888D01*
X5658277Y-8245888D02*
X5648753Y-8264936D01*
X5648753Y-8264936D02*
X5639230Y-8274460D01*
X5639230Y-8274460D02*
X5620182Y-8283984D01*
X5620182Y-8283984D02*
X5591611Y-8283984D01*
X5772563Y-8283984D02*
X5753515Y-8274460D01*
X5753515Y-8274460D02*
X5743991Y-8255412D01*
X5743991Y-8255412D02*
X5743991Y-8083984D01*
X5924944Y-8274460D02*
X5905896Y-8283984D01*
X5905896Y-8283984D02*
X5867801Y-8283984D01*
X5867801Y-8283984D02*
X5848753Y-8274460D01*
X5848753Y-8274460D02*
X5839230Y-8255412D01*
X5839230Y-8255412D02*
X5839230Y-8179222D01*
X5839230Y-8179222D02*
X5848753Y-8160174D01*
X5848753Y-8160174D02*
X5867801Y-8150650D01*
X5867801Y-8150650D02*
X5905896Y-8150650D01*
X5905896Y-8150650D02*
X5924944Y-8160174D01*
X5924944Y-8160174D02*
X5934468Y-8179222D01*
X5934468Y-8179222D02*
X5934468Y-8198269D01*
X5934468Y-8198269D02*
X5839230Y-8217317D01*
X6010658Y-8274460D02*
X6029706Y-8283984D01*
X6029706Y-8283984D02*
X6067801Y-8283984D01*
X6067801Y-8283984D02*
X6086849Y-8274460D01*
X6086849Y-8274460D02*
X6096372Y-8255412D01*
X6096372Y-8255412D02*
X6096372Y-8245888D01*
X6096372Y-8245888D02*
X6086849Y-8226841D01*
X6086849Y-8226841D02*
X6067801Y-8217317D01*
X6067801Y-8217317D02*
X6039230Y-8217317D01*
X6039230Y-8217317D02*
X6020182Y-8207793D01*
X6020182Y-8207793D02*
X6010658Y-8188746D01*
X6010658Y-8188746D02*
X6010658Y-8179222D01*
X6010658Y-8179222D02*
X6020182Y-8160174D01*
X6020182Y-8160174D02*
X6039230Y-8150650D01*
X6039230Y-8150650D02*
X6067801Y-8150650D01*
X6067801Y-8150650D02*
X6086849Y-8160174D01*
X6163039Y-8360174D02*
X6172563Y-8350650D01*
X6172563Y-8350650D02*
X6191611Y-8322079D01*
X6191611Y-8322079D02*
X6201134Y-8303031D01*
X6201134Y-8303031D02*
X6210658Y-8274460D01*
X6210658Y-8274460D02*
X6220182Y-8226841D01*
X6220182Y-8226841D02*
X6220182Y-8188746D01*
X6220182Y-8188746D02*
X6210658Y-8141127D01*
X6210658Y-8141127D02*
X6201134Y-8112555D01*
X6201134Y-8112555D02*
X6191611Y-8093508D01*
X6191611Y-8093508D02*
X6172563Y-8064936D01*
X6172563Y-8064936D02*
X6163039Y-8055412D01*
D12*
X1197500Y-8456500D02*
G75*
G02*
X1141620Y-8456500I-27940J0D01*
G01*
X1141620Y-8456500D02*
G75*
G02*
X1197500Y-8456500I27940J0D01*
G01*
D11*
X1496372Y-8347984D02*
X1515420Y-8347984D01*
X1515420Y-8347984D02*
X1534467Y-8357508D01*
X1534467Y-8357508D02*
X1543991Y-8367031D01*
X1543991Y-8367031D02*
X1553515Y-8386079D01*
X1553515Y-8386079D02*
X1563039Y-8424174D01*
X1563039Y-8424174D02*
X1563039Y-8471793D01*
X1563039Y-8471793D02*
X1553515Y-8509889D01*
X1553515Y-8509889D02*
X1543991Y-8528936D01*
X1543991Y-8528936D02*
X1534467Y-8538460D01*
X1534467Y-8538460D02*
X1515420Y-8547984D01*
X1515420Y-8547984D02*
X1496372Y-8547984D01*
X1496372Y-8547984D02*
X1477324Y-8538460D01*
X1477324Y-8538460D02*
X1467801Y-8528936D01*
X1467801Y-8528936D02*
X1458277Y-8509889D01*
X1458277Y-8509889D02*
X1448753Y-8471793D01*
X1448753Y-8471793D02*
X1448753Y-8424174D01*
X1448753Y-8424174D02*
X1458277Y-8386079D01*
X1458277Y-8386079D02*
X1467801Y-8367031D01*
X1467801Y-8367031D02*
X1477324Y-8357508D01*
X1477324Y-8357508D02*
X1496372Y-8347984D01*
X1648753Y-8528936D02*
X1658277Y-8538460D01*
X1658277Y-8538460D02*
X1648753Y-8547984D01*
X1648753Y-8547984D02*
X1639229Y-8538460D01*
X1639229Y-8538460D02*
X1648753Y-8528936D01*
X1648753Y-8528936D02*
X1648753Y-8547984D01*
X1839229Y-8347984D02*
X1743991Y-8347984D01*
X1743991Y-8347984D02*
X1734467Y-8443222D01*
X1734467Y-8443222D02*
X1743991Y-8433698D01*
X1743991Y-8433698D02*
X1763039Y-8424174D01*
X1763039Y-8424174D02*
X1810658Y-8424174D01*
X1810658Y-8424174D02*
X1829705Y-8433698D01*
X1829705Y-8433698D02*
X1839229Y-8443222D01*
X1839229Y-8443222D02*
X1848753Y-8462270D01*
X1848753Y-8462270D02*
X1848753Y-8509889D01*
X1848753Y-8509889D02*
X1839229Y-8528936D01*
X1839229Y-8528936D02*
X1829705Y-8538460D01*
X1829705Y-8538460D02*
X1810658Y-8547984D01*
X1810658Y-8547984D02*
X1763039Y-8547984D01*
X1763039Y-8547984D02*
X1743991Y-8538460D01*
X1743991Y-8538460D02*
X1734467Y-8528936D01*
X2029705Y-8347984D02*
X1934467Y-8347984D01*
X1934467Y-8347984D02*
X1924943Y-8443222D01*
X1924943Y-8443222D02*
X1934467Y-8433698D01*
X1934467Y-8433698D02*
X1953515Y-8424174D01*
X1953515Y-8424174D02*
X2001134Y-8424174D01*
X2001134Y-8424174D02*
X2020182Y-8433698D01*
X2020182Y-8433698D02*
X2029705Y-8443222D01*
X2029705Y-8443222D02*
X2039229Y-8462270D01*
X2039229Y-8462270D02*
X2039229Y-8509889D01*
X2039229Y-8509889D02*
X2029705Y-8528936D01*
X2029705Y-8528936D02*
X2020182Y-8538460D01*
X2020182Y-8538460D02*
X2001134Y-8547984D01*
X2001134Y-8547984D02*
X1953515Y-8547984D01*
X1953515Y-8547984D02*
X1934467Y-8538460D01*
X1934467Y-8538460D02*
X1924943Y-8528936D01*
X2134467Y-8547984D02*
X2172563Y-8547984D01*
X2172563Y-8547984D02*
X2191610Y-8538460D01*
X2191610Y-8538460D02*
X2201134Y-8528936D01*
X2201134Y-8528936D02*
X2220182Y-8500365D01*
X2220182Y-8500365D02*
X2229705Y-8462270D01*
X2229705Y-8462270D02*
X2229705Y-8386079D01*
X2229705Y-8386079D02*
X2220182Y-8367031D01*
X2220182Y-8367031D02*
X2210658Y-8357508D01*
X2210658Y-8357508D02*
X2191610Y-8347984D01*
X2191610Y-8347984D02*
X2153515Y-8347984D01*
X2153515Y-8347984D02*
X2134467Y-8357508D01*
X2134467Y-8357508D02*
X2124944Y-8367031D01*
X2124944Y-8367031D02*
X2115420Y-8386079D01*
X2115420Y-8386079D02*
X2115420Y-8433698D01*
X2115420Y-8433698D02*
X2124944Y-8452746D01*
X2124944Y-8452746D02*
X2134467Y-8462270D01*
X2134467Y-8462270D02*
X2153515Y-8471793D01*
X2153515Y-8471793D02*
X2191610Y-8471793D01*
X2191610Y-8471793D02*
X2210658Y-8462270D01*
X2210658Y-8462270D02*
X2220182Y-8452746D01*
X2220182Y-8452746D02*
X2229705Y-8433698D01*
X2315420Y-8547984D02*
X2315420Y-8414650D01*
X2315420Y-8433698D02*
X2324944Y-8424174D01*
X2324944Y-8424174D02*
X2343991Y-8414650D01*
X2343991Y-8414650D02*
X2372563Y-8414650D01*
X2372563Y-8414650D02*
X2391610Y-8424174D01*
X2391610Y-8424174D02*
X2401134Y-8443222D01*
X2401134Y-8443222D02*
X2401134Y-8547984D01*
X2401134Y-8443222D02*
X2410658Y-8424174D01*
X2410658Y-8424174D02*
X2429705Y-8414650D01*
X2429705Y-8414650D02*
X2458277Y-8414650D01*
X2458277Y-8414650D02*
X2477325Y-8424174D01*
X2477325Y-8424174D02*
X2486848Y-8443222D01*
X2486848Y-8443222D02*
X2486848Y-8547984D01*
X2582086Y-8547984D02*
X2582086Y-8414650D01*
X2582086Y-8433698D02*
X2591610Y-8424174D01*
X2591610Y-8424174D02*
X2610658Y-8414650D01*
X2610658Y-8414650D02*
X2639229Y-8414650D01*
X2639229Y-8414650D02*
X2658277Y-8424174D01*
X2658277Y-8424174D02*
X2667801Y-8443222D01*
X2667801Y-8443222D02*
X2667801Y-8547984D01*
X2667801Y-8443222D02*
X2677325Y-8424174D01*
X2677325Y-8424174D02*
X2696372Y-8414650D01*
X2696372Y-8414650D02*
X2724944Y-8414650D01*
X2724944Y-8414650D02*
X2743991Y-8424174D01*
X2743991Y-8424174D02*
X2753515Y-8443222D01*
X2753515Y-8443222D02*
X2753515Y-8547984D01*
X3143991Y-8338460D02*
X2972563Y-8595603D01*
X3401134Y-8347984D02*
X3420182Y-8347984D01*
X3420182Y-8347984D02*
X3439229Y-8357508D01*
X3439229Y-8357508D02*
X3448753Y-8367031D01*
X3448753Y-8367031D02*
X3458277Y-8386079D01*
X3458277Y-8386079D02*
X3467801Y-8424174D01*
X3467801Y-8424174D02*
X3467801Y-8471793D01*
X3467801Y-8471793D02*
X3458277Y-8509889D01*
X3458277Y-8509889D02*
X3448753Y-8528936D01*
X3448753Y-8528936D02*
X3439229Y-8538460D01*
X3439229Y-8538460D02*
X3420182Y-8547984D01*
X3420182Y-8547984D02*
X3401134Y-8547984D01*
X3401134Y-8547984D02*
X3382086Y-8538460D01*
X3382086Y-8538460D02*
X3372563Y-8528936D01*
X3372563Y-8528936D02*
X3363039Y-8509889D01*
X3363039Y-8509889D02*
X3353515Y-8471793D01*
X3353515Y-8471793D02*
X3353515Y-8424174D01*
X3353515Y-8424174D02*
X3363039Y-8386079D01*
X3363039Y-8386079D02*
X3372563Y-8367031D01*
X3372563Y-8367031D02*
X3382086Y-8357508D01*
X3382086Y-8357508D02*
X3401134Y-8347984D01*
X3553515Y-8528936D02*
X3563039Y-8538460D01*
X3563039Y-8538460D02*
X3553515Y-8547984D01*
X3553515Y-8547984D02*
X3543991Y-8538460D01*
X3543991Y-8538460D02*
X3553515Y-8528936D01*
X3553515Y-8528936D02*
X3553515Y-8547984D01*
X3686848Y-8347984D02*
X3705896Y-8347984D01*
X3705896Y-8347984D02*
X3724944Y-8357508D01*
X3724944Y-8357508D02*
X3734467Y-8367031D01*
X3734467Y-8367031D02*
X3743991Y-8386079D01*
X3743991Y-8386079D02*
X3753515Y-8424174D01*
X3753515Y-8424174D02*
X3753515Y-8471793D01*
X3753515Y-8471793D02*
X3743991Y-8509889D01*
X3743991Y-8509889D02*
X3734467Y-8528936D01*
X3734467Y-8528936D02*
X3724944Y-8538460D01*
X3724944Y-8538460D02*
X3705896Y-8547984D01*
X3705896Y-8547984D02*
X3686848Y-8547984D01*
X3686848Y-8547984D02*
X3667801Y-8538460D01*
X3667801Y-8538460D02*
X3658277Y-8528936D01*
X3658277Y-8528936D02*
X3648753Y-8509889D01*
X3648753Y-8509889D02*
X3639229Y-8471793D01*
X3639229Y-8471793D02*
X3639229Y-8424174D01*
X3639229Y-8424174D02*
X3648753Y-8386079D01*
X3648753Y-8386079D02*
X3658277Y-8367031D01*
X3658277Y-8367031D02*
X3667801Y-8357508D01*
X3667801Y-8357508D02*
X3686848Y-8347984D01*
X3829706Y-8367031D02*
X3839229Y-8357508D01*
X3839229Y-8357508D02*
X3858277Y-8347984D01*
X3858277Y-8347984D02*
X3905896Y-8347984D01*
X3905896Y-8347984D02*
X3924944Y-8357508D01*
X3924944Y-8357508D02*
X3934467Y-8367031D01*
X3934467Y-8367031D02*
X3943991Y-8386079D01*
X3943991Y-8386079D02*
X3943991Y-8405127D01*
X3943991Y-8405127D02*
X3934467Y-8433698D01*
X3934467Y-8433698D02*
X3820182Y-8547984D01*
X3820182Y-8547984D02*
X3943991Y-8547984D01*
X4020182Y-8367031D02*
X4029706Y-8357508D01*
X4029706Y-8357508D02*
X4048753Y-8347984D01*
X4048753Y-8347984D02*
X4096372Y-8347984D01*
X4096372Y-8347984D02*
X4115420Y-8357508D01*
X4115420Y-8357508D02*
X4124944Y-8367031D01*
X4124944Y-8367031D02*
X4134467Y-8386079D01*
X4134467Y-8386079D02*
X4134467Y-8405127D01*
X4134467Y-8405127D02*
X4124944Y-8433698D01*
X4124944Y-8433698D02*
X4010658Y-8547984D01*
X4010658Y-8547984D02*
X4134467Y-8547984D01*
X4258277Y-8347984D02*
X4277325Y-8347984D01*
X4277325Y-8347984D02*
X4296372Y-8357508D01*
X4296372Y-8357508D02*
X4305896Y-8367031D01*
X4305896Y-8367031D02*
X4315420Y-8386079D01*
X4315420Y-8386079D02*
X4324944Y-8424174D01*
X4324944Y-8424174D02*
X4324944Y-8471793D01*
X4324944Y-8471793D02*
X4315420Y-8509889D01*
X4315420Y-8509889D02*
X4305896Y-8528936D01*
X4305896Y-8528936D02*
X4296372Y-8538460D01*
X4296372Y-8538460D02*
X4277325Y-8547984D01*
X4277325Y-8547984D02*
X4258277Y-8547984D01*
X4258277Y-8547984D02*
X4239229Y-8538460D01*
X4239229Y-8538460D02*
X4229706Y-8528936D01*
X4229706Y-8528936D02*
X4220182Y-8509889D01*
X4220182Y-8509889D02*
X4210658Y-8471793D01*
X4210658Y-8471793D02*
X4210658Y-8424174D01*
X4210658Y-8424174D02*
X4220182Y-8386079D01*
X4220182Y-8386079D02*
X4229706Y-8367031D01*
X4229706Y-8367031D02*
X4239229Y-8357508D01*
X4239229Y-8357508D02*
X4258277Y-8347984D01*
X4401134Y-8347984D02*
X4401134Y-8386079D01*
X4477325Y-8347984D02*
X4477325Y-8386079D01*
X4772563Y-8624174D02*
X4763039Y-8614650D01*
X4763039Y-8614650D02*
X4743991Y-8586079D01*
X4743991Y-8586079D02*
X4734468Y-8567031D01*
X4734468Y-8567031D02*
X4724944Y-8538460D01*
X4724944Y-8538460D02*
X4715420Y-8490841D01*
X4715420Y-8490841D02*
X4715420Y-8452746D01*
X4715420Y-8452746D02*
X4724944Y-8405127D01*
X4724944Y-8405127D02*
X4734468Y-8376555D01*
X4734468Y-8376555D02*
X4743991Y-8357508D01*
X4743991Y-8357508D02*
X4763039Y-8328936D01*
X4763039Y-8328936D02*
X4772563Y-8319412D01*
X4839230Y-8367031D02*
X4848753Y-8357508D01*
X4848753Y-8357508D02*
X4867801Y-8347984D01*
X4867801Y-8347984D02*
X4915420Y-8347984D01*
X4915420Y-8347984D02*
X4934468Y-8357508D01*
X4934468Y-8357508D02*
X4943991Y-8367031D01*
X4943991Y-8367031D02*
X4953515Y-8386079D01*
X4953515Y-8386079D02*
X4953515Y-8405127D01*
X4953515Y-8405127D02*
X4943991Y-8433698D01*
X4943991Y-8433698D02*
X4829706Y-8547984D01*
X4829706Y-8547984D02*
X4953515Y-8547984D01*
X5191611Y-8547984D02*
X5191611Y-8347984D01*
X5277325Y-8547984D02*
X5277325Y-8443222D01*
X5277325Y-8443222D02*
X5267801Y-8424174D01*
X5267801Y-8424174D02*
X5248753Y-8414650D01*
X5248753Y-8414650D02*
X5220182Y-8414650D01*
X5220182Y-8414650D02*
X5201134Y-8424174D01*
X5201134Y-8424174D02*
X5191611Y-8433698D01*
X5401134Y-8547984D02*
X5382087Y-8538460D01*
X5382087Y-8538460D02*
X5372563Y-8528936D01*
X5372563Y-8528936D02*
X5363039Y-8509889D01*
X5363039Y-8509889D02*
X5363039Y-8452746D01*
X5363039Y-8452746D02*
X5372563Y-8433698D01*
X5372563Y-8433698D02*
X5382087Y-8424174D01*
X5382087Y-8424174D02*
X5401134Y-8414650D01*
X5401134Y-8414650D02*
X5429706Y-8414650D01*
X5429706Y-8414650D02*
X5448753Y-8424174D01*
X5448753Y-8424174D02*
X5458277Y-8433698D01*
X5458277Y-8433698D02*
X5467801Y-8452746D01*
X5467801Y-8452746D02*
X5467801Y-8509889D01*
X5467801Y-8509889D02*
X5458277Y-8528936D01*
X5458277Y-8528936D02*
X5448753Y-8538460D01*
X5448753Y-8538460D02*
X5429706Y-8547984D01*
X5429706Y-8547984D02*
X5401134Y-8547984D01*
X5582087Y-8547984D02*
X5563039Y-8538460D01*
X5563039Y-8538460D02*
X5553515Y-8519412D01*
X5553515Y-8519412D02*
X5553515Y-8347984D01*
X5734468Y-8538460D02*
X5715420Y-8547984D01*
X5715420Y-8547984D02*
X5677325Y-8547984D01*
X5677325Y-8547984D02*
X5658277Y-8538460D01*
X5658277Y-8538460D02*
X5648753Y-8519412D01*
X5648753Y-8519412D02*
X5648753Y-8443222D01*
X5648753Y-8443222D02*
X5658277Y-8424174D01*
X5658277Y-8424174D02*
X5677325Y-8414650D01*
X5677325Y-8414650D02*
X5715420Y-8414650D01*
X5715420Y-8414650D02*
X5734468Y-8424174D01*
X5734468Y-8424174D02*
X5743991Y-8443222D01*
X5743991Y-8443222D02*
X5743991Y-8462270D01*
X5743991Y-8462270D02*
X5648753Y-8481317D01*
X5820182Y-8538460D02*
X5839230Y-8547984D01*
X5839230Y-8547984D02*
X5877325Y-8547984D01*
X5877325Y-8547984D02*
X5896372Y-8538460D01*
X5896372Y-8538460D02*
X5905896Y-8519412D01*
X5905896Y-8519412D02*
X5905896Y-8509889D01*
X5905896Y-8509889D02*
X5896372Y-8490841D01*
X5896372Y-8490841D02*
X5877325Y-8481317D01*
X5877325Y-8481317D02*
X5848753Y-8481317D01*
X5848753Y-8481317D02*
X5829706Y-8471793D01*
X5829706Y-8471793D02*
X5820182Y-8452746D01*
X5820182Y-8452746D02*
X5820182Y-8443222D01*
X5820182Y-8443222D02*
X5829706Y-8424174D01*
X5829706Y-8424174D02*
X5848753Y-8414650D01*
X5848753Y-8414650D02*
X5877325Y-8414650D01*
X5877325Y-8414650D02*
X5896372Y-8424174D01*
X5972563Y-8624174D02*
X5982087Y-8614650D01*
X5982087Y-8614650D02*
X6001134Y-8586079D01*
X6001134Y-8586079D02*
X6010658Y-8567031D01*
X6010658Y-8567031D02*
X6020182Y-8538460D01*
X6020182Y-8538460D02*
X6029706Y-8490841D01*
X6029706Y-8490841D02*
X6029706Y-8452746D01*
X6029706Y-8452746D02*
X6020182Y-8405127D01*
X6020182Y-8405127D02*
X6010658Y-8376555D01*
X6010658Y-8376555D02*
X6001134Y-8357508D01*
X6001134Y-8357508D02*
X5982087Y-8328936D01*
X5982087Y-8328936D02*
X5972563Y-8319412D01*
D12*
X1153050Y-8676050D02*
X1153050Y-8764950D01*
X1108600Y-8720500D02*
X1197500Y-8720500D01*
D11*
X1496372Y-8611984D02*
X1515420Y-8611984D01*
X1515420Y-8611984D02*
X1534467Y-8621508D01*
X1534467Y-8621508D02*
X1543991Y-8631031D01*
X1543991Y-8631031D02*
X1553515Y-8650079D01*
X1553515Y-8650079D02*
X1563039Y-8688174D01*
X1563039Y-8688174D02*
X1563039Y-8735793D01*
X1563039Y-8735793D02*
X1553515Y-8773889D01*
X1553515Y-8773889D02*
X1543991Y-8792936D01*
X1543991Y-8792936D02*
X1534467Y-8802460D01*
X1534467Y-8802460D02*
X1515420Y-8811984D01*
X1515420Y-8811984D02*
X1496372Y-8811984D01*
X1496372Y-8811984D02*
X1477324Y-8802460D01*
X1477324Y-8802460D02*
X1467801Y-8792936D01*
X1467801Y-8792936D02*
X1458277Y-8773889D01*
X1458277Y-8773889D02*
X1448753Y-8735793D01*
X1448753Y-8735793D02*
X1448753Y-8688174D01*
X1448753Y-8688174D02*
X1458277Y-8650079D01*
X1458277Y-8650079D02*
X1467801Y-8631031D01*
X1467801Y-8631031D02*
X1477324Y-8621508D01*
X1477324Y-8621508D02*
X1496372Y-8611984D01*
X1648753Y-8792936D02*
X1658277Y-8802460D01*
X1658277Y-8802460D02*
X1648753Y-8811984D01*
X1648753Y-8811984D02*
X1639229Y-8802460D01*
X1639229Y-8802460D02*
X1648753Y-8792936D01*
X1648753Y-8792936D02*
X1648753Y-8811984D01*
X1772562Y-8697698D02*
X1753515Y-8688174D01*
X1753515Y-8688174D02*
X1743991Y-8678650D01*
X1743991Y-8678650D02*
X1734467Y-8659603D01*
X1734467Y-8659603D02*
X1734467Y-8650079D01*
X1734467Y-8650079D02*
X1743991Y-8631031D01*
X1743991Y-8631031D02*
X1753515Y-8621508D01*
X1753515Y-8621508D02*
X1772562Y-8611984D01*
X1772562Y-8611984D02*
X1810658Y-8611984D01*
X1810658Y-8611984D02*
X1829705Y-8621508D01*
X1829705Y-8621508D02*
X1839229Y-8631031D01*
X1839229Y-8631031D02*
X1848753Y-8650079D01*
X1848753Y-8650079D02*
X1848753Y-8659603D01*
X1848753Y-8659603D02*
X1839229Y-8678650D01*
X1839229Y-8678650D02*
X1829705Y-8688174D01*
X1829705Y-8688174D02*
X1810658Y-8697698D01*
X1810658Y-8697698D02*
X1772562Y-8697698D01*
X1772562Y-8697698D02*
X1753515Y-8707222D01*
X1753515Y-8707222D02*
X1743991Y-8716746D01*
X1743991Y-8716746D02*
X1734467Y-8735793D01*
X1734467Y-8735793D02*
X1734467Y-8773889D01*
X1734467Y-8773889D02*
X1743991Y-8792936D01*
X1743991Y-8792936D02*
X1753515Y-8802460D01*
X1753515Y-8802460D02*
X1772562Y-8811984D01*
X1772562Y-8811984D02*
X1810658Y-8811984D01*
X1810658Y-8811984D02*
X1829705Y-8802460D01*
X1829705Y-8802460D02*
X1839229Y-8792936D01*
X1839229Y-8792936D02*
X1848753Y-8773889D01*
X1848753Y-8773889D02*
X1848753Y-8735793D01*
X1848753Y-8735793D02*
X1839229Y-8716746D01*
X1839229Y-8716746D02*
X1829705Y-8707222D01*
X1829705Y-8707222D02*
X1810658Y-8697698D01*
X1963039Y-8697698D02*
X1943991Y-8688174D01*
X1943991Y-8688174D02*
X1934467Y-8678650D01*
X1934467Y-8678650D02*
X1924943Y-8659603D01*
X1924943Y-8659603D02*
X1924943Y-8650079D01*
X1924943Y-8650079D02*
X1934467Y-8631031D01*
X1934467Y-8631031D02*
X1943991Y-8621508D01*
X1943991Y-8621508D02*
X1963039Y-8611984D01*
X1963039Y-8611984D02*
X2001134Y-8611984D01*
X2001134Y-8611984D02*
X2020182Y-8621508D01*
X2020182Y-8621508D02*
X2029705Y-8631031D01*
X2029705Y-8631031D02*
X2039229Y-8650079D01*
X2039229Y-8650079D02*
X2039229Y-8659603D01*
X2039229Y-8659603D02*
X2029705Y-8678650D01*
X2029705Y-8678650D02*
X2020182Y-8688174D01*
X2020182Y-8688174D02*
X2001134Y-8697698D01*
X2001134Y-8697698D02*
X1963039Y-8697698D01*
X1963039Y-8697698D02*
X1943991Y-8707222D01*
X1943991Y-8707222D02*
X1934467Y-8716746D01*
X1934467Y-8716746D02*
X1924943Y-8735793D01*
X1924943Y-8735793D02*
X1924943Y-8773889D01*
X1924943Y-8773889D02*
X1934467Y-8792936D01*
X1934467Y-8792936D02*
X1943991Y-8802460D01*
X1943991Y-8802460D02*
X1963039Y-8811984D01*
X1963039Y-8811984D02*
X2001134Y-8811984D01*
X2001134Y-8811984D02*
X2020182Y-8802460D01*
X2020182Y-8802460D02*
X2029705Y-8792936D01*
X2029705Y-8792936D02*
X2039229Y-8773889D01*
X2039229Y-8773889D02*
X2039229Y-8735793D01*
X2039229Y-8735793D02*
X2029705Y-8716746D01*
X2029705Y-8716746D02*
X2020182Y-8707222D01*
X2020182Y-8707222D02*
X2001134Y-8697698D01*
X2134467Y-8811984D02*
X2172563Y-8811984D01*
X2172563Y-8811984D02*
X2191610Y-8802460D01*
X2191610Y-8802460D02*
X2201134Y-8792936D01*
X2201134Y-8792936D02*
X2220182Y-8764365D01*
X2220182Y-8764365D02*
X2229705Y-8726270D01*
X2229705Y-8726270D02*
X2229705Y-8650079D01*
X2229705Y-8650079D02*
X2220182Y-8631031D01*
X2220182Y-8631031D02*
X2210658Y-8621508D01*
X2210658Y-8621508D02*
X2191610Y-8611984D01*
X2191610Y-8611984D02*
X2153515Y-8611984D01*
X2153515Y-8611984D02*
X2134467Y-8621508D01*
X2134467Y-8621508D02*
X2124944Y-8631031D01*
X2124944Y-8631031D02*
X2115420Y-8650079D01*
X2115420Y-8650079D02*
X2115420Y-8697698D01*
X2115420Y-8697698D02*
X2124944Y-8716746D01*
X2124944Y-8716746D02*
X2134467Y-8726270D01*
X2134467Y-8726270D02*
X2153515Y-8735793D01*
X2153515Y-8735793D02*
X2191610Y-8735793D01*
X2191610Y-8735793D02*
X2210658Y-8726270D01*
X2210658Y-8726270D02*
X2220182Y-8716746D01*
X2220182Y-8716746D02*
X2229705Y-8697698D01*
X2315420Y-8811984D02*
X2315420Y-8678650D01*
X2315420Y-8697698D02*
X2324944Y-8688174D01*
X2324944Y-8688174D02*
X2343991Y-8678650D01*
X2343991Y-8678650D02*
X2372563Y-8678650D01*
X2372563Y-8678650D02*
X2391610Y-8688174D01*
X2391610Y-8688174D02*
X2401134Y-8707222D01*
X2401134Y-8707222D02*
X2401134Y-8811984D01*
X2401134Y-8707222D02*
X2410658Y-8688174D01*
X2410658Y-8688174D02*
X2429705Y-8678650D01*
X2429705Y-8678650D02*
X2458277Y-8678650D01*
X2458277Y-8678650D02*
X2477325Y-8688174D01*
X2477325Y-8688174D02*
X2486848Y-8707222D01*
X2486848Y-8707222D02*
X2486848Y-8811984D01*
X2582086Y-8811984D02*
X2582086Y-8678650D01*
X2582086Y-8697698D02*
X2591610Y-8688174D01*
X2591610Y-8688174D02*
X2610658Y-8678650D01*
X2610658Y-8678650D02*
X2639229Y-8678650D01*
X2639229Y-8678650D02*
X2658277Y-8688174D01*
X2658277Y-8688174D02*
X2667801Y-8707222D01*
X2667801Y-8707222D02*
X2667801Y-8811984D01*
X2667801Y-8707222D02*
X2677325Y-8688174D01*
X2677325Y-8688174D02*
X2696372Y-8678650D01*
X2696372Y-8678650D02*
X2724944Y-8678650D01*
X2724944Y-8678650D02*
X2743991Y-8688174D01*
X2743991Y-8688174D02*
X2753515Y-8707222D01*
X2753515Y-8707222D02*
X2753515Y-8811984D01*
X3143991Y-8602460D02*
X2972563Y-8859603D01*
X3401134Y-8611984D02*
X3420182Y-8611984D01*
X3420182Y-8611984D02*
X3439229Y-8621508D01*
X3439229Y-8621508D02*
X3448753Y-8631031D01*
X3448753Y-8631031D02*
X3458277Y-8650079D01*
X3458277Y-8650079D02*
X3467801Y-8688174D01*
X3467801Y-8688174D02*
X3467801Y-8735793D01*
X3467801Y-8735793D02*
X3458277Y-8773889D01*
X3458277Y-8773889D02*
X3448753Y-8792936D01*
X3448753Y-8792936D02*
X3439229Y-8802460D01*
X3439229Y-8802460D02*
X3420182Y-8811984D01*
X3420182Y-8811984D02*
X3401134Y-8811984D01*
X3401134Y-8811984D02*
X3382086Y-8802460D01*
X3382086Y-8802460D02*
X3372563Y-8792936D01*
X3372563Y-8792936D02*
X3363039Y-8773889D01*
X3363039Y-8773889D02*
X3353515Y-8735793D01*
X3353515Y-8735793D02*
X3353515Y-8688174D01*
X3353515Y-8688174D02*
X3363039Y-8650079D01*
X3363039Y-8650079D02*
X3372563Y-8631031D01*
X3372563Y-8631031D02*
X3382086Y-8621508D01*
X3382086Y-8621508D02*
X3401134Y-8611984D01*
X3553515Y-8792936D02*
X3563039Y-8802460D01*
X3563039Y-8802460D02*
X3553515Y-8811984D01*
X3553515Y-8811984D02*
X3543991Y-8802460D01*
X3543991Y-8802460D02*
X3553515Y-8792936D01*
X3553515Y-8792936D02*
X3553515Y-8811984D01*
X3686848Y-8611984D02*
X3705896Y-8611984D01*
X3705896Y-8611984D02*
X3724944Y-8621508D01*
X3724944Y-8621508D02*
X3734467Y-8631031D01*
X3734467Y-8631031D02*
X3743991Y-8650079D01*
X3743991Y-8650079D02*
X3753515Y-8688174D01*
X3753515Y-8688174D02*
X3753515Y-8735793D01*
X3753515Y-8735793D02*
X3743991Y-8773889D01*
X3743991Y-8773889D02*
X3734467Y-8792936D01*
X3734467Y-8792936D02*
X3724944Y-8802460D01*
X3724944Y-8802460D02*
X3705896Y-8811984D01*
X3705896Y-8811984D02*
X3686848Y-8811984D01*
X3686848Y-8811984D02*
X3667801Y-8802460D01*
X3667801Y-8802460D02*
X3658277Y-8792936D01*
X3658277Y-8792936D02*
X3648753Y-8773889D01*
X3648753Y-8773889D02*
X3639229Y-8735793D01*
X3639229Y-8735793D02*
X3639229Y-8688174D01*
X3639229Y-8688174D02*
X3648753Y-8650079D01*
X3648753Y-8650079D02*
X3658277Y-8631031D01*
X3658277Y-8631031D02*
X3667801Y-8621508D01*
X3667801Y-8621508D02*
X3686848Y-8611984D01*
X3820182Y-8611984D02*
X3943991Y-8611984D01*
X3943991Y-8611984D02*
X3877325Y-8688174D01*
X3877325Y-8688174D02*
X3905896Y-8688174D01*
X3905896Y-8688174D02*
X3924944Y-8697698D01*
X3924944Y-8697698D02*
X3934467Y-8707222D01*
X3934467Y-8707222D02*
X3943991Y-8726270D01*
X3943991Y-8726270D02*
X3943991Y-8773889D01*
X3943991Y-8773889D02*
X3934467Y-8792936D01*
X3934467Y-8792936D02*
X3924944Y-8802460D01*
X3924944Y-8802460D02*
X3905896Y-8811984D01*
X3905896Y-8811984D02*
X3848753Y-8811984D01*
X3848753Y-8811984D02*
X3829706Y-8802460D01*
X3829706Y-8802460D02*
X3820182Y-8792936D01*
X4124944Y-8611984D02*
X4029706Y-8611984D01*
X4029706Y-8611984D02*
X4020182Y-8707222D01*
X4020182Y-8707222D02*
X4029706Y-8697698D01*
X4029706Y-8697698D02*
X4048753Y-8688174D01*
X4048753Y-8688174D02*
X4096372Y-8688174D01*
X4096372Y-8688174D02*
X4115420Y-8697698D01*
X4115420Y-8697698D02*
X4124944Y-8707222D01*
X4124944Y-8707222D02*
X4134467Y-8726270D01*
X4134467Y-8726270D02*
X4134467Y-8773889D01*
X4134467Y-8773889D02*
X4124944Y-8792936D01*
X4124944Y-8792936D02*
X4115420Y-8802460D01*
X4115420Y-8802460D02*
X4096372Y-8811984D01*
X4096372Y-8811984D02*
X4048753Y-8811984D01*
X4048753Y-8811984D02*
X4029706Y-8802460D01*
X4029706Y-8802460D02*
X4020182Y-8792936D01*
X4258277Y-8611984D02*
X4277325Y-8611984D01*
X4277325Y-8611984D02*
X4296372Y-8621508D01*
X4296372Y-8621508D02*
X4305896Y-8631031D01*
X4305896Y-8631031D02*
X4315420Y-8650079D01*
X4315420Y-8650079D02*
X4324944Y-8688174D01*
X4324944Y-8688174D02*
X4324944Y-8735793D01*
X4324944Y-8735793D02*
X4315420Y-8773889D01*
X4315420Y-8773889D02*
X4305896Y-8792936D01*
X4305896Y-8792936D02*
X4296372Y-8802460D01*
X4296372Y-8802460D02*
X4277325Y-8811984D01*
X4277325Y-8811984D02*
X4258277Y-8811984D01*
X4258277Y-8811984D02*
X4239229Y-8802460D01*
X4239229Y-8802460D02*
X4229706Y-8792936D01*
X4229706Y-8792936D02*
X4220182Y-8773889D01*
X4220182Y-8773889D02*
X4210658Y-8735793D01*
X4210658Y-8735793D02*
X4210658Y-8688174D01*
X4210658Y-8688174D02*
X4220182Y-8650079D01*
X4220182Y-8650079D02*
X4229706Y-8631031D01*
X4229706Y-8631031D02*
X4239229Y-8621508D01*
X4239229Y-8621508D02*
X4258277Y-8611984D01*
X4401134Y-8611984D02*
X4401134Y-8650079D01*
X4477325Y-8611984D02*
X4477325Y-8650079D01*
X4772563Y-8888174D02*
X4763039Y-8878650D01*
X4763039Y-8878650D02*
X4743991Y-8850079D01*
X4743991Y-8850079D02*
X4734468Y-8831031D01*
X4734468Y-8831031D02*
X4724944Y-8802460D01*
X4724944Y-8802460D02*
X4715420Y-8754841D01*
X4715420Y-8754841D02*
X4715420Y-8716746D01*
X4715420Y-8716746D02*
X4724944Y-8669127D01*
X4724944Y-8669127D02*
X4734468Y-8640555D01*
X4734468Y-8640555D02*
X4743991Y-8621508D01*
X4743991Y-8621508D02*
X4763039Y-8592936D01*
X4763039Y-8592936D02*
X4772563Y-8583412D01*
X4934468Y-8678650D02*
X4934468Y-8811984D01*
X4886849Y-8602460D02*
X4839230Y-8745317D01*
X4839230Y-8745317D02*
X4963039Y-8745317D01*
X5191611Y-8811984D02*
X5191611Y-8611984D01*
X5277325Y-8811984D02*
X5277325Y-8707222D01*
X5277325Y-8707222D02*
X5267801Y-8688174D01*
X5267801Y-8688174D02*
X5248753Y-8678650D01*
X5248753Y-8678650D02*
X5220182Y-8678650D01*
X5220182Y-8678650D02*
X5201134Y-8688174D01*
X5201134Y-8688174D02*
X5191611Y-8697698D01*
X5401134Y-8811984D02*
X5382087Y-8802460D01*
X5382087Y-8802460D02*
X5372563Y-8792936D01*
X5372563Y-8792936D02*
X5363039Y-8773889D01*
X5363039Y-8773889D02*
X5363039Y-8716746D01*
X5363039Y-8716746D02*
X5372563Y-8697698D01*
X5372563Y-8697698D02*
X5382087Y-8688174D01*
X5382087Y-8688174D02*
X5401134Y-8678650D01*
X5401134Y-8678650D02*
X5429706Y-8678650D01*
X5429706Y-8678650D02*
X5448753Y-8688174D01*
X5448753Y-8688174D02*
X5458277Y-8697698D01*
X5458277Y-8697698D02*
X5467801Y-8716746D01*
X5467801Y-8716746D02*
X5467801Y-8773889D01*
X5467801Y-8773889D02*
X5458277Y-8792936D01*
X5458277Y-8792936D02*
X5448753Y-8802460D01*
X5448753Y-8802460D02*
X5429706Y-8811984D01*
X5429706Y-8811984D02*
X5401134Y-8811984D01*
X5582087Y-8811984D02*
X5563039Y-8802460D01*
X5563039Y-8802460D02*
X5553515Y-8783412D01*
X5553515Y-8783412D02*
X5553515Y-8611984D01*
X5734468Y-8802460D02*
X5715420Y-8811984D01*
X5715420Y-8811984D02*
X5677325Y-8811984D01*
X5677325Y-8811984D02*
X5658277Y-8802460D01*
X5658277Y-8802460D02*
X5648753Y-8783412D01*
X5648753Y-8783412D02*
X5648753Y-8707222D01*
X5648753Y-8707222D02*
X5658277Y-8688174D01*
X5658277Y-8688174D02*
X5677325Y-8678650D01*
X5677325Y-8678650D02*
X5715420Y-8678650D01*
X5715420Y-8678650D02*
X5734468Y-8688174D01*
X5734468Y-8688174D02*
X5743991Y-8707222D01*
X5743991Y-8707222D02*
X5743991Y-8726270D01*
X5743991Y-8726270D02*
X5648753Y-8745317D01*
X5820182Y-8802460D02*
X5839230Y-8811984D01*
X5839230Y-8811984D02*
X5877325Y-8811984D01*
X5877325Y-8811984D02*
X5896372Y-8802460D01*
X5896372Y-8802460D02*
X5905896Y-8783412D01*
X5905896Y-8783412D02*
X5905896Y-8773889D01*
X5905896Y-8773889D02*
X5896372Y-8754841D01*
X5896372Y-8754841D02*
X5877325Y-8745317D01*
X5877325Y-8745317D02*
X5848753Y-8745317D01*
X5848753Y-8745317D02*
X5829706Y-8735793D01*
X5829706Y-8735793D02*
X5820182Y-8716746D01*
X5820182Y-8716746D02*
X5820182Y-8707222D01*
X5820182Y-8707222D02*
X5829706Y-8688174D01*
X5829706Y-8688174D02*
X5848753Y-8678650D01*
X5848753Y-8678650D02*
X5877325Y-8678650D01*
X5877325Y-8678650D02*
X5896372Y-8688174D01*
X5972563Y-8888174D02*
X5982087Y-8878650D01*
X5982087Y-8878650D02*
X6001134Y-8850079D01*
X6001134Y-8850079D02*
X6010658Y-8831031D01*
X6010658Y-8831031D02*
X6020182Y-8802460D01*
X6020182Y-8802460D02*
X6029706Y-8754841D01*
X6029706Y-8754841D02*
X6029706Y-8716746D01*
X6029706Y-8716746D02*
X6020182Y-8669127D01*
X6020182Y-8669127D02*
X6010658Y-8640555D01*
X6010658Y-8640555D02*
X6001134Y-8621508D01*
X6001134Y-8621508D02*
X5982087Y-8592936D01*
X5982087Y-8592936D02*
X5972563Y-8583412D01*
D12*
X1184320Y-9016320D02*
X1184320Y-8952680D01*
X1120680Y-8952680D01*
X1120680Y-9016320D01*
X1184320Y-9016320D01*
D11*
X1496372Y-8875984D02*
X1515420Y-8875984D01*
X1515420Y-8875984D02*
X1534467Y-8885508D01*
X1534467Y-8885508D02*
X1543991Y-8895031D01*
X1543991Y-8895031D02*
X1553515Y-8914079D01*
X1553515Y-8914079D02*
X1563039Y-8952174D01*
X1563039Y-8952174D02*
X1563039Y-8999793D01*
X1563039Y-8999793D02*
X1553515Y-9037889D01*
X1553515Y-9037889D02*
X1543991Y-9056936D01*
X1543991Y-9056936D02*
X1534467Y-9066460D01*
X1534467Y-9066460D02*
X1515420Y-9075984D01*
X1515420Y-9075984D02*
X1496372Y-9075984D01*
X1496372Y-9075984D02*
X1477324Y-9066460D01*
X1477324Y-9066460D02*
X1467801Y-9056936D01*
X1467801Y-9056936D02*
X1458277Y-9037889D01*
X1458277Y-9037889D02*
X1448753Y-8999793D01*
X1448753Y-8999793D02*
X1448753Y-8952174D01*
X1448753Y-8952174D02*
X1458277Y-8914079D01*
X1458277Y-8914079D02*
X1467801Y-8895031D01*
X1467801Y-8895031D02*
X1477324Y-8885508D01*
X1477324Y-8885508D02*
X1496372Y-8875984D01*
X1648753Y-9056936D02*
X1658277Y-9066460D01*
X1658277Y-9066460D02*
X1648753Y-9075984D01*
X1648753Y-9075984D02*
X1639229Y-9066460D01*
X1639229Y-9066460D02*
X1648753Y-9056936D01*
X1648753Y-9056936D02*
X1648753Y-9075984D01*
X1753515Y-9075984D02*
X1791610Y-9075984D01*
X1791610Y-9075984D02*
X1810658Y-9066460D01*
X1810658Y-9066460D02*
X1820182Y-9056936D01*
X1820182Y-9056936D02*
X1839229Y-9028365D01*
X1839229Y-9028365D02*
X1848753Y-8990270D01*
X1848753Y-8990270D02*
X1848753Y-8914079D01*
X1848753Y-8914079D02*
X1839229Y-8895031D01*
X1839229Y-8895031D02*
X1829705Y-8885508D01*
X1829705Y-8885508D02*
X1810658Y-8875984D01*
X1810658Y-8875984D02*
X1772562Y-8875984D01*
X1772562Y-8875984D02*
X1753515Y-8885508D01*
X1753515Y-8885508D02*
X1743991Y-8895031D01*
X1743991Y-8895031D02*
X1734467Y-8914079D01*
X1734467Y-8914079D02*
X1734467Y-8961698D01*
X1734467Y-8961698D02*
X1743991Y-8980746D01*
X1743991Y-8980746D02*
X1753515Y-8990270D01*
X1753515Y-8990270D02*
X1772562Y-8999793D01*
X1772562Y-8999793D02*
X1810658Y-8999793D01*
X1810658Y-8999793D02*
X1829705Y-8990270D01*
X1829705Y-8990270D02*
X1839229Y-8980746D01*
X1839229Y-8980746D02*
X1848753Y-8961698D01*
X1972562Y-8875984D02*
X1991610Y-8875984D01*
X1991610Y-8875984D02*
X2010658Y-8885508D01*
X2010658Y-8885508D02*
X2020182Y-8895031D01*
X2020182Y-8895031D02*
X2029705Y-8914079D01*
X2029705Y-8914079D02*
X2039229Y-8952174D01*
X2039229Y-8952174D02*
X2039229Y-8999793D01*
X2039229Y-8999793D02*
X2029705Y-9037889D01*
X2029705Y-9037889D02*
X2020182Y-9056936D01*
X2020182Y-9056936D02*
X2010658Y-9066460D01*
X2010658Y-9066460D02*
X1991610Y-9075984D01*
X1991610Y-9075984D02*
X1972562Y-9075984D01*
X1972562Y-9075984D02*
X1953515Y-9066460D01*
X1953515Y-9066460D02*
X1943991Y-9056936D01*
X1943991Y-9056936D02*
X1934467Y-9037889D01*
X1934467Y-9037889D02*
X1924943Y-8999793D01*
X1924943Y-8999793D02*
X1924943Y-8952174D01*
X1924943Y-8952174D02*
X1934467Y-8914079D01*
X1934467Y-8914079D02*
X1943991Y-8895031D01*
X1943991Y-8895031D02*
X1953515Y-8885508D01*
X1953515Y-8885508D02*
X1972562Y-8875984D01*
X2163039Y-8875984D02*
X2182086Y-8875984D01*
X2182086Y-8875984D02*
X2201134Y-8885508D01*
X2201134Y-8885508D02*
X2210658Y-8895031D01*
X2210658Y-8895031D02*
X2220182Y-8914079D01*
X2220182Y-8914079D02*
X2229705Y-8952174D01*
X2229705Y-8952174D02*
X2229705Y-8999793D01*
X2229705Y-8999793D02*
X2220182Y-9037889D01*
X2220182Y-9037889D02*
X2210658Y-9056936D01*
X2210658Y-9056936D02*
X2201134Y-9066460D01*
X2201134Y-9066460D02*
X2182086Y-9075984D01*
X2182086Y-9075984D02*
X2163039Y-9075984D01*
X2163039Y-9075984D02*
X2143991Y-9066460D01*
X2143991Y-9066460D02*
X2134467Y-9056936D01*
X2134467Y-9056936D02*
X2124944Y-9037889D01*
X2124944Y-9037889D02*
X2115420Y-8999793D01*
X2115420Y-8999793D02*
X2115420Y-8952174D01*
X2115420Y-8952174D02*
X2124944Y-8914079D01*
X2124944Y-8914079D02*
X2134467Y-8895031D01*
X2134467Y-8895031D02*
X2143991Y-8885508D01*
X2143991Y-8885508D02*
X2163039Y-8875984D01*
X2315420Y-9075984D02*
X2315420Y-8942650D01*
X2315420Y-8961698D02*
X2324944Y-8952174D01*
X2324944Y-8952174D02*
X2343991Y-8942650D01*
X2343991Y-8942650D02*
X2372563Y-8942650D01*
X2372563Y-8942650D02*
X2391610Y-8952174D01*
X2391610Y-8952174D02*
X2401134Y-8971222D01*
X2401134Y-8971222D02*
X2401134Y-9075984D01*
X2401134Y-8971222D02*
X2410658Y-8952174D01*
X2410658Y-8952174D02*
X2429705Y-8942650D01*
X2429705Y-8942650D02*
X2458277Y-8942650D01*
X2458277Y-8942650D02*
X2477325Y-8952174D01*
X2477325Y-8952174D02*
X2486848Y-8971222D01*
X2486848Y-8971222D02*
X2486848Y-9075984D01*
X2582086Y-9075984D02*
X2582086Y-8942650D01*
X2582086Y-8961698D02*
X2591610Y-8952174D01*
X2591610Y-8952174D02*
X2610658Y-8942650D01*
X2610658Y-8942650D02*
X2639229Y-8942650D01*
X2639229Y-8942650D02*
X2658277Y-8952174D01*
X2658277Y-8952174D02*
X2667801Y-8971222D01*
X2667801Y-8971222D02*
X2667801Y-9075984D01*
X2667801Y-8971222D02*
X2677325Y-8952174D01*
X2677325Y-8952174D02*
X2696372Y-8942650D01*
X2696372Y-8942650D02*
X2724944Y-8942650D01*
X2724944Y-8942650D02*
X2743991Y-8952174D01*
X2743991Y-8952174D02*
X2753515Y-8971222D01*
X2753515Y-8971222D02*
X2753515Y-9075984D01*
X3143991Y-8866460D02*
X2972563Y-9123603D01*
X3401134Y-8875984D02*
X3420182Y-8875984D01*
X3420182Y-8875984D02*
X3439229Y-8885508D01*
X3439229Y-8885508D02*
X3448753Y-8895031D01*
X3448753Y-8895031D02*
X3458277Y-8914079D01*
X3458277Y-8914079D02*
X3467801Y-8952174D01*
X3467801Y-8952174D02*
X3467801Y-8999793D01*
X3467801Y-8999793D02*
X3458277Y-9037889D01*
X3458277Y-9037889D02*
X3448753Y-9056936D01*
X3448753Y-9056936D02*
X3439229Y-9066460D01*
X3439229Y-9066460D02*
X3420182Y-9075984D01*
X3420182Y-9075984D02*
X3401134Y-9075984D01*
X3401134Y-9075984D02*
X3382086Y-9066460D01*
X3382086Y-9066460D02*
X3372563Y-9056936D01*
X3372563Y-9056936D02*
X3363039Y-9037889D01*
X3363039Y-9037889D02*
X3353515Y-8999793D01*
X3353515Y-8999793D02*
X3353515Y-8952174D01*
X3353515Y-8952174D02*
X3363039Y-8914079D01*
X3363039Y-8914079D02*
X3372563Y-8895031D01*
X3372563Y-8895031D02*
X3382086Y-8885508D01*
X3382086Y-8885508D02*
X3401134Y-8875984D01*
X3553515Y-9056936D02*
X3563039Y-9066460D01*
X3563039Y-9066460D02*
X3553515Y-9075984D01*
X3553515Y-9075984D02*
X3543991Y-9066460D01*
X3543991Y-9066460D02*
X3553515Y-9056936D01*
X3553515Y-9056936D02*
X3553515Y-9075984D01*
X3686848Y-8875984D02*
X3705896Y-8875984D01*
X3705896Y-8875984D02*
X3724944Y-8885508D01*
X3724944Y-8885508D02*
X3734467Y-8895031D01*
X3734467Y-8895031D02*
X3743991Y-8914079D01*
X3743991Y-8914079D02*
X3753515Y-8952174D01*
X3753515Y-8952174D02*
X3753515Y-8999793D01*
X3753515Y-8999793D02*
X3743991Y-9037889D01*
X3743991Y-9037889D02*
X3734467Y-9056936D01*
X3734467Y-9056936D02*
X3724944Y-9066460D01*
X3724944Y-9066460D02*
X3705896Y-9075984D01*
X3705896Y-9075984D02*
X3686848Y-9075984D01*
X3686848Y-9075984D02*
X3667801Y-9066460D01*
X3667801Y-9066460D02*
X3658277Y-9056936D01*
X3658277Y-9056936D02*
X3648753Y-9037889D01*
X3648753Y-9037889D02*
X3639229Y-8999793D01*
X3639229Y-8999793D02*
X3639229Y-8952174D01*
X3639229Y-8952174D02*
X3648753Y-8914079D01*
X3648753Y-8914079D02*
X3658277Y-8895031D01*
X3658277Y-8895031D02*
X3667801Y-8885508D01*
X3667801Y-8885508D02*
X3686848Y-8875984D01*
X3820182Y-8875984D02*
X3943991Y-8875984D01*
X3943991Y-8875984D02*
X3877325Y-8952174D01*
X3877325Y-8952174D02*
X3905896Y-8952174D01*
X3905896Y-8952174D02*
X3924944Y-8961698D01*
X3924944Y-8961698D02*
X3934467Y-8971222D01*
X3934467Y-8971222D02*
X3943991Y-8990270D01*
X3943991Y-8990270D02*
X3943991Y-9037889D01*
X3943991Y-9037889D02*
X3934467Y-9056936D01*
X3934467Y-9056936D02*
X3924944Y-9066460D01*
X3924944Y-9066460D02*
X3905896Y-9075984D01*
X3905896Y-9075984D02*
X3848753Y-9075984D01*
X3848753Y-9075984D02*
X3829706Y-9066460D01*
X3829706Y-9066460D02*
X3820182Y-9056936D01*
X4124944Y-8875984D02*
X4029706Y-8875984D01*
X4029706Y-8875984D02*
X4020182Y-8971222D01*
X4020182Y-8971222D02*
X4029706Y-8961698D01*
X4029706Y-8961698D02*
X4048753Y-8952174D01*
X4048753Y-8952174D02*
X4096372Y-8952174D01*
X4096372Y-8952174D02*
X4115420Y-8961698D01*
X4115420Y-8961698D02*
X4124944Y-8971222D01*
X4124944Y-8971222D02*
X4134467Y-8990270D01*
X4134467Y-8990270D02*
X4134467Y-9037889D01*
X4134467Y-9037889D02*
X4124944Y-9056936D01*
X4124944Y-9056936D02*
X4115420Y-9066460D01*
X4115420Y-9066460D02*
X4096372Y-9075984D01*
X4096372Y-9075984D02*
X4048753Y-9075984D01*
X4048753Y-9075984D02*
X4029706Y-9066460D01*
X4029706Y-9066460D02*
X4020182Y-9056936D01*
X4305896Y-8942650D02*
X4305896Y-9075984D01*
X4258277Y-8866460D02*
X4210658Y-9009317D01*
X4210658Y-9009317D02*
X4334468Y-9009317D01*
X4401134Y-8875984D02*
X4401134Y-8914079D01*
X4477325Y-8875984D02*
X4477325Y-8914079D01*
X4772563Y-9152174D02*
X4763039Y-9142650D01*
X4763039Y-9142650D02*
X4743991Y-9114079D01*
X4743991Y-9114079D02*
X4734468Y-9095031D01*
X4734468Y-9095031D02*
X4724944Y-9066460D01*
X4724944Y-9066460D02*
X4715420Y-9018841D01*
X4715420Y-9018841D02*
X4715420Y-8980746D01*
X4715420Y-8980746D02*
X4724944Y-8933127D01*
X4724944Y-8933127D02*
X4734468Y-8904555D01*
X4734468Y-8904555D02*
X4743991Y-8885508D01*
X4743991Y-8885508D02*
X4763039Y-8856936D01*
X4763039Y-8856936D02*
X4772563Y-8847412D01*
X4829706Y-8875984D02*
X4953515Y-8875984D01*
X4953515Y-8875984D02*
X4886849Y-8952174D01*
X4886849Y-8952174D02*
X4915420Y-8952174D01*
X4915420Y-8952174D02*
X4934468Y-8961698D01*
X4934468Y-8961698D02*
X4943991Y-8971222D01*
X4943991Y-8971222D02*
X4953515Y-8990270D01*
X4953515Y-8990270D02*
X4953515Y-9037889D01*
X4953515Y-9037889D02*
X4943991Y-9056936D01*
X4943991Y-9056936D02*
X4934468Y-9066460D01*
X4934468Y-9066460D02*
X4915420Y-9075984D01*
X4915420Y-9075984D02*
X4858277Y-9075984D01*
X4858277Y-9075984D02*
X4839230Y-9066460D01*
X4839230Y-9066460D02*
X4829706Y-9056936D01*
X5191611Y-9075984D02*
X5191611Y-8875984D01*
X5277325Y-9075984D02*
X5277325Y-8971222D01*
X5277325Y-8971222D02*
X5267801Y-8952174D01*
X5267801Y-8952174D02*
X5248753Y-8942650D01*
X5248753Y-8942650D02*
X5220182Y-8942650D01*
X5220182Y-8942650D02*
X5201134Y-8952174D01*
X5201134Y-8952174D02*
X5191611Y-8961698D01*
X5401134Y-9075984D02*
X5382087Y-9066460D01*
X5382087Y-9066460D02*
X5372563Y-9056936D01*
X5372563Y-9056936D02*
X5363039Y-9037889D01*
X5363039Y-9037889D02*
X5363039Y-8980746D01*
X5363039Y-8980746D02*
X5372563Y-8961698D01*
X5372563Y-8961698D02*
X5382087Y-8952174D01*
X5382087Y-8952174D02*
X5401134Y-8942650D01*
X5401134Y-8942650D02*
X5429706Y-8942650D01*
X5429706Y-8942650D02*
X5448753Y-8952174D01*
X5448753Y-8952174D02*
X5458277Y-8961698D01*
X5458277Y-8961698D02*
X5467801Y-8980746D01*
X5467801Y-8980746D02*
X5467801Y-9037889D01*
X5467801Y-9037889D02*
X5458277Y-9056936D01*
X5458277Y-9056936D02*
X5448753Y-9066460D01*
X5448753Y-9066460D02*
X5429706Y-9075984D01*
X5429706Y-9075984D02*
X5401134Y-9075984D01*
X5582087Y-9075984D02*
X5563039Y-9066460D01*
X5563039Y-9066460D02*
X5553515Y-9047412D01*
X5553515Y-9047412D02*
X5553515Y-8875984D01*
X5734468Y-9066460D02*
X5715420Y-9075984D01*
X5715420Y-9075984D02*
X5677325Y-9075984D01*
X5677325Y-9075984D02*
X5658277Y-9066460D01*
X5658277Y-9066460D02*
X5648753Y-9047412D01*
X5648753Y-9047412D02*
X5648753Y-8971222D01*
X5648753Y-8971222D02*
X5658277Y-8952174D01*
X5658277Y-8952174D02*
X5677325Y-8942650D01*
X5677325Y-8942650D02*
X5715420Y-8942650D01*
X5715420Y-8942650D02*
X5734468Y-8952174D01*
X5734468Y-8952174D02*
X5743991Y-8971222D01*
X5743991Y-8971222D02*
X5743991Y-8990270D01*
X5743991Y-8990270D02*
X5648753Y-9009317D01*
X5820182Y-9066460D02*
X5839230Y-9075984D01*
X5839230Y-9075984D02*
X5877325Y-9075984D01*
X5877325Y-9075984D02*
X5896372Y-9066460D01*
X5896372Y-9066460D02*
X5905896Y-9047412D01*
X5905896Y-9047412D02*
X5905896Y-9037889D01*
X5905896Y-9037889D02*
X5896372Y-9018841D01*
X5896372Y-9018841D02*
X5877325Y-9009317D01*
X5877325Y-9009317D02*
X5848753Y-9009317D01*
X5848753Y-9009317D02*
X5829706Y-8999793D01*
X5829706Y-8999793D02*
X5820182Y-8980746D01*
X5820182Y-8980746D02*
X5820182Y-8971222D01*
X5820182Y-8971222D02*
X5829706Y-8952174D01*
X5829706Y-8952174D02*
X5848753Y-8942650D01*
X5848753Y-8942650D02*
X5877325Y-8942650D01*
X5877325Y-8942650D02*
X5896372Y-8952174D01*
X5972563Y-9152174D02*
X5982087Y-9142650D01*
X5982087Y-9142650D02*
X6001134Y-9114079D01*
X6001134Y-9114079D02*
X6010658Y-9095031D01*
X6010658Y-9095031D02*
X6020182Y-9066460D01*
X6020182Y-9066460D02*
X6029706Y-9018841D01*
X6029706Y-9018841D02*
X6029706Y-8980746D01*
X6029706Y-8980746D02*
X6020182Y-8933127D01*
X6020182Y-8933127D02*
X6010658Y-8904555D01*
X6010658Y-8904555D02*
X6001134Y-8885508D01*
X6001134Y-8885508D02*
X5982087Y-8856936D01*
X5982087Y-8856936D02*
X5972563Y-8847412D01*
D12*
X1147500Y-9298500D02*
X1197500Y-9248500D01*
X1147500Y-9198500D01*
X1097500Y-9248500D01*
X1147500Y-9298500D01*
D11*
X1563039Y-9339984D02*
X1448753Y-9339984D01*
X1505896Y-9339984D02*
X1505896Y-9139984D01*
X1505896Y-9139984D02*
X1486848Y-9168555D01*
X1486848Y-9168555D02*
X1467801Y-9187603D01*
X1467801Y-9187603D02*
X1448753Y-9197127D01*
X1648753Y-9320936D02*
X1658277Y-9330460D01*
X1658277Y-9330460D02*
X1648753Y-9339984D01*
X1648753Y-9339984D02*
X1639229Y-9330460D01*
X1639229Y-9330460D02*
X1648753Y-9320936D01*
X1648753Y-9320936D02*
X1648753Y-9339984D01*
X1782086Y-9139984D02*
X1801134Y-9139984D01*
X1801134Y-9139984D02*
X1820182Y-9149508D01*
X1820182Y-9149508D02*
X1829705Y-9159031D01*
X1829705Y-9159031D02*
X1839229Y-9178079D01*
X1839229Y-9178079D02*
X1848753Y-9216174D01*
X1848753Y-9216174D02*
X1848753Y-9263793D01*
X1848753Y-9263793D02*
X1839229Y-9301889D01*
X1839229Y-9301889D02*
X1829705Y-9320936D01*
X1829705Y-9320936D02*
X1820182Y-9330460D01*
X1820182Y-9330460D02*
X1801134Y-9339984D01*
X1801134Y-9339984D02*
X1782086Y-9339984D01*
X1782086Y-9339984D02*
X1763039Y-9330460D01*
X1763039Y-9330460D02*
X1753515Y-9320936D01*
X1753515Y-9320936D02*
X1743991Y-9301889D01*
X1743991Y-9301889D02*
X1734467Y-9263793D01*
X1734467Y-9263793D02*
X1734467Y-9216174D01*
X1734467Y-9216174D02*
X1743991Y-9178079D01*
X1743991Y-9178079D02*
X1753515Y-9159031D01*
X1753515Y-9159031D02*
X1763039Y-9149508D01*
X1763039Y-9149508D02*
X1782086Y-9139984D01*
X1972562Y-9139984D02*
X1991610Y-9139984D01*
X1991610Y-9139984D02*
X2010658Y-9149508D01*
X2010658Y-9149508D02*
X2020182Y-9159031D01*
X2020182Y-9159031D02*
X2029705Y-9178079D01*
X2029705Y-9178079D02*
X2039229Y-9216174D01*
X2039229Y-9216174D02*
X2039229Y-9263793D01*
X2039229Y-9263793D02*
X2029705Y-9301889D01*
X2029705Y-9301889D02*
X2020182Y-9320936D01*
X2020182Y-9320936D02*
X2010658Y-9330460D01*
X2010658Y-9330460D02*
X1991610Y-9339984D01*
X1991610Y-9339984D02*
X1972562Y-9339984D01*
X1972562Y-9339984D02*
X1953515Y-9330460D01*
X1953515Y-9330460D02*
X1943991Y-9320936D01*
X1943991Y-9320936D02*
X1934467Y-9301889D01*
X1934467Y-9301889D02*
X1924943Y-9263793D01*
X1924943Y-9263793D02*
X1924943Y-9216174D01*
X1924943Y-9216174D02*
X1934467Y-9178079D01*
X1934467Y-9178079D02*
X1943991Y-9159031D01*
X1943991Y-9159031D02*
X1953515Y-9149508D01*
X1953515Y-9149508D02*
X1972562Y-9139984D01*
X2163039Y-9139984D02*
X2182086Y-9139984D01*
X2182086Y-9139984D02*
X2201134Y-9149508D01*
X2201134Y-9149508D02*
X2210658Y-9159031D01*
X2210658Y-9159031D02*
X2220182Y-9178079D01*
X2220182Y-9178079D02*
X2229705Y-9216174D01*
X2229705Y-9216174D02*
X2229705Y-9263793D01*
X2229705Y-9263793D02*
X2220182Y-9301889D01*
X2220182Y-9301889D02*
X2210658Y-9320936D01*
X2210658Y-9320936D02*
X2201134Y-9330460D01*
X2201134Y-9330460D02*
X2182086Y-9339984D01*
X2182086Y-9339984D02*
X2163039Y-9339984D01*
X2163039Y-9339984D02*
X2143991Y-9330460D01*
X2143991Y-9330460D02*
X2134467Y-9320936D01*
X2134467Y-9320936D02*
X2124944Y-9301889D01*
X2124944Y-9301889D02*
X2115420Y-9263793D01*
X2115420Y-9263793D02*
X2115420Y-9216174D01*
X2115420Y-9216174D02*
X2124944Y-9178079D01*
X2124944Y-9178079D02*
X2134467Y-9159031D01*
X2134467Y-9159031D02*
X2143991Y-9149508D01*
X2143991Y-9149508D02*
X2163039Y-9139984D01*
X2315420Y-9339984D02*
X2315420Y-9206650D01*
X2315420Y-9225698D02*
X2324944Y-9216174D01*
X2324944Y-9216174D02*
X2343991Y-9206650D01*
X2343991Y-9206650D02*
X2372563Y-9206650D01*
X2372563Y-9206650D02*
X2391610Y-9216174D01*
X2391610Y-9216174D02*
X2401134Y-9235222D01*
X2401134Y-9235222D02*
X2401134Y-9339984D01*
X2401134Y-9235222D02*
X2410658Y-9216174D01*
X2410658Y-9216174D02*
X2429705Y-9206650D01*
X2429705Y-9206650D02*
X2458277Y-9206650D01*
X2458277Y-9206650D02*
X2477325Y-9216174D01*
X2477325Y-9216174D02*
X2486848Y-9235222D01*
X2486848Y-9235222D02*
X2486848Y-9339984D01*
X2582086Y-9339984D02*
X2582086Y-9206650D01*
X2582086Y-9225698D02*
X2591610Y-9216174D01*
X2591610Y-9216174D02*
X2610658Y-9206650D01*
X2610658Y-9206650D02*
X2639229Y-9206650D01*
X2639229Y-9206650D02*
X2658277Y-9216174D01*
X2658277Y-9216174D02*
X2667801Y-9235222D01*
X2667801Y-9235222D02*
X2667801Y-9339984D01*
X2667801Y-9235222D02*
X2677325Y-9216174D01*
X2677325Y-9216174D02*
X2696372Y-9206650D01*
X2696372Y-9206650D02*
X2724944Y-9206650D01*
X2724944Y-9206650D02*
X2743991Y-9216174D01*
X2743991Y-9216174D02*
X2753515Y-9235222D01*
X2753515Y-9235222D02*
X2753515Y-9339984D01*
X3143991Y-9130460D02*
X2972563Y-9387603D01*
X3401134Y-9139984D02*
X3420182Y-9139984D01*
X3420182Y-9139984D02*
X3439229Y-9149508D01*
X3439229Y-9149508D02*
X3448753Y-9159031D01*
X3448753Y-9159031D02*
X3458277Y-9178079D01*
X3458277Y-9178079D02*
X3467801Y-9216174D01*
X3467801Y-9216174D02*
X3467801Y-9263793D01*
X3467801Y-9263793D02*
X3458277Y-9301889D01*
X3458277Y-9301889D02*
X3448753Y-9320936D01*
X3448753Y-9320936D02*
X3439229Y-9330460D01*
X3439229Y-9330460D02*
X3420182Y-9339984D01*
X3420182Y-9339984D02*
X3401134Y-9339984D01*
X3401134Y-9339984D02*
X3382086Y-9330460D01*
X3382086Y-9330460D02*
X3372563Y-9320936D01*
X3372563Y-9320936D02*
X3363039Y-9301889D01*
X3363039Y-9301889D02*
X3353515Y-9263793D01*
X3353515Y-9263793D02*
X3353515Y-9216174D01*
X3353515Y-9216174D02*
X3363039Y-9178079D01*
X3363039Y-9178079D02*
X3372563Y-9159031D01*
X3372563Y-9159031D02*
X3382086Y-9149508D01*
X3382086Y-9149508D02*
X3401134Y-9139984D01*
X3553515Y-9320936D02*
X3563039Y-9330460D01*
X3563039Y-9330460D02*
X3553515Y-9339984D01*
X3553515Y-9339984D02*
X3543991Y-9330460D01*
X3543991Y-9330460D02*
X3553515Y-9320936D01*
X3553515Y-9320936D02*
X3553515Y-9339984D01*
X3686848Y-9139984D02*
X3705896Y-9139984D01*
X3705896Y-9139984D02*
X3724944Y-9149508D01*
X3724944Y-9149508D02*
X3734467Y-9159031D01*
X3734467Y-9159031D02*
X3743991Y-9178079D01*
X3743991Y-9178079D02*
X3753515Y-9216174D01*
X3753515Y-9216174D02*
X3753515Y-9263793D01*
X3753515Y-9263793D02*
X3743991Y-9301889D01*
X3743991Y-9301889D02*
X3734467Y-9320936D01*
X3734467Y-9320936D02*
X3724944Y-9330460D01*
X3724944Y-9330460D02*
X3705896Y-9339984D01*
X3705896Y-9339984D02*
X3686848Y-9339984D01*
X3686848Y-9339984D02*
X3667801Y-9330460D01*
X3667801Y-9330460D02*
X3658277Y-9320936D01*
X3658277Y-9320936D02*
X3648753Y-9301889D01*
X3648753Y-9301889D02*
X3639229Y-9263793D01*
X3639229Y-9263793D02*
X3639229Y-9216174D01*
X3639229Y-9216174D02*
X3648753Y-9178079D01*
X3648753Y-9178079D02*
X3658277Y-9159031D01*
X3658277Y-9159031D02*
X3667801Y-9149508D01*
X3667801Y-9149508D02*
X3686848Y-9139984D01*
X3820182Y-9139984D02*
X3943991Y-9139984D01*
X3943991Y-9139984D02*
X3877325Y-9216174D01*
X3877325Y-9216174D02*
X3905896Y-9216174D01*
X3905896Y-9216174D02*
X3924944Y-9225698D01*
X3924944Y-9225698D02*
X3934467Y-9235222D01*
X3934467Y-9235222D02*
X3943991Y-9254270D01*
X3943991Y-9254270D02*
X3943991Y-9301889D01*
X3943991Y-9301889D02*
X3934467Y-9320936D01*
X3934467Y-9320936D02*
X3924944Y-9330460D01*
X3924944Y-9330460D02*
X3905896Y-9339984D01*
X3905896Y-9339984D02*
X3848753Y-9339984D01*
X3848753Y-9339984D02*
X3829706Y-9330460D01*
X3829706Y-9330460D02*
X3820182Y-9320936D01*
X4039229Y-9339984D02*
X4077325Y-9339984D01*
X4077325Y-9339984D02*
X4096372Y-9330460D01*
X4096372Y-9330460D02*
X4105896Y-9320936D01*
X4105896Y-9320936D02*
X4124944Y-9292365D01*
X4124944Y-9292365D02*
X4134467Y-9254270D01*
X4134467Y-9254270D02*
X4134467Y-9178079D01*
X4134467Y-9178079D02*
X4124944Y-9159031D01*
X4124944Y-9159031D02*
X4115420Y-9149508D01*
X4115420Y-9149508D02*
X4096372Y-9139984D01*
X4096372Y-9139984D02*
X4058277Y-9139984D01*
X4058277Y-9139984D02*
X4039229Y-9149508D01*
X4039229Y-9149508D02*
X4029706Y-9159031D01*
X4029706Y-9159031D02*
X4020182Y-9178079D01*
X4020182Y-9178079D02*
X4020182Y-9225698D01*
X4020182Y-9225698D02*
X4029706Y-9244746D01*
X4029706Y-9244746D02*
X4039229Y-9254270D01*
X4039229Y-9254270D02*
X4058277Y-9263793D01*
X4058277Y-9263793D02*
X4096372Y-9263793D01*
X4096372Y-9263793D02*
X4115420Y-9254270D01*
X4115420Y-9254270D02*
X4124944Y-9244746D01*
X4124944Y-9244746D02*
X4134467Y-9225698D01*
X4305896Y-9206650D02*
X4305896Y-9339984D01*
X4258277Y-9130460D02*
X4210658Y-9273317D01*
X4210658Y-9273317D02*
X4334468Y-9273317D01*
X4401134Y-9139984D02*
X4401134Y-9178079D01*
X4477325Y-9139984D02*
X4477325Y-9178079D01*
X4772563Y-9416174D02*
X4763039Y-9406650D01*
X4763039Y-9406650D02*
X4743991Y-9378079D01*
X4743991Y-9378079D02*
X4734468Y-9359031D01*
X4734468Y-9359031D02*
X4724944Y-9330460D01*
X4724944Y-9330460D02*
X4715420Y-9282841D01*
X4715420Y-9282841D02*
X4715420Y-9244746D01*
X4715420Y-9244746D02*
X4724944Y-9197127D01*
X4724944Y-9197127D02*
X4734468Y-9168555D01*
X4734468Y-9168555D02*
X4743991Y-9149508D01*
X4743991Y-9149508D02*
X4763039Y-9120936D01*
X4763039Y-9120936D02*
X4772563Y-9111412D01*
X4953515Y-9339984D02*
X4839230Y-9339984D01*
X4896372Y-9339984D02*
X4896372Y-9139984D01*
X4896372Y-9139984D02*
X4877325Y-9168555D01*
X4877325Y-9168555D02*
X4858277Y-9187603D01*
X4858277Y-9187603D02*
X4839230Y-9197127D01*
X5020182Y-9139984D02*
X5143991Y-9139984D01*
X5143991Y-9139984D02*
X5077325Y-9216174D01*
X5077325Y-9216174D02*
X5105896Y-9216174D01*
X5105896Y-9216174D02*
X5124944Y-9225698D01*
X5124944Y-9225698D02*
X5134468Y-9235222D01*
X5134468Y-9235222D02*
X5143991Y-9254270D01*
X5143991Y-9254270D02*
X5143991Y-9301889D01*
X5143991Y-9301889D02*
X5134468Y-9320936D01*
X5134468Y-9320936D02*
X5124944Y-9330460D01*
X5124944Y-9330460D02*
X5105896Y-9339984D01*
X5105896Y-9339984D02*
X5048753Y-9339984D01*
X5048753Y-9339984D02*
X5029706Y-9330460D01*
X5029706Y-9330460D02*
X5020182Y-9320936D01*
X5258277Y-9225698D02*
X5239230Y-9216174D01*
X5239230Y-9216174D02*
X5229706Y-9206650D01*
X5229706Y-9206650D02*
X5220182Y-9187603D01*
X5220182Y-9187603D02*
X5220182Y-9178079D01*
X5220182Y-9178079D02*
X5229706Y-9159031D01*
X5229706Y-9159031D02*
X5239230Y-9149508D01*
X5239230Y-9149508D02*
X5258277Y-9139984D01*
X5258277Y-9139984D02*
X5296372Y-9139984D01*
X5296372Y-9139984D02*
X5315420Y-9149508D01*
X5315420Y-9149508D02*
X5324944Y-9159031D01*
X5324944Y-9159031D02*
X5334468Y-9178079D01*
X5334468Y-9178079D02*
X5334468Y-9187603D01*
X5334468Y-9187603D02*
X5324944Y-9206650D01*
X5324944Y-9206650D02*
X5315420Y-9216174D01*
X5315420Y-9216174D02*
X5296372Y-9225698D01*
X5296372Y-9225698D02*
X5258277Y-9225698D01*
X5258277Y-9225698D02*
X5239230Y-9235222D01*
X5239230Y-9235222D02*
X5229706Y-9244746D01*
X5229706Y-9244746D02*
X5220182Y-9263793D01*
X5220182Y-9263793D02*
X5220182Y-9301889D01*
X5220182Y-9301889D02*
X5229706Y-9320936D01*
X5229706Y-9320936D02*
X5239230Y-9330460D01*
X5239230Y-9330460D02*
X5258277Y-9339984D01*
X5258277Y-9339984D02*
X5296372Y-9339984D01*
X5296372Y-9339984D02*
X5315420Y-9330460D01*
X5315420Y-9330460D02*
X5324944Y-9320936D01*
X5324944Y-9320936D02*
X5334468Y-9301889D01*
X5334468Y-9301889D02*
X5334468Y-9263793D01*
X5334468Y-9263793D02*
X5324944Y-9244746D01*
X5324944Y-9244746D02*
X5315420Y-9235222D01*
X5315420Y-9235222D02*
X5296372Y-9225698D01*
X5572563Y-9339984D02*
X5572563Y-9139984D01*
X5658277Y-9339984D02*
X5658277Y-9235222D01*
X5658277Y-9235222D02*
X5648753Y-9216174D01*
X5648753Y-9216174D02*
X5629706Y-9206650D01*
X5629706Y-9206650D02*
X5601134Y-9206650D01*
X5601134Y-9206650D02*
X5582087Y-9216174D01*
X5582087Y-9216174D02*
X5572563Y-9225698D01*
X5782087Y-9339984D02*
X5763039Y-9330460D01*
X5763039Y-9330460D02*
X5753515Y-9320936D01*
X5753515Y-9320936D02*
X5743991Y-9301889D01*
X5743991Y-9301889D02*
X5743991Y-9244746D01*
X5743991Y-9244746D02*
X5753515Y-9225698D01*
X5753515Y-9225698D02*
X5763039Y-9216174D01*
X5763039Y-9216174D02*
X5782087Y-9206650D01*
X5782087Y-9206650D02*
X5810658Y-9206650D01*
X5810658Y-9206650D02*
X5829706Y-9216174D01*
X5829706Y-9216174D02*
X5839230Y-9225698D01*
X5839230Y-9225698D02*
X5848753Y-9244746D01*
X5848753Y-9244746D02*
X5848753Y-9301889D01*
X5848753Y-9301889D02*
X5839230Y-9320936D01*
X5839230Y-9320936D02*
X5829706Y-9330460D01*
X5829706Y-9330460D02*
X5810658Y-9339984D01*
X5810658Y-9339984D02*
X5782087Y-9339984D01*
X5963039Y-9339984D02*
X5943991Y-9330460D01*
X5943991Y-9330460D02*
X5934468Y-9311412D01*
X5934468Y-9311412D02*
X5934468Y-9139984D01*
X6115420Y-9330460D02*
X6096372Y-9339984D01*
X6096372Y-9339984D02*
X6058277Y-9339984D01*
X6058277Y-9339984D02*
X6039230Y-9330460D01*
X6039230Y-9330460D02*
X6029706Y-9311412D01*
X6029706Y-9311412D02*
X6029706Y-9235222D01*
X6029706Y-9235222D02*
X6039230Y-9216174D01*
X6039230Y-9216174D02*
X6058277Y-9206650D01*
X6058277Y-9206650D02*
X6096372Y-9206650D01*
X6096372Y-9206650D02*
X6115420Y-9216174D01*
X6115420Y-9216174D02*
X6124944Y-9235222D01*
X6124944Y-9235222D02*
X6124944Y-9254270D01*
X6124944Y-9254270D02*
X6029706Y-9273317D01*
X6201134Y-9330460D02*
X6220182Y-9339984D01*
X6220182Y-9339984D02*
X6258277Y-9339984D01*
X6258277Y-9339984D02*
X6277325Y-9330460D01*
X6277325Y-9330460D02*
X6286849Y-9311412D01*
X6286849Y-9311412D02*
X6286849Y-9301889D01*
X6286849Y-9301889D02*
X6277325Y-9282841D01*
X6277325Y-9282841D02*
X6258277Y-9273317D01*
X6258277Y-9273317D02*
X6229706Y-9273317D01*
X6229706Y-9273317D02*
X6210658Y-9263793D01*
X6210658Y-9263793D02*
X6201134Y-9244746D01*
X6201134Y-9244746D02*
X6201134Y-9235222D01*
X6201134Y-9235222D02*
X6210658Y-9216174D01*
X6210658Y-9216174D02*
X6229706Y-9206650D01*
X6229706Y-9206650D02*
X6258277Y-9206650D01*
X6258277Y-9206650D02*
X6277325Y-9216174D01*
X6353515Y-9416174D02*
X6363039Y-9406650D01*
X6363039Y-9406650D02*
X6382087Y-9378079D01*
X6382087Y-9378079D02*
X6391611Y-9359031D01*
X6391611Y-9359031D02*
X6401134Y-9330460D01*
X6401134Y-9330460D02*
X6410658Y-9282841D01*
X6410658Y-9282841D02*
X6410658Y-9244746D01*
X6410658Y-9244746D02*
X6401134Y-9197127D01*
X6401134Y-9197127D02*
X6391611Y-9168555D01*
X6391611Y-9168555D02*
X6382087Y-9149508D01*
X6382087Y-9149508D02*
X6363039Y-9120936D01*
X6363039Y-9120936D02*
X6353515Y-9111412D01*
D13*
X1077500Y-9452500D02*
X1197500Y-9572500D01*
X1197500Y-9452500D02*
X1077500Y-9572500D01*
X1197500Y-9512500D02*
G75*
G02*
X1077500Y-9512500I-60000J0D01*
G01*
X1077500Y-9512500D02*
G75*
G02*
X1197500Y-9512500I60000J0D01*
G01*
D11*
X1563039Y-9603984D02*
X1448753Y-9603984D01*
X1505896Y-9603984D02*
X1505896Y-9403984D01*
X1505896Y-9403984D02*
X1486848Y-9432555D01*
X1486848Y-9432555D02*
X1467801Y-9451603D01*
X1467801Y-9451603D02*
X1448753Y-9461127D01*
X1648753Y-9584936D02*
X1658277Y-9594460D01*
X1658277Y-9594460D02*
X1648753Y-9603984D01*
X1648753Y-9603984D02*
X1639229Y-9594460D01*
X1639229Y-9594460D02*
X1648753Y-9584936D01*
X1648753Y-9584936D02*
X1648753Y-9603984D01*
X1734467Y-9423031D02*
X1743991Y-9413508D01*
X1743991Y-9413508D02*
X1763039Y-9403984D01*
X1763039Y-9403984D02*
X1810658Y-9403984D01*
X1810658Y-9403984D02*
X1829705Y-9413508D01*
X1829705Y-9413508D02*
X1839229Y-9423031D01*
X1839229Y-9423031D02*
X1848753Y-9442079D01*
X1848753Y-9442079D02*
X1848753Y-9461127D01*
X1848753Y-9461127D02*
X1839229Y-9489698D01*
X1839229Y-9489698D02*
X1724943Y-9603984D01*
X1724943Y-9603984D02*
X1848753Y-9603984D01*
X1972562Y-9403984D02*
X1991610Y-9403984D01*
X1991610Y-9403984D02*
X2010658Y-9413508D01*
X2010658Y-9413508D02*
X2020182Y-9423031D01*
X2020182Y-9423031D02*
X2029705Y-9442079D01*
X2029705Y-9442079D02*
X2039229Y-9480174D01*
X2039229Y-9480174D02*
X2039229Y-9527793D01*
X2039229Y-9527793D02*
X2029705Y-9565889D01*
X2029705Y-9565889D02*
X2020182Y-9584936D01*
X2020182Y-9584936D02*
X2010658Y-9594460D01*
X2010658Y-9594460D02*
X1991610Y-9603984D01*
X1991610Y-9603984D02*
X1972562Y-9603984D01*
X1972562Y-9603984D02*
X1953515Y-9594460D01*
X1953515Y-9594460D02*
X1943991Y-9584936D01*
X1943991Y-9584936D02*
X1934467Y-9565889D01*
X1934467Y-9565889D02*
X1924943Y-9527793D01*
X1924943Y-9527793D02*
X1924943Y-9480174D01*
X1924943Y-9480174D02*
X1934467Y-9442079D01*
X1934467Y-9442079D02*
X1943991Y-9423031D01*
X1943991Y-9423031D02*
X1953515Y-9413508D01*
X1953515Y-9413508D02*
X1972562Y-9403984D01*
X2163039Y-9403984D02*
X2182086Y-9403984D01*
X2182086Y-9403984D02*
X2201134Y-9413508D01*
X2201134Y-9413508D02*
X2210658Y-9423031D01*
X2210658Y-9423031D02*
X2220182Y-9442079D01*
X2220182Y-9442079D02*
X2229705Y-9480174D01*
X2229705Y-9480174D02*
X2229705Y-9527793D01*
X2229705Y-9527793D02*
X2220182Y-9565889D01*
X2220182Y-9565889D02*
X2210658Y-9584936D01*
X2210658Y-9584936D02*
X2201134Y-9594460D01*
X2201134Y-9594460D02*
X2182086Y-9603984D01*
X2182086Y-9603984D02*
X2163039Y-9603984D01*
X2163039Y-9603984D02*
X2143991Y-9594460D01*
X2143991Y-9594460D02*
X2134467Y-9584936D01*
X2134467Y-9584936D02*
X2124944Y-9565889D01*
X2124944Y-9565889D02*
X2115420Y-9527793D01*
X2115420Y-9527793D02*
X2115420Y-9480174D01*
X2115420Y-9480174D02*
X2124944Y-9442079D01*
X2124944Y-9442079D02*
X2134467Y-9423031D01*
X2134467Y-9423031D02*
X2143991Y-9413508D01*
X2143991Y-9413508D02*
X2163039Y-9403984D01*
X2315420Y-9603984D02*
X2315420Y-9470650D01*
X2315420Y-9489698D02*
X2324944Y-9480174D01*
X2324944Y-9480174D02*
X2343991Y-9470650D01*
X2343991Y-9470650D02*
X2372563Y-9470650D01*
X2372563Y-9470650D02*
X2391610Y-9480174D01*
X2391610Y-9480174D02*
X2401134Y-9499222D01*
X2401134Y-9499222D02*
X2401134Y-9603984D01*
X2401134Y-9499222D02*
X2410658Y-9480174D01*
X2410658Y-9480174D02*
X2429705Y-9470650D01*
X2429705Y-9470650D02*
X2458277Y-9470650D01*
X2458277Y-9470650D02*
X2477325Y-9480174D01*
X2477325Y-9480174D02*
X2486848Y-9499222D01*
X2486848Y-9499222D02*
X2486848Y-9603984D01*
X2582086Y-9603984D02*
X2582086Y-9470650D01*
X2582086Y-9489698D02*
X2591610Y-9480174D01*
X2591610Y-9480174D02*
X2610658Y-9470650D01*
X2610658Y-9470650D02*
X2639229Y-9470650D01*
X2639229Y-9470650D02*
X2658277Y-9480174D01*
X2658277Y-9480174D02*
X2667801Y-9499222D01*
X2667801Y-9499222D02*
X2667801Y-9603984D01*
X2667801Y-9499222D02*
X2677325Y-9480174D01*
X2677325Y-9480174D02*
X2696372Y-9470650D01*
X2696372Y-9470650D02*
X2724944Y-9470650D01*
X2724944Y-9470650D02*
X2743991Y-9480174D01*
X2743991Y-9480174D02*
X2753515Y-9499222D01*
X2753515Y-9499222D02*
X2753515Y-9603984D01*
X3143991Y-9394460D02*
X2972563Y-9651603D01*
X3401134Y-9403984D02*
X3420182Y-9403984D01*
X3420182Y-9403984D02*
X3439229Y-9413508D01*
X3439229Y-9413508D02*
X3448753Y-9423031D01*
X3448753Y-9423031D02*
X3458277Y-9442079D01*
X3458277Y-9442079D02*
X3467801Y-9480174D01*
X3467801Y-9480174D02*
X3467801Y-9527793D01*
X3467801Y-9527793D02*
X3458277Y-9565889D01*
X3458277Y-9565889D02*
X3448753Y-9584936D01*
X3448753Y-9584936D02*
X3439229Y-9594460D01*
X3439229Y-9594460D02*
X3420182Y-9603984D01*
X3420182Y-9603984D02*
X3401134Y-9603984D01*
X3401134Y-9603984D02*
X3382086Y-9594460D01*
X3382086Y-9594460D02*
X3372563Y-9584936D01*
X3372563Y-9584936D02*
X3363039Y-9565889D01*
X3363039Y-9565889D02*
X3353515Y-9527793D01*
X3353515Y-9527793D02*
X3353515Y-9480174D01*
X3353515Y-9480174D02*
X3363039Y-9442079D01*
X3363039Y-9442079D02*
X3372563Y-9423031D01*
X3372563Y-9423031D02*
X3382086Y-9413508D01*
X3382086Y-9413508D02*
X3401134Y-9403984D01*
X3553515Y-9584936D02*
X3563039Y-9594460D01*
X3563039Y-9594460D02*
X3553515Y-9603984D01*
X3553515Y-9603984D02*
X3543991Y-9594460D01*
X3543991Y-9594460D02*
X3553515Y-9584936D01*
X3553515Y-9584936D02*
X3553515Y-9603984D01*
X3686848Y-9403984D02*
X3705896Y-9403984D01*
X3705896Y-9403984D02*
X3724944Y-9413508D01*
X3724944Y-9413508D02*
X3734467Y-9423031D01*
X3734467Y-9423031D02*
X3743991Y-9442079D01*
X3743991Y-9442079D02*
X3753515Y-9480174D01*
X3753515Y-9480174D02*
X3753515Y-9527793D01*
X3753515Y-9527793D02*
X3743991Y-9565889D01*
X3743991Y-9565889D02*
X3734467Y-9584936D01*
X3734467Y-9584936D02*
X3724944Y-9594460D01*
X3724944Y-9594460D02*
X3705896Y-9603984D01*
X3705896Y-9603984D02*
X3686848Y-9603984D01*
X3686848Y-9603984D02*
X3667801Y-9594460D01*
X3667801Y-9594460D02*
X3658277Y-9584936D01*
X3658277Y-9584936D02*
X3648753Y-9565889D01*
X3648753Y-9565889D02*
X3639229Y-9527793D01*
X3639229Y-9527793D02*
X3639229Y-9480174D01*
X3639229Y-9480174D02*
X3648753Y-9442079D01*
X3648753Y-9442079D02*
X3658277Y-9423031D01*
X3658277Y-9423031D02*
X3667801Y-9413508D01*
X3667801Y-9413508D02*
X3686848Y-9403984D01*
X3924944Y-9470650D02*
X3924944Y-9603984D01*
X3877325Y-9394460D02*
X3829706Y-9537317D01*
X3829706Y-9537317D02*
X3953515Y-9537317D01*
X4010658Y-9403984D02*
X4143991Y-9403984D01*
X4143991Y-9403984D02*
X4058277Y-9603984D01*
X4210658Y-9423031D02*
X4220182Y-9413508D01*
X4220182Y-9413508D02*
X4239229Y-9403984D01*
X4239229Y-9403984D02*
X4286849Y-9403984D01*
X4286849Y-9403984D02*
X4305896Y-9413508D01*
X4305896Y-9413508D02*
X4315420Y-9423031D01*
X4315420Y-9423031D02*
X4324944Y-9442079D01*
X4324944Y-9442079D02*
X4324944Y-9461127D01*
X4324944Y-9461127D02*
X4315420Y-9489698D01*
X4315420Y-9489698D02*
X4201134Y-9603984D01*
X4201134Y-9603984D02*
X4324944Y-9603984D01*
X4401134Y-9403984D02*
X4401134Y-9442079D01*
X4477325Y-9403984D02*
X4477325Y-9442079D01*
X4772563Y-9680174D02*
X4763039Y-9670650D01*
X4763039Y-9670650D02*
X4743991Y-9642079D01*
X4743991Y-9642079D02*
X4734468Y-9623031D01*
X4734468Y-9623031D02*
X4724944Y-9594460D01*
X4724944Y-9594460D02*
X4715420Y-9546841D01*
X4715420Y-9546841D02*
X4715420Y-9508746D01*
X4715420Y-9508746D02*
X4724944Y-9461127D01*
X4724944Y-9461127D02*
X4734468Y-9432555D01*
X4734468Y-9432555D02*
X4743991Y-9413508D01*
X4743991Y-9413508D02*
X4763039Y-9384936D01*
X4763039Y-9384936D02*
X4772563Y-9375412D01*
X4934468Y-9470650D02*
X4934468Y-9603984D01*
X4886849Y-9394460D02*
X4839230Y-9537317D01*
X4839230Y-9537317D02*
X4963039Y-9537317D01*
X5191611Y-9603984D02*
X5191611Y-9403984D01*
X5277325Y-9603984D02*
X5277325Y-9499222D01*
X5277325Y-9499222D02*
X5267801Y-9480174D01*
X5267801Y-9480174D02*
X5248753Y-9470650D01*
X5248753Y-9470650D02*
X5220182Y-9470650D01*
X5220182Y-9470650D02*
X5201134Y-9480174D01*
X5201134Y-9480174D02*
X5191611Y-9489698D01*
X5401134Y-9603984D02*
X5382087Y-9594460D01*
X5382087Y-9594460D02*
X5372563Y-9584936D01*
X5372563Y-9584936D02*
X5363039Y-9565889D01*
X5363039Y-9565889D02*
X5363039Y-9508746D01*
X5363039Y-9508746D02*
X5372563Y-9489698D01*
X5372563Y-9489698D02*
X5382087Y-9480174D01*
X5382087Y-9480174D02*
X5401134Y-9470650D01*
X5401134Y-9470650D02*
X5429706Y-9470650D01*
X5429706Y-9470650D02*
X5448753Y-9480174D01*
X5448753Y-9480174D02*
X5458277Y-9489698D01*
X5458277Y-9489698D02*
X5467801Y-9508746D01*
X5467801Y-9508746D02*
X5467801Y-9565889D01*
X5467801Y-9565889D02*
X5458277Y-9584936D01*
X5458277Y-9584936D02*
X5448753Y-9594460D01*
X5448753Y-9594460D02*
X5429706Y-9603984D01*
X5429706Y-9603984D02*
X5401134Y-9603984D01*
X5582087Y-9603984D02*
X5563039Y-9594460D01*
X5563039Y-9594460D02*
X5553515Y-9575412D01*
X5553515Y-9575412D02*
X5553515Y-9403984D01*
X5734468Y-9594460D02*
X5715420Y-9603984D01*
X5715420Y-9603984D02*
X5677325Y-9603984D01*
X5677325Y-9603984D02*
X5658277Y-9594460D01*
X5658277Y-9594460D02*
X5648753Y-9575412D01*
X5648753Y-9575412D02*
X5648753Y-9499222D01*
X5648753Y-9499222D02*
X5658277Y-9480174D01*
X5658277Y-9480174D02*
X5677325Y-9470650D01*
X5677325Y-9470650D02*
X5715420Y-9470650D01*
X5715420Y-9470650D02*
X5734468Y-9480174D01*
X5734468Y-9480174D02*
X5743991Y-9499222D01*
X5743991Y-9499222D02*
X5743991Y-9518270D01*
X5743991Y-9518270D02*
X5648753Y-9537317D01*
X5820182Y-9594460D02*
X5839230Y-9603984D01*
X5839230Y-9603984D02*
X5877325Y-9603984D01*
X5877325Y-9603984D02*
X5896372Y-9594460D01*
X5896372Y-9594460D02*
X5905896Y-9575412D01*
X5905896Y-9575412D02*
X5905896Y-9565889D01*
X5905896Y-9565889D02*
X5896372Y-9546841D01*
X5896372Y-9546841D02*
X5877325Y-9537317D01*
X5877325Y-9537317D02*
X5848753Y-9537317D01*
X5848753Y-9537317D02*
X5829706Y-9527793D01*
X5829706Y-9527793D02*
X5820182Y-9508746D01*
X5820182Y-9508746D02*
X5820182Y-9499222D01*
X5820182Y-9499222D02*
X5829706Y-9480174D01*
X5829706Y-9480174D02*
X5848753Y-9470650D01*
X5848753Y-9470650D02*
X5877325Y-9470650D01*
X5877325Y-9470650D02*
X5896372Y-9480174D01*
X5972563Y-9680174D02*
X5982087Y-9670650D01*
X5982087Y-9670650D02*
X6001134Y-9642079D01*
X6001134Y-9642079D02*
X6010658Y-9623031D01*
X6010658Y-9623031D02*
X6020182Y-9594460D01*
X6020182Y-9594460D02*
X6029706Y-9546841D01*
X6029706Y-9546841D02*
X6029706Y-9508746D01*
X6029706Y-9508746D02*
X6020182Y-9461127D01*
X6020182Y-9461127D02*
X6010658Y-9432555D01*
X6010658Y-9432555D02*
X6001134Y-9413508D01*
X6001134Y-9413508D02*
X5982087Y-9384936D01*
X5982087Y-9384936D02*
X5972563Y-9375412D01*
D14*
X1067500Y-9711500D02*
X1197500Y-9841500D01*
X1197500Y-9711500D02*
X1067500Y-9841500D01*
X1132500Y-9711500D02*
X1132500Y-9841500D01*
X1067500Y-9776500D02*
X1197500Y-9776500D01*
D11*
X1563039Y-9867984D02*
X1448753Y-9867984D01*
X1505896Y-9867984D02*
X1505896Y-9667984D01*
X1505896Y-9667984D02*
X1486848Y-9696555D01*
X1486848Y-9696555D02*
X1467801Y-9715603D01*
X1467801Y-9715603D02*
X1448753Y-9725127D01*
X1648753Y-9848936D02*
X1658277Y-9858460D01*
X1658277Y-9858460D02*
X1648753Y-9867984D01*
X1648753Y-9867984D02*
X1639229Y-9858460D01*
X1639229Y-9858460D02*
X1648753Y-9848936D01*
X1648753Y-9848936D02*
X1648753Y-9867984D01*
X1724943Y-9667984D02*
X1848753Y-9667984D01*
X1848753Y-9667984D02*
X1782086Y-9744174D01*
X1782086Y-9744174D02*
X1810658Y-9744174D01*
X1810658Y-9744174D02*
X1829705Y-9753698D01*
X1829705Y-9753698D02*
X1839229Y-9763222D01*
X1839229Y-9763222D02*
X1848753Y-9782270D01*
X1848753Y-9782270D02*
X1848753Y-9829889D01*
X1848753Y-9829889D02*
X1839229Y-9848936D01*
X1839229Y-9848936D02*
X1829705Y-9858460D01*
X1829705Y-9858460D02*
X1810658Y-9867984D01*
X1810658Y-9867984D02*
X1753515Y-9867984D01*
X1753515Y-9867984D02*
X1734467Y-9858460D01*
X1734467Y-9858460D02*
X1724943Y-9848936D01*
X1972562Y-9667984D02*
X1991610Y-9667984D01*
X1991610Y-9667984D02*
X2010658Y-9677508D01*
X2010658Y-9677508D02*
X2020182Y-9687031D01*
X2020182Y-9687031D02*
X2029705Y-9706079D01*
X2029705Y-9706079D02*
X2039229Y-9744174D01*
X2039229Y-9744174D02*
X2039229Y-9791793D01*
X2039229Y-9791793D02*
X2029705Y-9829889D01*
X2029705Y-9829889D02*
X2020182Y-9848936D01*
X2020182Y-9848936D02*
X2010658Y-9858460D01*
X2010658Y-9858460D02*
X1991610Y-9867984D01*
X1991610Y-9867984D02*
X1972562Y-9867984D01*
X1972562Y-9867984D02*
X1953515Y-9858460D01*
X1953515Y-9858460D02*
X1943991Y-9848936D01*
X1943991Y-9848936D02*
X1934467Y-9829889D01*
X1934467Y-9829889D02*
X1924943Y-9791793D01*
X1924943Y-9791793D02*
X1924943Y-9744174D01*
X1924943Y-9744174D02*
X1934467Y-9706079D01*
X1934467Y-9706079D02*
X1943991Y-9687031D01*
X1943991Y-9687031D02*
X1953515Y-9677508D01*
X1953515Y-9677508D02*
X1972562Y-9667984D01*
X2163039Y-9667984D02*
X2182086Y-9667984D01*
X2182086Y-9667984D02*
X2201134Y-9677508D01*
X2201134Y-9677508D02*
X2210658Y-9687031D01*
X2210658Y-9687031D02*
X2220182Y-9706079D01*
X2220182Y-9706079D02*
X2229705Y-9744174D01*
X2229705Y-9744174D02*
X2229705Y-9791793D01*
X2229705Y-9791793D02*
X2220182Y-9829889D01*
X2220182Y-9829889D02*
X2210658Y-9848936D01*
X2210658Y-9848936D02*
X2201134Y-9858460D01*
X2201134Y-9858460D02*
X2182086Y-9867984D01*
X2182086Y-9867984D02*
X2163039Y-9867984D01*
X2163039Y-9867984D02*
X2143991Y-9858460D01*
X2143991Y-9858460D02*
X2134467Y-9848936D01*
X2134467Y-9848936D02*
X2124944Y-9829889D01*
X2124944Y-9829889D02*
X2115420Y-9791793D01*
X2115420Y-9791793D02*
X2115420Y-9744174D01*
X2115420Y-9744174D02*
X2124944Y-9706079D01*
X2124944Y-9706079D02*
X2134467Y-9687031D01*
X2134467Y-9687031D02*
X2143991Y-9677508D01*
X2143991Y-9677508D02*
X2163039Y-9667984D01*
X2315420Y-9867984D02*
X2315420Y-9734650D01*
X2315420Y-9753698D02*
X2324944Y-9744174D01*
X2324944Y-9744174D02*
X2343991Y-9734650D01*
X2343991Y-9734650D02*
X2372563Y-9734650D01*
X2372563Y-9734650D02*
X2391610Y-9744174D01*
X2391610Y-9744174D02*
X2401134Y-9763222D01*
X2401134Y-9763222D02*
X2401134Y-9867984D01*
X2401134Y-9763222D02*
X2410658Y-9744174D01*
X2410658Y-9744174D02*
X2429705Y-9734650D01*
X2429705Y-9734650D02*
X2458277Y-9734650D01*
X2458277Y-9734650D02*
X2477325Y-9744174D01*
X2477325Y-9744174D02*
X2486848Y-9763222D01*
X2486848Y-9763222D02*
X2486848Y-9867984D01*
X2582086Y-9867984D02*
X2582086Y-9734650D01*
X2582086Y-9753698D02*
X2591610Y-9744174D01*
X2591610Y-9744174D02*
X2610658Y-9734650D01*
X2610658Y-9734650D02*
X2639229Y-9734650D01*
X2639229Y-9734650D02*
X2658277Y-9744174D01*
X2658277Y-9744174D02*
X2667801Y-9763222D01*
X2667801Y-9763222D02*
X2667801Y-9867984D01*
X2667801Y-9763222D02*
X2677325Y-9744174D01*
X2677325Y-9744174D02*
X2696372Y-9734650D01*
X2696372Y-9734650D02*
X2724944Y-9734650D01*
X2724944Y-9734650D02*
X2743991Y-9744174D01*
X2743991Y-9744174D02*
X2753515Y-9763222D01*
X2753515Y-9763222D02*
X2753515Y-9867984D01*
X3143991Y-9658460D02*
X2972563Y-9915603D01*
X3401134Y-9667984D02*
X3420182Y-9667984D01*
X3420182Y-9667984D02*
X3439229Y-9677508D01*
X3439229Y-9677508D02*
X3448753Y-9687031D01*
X3448753Y-9687031D02*
X3458277Y-9706079D01*
X3458277Y-9706079D02*
X3467801Y-9744174D01*
X3467801Y-9744174D02*
X3467801Y-9791793D01*
X3467801Y-9791793D02*
X3458277Y-9829889D01*
X3458277Y-9829889D02*
X3448753Y-9848936D01*
X3448753Y-9848936D02*
X3439229Y-9858460D01*
X3439229Y-9858460D02*
X3420182Y-9867984D01*
X3420182Y-9867984D02*
X3401134Y-9867984D01*
X3401134Y-9867984D02*
X3382086Y-9858460D01*
X3382086Y-9858460D02*
X3372563Y-9848936D01*
X3372563Y-9848936D02*
X3363039Y-9829889D01*
X3363039Y-9829889D02*
X3353515Y-9791793D01*
X3353515Y-9791793D02*
X3353515Y-9744174D01*
X3353515Y-9744174D02*
X3363039Y-9706079D01*
X3363039Y-9706079D02*
X3372563Y-9687031D01*
X3372563Y-9687031D02*
X3382086Y-9677508D01*
X3382086Y-9677508D02*
X3401134Y-9667984D01*
X3553515Y-9848936D02*
X3563039Y-9858460D01*
X3563039Y-9858460D02*
X3553515Y-9867984D01*
X3553515Y-9867984D02*
X3543991Y-9858460D01*
X3543991Y-9858460D02*
X3553515Y-9848936D01*
X3553515Y-9848936D02*
X3553515Y-9867984D01*
X3686848Y-9667984D02*
X3705896Y-9667984D01*
X3705896Y-9667984D02*
X3724944Y-9677508D01*
X3724944Y-9677508D02*
X3734467Y-9687031D01*
X3734467Y-9687031D02*
X3743991Y-9706079D01*
X3743991Y-9706079D02*
X3753515Y-9744174D01*
X3753515Y-9744174D02*
X3753515Y-9791793D01*
X3753515Y-9791793D02*
X3743991Y-9829889D01*
X3743991Y-9829889D02*
X3734467Y-9848936D01*
X3734467Y-9848936D02*
X3724944Y-9858460D01*
X3724944Y-9858460D02*
X3705896Y-9867984D01*
X3705896Y-9867984D02*
X3686848Y-9867984D01*
X3686848Y-9867984D02*
X3667801Y-9858460D01*
X3667801Y-9858460D02*
X3658277Y-9848936D01*
X3658277Y-9848936D02*
X3648753Y-9829889D01*
X3648753Y-9829889D02*
X3639229Y-9791793D01*
X3639229Y-9791793D02*
X3639229Y-9744174D01*
X3639229Y-9744174D02*
X3648753Y-9706079D01*
X3648753Y-9706079D02*
X3658277Y-9687031D01*
X3658277Y-9687031D02*
X3667801Y-9677508D01*
X3667801Y-9677508D02*
X3686848Y-9667984D01*
X3934467Y-9667984D02*
X3839229Y-9667984D01*
X3839229Y-9667984D02*
X3829706Y-9763222D01*
X3829706Y-9763222D02*
X3839229Y-9753698D01*
X3839229Y-9753698D02*
X3858277Y-9744174D01*
X3858277Y-9744174D02*
X3905896Y-9744174D01*
X3905896Y-9744174D02*
X3924944Y-9753698D01*
X3924944Y-9753698D02*
X3934467Y-9763222D01*
X3934467Y-9763222D02*
X3943991Y-9782270D01*
X3943991Y-9782270D02*
X3943991Y-9829889D01*
X3943991Y-9829889D02*
X3934467Y-9848936D01*
X3934467Y-9848936D02*
X3924944Y-9858460D01*
X3924944Y-9858460D02*
X3905896Y-9867984D01*
X3905896Y-9867984D02*
X3858277Y-9867984D01*
X3858277Y-9867984D02*
X3839229Y-9858460D01*
X3839229Y-9858460D02*
X3829706Y-9848936D01*
X4134467Y-9867984D02*
X4020182Y-9867984D01*
X4077325Y-9867984D02*
X4077325Y-9667984D01*
X4077325Y-9667984D02*
X4058277Y-9696555D01*
X4058277Y-9696555D02*
X4039229Y-9715603D01*
X4039229Y-9715603D02*
X4020182Y-9725127D01*
X4210658Y-9687031D02*
X4220182Y-9677508D01*
X4220182Y-9677508D02*
X4239229Y-9667984D01*
X4239229Y-9667984D02*
X4286849Y-9667984D01*
X4286849Y-9667984D02*
X4305896Y-9677508D01*
X4305896Y-9677508D02*
X4315420Y-9687031D01*
X4315420Y-9687031D02*
X4324944Y-9706079D01*
X4324944Y-9706079D02*
X4324944Y-9725127D01*
X4324944Y-9725127D02*
X4315420Y-9753698D01*
X4315420Y-9753698D02*
X4201134Y-9867984D01*
X4201134Y-9867984D02*
X4324944Y-9867984D01*
X4401134Y-9667984D02*
X4401134Y-9706079D01*
X4477325Y-9667984D02*
X4477325Y-9706079D01*
X4772563Y-9944174D02*
X4763039Y-9934650D01*
X4763039Y-9934650D02*
X4743991Y-9906079D01*
X4743991Y-9906079D02*
X4734468Y-9887031D01*
X4734468Y-9887031D02*
X4724944Y-9858460D01*
X4724944Y-9858460D02*
X4715420Y-9810841D01*
X4715420Y-9810841D02*
X4715420Y-9772746D01*
X4715420Y-9772746D02*
X4724944Y-9725127D01*
X4724944Y-9725127D02*
X4734468Y-9696555D01*
X4734468Y-9696555D02*
X4743991Y-9677508D01*
X4743991Y-9677508D02*
X4763039Y-9648936D01*
X4763039Y-9648936D02*
X4772563Y-9639412D01*
X4839230Y-9687031D02*
X4848753Y-9677508D01*
X4848753Y-9677508D02*
X4867801Y-9667984D01*
X4867801Y-9667984D02*
X4915420Y-9667984D01*
X4915420Y-9667984D02*
X4934468Y-9677508D01*
X4934468Y-9677508D02*
X4943991Y-9687031D01*
X4943991Y-9687031D02*
X4953515Y-9706079D01*
X4953515Y-9706079D02*
X4953515Y-9725127D01*
X4953515Y-9725127D02*
X4943991Y-9753698D01*
X4943991Y-9753698D02*
X4829706Y-9867984D01*
X4829706Y-9867984D02*
X4953515Y-9867984D01*
X5191611Y-9867984D02*
X5191611Y-9667984D01*
X5277325Y-9867984D02*
X5277325Y-9763222D01*
X5277325Y-9763222D02*
X5267801Y-9744174D01*
X5267801Y-9744174D02*
X5248753Y-9734650D01*
X5248753Y-9734650D02*
X5220182Y-9734650D01*
X5220182Y-9734650D02*
X5201134Y-9744174D01*
X5201134Y-9744174D02*
X5191611Y-9753698D01*
X5401134Y-9867984D02*
X5382087Y-9858460D01*
X5382087Y-9858460D02*
X5372563Y-9848936D01*
X5372563Y-9848936D02*
X5363039Y-9829889D01*
X5363039Y-9829889D02*
X5363039Y-9772746D01*
X5363039Y-9772746D02*
X5372563Y-9753698D01*
X5372563Y-9753698D02*
X5382087Y-9744174D01*
X5382087Y-9744174D02*
X5401134Y-9734650D01*
X5401134Y-9734650D02*
X5429706Y-9734650D01*
X5429706Y-9734650D02*
X5448753Y-9744174D01*
X5448753Y-9744174D02*
X5458277Y-9753698D01*
X5458277Y-9753698D02*
X5467801Y-9772746D01*
X5467801Y-9772746D02*
X5467801Y-9829889D01*
X5467801Y-9829889D02*
X5458277Y-9848936D01*
X5458277Y-9848936D02*
X5448753Y-9858460D01*
X5448753Y-9858460D02*
X5429706Y-9867984D01*
X5429706Y-9867984D02*
X5401134Y-9867984D01*
X5582087Y-9867984D02*
X5563039Y-9858460D01*
X5563039Y-9858460D02*
X5553515Y-9839412D01*
X5553515Y-9839412D02*
X5553515Y-9667984D01*
X5734468Y-9858460D02*
X5715420Y-9867984D01*
X5715420Y-9867984D02*
X5677325Y-9867984D01*
X5677325Y-9867984D02*
X5658277Y-9858460D01*
X5658277Y-9858460D02*
X5648753Y-9839412D01*
X5648753Y-9839412D02*
X5648753Y-9763222D01*
X5648753Y-9763222D02*
X5658277Y-9744174D01*
X5658277Y-9744174D02*
X5677325Y-9734650D01*
X5677325Y-9734650D02*
X5715420Y-9734650D01*
X5715420Y-9734650D02*
X5734468Y-9744174D01*
X5734468Y-9744174D02*
X5743991Y-9763222D01*
X5743991Y-9763222D02*
X5743991Y-9782270D01*
X5743991Y-9782270D02*
X5648753Y-9801317D01*
X5820182Y-9858460D02*
X5839230Y-9867984D01*
X5839230Y-9867984D02*
X5877325Y-9867984D01*
X5877325Y-9867984D02*
X5896372Y-9858460D01*
X5896372Y-9858460D02*
X5905896Y-9839412D01*
X5905896Y-9839412D02*
X5905896Y-9829889D01*
X5905896Y-9829889D02*
X5896372Y-9810841D01*
X5896372Y-9810841D02*
X5877325Y-9801317D01*
X5877325Y-9801317D02*
X5848753Y-9801317D01*
X5848753Y-9801317D02*
X5829706Y-9791793D01*
X5829706Y-9791793D02*
X5820182Y-9772746D01*
X5820182Y-9772746D02*
X5820182Y-9763222D01*
X5820182Y-9763222D02*
X5829706Y-9744174D01*
X5829706Y-9744174D02*
X5848753Y-9734650D01*
X5848753Y-9734650D02*
X5877325Y-9734650D01*
X5877325Y-9734650D02*
X5896372Y-9744174D01*
X5972563Y-9944174D02*
X5982087Y-9934650D01*
X5982087Y-9934650D02*
X6001134Y-9906079D01*
X6001134Y-9906079D02*
X6010658Y-9887031D01*
X6010658Y-9887031D02*
X6020182Y-9858460D01*
X6020182Y-9858460D02*
X6029706Y-9810841D01*
X6029706Y-9810841D02*
X6029706Y-9772746D01*
X6029706Y-9772746D02*
X6020182Y-9725127D01*
X6020182Y-9725127D02*
X6010658Y-9696555D01*
X6010658Y-9696555D02*
X6001134Y-9677508D01*
X6001134Y-9677508D02*
X5982087Y-9648936D01*
X5982087Y-9648936D02*
X5972563Y-9639412D01*
X997500Y-9940500D02*
X1197500Y-10140500D01*
X1197500Y-9940500D02*
X997500Y-10140500D01*
X1168211Y-10111211D02*
X1168211Y-9969789D01*
X1026789Y-9969789D01*
X1026789Y-10111211D01*
X1168211Y-10111211D01*
X1448753Y-9951031D02*
X1458277Y-9941508D01*
X1458277Y-9941508D02*
X1477324Y-9931984D01*
X1477324Y-9931984D02*
X1524943Y-9931984D01*
X1524943Y-9931984D02*
X1543991Y-9941508D01*
X1543991Y-9941508D02*
X1553515Y-9951031D01*
X1553515Y-9951031D02*
X1563039Y-9970079D01*
X1563039Y-9970079D02*
X1563039Y-9989127D01*
X1563039Y-9989127D02*
X1553515Y-10017698D01*
X1553515Y-10017698D02*
X1439229Y-10131984D01*
X1439229Y-10131984D02*
X1563039Y-10131984D01*
X1648753Y-10112936D02*
X1658277Y-10122460D01*
X1658277Y-10122460D02*
X1648753Y-10131984D01*
X1648753Y-10131984D02*
X1639229Y-10122460D01*
X1639229Y-10122460D02*
X1648753Y-10112936D01*
X1648753Y-10112936D02*
X1648753Y-10131984D01*
X1782086Y-9931984D02*
X1801134Y-9931984D01*
X1801134Y-9931984D02*
X1820182Y-9941508D01*
X1820182Y-9941508D02*
X1829705Y-9951031D01*
X1829705Y-9951031D02*
X1839229Y-9970079D01*
X1839229Y-9970079D02*
X1848753Y-10008174D01*
X1848753Y-10008174D02*
X1848753Y-10055793D01*
X1848753Y-10055793D02*
X1839229Y-10093889D01*
X1839229Y-10093889D02*
X1829705Y-10112936D01*
X1829705Y-10112936D02*
X1820182Y-10122460D01*
X1820182Y-10122460D02*
X1801134Y-10131984D01*
X1801134Y-10131984D02*
X1782086Y-10131984D01*
X1782086Y-10131984D02*
X1763039Y-10122460D01*
X1763039Y-10122460D02*
X1753515Y-10112936D01*
X1753515Y-10112936D02*
X1743991Y-10093889D01*
X1743991Y-10093889D02*
X1734467Y-10055793D01*
X1734467Y-10055793D02*
X1734467Y-10008174D01*
X1734467Y-10008174D02*
X1743991Y-9970079D01*
X1743991Y-9970079D02*
X1753515Y-9951031D01*
X1753515Y-9951031D02*
X1763039Y-9941508D01*
X1763039Y-9941508D02*
X1782086Y-9931984D01*
X1972562Y-9931984D02*
X1991610Y-9931984D01*
X1991610Y-9931984D02*
X2010658Y-9941508D01*
X2010658Y-9941508D02*
X2020182Y-9951031D01*
X2020182Y-9951031D02*
X2029705Y-9970079D01*
X2029705Y-9970079D02*
X2039229Y-10008174D01*
X2039229Y-10008174D02*
X2039229Y-10055793D01*
X2039229Y-10055793D02*
X2029705Y-10093889D01*
X2029705Y-10093889D02*
X2020182Y-10112936D01*
X2020182Y-10112936D02*
X2010658Y-10122460D01*
X2010658Y-10122460D02*
X1991610Y-10131984D01*
X1991610Y-10131984D02*
X1972562Y-10131984D01*
X1972562Y-10131984D02*
X1953515Y-10122460D01*
X1953515Y-10122460D02*
X1943991Y-10112936D01*
X1943991Y-10112936D02*
X1934467Y-10093889D01*
X1934467Y-10093889D02*
X1924943Y-10055793D01*
X1924943Y-10055793D02*
X1924943Y-10008174D01*
X1924943Y-10008174D02*
X1934467Y-9970079D01*
X1934467Y-9970079D02*
X1943991Y-9951031D01*
X1943991Y-9951031D02*
X1953515Y-9941508D01*
X1953515Y-9941508D02*
X1972562Y-9931984D01*
X2105896Y-9931984D02*
X2239229Y-9931984D01*
X2239229Y-9931984D02*
X2153515Y-10131984D01*
X2315420Y-10131984D02*
X2315420Y-9998650D01*
X2315420Y-10017698D02*
X2324944Y-10008174D01*
X2324944Y-10008174D02*
X2343991Y-9998650D01*
X2343991Y-9998650D02*
X2372563Y-9998650D01*
X2372563Y-9998650D02*
X2391610Y-10008174D01*
X2391610Y-10008174D02*
X2401134Y-10027222D01*
X2401134Y-10027222D02*
X2401134Y-10131984D01*
X2401134Y-10027222D02*
X2410658Y-10008174D01*
X2410658Y-10008174D02*
X2429705Y-9998650D01*
X2429705Y-9998650D02*
X2458277Y-9998650D01*
X2458277Y-9998650D02*
X2477325Y-10008174D01*
X2477325Y-10008174D02*
X2486848Y-10027222D01*
X2486848Y-10027222D02*
X2486848Y-10131984D01*
X2582086Y-10131984D02*
X2582086Y-9998650D01*
X2582086Y-10017698D02*
X2591610Y-10008174D01*
X2591610Y-10008174D02*
X2610658Y-9998650D01*
X2610658Y-9998650D02*
X2639229Y-9998650D01*
X2639229Y-9998650D02*
X2658277Y-10008174D01*
X2658277Y-10008174D02*
X2667801Y-10027222D01*
X2667801Y-10027222D02*
X2667801Y-10131984D01*
X2667801Y-10027222D02*
X2677325Y-10008174D01*
X2677325Y-10008174D02*
X2696372Y-9998650D01*
X2696372Y-9998650D02*
X2724944Y-9998650D01*
X2724944Y-9998650D02*
X2743991Y-10008174D01*
X2743991Y-10008174D02*
X2753515Y-10027222D01*
X2753515Y-10027222D02*
X2753515Y-10131984D01*
X3143991Y-9922460D02*
X2972563Y-10179603D01*
X3401134Y-9931984D02*
X3420182Y-9931984D01*
X3420182Y-9931984D02*
X3439229Y-9941508D01*
X3439229Y-9941508D02*
X3448753Y-9951031D01*
X3448753Y-9951031D02*
X3458277Y-9970079D01*
X3458277Y-9970079D02*
X3467801Y-10008174D01*
X3467801Y-10008174D02*
X3467801Y-10055793D01*
X3467801Y-10055793D02*
X3458277Y-10093889D01*
X3458277Y-10093889D02*
X3448753Y-10112936D01*
X3448753Y-10112936D02*
X3439229Y-10122460D01*
X3439229Y-10122460D02*
X3420182Y-10131984D01*
X3420182Y-10131984D02*
X3401134Y-10131984D01*
X3401134Y-10131984D02*
X3382086Y-10122460D01*
X3382086Y-10122460D02*
X3372563Y-10112936D01*
X3372563Y-10112936D02*
X3363039Y-10093889D01*
X3363039Y-10093889D02*
X3353515Y-10055793D01*
X3353515Y-10055793D02*
X3353515Y-10008174D01*
X3353515Y-10008174D02*
X3363039Y-9970079D01*
X3363039Y-9970079D02*
X3372563Y-9951031D01*
X3372563Y-9951031D02*
X3382086Y-9941508D01*
X3382086Y-9941508D02*
X3401134Y-9931984D01*
X3553515Y-10112936D02*
X3563039Y-10122460D01*
X3563039Y-10122460D02*
X3553515Y-10131984D01*
X3553515Y-10131984D02*
X3543991Y-10122460D01*
X3543991Y-10122460D02*
X3553515Y-10112936D01*
X3553515Y-10112936D02*
X3553515Y-10131984D01*
X3686848Y-9931984D02*
X3705896Y-9931984D01*
X3705896Y-9931984D02*
X3724944Y-9941508D01*
X3724944Y-9941508D02*
X3734467Y-9951031D01*
X3734467Y-9951031D02*
X3743991Y-9970079D01*
X3743991Y-9970079D02*
X3753515Y-10008174D01*
X3753515Y-10008174D02*
X3753515Y-10055793D01*
X3753515Y-10055793D02*
X3743991Y-10093889D01*
X3743991Y-10093889D02*
X3734467Y-10112936D01*
X3734467Y-10112936D02*
X3724944Y-10122460D01*
X3724944Y-10122460D02*
X3705896Y-10131984D01*
X3705896Y-10131984D02*
X3686848Y-10131984D01*
X3686848Y-10131984D02*
X3667801Y-10122460D01*
X3667801Y-10122460D02*
X3658277Y-10112936D01*
X3658277Y-10112936D02*
X3648753Y-10093889D01*
X3648753Y-10093889D02*
X3639229Y-10055793D01*
X3639229Y-10055793D02*
X3639229Y-10008174D01*
X3639229Y-10008174D02*
X3648753Y-9970079D01*
X3648753Y-9970079D02*
X3658277Y-9951031D01*
X3658277Y-9951031D02*
X3667801Y-9941508D01*
X3667801Y-9941508D02*
X3686848Y-9931984D01*
X3820182Y-9931984D02*
X3953515Y-9931984D01*
X3953515Y-9931984D02*
X3867801Y-10131984D01*
X4039229Y-10131984D02*
X4077325Y-10131984D01*
X4077325Y-10131984D02*
X4096372Y-10122460D01*
X4096372Y-10122460D02*
X4105896Y-10112936D01*
X4105896Y-10112936D02*
X4124944Y-10084365D01*
X4124944Y-10084365D02*
X4134467Y-10046270D01*
X4134467Y-10046270D02*
X4134467Y-9970079D01*
X4134467Y-9970079D02*
X4124944Y-9951031D01*
X4124944Y-9951031D02*
X4115420Y-9941508D01*
X4115420Y-9941508D02*
X4096372Y-9931984D01*
X4096372Y-9931984D02*
X4058277Y-9931984D01*
X4058277Y-9931984D02*
X4039229Y-9941508D01*
X4039229Y-9941508D02*
X4029706Y-9951031D01*
X4029706Y-9951031D02*
X4020182Y-9970079D01*
X4020182Y-9970079D02*
X4020182Y-10017698D01*
X4020182Y-10017698D02*
X4029706Y-10036746D01*
X4029706Y-10036746D02*
X4039229Y-10046270D01*
X4039229Y-10046270D02*
X4058277Y-10055793D01*
X4058277Y-10055793D02*
X4096372Y-10055793D01*
X4096372Y-10055793D02*
X4115420Y-10046270D01*
X4115420Y-10046270D02*
X4124944Y-10036746D01*
X4124944Y-10036746D02*
X4134467Y-10017698D01*
X4258277Y-9931984D02*
X4277325Y-9931984D01*
X4277325Y-9931984D02*
X4296372Y-9941508D01*
X4296372Y-9941508D02*
X4305896Y-9951031D01*
X4305896Y-9951031D02*
X4315420Y-9970079D01*
X4315420Y-9970079D02*
X4324944Y-10008174D01*
X4324944Y-10008174D02*
X4324944Y-10055793D01*
X4324944Y-10055793D02*
X4315420Y-10093889D01*
X4315420Y-10093889D02*
X4305896Y-10112936D01*
X4305896Y-10112936D02*
X4296372Y-10122460D01*
X4296372Y-10122460D02*
X4277325Y-10131984D01*
X4277325Y-10131984D02*
X4258277Y-10131984D01*
X4258277Y-10131984D02*
X4239229Y-10122460D01*
X4239229Y-10122460D02*
X4229706Y-10112936D01*
X4229706Y-10112936D02*
X4220182Y-10093889D01*
X4220182Y-10093889D02*
X4210658Y-10055793D01*
X4210658Y-10055793D02*
X4210658Y-10008174D01*
X4210658Y-10008174D02*
X4220182Y-9970079D01*
X4220182Y-9970079D02*
X4229706Y-9951031D01*
X4229706Y-9951031D02*
X4239229Y-9941508D01*
X4239229Y-9941508D02*
X4258277Y-9931984D01*
X4401134Y-9931984D02*
X4401134Y-9970079D01*
X4477325Y-9931984D02*
X4477325Y-9970079D01*
X4772563Y-10208174D02*
X4763039Y-10198650D01*
X4763039Y-10198650D02*
X4743991Y-10170079D01*
X4743991Y-10170079D02*
X4734468Y-10151031D01*
X4734468Y-10151031D02*
X4724944Y-10122460D01*
X4724944Y-10122460D02*
X4715420Y-10074841D01*
X4715420Y-10074841D02*
X4715420Y-10036746D01*
X4715420Y-10036746D02*
X4724944Y-9989127D01*
X4724944Y-9989127D02*
X4734468Y-9960555D01*
X4734468Y-9960555D02*
X4743991Y-9941508D01*
X4743991Y-9941508D02*
X4763039Y-9912936D01*
X4763039Y-9912936D02*
X4772563Y-9903412D01*
X4934468Y-9998650D02*
X4934468Y-10131984D01*
X4886849Y-9922460D02*
X4839230Y-10065317D01*
X4839230Y-10065317D02*
X4963039Y-10065317D01*
X5191611Y-10131984D02*
X5191611Y-9931984D01*
X5277325Y-10131984D02*
X5277325Y-10027222D01*
X5277325Y-10027222D02*
X5267801Y-10008174D01*
X5267801Y-10008174D02*
X5248753Y-9998650D01*
X5248753Y-9998650D02*
X5220182Y-9998650D01*
X5220182Y-9998650D02*
X5201134Y-10008174D01*
X5201134Y-10008174D02*
X5191611Y-10017698D01*
X5401134Y-10131984D02*
X5382087Y-10122460D01*
X5382087Y-10122460D02*
X5372563Y-10112936D01*
X5372563Y-10112936D02*
X5363039Y-10093889D01*
X5363039Y-10093889D02*
X5363039Y-10036746D01*
X5363039Y-10036746D02*
X5372563Y-10017698D01*
X5372563Y-10017698D02*
X5382087Y-10008174D01*
X5382087Y-10008174D02*
X5401134Y-9998650D01*
X5401134Y-9998650D02*
X5429706Y-9998650D01*
X5429706Y-9998650D02*
X5448753Y-10008174D01*
X5448753Y-10008174D02*
X5458277Y-10017698D01*
X5458277Y-10017698D02*
X5467801Y-10036746D01*
X5467801Y-10036746D02*
X5467801Y-10093889D01*
X5467801Y-10093889D02*
X5458277Y-10112936D01*
X5458277Y-10112936D02*
X5448753Y-10122460D01*
X5448753Y-10122460D02*
X5429706Y-10131984D01*
X5429706Y-10131984D02*
X5401134Y-10131984D01*
X5582087Y-10131984D02*
X5563039Y-10122460D01*
X5563039Y-10122460D02*
X5553515Y-10103412D01*
X5553515Y-10103412D02*
X5553515Y-9931984D01*
X5734468Y-10122460D02*
X5715420Y-10131984D01*
X5715420Y-10131984D02*
X5677325Y-10131984D01*
X5677325Y-10131984D02*
X5658277Y-10122460D01*
X5658277Y-10122460D02*
X5648753Y-10103412D01*
X5648753Y-10103412D02*
X5648753Y-10027222D01*
X5648753Y-10027222D02*
X5658277Y-10008174D01*
X5658277Y-10008174D02*
X5677325Y-9998650D01*
X5677325Y-9998650D02*
X5715420Y-9998650D01*
X5715420Y-9998650D02*
X5734468Y-10008174D01*
X5734468Y-10008174D02*
X5743991Y-10027222D01*
X5743991Y-10027222D02*
X5743991Y-10046270D01*
X5743991Y-10046270D02*
X5648753Y-10065317D01*
X5820182Y-10122460D02*
X5839230Y-10131984D01*
X5839230Y-10131984D02*
X5877325Y-10131984D01*
X5877325Y-10131984D02*
X5896372Y-10122460D01*
X5896372Y-10122460D02*
X5905896Y-10103412D01*
X5905896Y-10103412D02*
X5905896Y-10093889D01*
X5905896Y-10093889D02*
X5896372Y-10074841D01*
X5896372Y-10074841D02*
X5877325Y-10065317D01*
X5877325Y-10065317D02*
X5848753Y-10065317D01*
X5848753Y-10065317D02*
X5829706Y-10055793D01*
X5829706Y-10055793D02*
X5820182Y-10036746D01*
X5820182Y-10036746D02*
X5820182Y-10027222D01*
X5820182Y-10027222D02*
X5829706Y-10008174D01*
X5829706Y-10008174D02*
X5848753Y-9998650D01*
X5848753Y-9998650D02*
X5877325Y-9998650D01*
X5877325Y-9998650D02*
X5896372Y-10008174D01*
X5972563Y-10208174D02*
X5982087Y-10198650D01*
X5982087Y-10198650D02*
X6001134Y-10170079D01*
X6001134Y-10170079D02*
X6010658Y-10151031D01*
X6010658Y-10151031D02*
X6020182Y-10122460D01*
X6020182Y-10122460D02*
X6029706Y-10074841D01*
X6029706Y-10074841D02*
X6029706Y-10036746D01*
X6029706Y-10036746D02*
X6020182Y-9989127D01*
X6020182Y-9989127D02*
X6010658Y-9960555D01*
X6010658Y-9960555D02*
X6001134Y-9941508D01*
X6001134Y-9941508D02*
X5982087Y-9912936D01*
X5982087Y-9912936D02*
X5972563Y-9903412D01*
X997500Y-10260500D02*
X1197500Y-10460500D01*
X1197500Y-10260500D02*
X997500Y-10460500D01*
X1097500Y-10460500D02*
X1197500Y-10360500D01*
X1097500Y-10260500D01*
X997500Y-10360500D01*
X1097500Y-10460500D01*
X1439229Y-10251984D02*
X1563039Y-10251984D01*
X1563039Y-10251984D02*
X1496372Y-10328174D01*
X1496372Y-10328174D02*
X1524943Y-10328174D01*
X1524943Y-10328174D02*
X1543991Y-10337698D01*
X1543991Y-10337698D02*
X1553515Y-10347222D01*
X1553515Y-10347222D02*
X1563039Y-10366270D01*
X1563039Y-10366270D02*
X1563039Y-10413889D01*
X1563039Y-10413889D02*
X1553515Y-10432936D01*
X1553515Y-10432936D02*
X1543991Y-10442460D01*
X1543991Y-10442460D02*
X1524943Y-10451984D01*
X1524943Y-10451984D02*
X1467801Y-10451984D01*
X1467801Y-10451984D02*
X1448753Y-10442460D01*
X1448753Y-10442460D02*
X1439229Y-10432936D01*
X1648753Y-10432936D02*
X1658277Y-10442460D01*
X1658277Y-10442460D02*
X1648753Y-10451984D01*
X1648753Y-10451984D02*
X1639229Y-10442460D01*
X1639229Y-10442460D02*
X1648753Y-10432936D01*
X1648753Y-10432936D02*
X1648753Y-10451984D01*
X1734467Y-10271031D02*
X1743991Y-10261508D01*
X1743991Y-10261508D02*
X1763039Y-10251984D01*
X1763039Y-10251984D02*
X1810658Y-10251984D01*
X1810658Y-10251984D02*
X1829705Y-10261508D01*
X1829705Y-10261508D02*
X1839229Y-10271031D01*
X1839229Y-10271031D02*
X1848753Y-10290079D01*
X1848753Y-10290079D02*
X1848753Y-10309127D01*
X1848753Y-10309127D02*
X1839229Y-10337698D01*
X1839229Y-10337698D02*
X1724943Y-10451984D01*
X1724943Y-10451984D02*
X1848753Y-10451984D01*
X1972562Y-10251984D02*
X1991610Y-10251984D01*
X1991610Y-10251984D02*
X2010658Y-10261508D01*
X2010658Y-10261508D02*
X2020182Y-10271031D01*
X2020182Y-10271031D02*
X2029705Y-10290079D01*
X2029705Y-10290079D02*
X2039229Y-10328174D01*
X2039229Y-10328174D02*
X2039229Y-10375793D01*
X2039229Y-10375793D02*
X2029705Y-10413889D01*
X2029705Y-10413889D02*
X2020182Y-10432936D01*
X2020182Y-10432936D02*
X2010658Y-10442460D01*
X2010658Y-10442460D02*
X1991610Y-10451984D01*
X1991610Y-10451984D02*
X1972562Y-10451984D01*
X1972562Y-10451984D02*
X1953515Y-10442460D01*
X1953515Y-10442460D02*
X1943991Y-10432936D01*
X1943991Y-10432936D02*
X1934467Y-10413889D01*
X1934467Y-10413889D02*
X1924943Y-10375793D01*
X1924943Y-10375793D02*
X1924943Y-10328174D01*
X1924943Y-10328174D02*
X1934467Y-10290079D01*
X1934467Y-10290079D02*
X1943991Y-10271031D01*
X1943991Y-10271031D02*
X1953515Y-10261508D01*
X1953515Y-10261508D02*
X1972562Y-10251984D01*
X2163039Y-10251984D02*
X2182086Y-10251984D01*
X2182086Y-10251984D02*
X2201134Y-10261508D01*
X2201134Y-10261508D02*
X2210658Y-10271031D01*
X2210658Y-10271031D02*
X2220182Y-10290079D01*
X2220182Y-10290079D02*
X2229705Y-10328174D01*
X2229705Y-10328174D02*
X2229705Y-10375793D01*
X2229705Y-10375793D02*
X2220182Y-10413889D01*
X2220182Y-10413889D02*
X2210658Y-10432936D01*
X2210658Y-10432936D02*
X2201134Y-10442460D01*
X2201134Y-10442460D02*
X2182086Y-10451984D01*
X2182086Y-10451984D02*
X2163039Y-10451984D01*
X2163039Y-10451984D02*
X2143991Y-10442460D01*
X2143991Y-10442460D02*
X2134467Y-10432936D01*
X2134467Y-10432936D02*
X2124944Y-10413889D01*
X2124944Y-10413889D02*
X2115420Y-10375793D01*
X2115420Y-10375793D02*
X2115420Y-10328174D01*
X2115420Y-10328174D02*
X2124944Y-10290079D01*
X2124944Y-10290079D02*
X2134467Y-10271031D01*
X2134467Y-10271031D02*
X2143991Y-10261508D01*
X2143991Y-10261508D02*
X2163039Y-10251984D01*
X2315420Y-10451984D02*
X2315420Y-10318650D01*
X2315420Y-10337698D02*
X2324944Y-10328174D01*
X2324944Y-10328174D02*
X2343991Y-10318650D01*
X2343991Y-10318650D02*
X2372563Y-10318650D01*
X2372563Y-10318650D02*
X2391610Y-10328174D01*
X2391610Y-10328174D02*
X2401134Y-10347222D01*
X2401134Y-10347222D02*
X2401134Y-10451984D01*
X2401134Y-10347222D02*
X2410658Y-10328174D01*
X2410658Y-10328174D02*
X2429705Y-10318650D01*
X2429705Y-10318650D02*
X2458277Y-10318650D01*
X2458277Y-10318650D02*
X2477325Y-10328174D01*
X2477325Y-10328174D02*
X2486848Y-10347222D01*
X2486848Y-10347222D02*
X2486848Y-10451984D01*
X2582086Y-10451984D02*
X2582086Y-10318650D01*
X2582086Y-10337698D02*
X2591610Y-10328174D01*
X2591610Y-10328174D02*
X2610658Y-10318650D01*
X2610658Y-10318650D02*
X2639229Y-10318650D01*
X2639229Y-10318650D02*
X2658277Y-10328174D01*
X2658277Y-10328174D02*
X2667801Y-10347222D01*
X2667801Y-10347222D02*
X2667801Y-10451984D01*
X2667801Y-10347222D02*
X2677325Y-10328174D01*
X2677325Y-10328174D02*
X2696372Y-10318650D01*
X2696372Y-10318650D02*
X2724944Y-10318650D01*
X2724944Y-10318650D02*
X2743991Y-10328174D01*
X2743991Y-10328174D02*
X2753515Y-10347222D01*
X2753515Y-10347222D02*
X2753515Y-10451984D01*
X3143991Y-10242460D02*
X2972563Y-10499603D01*
X3401134Y-10251984D02*
X3420182Y-10251984D01*
X3420182Y-10251984D02*
X3439229Y-10261508D01*
X3439229Y-10261508D02*
X3448753Y-10271031D01*
X3448753Y-10271031D02*
X3458277Y-10290079D01*
X3458277Y-10290079D02*
X3467801Y-10328174D01*
X3467801Y-10328174D02*
X3467801Y-10375793D01*
X3467801Y-10375793D02*
X3458277Y-10413889D01*
X3458277Y-10413889D02*
X3448753Y-10432936D01*
X3448753Y-10432936D02*
X3439229Y-10442460D01*
X3439229Y-10442460D02*
X3420182Y-10451984D01*
X3420182Y-10451984D02*
X3401134Y-10451984D01*
X3401134Y-10451984D02*
X3382086Y-10442460D01*
X3382086Y-10442460D02*
X3372563Y-10432936D01*
X3372563Y-10432936D02*
X3363039Y-10413889D01*
X3363039Y-10413889D02*
X3353515Y-10375793D01*
X3353515Y-10375793D02*
X3353515Y-10328174D01*
X3353515Y-10328174D02*
X3363039Y-10290079D01*
X3363039Y-10290079D02*
X3372563Y-10271031D01*
X3372563Y-10271031D02*
X3382086Y-10261508D01*
X3382086Y-10261508D02*
X3401134Y-10251984D01*
X3553515Y-10432936D02*
X3563039Y-10442460D01*
X3563039Y-10442460D02*
X3553515Y-10451984D01*
X3553515Y-10451984D02*
X3543991Y-10442460D01*
X3543991Y-10442460D02*
X3553515Y-10432936D01*
X3553515Y-10432936D02*
X3553515Y-10451984D01*
X3753515Y-10451984D02*
X3639229Y-10451984D01*
X3696372Y-10451984D02*
X3696372Y-10251984D01*
X3696372Y-10251984D02*
X3677325Y-10280555D01*
X3677325Y-10280555D02*
X3658277Y-10299603D01*
X3658277Y-10299603D02*
X3639229Y-10309127D01*
X3829706Y-10271031D02*
X3839229Y-10261508D01*
X3839229Y-10261508D02*
X3858277Y-10251984D01*
X3858277Y-10251984D02*
X3905896Y-10251984D01*
X3905896Y-10251984D02*
X3924944Y-10261508D01*
X3924944Y-10261508D02*
X3934467Y-10271031D01*
X3934467Y-10271031D02*
X3943991Y-10290079D01*
X3943991Y-10290079D02*
X3943991Y-10309127D01*
X3943991Y-10309127D02*
X3934467Y-10337698D01*
X3934467Y-10337698D02*
X3820182Y-10451984D01*
X3820182Y-10451984D02*
X3943991Y-10451984D01*
X4115420Y-10251984D02*
X4077325Y-10251984D01*
X4077325Y-10251984D02*
X4058277Y-10261508D01*
X4058277Y-10261508D02*
X4048753Y-10271031D01*
X4048753Y-10271031D02*
X4029706Y-10299603D01*
X4029706Y-10299603D02*
X4020182Y-10337698D01*
X4020182Y-10337698D02*
X4020182Y-10413889D01*
X4020182Y-10413889D02*
X4029706Y-10432936D01*
X4029706Y-10432936D02*
X4039229Y-10442460D01*
X4039229Y-10442460D02*
X4058277Y-10451984D01*
X4058277Y-10451984D02*
X4096372Y-10451984D01*
X4096372Y-10451984D02*
X4115420Y-10442460D01*
X4115420Y-10442460D02*
X4124944Y-10432936D01*
X4124944Y-10432936D02*
X4134467Y-10413889D01*
X4134467Y-10413889D02*
X4134467Y-10366270D01*
X4134467Y-10366270D02*
X4124944Y-10347222D01*
X4124944Y-10347222D02*
X4115420Y-10337698D01*
X4115420Y-10337698D02*
X4096372Y-10328174D01*
X4096372Y-10328174D02*
X4058277Y-10328174D01*
X4058277Y-10328174D02*
X4039229Y-10337698D01*
X4039229Y-10337698D02*
X4029706Y-10347222D01*
X4029706Y-10347222D02*
X4020182Y-10366270D01*
X4258277Y-10251984D02*
X4277325Y-10251984D01*
X4277325Y-10251984D02*
X4296372Y-10261508D01*
X4296372Y-10261508D02*
X4305896Y-10271031D01*
X4305896Y-10271031D02*
X4315420Y-10290079D01*
X4315420Y-10290079D02*
X4324944Y-10328174D01*
X4324944Y-10328174D02*
X4324944Y-10375793D01*
X4324944Y-10375793D02*
X4315420Y-10413889D01*
X4315420Y-10413889D02*
X4305896Y-10432936D01*
X4305896Y-10432936D02*
X4296372Y-10442460D01*
X4296372Y-10442460D02*
X4277325Y-10451984D01*
X4277325Y-10451984D02*
X4258277Y-10451984D01*
X4258277Y-10451984D02*
X4239229Y-10442460D01*
X4239229Y-10442460D02*
X4229706Y-10432936D01*
X4229706Y-10432936D02*
X4220182Y-10413889D01*
X4220182Y-10413889D02*
X4210658Y-10375793D01*
X4210658Y-10375793D02*
X4210658Y-10328174D01*
X4210658Y-10328174D02*
X4220182Y-10290079D01*
X4220182Y-10290079D02*
X4229706Y-10271031D01*
X4229706Y-10271031D02*
X4239229Y-10261508D01*
X4239229Y-10261508D02*
X4258277Y-10251984D01*
X4401134Y-10251984D02*
X4401134Y-10290079D01*
X4477325Y-10251984D02*
X4477325Y-10290079D01*
X4772563Y-10528174D02*
X4763039Y-10518650D01*
X4763039Y-10518650D02*
X4743991Y-10490079D01*
X4743991Y-10490079D02*
X4734468Y-10471031D01*
X4734468Y-10471031D02*
X4724944Y-10442460D01*
X4724944Y-10442460D02*
X4715420Y-10394841D01*
X4715420Y-10394841D02*
X4715420Y-10356746D01*
X4715420Y-10356746D02*
X4724944Y-10309127D01*
X4724944Y-10309127D02*
X4734468Y-10280555D01*
X4734468Y-10280555D02*
X4743991Y-10261508D01*
X4743991Y-10261508D02*
X4763039Y-10232936D01*
X4763039Y-10232936D02*
X4772563Y-10223412D01*
X4934468Y-10318650D02*
X4934468Y-10451984D01*
X4886849Y-10242460D02*
X4839230Y-10385317D01*
X4839230Y-10385317D02*
X4963039Y-10385317D01*
X5191611Y-10451984D02*
X5191611Y-10251984D01*
X5277325Y-10451984D02*
X5277325Y-10347222D01*
X5277325Y-10347222D02*
X5267801Y-10328174D01*
X5267801Y-10328174D02*
X5248753Y-10318650D01*
X5248753Y-10318650D02*
X5220182Y-10318650D01*
X5220182Y-10318650D02*
X5201134Y-10328174D01*
X5201134Y-10328174D02*
X5191611Y-10337698D01*
X5401134Y-10451984D02*
X5382087Y-10442460D01*
X5382087Y-10442460D02*
X5372563Y-10432936D01*
X5372563Y-10432936D02*
X5363039Y-10413889D01*
X5363039Y-10413889D02*
X5363039Y-10356746D01*
X5363039Y-10356746D02*
X5372563Y-10337698D01*
X5372563Y-10337698D02*
X5382087Y-10328174D01*
X5382087Y-10328174D02*
X5401134Y-10318650D01*
X5401134Y-10318650D02*
X5429706Y-10318650D01*
X5429706Y-10318650D02*
X5448753Y-10328174D01*
X5448753Y-10328174D02*
X5458277Y-10337698D01*
X5458277Y-10337698D02*
X5467801Y-10356746D01*
X5467801Y-10356746D02*
X5467801Y-10413889D01*
X5467801Y-10413889D02*
X5458277Y-10432936D01*
X5458277Y-10432936D02*
X5448753Y-10442460D01*
X5448753Y-10442460D02*
X5429706Y-10451984D01*
X5429706Y-10451984D02*
X5401134Y-10451984D01*
X5582087Y-10451984D02*
X5563039Y-10442460D01*
X5563039Y-10442460D02*
X5553515Y-10423412D01*
X5553515Y-10423412D02*
X5553515Y-10251984D01*
X5734468Y-10442460D02*
X5715420Y-10451984D01*
X5715420Y-10451984D02*
X5677325Y-10451984D01*
X5677325Y-10451984D02*
X5658277Y-10442460D01*
X5658277Y-10442460D02*
X5648753Y-10423412D01*
X5648753Y-10423412D02*
X5648753Y-10347222D01*
X5648753Y-10347222D02*
X5658277Y-10328174D01*
X5658277Y-10328174D02*
X5677325Y-10318650D01*
X5677325Y-10318650D02*
X5715420Y-10318650D01*
X5715420Y-10318650D02*
X5734468Y-10328174D01*
X5734468Y-10328174D02*
X5743991Y-10347222D01*
X5743991Y-10347222D02*
X5743991Y-10366270D01*
X5743991Y-10366270D02*
X5648753Y-10385317D01*
X5820182Y-10442460D02*
X5839230Y-10451984D01*
X5839230Y-10451984D02*
X5877325Y-10451984D01*
X5877325Y-10451984D02*
X5896372Y-10442460D01*
X5896372Y-10442460D02*
X5905896Y-10423412D01*
X5905896Y-10423412D02*
X5905896Y-10413889D01*
X5905896Y-10413889D02*
X5896372Y-10394841D01*
X5896372Y-10394841D02*
X5877325Y-10385317D01*
X5877325Y-10385317D02*
X5848753Y-10385317D01*
X5848753Y-10385317D02*
X5829706Y-10375793D01*
X5829706Y-10375793D02*
X5820182Y-10356746D01*
X5820182Y-10356746D02*
X5820182Y-10347222D01*
X5820182Y-10347222D02*
X5829706Y-10328174D01*
X5829706Y-10328174D02*
X5848753Y-10318650D01*
X5848753Y-10318650D02*
X5877325Y-10318650D01*
X5877325Y-10318650D02*
X5896372Y-10328174D01*
X5972563Y-10528174D02*
X5982087Y-10518650D01*
X5982087Y-10518650D02*
X6001134Y-10490079D01*
X6001134Y-10490079D02*
X6010658Y-10471031D01*
X6010658Y-10471031D02*
X6020182Y-10442460D01*
X6020182Y-10442460D02*
X6029706Y-10394841D01*
X6029706Y-10394841D02*
X6029706Y-10356746D01*
X6029706Y-10356746D02*
X6020182Y-10309127D01*
X6020182Y-10309127D02*
X6010658Y-10280555D01*
X6010658Y-10280555D02*
X6001134Y-10261508D01*
X6001134Y-10261508D02*
X5982087Y-10232936D01*
X5982087Y-10232936D02*
X5972563Y-10223412D01*
M02*
