%TF.GenerationSoftware,KiCad,Pcbnew,8.0.8*%
%TF.CreationDate,2025-07-15T12:33:29-07:00*%
%TF.ProjectId,complete_SR1,636f6d70-6c65-4746-955f-5352312e6b69,rev?*%
%TF.SameCoordinates,Original*%
%TF.FileFunction,Soldermask,Bot*%
%TF.FilePolarity,Negative*%
%FSLAX46Y46*%
G04 Gerber Fmt 4.6, Leading zero omitted, Abs format (unit mm)*
G04 Created by KiCad (PCBNEW 8.0.8) date 2025-07-15 12:33:29*
%MOMM*%
%LPD*%
G01*
G04 APERTURE LIST*
%ADD10C,1.700000*%
%ADD11C,1.066800*%
%ADD12C,5.600000*%
%ADD13C,2.000000*%
%ADD14R,1.700000X1.700000*%
%ADD15O,1.700000X1.700000*%
%ADD16R,2.600000X2.600000*%
%ADD17C,2.600000*%
%ADD18C,1.905000*%
%ADD19C,3.810000*%
G04 APERTURE END LIST*
D10*
%TO.C,REF\u002A\u002A554*%
X21200000Y-15520000D03*
%TD*%
%TO.C,REF\u002A\u002A554*%
X21200000Y-18060000D03*
%TD*%
%TO.C,REF\u002A\u002A554*%
X21200000Y-23140000D03*
%TD*%
%TO.C,REF\u002A\u002A554*%
X21200000Y-20600000D03*
%TD*%
%TO.C,REF\u002A\u002A554*%
X18660000Y-15520000D03*
%TD*%
%TO.C,REF\u002A\u002A554*%
X18660000Y-18060000D03*
%TD*%
%TO.C,REF\u002A\u002A554*%
X18660000Y-23140000D03*
%TD*%
%TO.C,REF\u002A\u002A554*%
X18660000Y-20600000D03*
%TD*%
%TO.C,REF\u002A\u002A554*%
X16120000Y-23140000D03*
%TD*%
%TO.C,REF\u002A\u002A554*%
X16120000Y-25680000D03*
%TD*%
%TO.C,REF\u002A\u002A554*%
X16120000Y-15520000D03*
%TD*%
%TO.C,REF\u002A\u002A554*%
X16120000Y-30760000D03*
%TD*%
%TO.C,REF\u002A\u002A554*%
X16120000Y-28220000D03*
%TD*%
%TO.C,REF\u002A\u002A554*%
X16120000Y-20600000D03*
%TD*%
%TO.C,REF\u002A\u002A554*%
X16120000Y-18060000D03*
%TD*%
%TO.C,REF\u002A\u002A554*%
X26270000Y-30750000D03*
%TD*%
%TO.C,REF\u002A\u002A554*%
X23730000Y-30750000D03*
%TD*%
%TO.C,REF\u002A\u002A554*%
X33890000Y-30750000D03*
%TD*%
%TO.C,REF\u002A\u002A554*%
X18650000Y-30750000D03*
%TD*%
%TO.C,REF\u002A\u002A554*%
X21190000Y-30750000D03*
%TD*%
%TO.C,REF\u002A\u002A554*%
X28810000Y-30750000D03*
%TD*%
%TO.C,REF\u002A\u002A554*%
X31350000Y-30750000D03*
%TD*%
%TO.C,REF\u002A\u002A554*%
X21190000Y-28210000D03*
%TD*%
%TO.C,REF\u002A\u002A554*%
X26270000Y-28210000D03*
%TD*%
%TO.C,REF\u002A\u002A554*%
X23730000Y-28210000D03*
%TD*%
%TO.C,REF\u002A\u002A554*%
X28810000Y-28210000D03*
%TD*%
%TO.C,REF\u002A\u002A554*%
X33890000Y-28210000D03*
%TD*%
%TO.C,REF\u002A\u002A554*%
X18650000Y-28210000D03*
%TD*%
%TO.C,REF\u002A\u002A554*%
X31350000Y-28210000D03*
%TD*%
%TO.C,REF\u002A\u002A554*%
X21190000Y-25670000D03*
%TD*%
%TO.C,REF\u002A\u002A554*%
X31350000Y-25670000D03*
%TD*%
%TO.C,REF\u002A\u002A554*%
X26270000Y-25670000D03*
%TD*%
%TO.C,REF\u002A\u002A554*%
X18650000Y-25670000D03*
%TD*%
%TO.C,REF\u002A\u002A554*%
X23730000Y-25670000D03*
%TD*%
%TO.C,REF\u002A\u002A554*%
X28810000Y-25670000D03*
%TD*%
%TO.C,REF\u002A\u002A554*%
X33890000Y-25670000D03*
%TD*%
%TO.C,REF\u002A\u002A554*%
X79740000Y-33940000D03*
%TD*%
%TO.C,REF\u002A\u002A554*%
X89900000Y-33940000D03*
%TD*%
%TO.C,REF\u002A\u002A554*%
X84820000Y-33940000D03*
%TD*%
%TO.C,REF\u002A\u002A554*%
X77200000Y-33940000D03*
%TD*%
%TO.C,REF\u002A\u002A554*%
X82280000Y-33940000D03*
%TD*%
%TO.C,REF\u002A\u002A554*%
X87360000Y-33940000D03*
%TD*%
%TO.C,REF\u002A\u002A554*%
X92440000Y-33940000D03*
%TD*%
%TO.C,REF\u002A\u002A554*%
X84820000Y-31400000D03*
%TD*%
%TO.C,REF\u002A\u002A554*%
X79740000Y-31400000D03*
%TD*%
%TO.C,REF\u002A\u002A554*%
X87360000Y-31400000D03*
%TD*%
%TO.C,REF\u002A\u002A554*%
X89900000Y-31400000D03*
%TD*%
%TO.C,REF\u002A\u002A554*%
X82280000Y-31400000D03*
%TD*%
%TO.C,REF\u002A\u002A554*%
X77200000Y-31400000D03*
%TD*%
%TO.C,REF\u002A\u002A554*%
X92440000Y-31400000D03*
%TD*%
%TO.C,REF\u002A\u002A554*%
X84820000Y-28860000D03*
%TD*%
%TO.C,REF\u002A\u002A554*%
X89900000Y-28860000D03*
%TD*%
%TO.C,REF\u002A\u002A554*%
X79740000Y-28860000D03*
%TD*%
%TO.C,REF\u002A\u002A554*%
X77200000Y-28860000D03*
%TD*%
%TO.C,REF\u002A\u002A554*%
X92440000Y-28860000D03*
%TD*%
%TO.C,REF\u002A\u002A554*%
X87360000Y-28860000D03*
%TD*%
%TO.C,REF\u002A\u002A554*%
X82280000Y-28860000D03*
%TD*%
%TO.C,REF\u002A\u002A554*%
X89900000Y-26320000D03*
%TD*%
%TO.C,REF\u002A\u002A554*%
X79740000Y-26320000D03*
%TD*%
%TO.C,REF\u002A\u002A554*%
X84820000Y-26320000D03*
%TD*%
%TO.C,REF\u002A\u002A554*%
X92440000Y-26320000D03*
%TD*%
%TO.C,REF\u002A\u002A554*%
X87360000Y-26320000D03*
%TD*%
%TO.C,REF\u002A\u002A554*%
X82280000Y-26320000D03*
%TD*%
%TO.C,REF\u002A\u002A554*%
X77200000Y-26320000D03*
%TD*%
%TO.C,REF\u002A\u002A554*%
X92440000Y-23780000D03*
%TD*%
%TO.C,REF\u002A\u002A554*%
X89900000Y-23780000D03*
%TD*%
%TO.C,REF\u002A\u002A554*%
X79740000Y-23780000D03*
%TD*%
%TO.C,REF\u002A\u002A554*%
X84820000Y-23780000D03*
%TD*%
%TO.C,REF\u002A\u002A554*%
X87360000Y-23780000D03*
%TD*%
%TO.C,REF\u002A\u002A554*%
X82280000Y-23780000D03*
%TD*%
%TO.C,REF\u002A\u002A554*%
X77200000Y-23780000D03*
%TD*%
%TO.C,REF\u002A\u002A554*%
X92440000Y-21240000D03*
%TD*%
%TO.C,REF\u002A\u002A554*%
X89900000Y-21240000D03*
%TD*%
%TO.C,REF\u002A\u002A554*%
X87360000Y-21240000D03*
%TD*%
%TO.C,REF\u002A\u002A554*%
X84820000Y-21240000D03*
%TD*%
%TO.C,REF\u002A\u002A554*%
X82280000Y-21240000D03*
%TD*%
%TO.C,REF\u002A\u002A554*%
X79740000Y-21240000D03*
%TD*%
%TO.C,REF\u002A\u002A554*%
X77200000Y-21240000D03*
%TD*%
D11*
%TO.C,J3*%
X101474000Y-45470100D03*
X101474000Y-46720100D03*
%TD*%
D12*
%TO.C,H4*%
X78040000Y-62800000D03*
%TD*%
%TO.C,H3*%
X102170000Y-19620000D03*
%TD*%
%TO.C,H2*%
X27240000Y-19620000D03*
%TD*%
%TO.C,H1*%
X27240000Y-67880000D03*
%TD*%
D13*
%TO.C,SW1*%
X92200000Y-67250000D03*
X92200000Y-73250000D03*
X104200000Y-67250000D03*
X104200000Y-73250000D03*
D10*
X94200000Y-69000000D03*
X98200000Y-69000000D03*
X102200000Y-69000000D03*
%TD*%
D14*
%TO.C,J8*%
X79310000Y-16500000D03*
D15*
X79310000Y-13960000D03*
X81850000Y-16500000D03*
X81850000Y-13960000D03*
X84390000Y-16500000D03*
X84390000Y-13960000D03*
X86930000Y-16500000D03*
X86930000Y-13960000D03*
X89470000Y-16500000D03*
X89470000Y-13960000D03*
X92010000Y-16500000D03*
X92010000Y-13960000D03*
X94550000Y-16500000D03*
X94550000Y-13960000D03*
X97090000Y-16500000D03*
X97090000Y-13960000D03*
%TD*%
D16*
%TO.C,J2*%
X102905000Y-59945000D03*
D17*
X102905000Y-54865000D03*
%TD*%
D14*
%TO.C,J9*%
X74240000Y-70700000D03*
D15*
X74240000Y-73240000D03*
X71700000Y-70700000D03*
X71700000Y-73240000D03*
X69160000Y-70700000D03*
X69160000Y-73240000D03*
X66620000Y-70700000D03*
X66620000Y-73240000D03*
X64080000Y-70700000D03*
X64080000Y-73240000D03*
X61540000Y-70700000D03*
X61540000Y-73240000D03*
%TD*%
D14*
%TO.C,J7*%
X61350000Y-16500000D03*
D15*
X61350000Y-13960000D03*
X63890000Y-16500000D03*
X63890000Y-13960000D03*
X66430000Y-16500000D03*
X66430000Y-13960000D03*
X68970000Y-16500000D03*
X68970000Y-13960000D03*
X71510000Y-16500000D03*
X71510000Y-13960000D03*
X74050000Y-16500000D03*
X74050000Y-13960000D03*
%TD*%
D14*
%TO.C,J6*%
X32320000Y-16500000D03*
D15*
X32320000Y-13960000D03*
X34860000Y-16500000D03*
X34860000Y-13960000D03*
X37400000Y-16500000D03*
X37400000Y-13960000D03*
X39940000Y-16500000D03*
X39940000Y-13960000D03*
X42480000Y-16500000D03*
X42480000Y-13960000D03*
X45020000Y-16500000D03*
X45020000Y-13960000D03*
X47560000Y-16500000D03*
X47560000Y-13960000D03*
X50100000Y-16500000D03*
X50100000Y-13960000D03*
X52640000Y-16500000D03*
X52640000Y-13960000D03*
X55180000Y-16500000D03*
X55180000Y-13960000D03*
%TD*%
D18*
%TO.C,J5*%
X44320000Y-66220000D03*
D19*
X49400000Y-71300000D03*
D18*
X46860000Y-66220000D03*
D19*
X39240000Y-71300000D03*
%TD*%
%TO.C,J1*%
X16800000Y-35500000D03*
D18*
X21880000Y-43120000D03*
D19*
X16800000Y-45660000D03*
D18*
X21880000Y-40580000D03*
%TD*%
M02*
