%TF.GenerationSoftware,KiCad,Pcbnew,8.0.8*%
%TF.CreationDate,2025-07-15T12:33:29-07:00*%
%TF.ProjectId,complete_SR1,636f6d70-6c65-4746-955f-5352312e6b69,rev?*%
%TF.SameCoordinates,Original*%
%TF.FileFunction,Copper,L2,Inr*%
%TF.FilePolarity,Positive*%
%FSLAX46Y46*%
G04 Gerber Fmt 4.6, Leading zero omitted, Abs format (unit mm)*
G04 Created by KiCad (PCBNEW 8.0.8) date 2025-07-15 12:33:29*
%MOMM*%
%LPD*%
G01*
G04 APERTURE LIST*
%TA.AperFunction,ComponentPad*%
%ADD10C,1.700000*%
%TD*%
%TA.AperFunction,ComponentPad*%
%ADD11C,1.066800*%
%TD*%
%TA.AperFunction,ComponentPad*%
%ADD12C,5.600000*%
%TD*%
%TA.AperFunction,ComponentPad*%
%ADD13C,2.000000*%
%TD*%
%TA.AperFunction,ComponentPad*%
%ADD14R,1.700000X1.700000*%
%TD*%
%TA.AperFunction,ComponentPad*%
%ADD15O,1.700000X1.700000*%
%TD*%
%TA.AperFunction,ComponentPad*%
%ADD16R,2.600000X2.600000*%
%TD*%
%TA.AperFunction,ComponentPad*%
%ADD17C,2.600000*%
%TD*%
%TA.AperFunction,ComponentPad*%
%ADD18C,1.905000*%
%TD*%
%TA.AperFunction,ComponentPad*%
%ADD19C,3.810000*%
%TD*%
%TA.AperFunction,ViaPad*%
%ADD20C,0.600000*%
%TD*%
G04 APERTURE END LIST*
D10*
%TO.N,*%
%TO.C,REF\u002A\u002A554*%
X21200000Y-15520000D03*
%TD*%
%TO.N,*%
%TO.C,REF\u002A\u002A554*%
X21200000Y-18060000D03*
%TD*%
%TO.N,*%
%TO.C,REF\u002A\u002A554*%
X21200000Y-23140000D03*
%TD*%
%TO.N,*%
%TO.C,REF\u002A\u002A554*%
X21200000Y-20600000D03*
%TD*%
%TO.N,*%
%TO.C,REF\u002A\u002A554*%
X18660000Y-15520000D03*
%TD*%
%TO.N,*%
%TO.C,REF\u002A\u002A554*%
X18660000Y-18060000D03*
%TD*%
%TO.N,*%
%TO.C,REF\u002A\u002A554*%
X18660000Y-23140000D03*
%TD*%
%TO.N,*%
%TO.C,REF\u002A\u002A554*%
X18660000Y-20600000D03*
%TD*%
%TO.N,*%
%TO.C,REF\u002A\u002A554*%
X16120000Y-23140000D03*
%TD*%
%TO.N,*%
%TO.C,REF\u002A\u002A554*%
X16120000Y-25680000D03*
%TD*%
%TO.N,*%
%TO.C,REF\u002A\u002A554*%
X16120000Y-15520000D03*
%TD*%
%TO.N,*%
%TO.C,REF\u002A\u002A554*%
X16120000Y-30760000D03*
%TD*%
%TO.N,*%
%TO.C,REF\u002A\u002A554*%
X16120000Y-28220000D03*
%TD*%
%TO.N,*%
%TO.C,REF\u002A\u002A554*%
X16120000Y-20600000D03*
%TD*%
%TO.N,*%
%TO.C,REF\u002A\u002A554*%
X16120000Y-18060000D03*
%TD*%
%TO.N,*%
%TO.C,REF\u002A\u002A554*%
X26270000Y-30750000D03*
%TD*%
%TO.N,*%
%TO.C,REF\u002A\u002A554*%
X23730000Y-30750000D03*
%TD*%
%TO.N,*%
%TO.C,REF\u002A\u002A554*%
X33890000Y-30750000D03*
%TD*%
%TO.N,*%
%TO.C,REF\u002A\u002A554*%
X18650000Y-30750000D03*
%TD*%
%TO.N,*%
%TO.C,REF\u002A\u002A554*%
X21190000Y-30750000D03*
%TD*%
%TO.N,*%
%TO.C,REF\u002A\u002A554*%
X28810000Y-30750000D03*
%TD*%
%TO.N,*%
%TO.C,REF\u002A\u002A554*%
X31350000Y-30750000D03*
%TD*%
%TO.N,*%
%TO.C,REF\u002A\u002A554*%
X21190000Y-28210000D03*
%TD*%
%TO.N,*%
%TO.C,REF\u002A\u002A554*%
X26270000Y-28210000D03*
%TD*%
%TO.N,*%
%TO.C,REF\u002A\u002A554*%
X23730000Y-28210000D03*
%TD*%
%TO.N,*%
%TO.C,REF\u002A\u002A554*%
X28810000Y-28210000D03*
%TD*%
%TO.N,*%
%TO.C,REF\u002A\u002A554*%
X33890000Y-28210000D03*
%TD*%
%TO.N,*%
%TO.C,REF\u002A\u002A554*%
X18650000Y-28210000D03*
%TD*%
%TO.N,*%
%TO.C,REF\u002A\u002A554*%
X31350000Y-28210000D03*
%TD*%
%TO.N,*%
%TO.C,REF\u002A\u002A554*%
X21190000Y-25670000D03*
%TD*%
%TO.N,*%
%TO.C,REF\u002A\u002A554*%
X31350000Y-25670000D03*
%TD*%
%TO.N,*%
%TO.C,REF\u002A\u002A554*%
X26270000Y-25670000D03*
%TD*%
%TO.N,*%
%TO.C,REF\u002A\u002A554*%
X18650000Y-25670000D03*
%TD*%
%TO.N,*%
%TO.C,REF\u002A\u002A554*%
X23730000Y-25670000D03*
%TD*%
%TO.N,*%
%TO.C,REF\u002A\u002A554*%
X28810000Y-25670000D03*
%TD*%
%TO.N,*%
%TO.C,REF\u002A\u002A554*%
X33890000Y-25670000D03*
%TD*%
%TO.N,*%
%TO.C,REF\u002A\u002A554*%
X79740000Y-33940000D03*
%TD*%
%TO.N,*%
%TO.C,REF\u002A\u002A554*%
X89900000Y-33940000D03*
%TD*%
%TO.N,*%
%TO.C,REF\u002A\u002A554*%
X84820000Y-33940000D03*
%TD*%
%TO.N,*%
%TO.C,REF\u002A\u002A554*%
X77200000Y-33940000D03*
%TD*%
%TO.N,*%
%TO.C,REF\u002A\u002A554*%
X82280000Y-33940000D03*
%TD*%
%TO.N,*%
%TO.C,REF\u002A\u002A554*%
X87360000Y-33940000D03*
%TD*%
%TO.N,*%
%TO.C,REF\u002A\u002A554*%
X92440000Y-33940000D03*
%TD*%
%TO.N,*%
%TO.C,REF\u002A\u002A554*%
X84820000Y-31400000D03*
%TD*%
%TO.N,*%
%TO.C,REF\u002A\u002A554*%
X79740000Y-31400000D03*
%TD*%
%TO.N,*%
%TO.C,REF\u002A\u002A554*%
X87360000Y-31400000D03*
%TD*%
%TO.N,*%
%TO.C,REF\u002A\u002A554*%
X89900000Y-31400000D03*
%TD*%
%TO.N,*%
%TO.C,REF\u002A\u002A554*%
X82280000Y-31400000D03*
%TD*%
%TO.N,*%
%TO.C,REF\u002A\u002A554*%
X77200000Y-31400000D03*
%TD*%
%TO.N,*%
%TO.C,REF\u002A\u002A554*%
X92440000Y-31400000D03*
%TD*%
%TO.N,*%
%TO.C,REF\u002A\u002A554*%
X84820000Y-28860000D03*
%TD*%
%TO.N,*%
%TO.C,REF\u002A\u002A554*%
X89900000Y-28860000D03*
%TD*%
%TO.N,*%
%TO.C,REF\u002A\u002A554*%
X79740000Y-28860000D03*
%TD*%
%TO.N,*%
%TO.C,REF\u002A\u002A554*%
X77200000Y-28860000D03*
%TD*%
%TO.N,*%
%TO.C,REF\u002A\u002A554*%
X92440000Y-28860000D03*
%TD*%
%TO.N,*%
%TO.C,REF\u002A\u002A554*%
X87360000Y-28860000D03*
%TD*%
%TO.N,*%
%TO.C,REF\u002A\u002A554*%
X82280000Y-28860000D03*
%TD*%
%TO.N,*%
%TO.C,REF\u002A\u002A554*%
X89900000Y-26320000D03*
%TD*%
%TO.N,*%
%TO.C,REF\u002A\u002A554*%
X79740000Y-26320000D03*
%TD*%
%TO.N,*%
%TO.C,REF\u002A\u002A554*%
X84820000Y-26320000D03*
%TD*%
%TO.N,*%
%TO.C,REF\u002A\u002A554*%
X92440000Y-26320000D03*
%TD*%
%TO.N,*%
%TO.C,REF\u002A\u002A554*%
X87360000Y-26320000D03*
%TD*%
%TO.N,*%
%TO.C,REF\u002A\u002A554*%
X82280000Y-26320000D03*
%TD*%
%TO.N,*%
%TO.C,REF\u002A\u002A554*%
X77200000Y-26320000D03*
%TD*%
%TO.N,*%
%TO.C,REF\u002A\u002A554*%
X92440000Y-23780000D03*
%TD*%
%TO.N,*%
%TO.C,REF\u002A\u002A554*%
X89900000Y-23780000D03*
%TD*%
%TO.N,*%
%TO.C,REF\u002A\u002A554*%
X79740000Y-23780000D03*
%TD*%
%TO.N,*%
%TO.C,REF\u002A\u002A554*%
X84820000Y-23780000D03*
%TD*%
%TO.N,*%
%TO.C,REF\u002A\u002A554*%
X87360000Y-23780000D03*
%TD*%
%TO.N,*%
%TO.C,REF\u002A\u002A554*%
X82280000Y-23780000D03*
%TD*%
%TO.N,*%
%TO.C,REF\u002A\u002A554*%
X77200000Y-23780000D03*
%TD*%
%TO.N,*%
%TO.C,REF\u002A\u002A554*%
X92440000Y-21240000D03*
%TD*%
%TO.N,*%
%TO.C,REF\u002A\u002A554*%
X89900000Y-21240000D03*
%TD*%
%TO.N,*%
%TO.C,REF\u002A\u002A554*%
X87360000Y-21240000D03*
%TD*%
%TO.N,*%
%TO.C,REF\u002A\u002A554*%
X84820000Y-21240000D03*
%TD*%
%TO.N,*%
%TO.C,REF\u002A\u002A554*%
X82280000Y-21240000D03*
%TD*%
%TO.N,*%
%TO.C,REF\u002A\u002A554*%
X79740000Y-21240000D03*
%TD*%
%TO.N,*%
%TO.C,REF\u002A\u002A554*%
X77200000Y-21240000D03*
%TD*%
D11*
%TO.N,GND*%
%TO.C,J3*%
X101474000Y-45470100D03*
%TO.N,/3V7B*%
X101474000Y-46720100D03*
%TD*%
D12*
%TO.N,GND*%
%TO.C,H4*%
X78040000Y-62800000D03*
%TD*%
%TO.N,GND*%
%TO.C,H3*%
X102170000Y-19620000D03*
%TD*%
%TO.N,GND*%
%TO.C,H2*%
X27240000Y-19620000D03*
%TD*%
%TO.N,GND*%
%TO.C,H1*%
X27240000Y-67880000D03*
%TD*%
D13*
%TO.N,*%
%TO.C,SW1*%
X92200000Y-67250000D03*
X92200000Y-73250000D03*
X104200000Y-67250000D03*
X104200000Y-73250000D03*
D10*
%TO.N,/3V7P*%
X94200000Y-69000000D03*
%TO.N,/3V7*%
X98200000Y-69000000D03*
%TO.N,/3V7B*%
X102200000Y-69000000D03*
%TD*%
D14*
%TO.N,unconnected-(J8-Pin_1-Pad1)*%
%TO.C,J8*%
X79310000Y-16500000D03*
D15*
%TO.N,GND*%
X79310000Y-13960000D03*
%TO.N,/DAC_DIN*%
X81850000Y-16500000D03*
%TO.N,GND*%
X81850000Y-13960000D03*
%TO.N,/DAC_SCLK*%
X84390000Y-16500000D03*
%TO.N,GND*%
X84390000Y-13960000D03*
%TO.N,unconnected-(J8-Pin_7-Pad7)*%
X86930000Y-16500000D03*
%TO.N,GND*%
X86930000Y-13960000D03*
%TO.N,unconnected-(J8-Pin_9-Pad9)*%
X89470000Y-16500000D03*
%TO.N,GND*%
X89470000Y-13960000D03*
%TO.N,unconnected-(J8-Pin_11-Pad11)*%
X92010000Y-16500000D03*
%TO.N,GND*%
X92010000Y-13960000D03*
%TO.N,/DAC_SYNC*%
X94550000Y-16500000D03*
%TO.N,GND*%
X94550000Y-13960000D03*
%TO.N,/PWR_EN*%
X97090000Y-16500000D03*
%TO.N,GND*%
X97090000Y-13960000D03*
%TD*%
D16*
%TO.N,/3V7P*%
%TO.C,J2*%
X102905000Y-59945000D03*
D17*
%TO.N,GND*%
X102905000Y-54865000D03*
%TD*%
D14*
%TO.N,/AIN0*%
%TO.C,J9*%
X74240000Y-70700000D03*
D15*
%TO.N,GND*%
X74240000Y-73240000D03*
%TO.N,/V_VG{slash}AIN1*%
X71700000Y-70700000D03*
%TO.N,GND*%
X71700000Y-73240000D03*
%TO.N,/V_INN{slash}AIN2*%
X69160000Y-70700000D03*
%TO.N,GND*%
X69160000Y-73240000D03*
%TO.N,/V_REF{slash}AIN3*%
X66620000Y-70700000D03*
%TO.N,GND*%
X66620000Y-73240000D03*
%TO.N,/V_FS{slash}AIN4*%
X64080000Y-70700000D03*
%TO.N,GND*%
X64080000Y-73240000D03*
%TO.N,/EXC{slash}AIN5*%
X61540000Y-70700000D03*
%TO.N,GND*%
X61540000Y-73240000D03*
%TD*%
D14*
%TO.N,/SINE_MODE*%
%TO.C,J7*%
X61350000Y-16500000D03*
D15*
%TO.N,GND*%
X61350000Y-13960000D03*
%TO.N,/RHEO_SYNC_100*%
X63890000Y-16500000D03*
%TO.N,GND*%
X63890000Y-13960000D03*
%TO.N,/RHEO_SCLK*%
X66430000Y-16500000D03*
%TO.N,GND*%
X66430000Y-13960000D03*
%TO.N,/RHEO_DIN*%
X68970000Y-16500000D03*
%TO.N,GND*%
X68970000Y-13960000D03*
%TO.N,/RHEO_SDO*%
X71510000Y-16500000D03*
%TO.N,GND*%
X71510000Y-13960000D03*
%TO.N,/INAMP_SHDN*%
X74050000Y-16500000D03*
%TO.N,GND*%
X74050000Y-13960000D03*
%TD*%
D14*
%TO.N,/OSC_OE*%
%TO.C,J6*%
X32320000Y-16500000D03*
D15*
%TO.N,GND*%
X32320000Y-13960000D03*
%TO.N,/DDS_FSYNC*%
X34860000Y-16500000D03*
%TO.N,GND*%
X34860000Y-13960000D03*
%TO.N,/DDS_SCLK*%
X37400000Y-16500000D03*
%TO.N,GND*%
X37400000Y-13960000D03*
%TO.N,unconnected-(J6-Pin_7-Pad7)*%
X39940000Y-16500000D03*
%TO.N,GND*%
X39940000Y-13960000D03*
%TO.N,/DDS_SDATA*%
X42480000Y-16500000D03*
%TO.N,GND*%
X42480000Y-13960000D03*
%TO.N,/RHEO_SYNC_20*%
X45020000Y-16500000D03*
%TO.N,GND*%
X45020000Y-13960000D03*
%TO.N,/MUX_EN*%
X47560000Y-16500000D03*
%TO.N,GND*%
X47560000Y-13960000D03*
%TO.N,/MUX0*%
X50100000Y-16500000D03*
%TO.N,GND*%
X50100000Y-13960000D03*
%TO.N,/MUX1*%
X52640000Y-16500000D03*
%TO.N,GND*%
X52640000Y-13960000D03*
%TO.N,/MUX2*%
X55180000Y-16500000D03*
%TO.N,GND*%
X55180000Y-13960000D03*
%TD*%
D18*
%TO.N,/EXC{slash}AIN5*%
%TO.C,J5*%
X44320000Y-66220000D03*
D19*
%TO.N,GND*%
X49400000Y-71300000D03*
D18*
X46860000Y-66220000D03*
D19*
X39240000Y-71300000D03*
%TD*%
%TO.N,GND*%
%TO.C,J1*%
X16800000Y-35500000D03*
D18*
X21880000Y-43120000D03*
D19*
X16800000Y-45660000D03*
D18*
%TO.N,/DATA_IN*%
X21880000Y-40580000D03*
%TD*%
D20*
%TO.N,GND*%
X75852500Y-43267500D03*
X20640000Y-72230000D03*
X59740000Y-40490000D03*
X30060000Y-49010000D03*
X96700000Y-28940000D03*
%TO.N,/3V3*%
X70400000Y-56380000D03*
%TO.N,GND*%
X68650000Y-43440000D03*
%TO.N,/3V3*%
X66410000Y-45150000D03*
%TO.N,GND*%
X64110000Y-44990000D03*
X50380000Y-38420000D03*
%TO.N,/3V3*%
X46370000Y-32840000D03*
X68500000Y-30220000D03*
%TO.N,GND*%
X52150000Y-27730000D03*
X48520000Y-27720000D03*
X45900000Y-27650000D03*
X40840000Y-26270000D03*
X55620000Y-27880000D03*
X63600000Y-27460000D03*
%TO.N,/3V3*%
X60070000Y-29400000D03*
%TO.N,GND*%
X61560000Y-34590000D03*
%TO.N,/EXC{slash}AIN5*%
X48190000Y-54950000D03*
X52240000Y-36100000D03*
%TO.N,GND*%
X41860000Y-35200000D03*
X43480000Y-44930000D03*
X16300000Y-62950000D03*
%TO.N,/OSC_OE*%
X14400000Y-68300000D03*
%TO.N,/DDS_FSYNC*%
X27400000Y-57600000D03*
%TO.N,/DDS_SCLK*%
X26600000Y-58400000D03*
%TO.N,/DDS_SDATA*%
X25900000Y-59100000D03*
%TO.N,/DAC_SYNC*%
X72700000Y-52400000D03*
%TO.N,/DAC_SCLK*%
X73300000Y-51700000D03*
%TO.N,/DAC_DIN*%
X73900000Y-51000000D03*
%TO.N,/RHEO_SDO*%
X43500000Y-58600000D03*
%TO.N,/RHEO_DIN*%
X43900000Y-56800000D03*
%TO.N,/RHEO_SDO*%
X72360000Y-36000000D03*
%TO.N,/RHEO_DIN*%
X71500000Y-33400000D03*
%TO.N,/RHEO_SCLK*%
X44581000Y-55600000D03*
X70400000Y-33700000D03*
%TO.N,/SINE_MODE*%
X59300000Y-53600000D03*
X61350000Y-32750000D03*
%TO.N,/RHEO_SYNC_20*%
X43200000Y-54600000D03*
X39800000Y-35900000D03*
%TO.N,GND*%
X45200000Y-46800000D03*
X54980000Y-30017500D03*
%TO.N,/MUX0*%
X40900000Y-35900000D03*
%TO.N,/MUX_EN*%
X43100000Y-27400000D03*
X43100000Y-39900000D03*
%TO.N,/MUX0*%
X40800000Y-39800000D03*
%TO.N,/V_VG{slash}AIN1*%
X59100000Y-47125000D03*
X65200000Y-51000000D03*
%TO.N,/V_INN{slash}AIN2*%
X64000000Y-47900000D03*
X64000000Y-50500000D03*
%TO.N,GND*%
X56300000Y-53100000D03*
X56100000Y-50500000D03*
%TO.N,/3V3*%
X70962500Y-49537500D03*
%TO.N,GND*%
X71262500Y-47462500D03*
%TO.N,/V_REF{slash}AIN3*%
X62900000Y-38300000D03*
X62959324Y-50059324D03*
%TO.N,GND*%
X95062500Y-62437500D03*
X86200000Y-61700000D03*
X99300000Y-38500000D03*
X97200000Y-41200000D03*
X97300000Y-37300000D03*
%TO.N,/3V3*%
X87550000Y-41300000D03*
%TO.N,GND*%
X91777500Y-45622500D03*
X91835000Y-52335000D03*
X86437500Y-51662500D03*
%TO.N,/3V3*%
X94962500Y-57537500D03*
%TO.N,GND*%
X71500000Y-36000000D03*
X47037500Y-57162500D03*
%TO.N,/3V3*%
X47000000Y-59237500D03*
%TO.N,GND*%
X56875000Y-56675000D03*
X27762500Y-41337500D03*
%TO.N,/3V3*%
X31300000Y-37400000D03*
%TO.N,GND*%
X35100000Y-45300000D03*
X37700000Y-44800000D03*
%TO.N,/3V3*%
X41400000Y-51400000D03*
X35562500Y-49937500D03*
%TO.N,GND*%
X38800000Y-51600000D03*
X32100000Y-59000000D03*
X24900000Y-49800000D03*
%TO.N,/3V3*%
X27000000Y-53800000D03*
%TO.N,GND*%
X16552500Y-51647500D03*
%TO.N,/3V3*%
X20562500Y-51500000D03*
%TO.N,GND*%
X22426250Y-56726250D03*
X14450000Y-66350000D03*
%TO.N,/3V3*%
X20700000Y-66900000D03*
X16300000Y-73900000D03*
%TD*%
%TA.AperFunction,Conductor*%
%TO.N,GND*%
G36*
X63614075Y-73047007D02*
G01*
X63580000Y-73174174D01*
X63580000Y-73305826D01*
X63614075Y-73432993D01*
X63646988Y-73490000D01*
X61973012Y-73490000D01*
X62005925Y-73432993D01*
X62040000Y-73305826D01*
X62040000Y-73174174D01*
X62005925Y-73047007D01*
X61973012Y-72990000D01*
X63646988Y-72990000D01*
X63614075Y-73047007D01*
G37*
%TD.AperFunction*%
%TA.AperFunction,Conductor*%
G36*
X66154075Y-73047007D02*
G01*
X66120000Y-73174174D01*
X66120000Y-73305826D01*
X66154075Y-73432993D01*
X66186988Y-73490000D01*
X64513012Y-73490000D01*
X64545925Y-73432993D01*
X64580000Y-73305826D01*
X64580000Y-73174174D01*
X64545925Y-73047007D01*
X64513012Y-72990000D01*
X66186988Y-72990000D01*
X66154075Y-73047007D01*
G37*
%TD.AperFunction*%
%TA.AperFunction,Conductor*%
G36*
X68694075Y-73047007D02*
G01*
X68660000Y-73174174D01*
X68660000Y-73305826D01*
X68694075Y-73432993D01*
X68726988Y-73490000D01*
X67053012Y-73490000D01*
X67085925Y-73432993D01*
X67120000Y-73305826D01*
X67120000Y-73174174D01*
X67085925Y-73047007D01*
X67053012Y-72990000D01*
X68726988Y-72990000D01*
X68694075Y-73047007D01*
G37*
%TD.AperFunction*%
%TA.AperFunction,Conductor*%
G36*
X71234075Y-73047007D02*
G01*
X71200000Y-73174174D01*
X71200000Y-73305826D01*
X71234075Y-73432993D01*
X71266988Y-73490000D01*
X69593012Y-73490000D01*
X69625925Y-73432993D01*
X69660000Y-73305826D01*
X69660000Y-73174174D01*
X69625925Y-73047007D01*
X69593012Y-72990000D01*
X71266988Y-72990000D01*
X71234075Y-73047007D01*
G37*
%TD.AperFunction*%
%TA.AperFunction,Conductor*%
G36*
X73774075Y-73047007D02*
G01*
X73740000Y-73174174D01*
X73740000Y-73305826D01*
X73774075Y-73432993D01*
X73806988Y-73490000D01*
X72133012Y-73490000D01*
X72165925Y-73432993D01*
X72200000Y-73305826D01*
X72200000Y-73174174D01*
X72165925Y-73047007D01*
X72133012Y-72990000D01*
X73806988Y-72990000D01*
X73774075Y-73047007D01*
G37*
%TD.AperFunction*%
%TA.AperFunction,Conductor*%
G36*
X34394075Y-13767007D02*
G01*
X34360000Y-13894174D01*
X34360000Y-14025826D01*
X34394075Y-14152993D01*
X34426988Y-14210000D01*
X32753012Y-14210000D01*
X32785925Y-14152993D01*
X32820000Y-14025826D01*
X32820000Y-13894174D01*
X32785925Y-13767007D01*
X32753012Y-13710000D01*
X34426988Y-13710000D01*
X34394075Y-13767007D01*
G37*
%TD.AperFunction*%
%TA.AperFunction,Conductor*%
G36*
X36934075Y-13767007D02*
G01*
X36900000Y-13894174D01*
X36900000Y-14025826D01*
X36934075Y-14152993D01*
X36966988Y-14210000D01*
X35293012Y-14210000D01*
X35325925Y-14152993D01*
X35360000Y-14025826D01*
X35360000Y-13894174D01*
X35325925Y-13767007D01*
X35293012Y-13710000D01*
X36966988Y-13710000D01*
X36934075Y-13767007D01*
G37*
%TD.AperFunction*%
%TA.AperFunction,Conductor*%
G36*
X39474075Y-13767007D02*
G01*
X39440000Y-13894174D01*
X39440000Y-14025826D01*
X39474075Y-14152993D01*
X39506988Y-14210000D01*
X37833012Y-14210000D01*
X37865925Y-14152993D01*
X37900000Y-14025826D01*
X37900000Y-13894174D01*
X37865925Y-13767007D01*
X37833012Y-13710000D01*
X39506988Y-13710000D01*
X39474075Y-13767007D01*
G37*
%TD.AperFunction*%
%TA.AperFunction,Conductor*%
G36*
X42014075Y-13767007D02*
G01*
X41980000Y-13894174D01*
X41980000Y-14025826D01*
X42014075Y-14152993D01*
X42046988Y-14210000D01*
X40373012Y-14210000D01*
X40405925Y-14152993D01*
X40440000Y-14025826D01*
X40440000Y-13894174D01*
X40405925Y-13767007D01*
X40373012Y-13710000D01*
X42046988Y-13710000D01*
X42014075Y-13767007D01*
G37*
%TD.AperFunction*%
%TA.AperFunction,Conductor*%
G36*
X44554075Y-13767007D02*
G01*
X44520000Y-13894174D01*
X44520000Y-14025826D01*
X44554075Y-14152993D01*
X44586988Y-14210000D01*
X42913012Y-14210000D01*
X42945925Y-14152993D01*
X42980000Y-14025826D01*
X42980000Y-13894174D01*
X42945925Y-13767007D01*
X42913012Y-13710000D01*
X44586988Y-13710000D01*
X44554075Y-13767007D01*
G37*
%TD.AperFunction*%
%TA.AperFunction,Conductor*%
G36*
X47094075Y-13767007D02*
G01*
X47060000Y-13894174D01*
X47060000Y-14025826D01*
X47094075Y-14152993D01*
X47126988Y-14210000D01*
X45453012Y-14210000D01*
X45485925Y-14152993D01*
X45520000Y-14025826D01*
X45520000Y-13894174D01*
X45485925Y-13767007D01*
X45453012Y-13710000D01*
X47126988Y-13710000D01*
X47094075Y-13767007D01*
G37*
%TD.AperFunction*%
%TA.AperFunction,Conductor*%
G36*
X49634075Y-13767007D02*
G01*
X49600000Y-13894174D01*
X49600000Y-14025826D01*
X49634075Y-14152993D01*
X49666988Y-14210000D01*
X47993012Y-14210000D01*
X48025925Y-14152993D01*
X48060000Y-14025826D01*
X48060000Y-13894174D01*
X48025925Y-13767007D01*
X47993012Y-13710000D01*
X49666988Y-13710000D01*
X49634075Y-13767007D01*
G37*
%TD.AperFunction*%
%TA.AperFunction,Conductor*%
G36*
X52174075Y-13767007D02*
G01*
X52140000Y-13894174D01*
X52140000Y-14025826D01*
X52174075Y-14152993D01*
X52206988Y-14210000D01*
X50533012Y-14210000D01*
X50565925Y-14152993D01*
X50600000Y-14025826D01*
X50600000Y-13894174D01*
X50565925Y-13767007D01*
X50533012Y-13710000D01*
X52206988Y-13710000D01*
X52174075Y-13767007D01*
G37*
%TD.AperFunction*%
%TA.AperFunction,Conductor*%
G36*
X54714075Y-13767007D02*
G01*
X54680000Y-13894174D01*
X54680000Y-14025826D01*
X54714075Y-14152993D01*
X54746988Y-14210000D01*
X53073012Y-14210000D01*
X53105925Y-14152993D01*
X53140000Y-14025826D01*
X53140000Y-13894174D01*
X53105925Y-13767007D01*
X53073012Y-13710000D01*
X54746988Y-13710000D01*
X54714075Y-13767007D01*
G37*
%TD.AperFunction*%
%TA.AperFunction,Conductor*%
G36*
X63424075Y-13767007D02*
G01*
X63390000Y-13894174D01*
X63390000Y-14025826D01*
X63424075Y-14152993D01*
X63456988Y-14210000D01*
X61783012Y-14210000D01*
X61815925Y-14152993D01*
X61850000Y-14025826D01*
X61850000Y-13894174D01*
X61815925Y-13767007D01*
X61783012Y-13710000D01*
X63456988Y-13710000D01*
X63424075Y-13767007D01*
G37*
%TD.AperFunction*%
%TA.AperFunction,Conductor*%
G36*
X65964075Y-13767007D02*
G01*
X65930000Y-13894174D01*
X65930000Y-14025826D01*
X65964075Y-14152993D01*
X65996988Y-14210000D01*
X64323012Y-14210000D01*
X64355925Y-14152993D01*
X64390000Y-14025826D01*
X64390000Y-13894174D01*
X64355925Y-13767007D01*
X64323012Y-13710000D01*
X65996988Y-13710000D01*
X65964075Y-13767007D01*
G37*
%TD.AperFunction*%
%TA.AperFunction,Conductor*%
G36*
X68504075Y-13767007D02*
G01*
X68470000Y-13894174D01*
X68470000Y-14025826D01*
X68504075Y-14152993D01*
X68536988Y-14210000D01*
X66863012Y-14210000D01*
X66895925Y-14152993D01*
X66930000Y-14025826D01*
X66930000Y-13894174D01*
X66895925Y-13767007D01*
X66863012Y-13710000D01*
X68536988Y-13710000D01*
X68504075Y-13767007D01*
G37*
%TD.AperFunction*%
%TA.AperFunction,Conductor*%
G36*
X71044075Y-13767007D02*
G01*
X71010000Y-13894174D01*
X71010000Y-14025826D01*
X71044075Y-14152993D01*
X71076988Y-14210000D01*
X69403012Y-14210000D01*
X69435925Y-14152993D01*
X69470000Y-14025826D01*
X69470000Y-13894174D01*
X69435925Y-13767007D01*
X69403012Y-13710000D01*
X71076988Y-13710000D01*
X71044075Y-13767007D01*
G37*
%TD.AperFunction*%
%TA.AperFunction,Conductor*%
G36*
X73584075Y-13767007D02*
G01*
X73550000Y-13894174D01*
X73550000Y-14025826D01*
X73584075Y-14152993D01*
X73616988Y-14210000D01*
X71943012Y-14210000D01*
X71975925Y-14152993D01*
X72010000Y-14025826D01*
X72010000Y-13894174D01*
X71975925Y-13767007D01*
X71943012Y-13710000D01*
X73616988Y-13710000D01*
X73584075Y-13767007D01*
G37*
%TD.AperFunction*%
%TA.AperFunction,Conductor*%
G36*
X81384075Y-13767007D02*
G01*
X81350000Y-13894174D01*
X81350000Y-14025826D01*
X81384075Y-14152993D01*
X81416988Y-14210000D01*
X79743012Y-14210000D01*
X79775925Y-14152993D01*
X79810000Y-14025826D01*
X79810000Y-13894174D01*
X79775925Y-13767007D01*
X79743012Y-13710000D01*
X81416988Y-13710000D01*
X81384075Y-13767007D01*
G37*
%TD.AperFunction*%
%TA.AperFunction,Conductor*%
G36*
X83924075Y-13767007D02*
G01*
X83890000Y-13894174D01*
X83890000Y-14025826D01*
X83924075Y-14152993D01*
X83956988Y-14210000D01*
X82283012Y-14210000D01*
X82315925Y-14152993D01*
X82350000Y-14025826D01*
X82350000Y-13894174D01*
X82315925Y-13767007D01*
X82283012Y-13710000D01*
X83956988Y-13710000D01*
X83924075Y-13767007D01*
G37*
%TD.AperFunction*%
%TA.AperFunction,Conductor*%
G36*
X86464075Y-13767007D02*
G01*
X86430000Y-13894174D01*
X86430000Y-14025826D01*
X86464075Y-14152993D01*
X86496988Y-14210000D01*
X84823012Y-14210000D01*
X84855925Y-14152993D01*
X84890000Y-14025826D01*
X84890000Y-13894174D01*
X84855925Y-13767007D01*
X84823012Y-13710000D01*
X86496988Y-13710000D01*
X86464075Y-13767007D01*
G37*
%TD.AperFunction*%
%TA.AperFunction,Conductor*%
G36*
X89004075Y-13767007D02*
G01*
X88970000Y-13894174D01*
X88970000Y-14025826D01*
X89004075Y-14152993D01*
X89036988Y-14210000D01*
X87363012Y-14210000D01*
X87395925Y-14152993D01*
X87430000Y-14025826D01*
X87430000Y-13894174D01*
X87395925Y-13767007D01*
X87363012Y-13710000D01*
X89036988Y-13710000D01*
X89004075Y-13767007D01*
G37*
%TD.AperFunction*%
%TA.AperFunction,Conductor*%
G36*
X91544075Y-13767007D02*
G01*
X91510000Y-13894174D01*
X91510000Y-14025826D01*
X91544075Y-14152993D01*
X91576988Y-14210000D01*
X89903012Y-14210000D01*
X89935925Y-14152993D01*
X89970000Y-14025826D01*
X89970000Y-13894174D01*
X89935925Y-13767007D01*
X89903012Y-13710000D01*
X91576988Y-13710000D01*
X91544075Y-13767007D01*
G37*
%TD.AperFunction*%
%TA.AperFunction,Conductor*%
G36*
X94084075Y-13767007D02*
G01*
X94050000Y-13894174D01*
X94050000Y-14025826D01*
X94084075Y-14152993D01*
X94116988Y-14210000D01*
X92443012Y-14210000D01*
X92475925Y-14152993D01*
X92510000Y-14025826D01*
X92510000Y-13894174D01*
X92475925Y-13767007D01*
X92443012Y-13710000D01*
X94116988Y-13710000D01*
X94084075Y-13767007D01*
G37*
%TD.AperFunction*%
%TA.AperFunction,Conductor*%
G36*
X96624075Y-13767007D02*
G01*
X96590000Y-13894174D01*
X96590000Y-14025826D01*
X96624075Y-14152993D01*
X96656988Y-14210000D01*
X94983012Y-14210000D01*
X95015925Y-14152993D01*
X95050000Y-14025826D01*
X95050000Y-13894174D01*
X95015925Y-13767007D01*
X94983012Y-13710000D01*
X96656988Y-13710000D01*
X96624075Y-13767007D01*
G37*
%TD.AperFunction*%
%TA.AperFunction,Conductor*%
G36*
X108335539Y-12147185D02*
G01*
X108381294Y-12199989D01*
X108392500Y-12251500D01*
X108392500Y-75248500D01*
X108372815Y-75315539D01*
X108320011Y-75361294D01*
X108268500Y-75372500D01*
X12251500Y-75372500D01*
X12184461Y-75352815D01*
X12138706Y-75300011D01*
X12127500Y-75248500D01*
X12127500Y-73899996D01*
X15494435Y-73899996D01*
X15494435Y-73900003D01*
X15514630Y-74079249D01*
X15514631Y-74079254D01*
X15574211Y-74249523D01*
X15642208Y-74357738D01*
X15670184Y-74402262D01*
X15797738Y-74529816D01*
X15950478Y-74625789D01*
X15959169Y-74628830D01*
X16120745Y-74685368D01*
X16120750Y-74685369D01*
X16299996Y-74705565D01*
X16300000Y-74705565D01*
X16300004Y-74705565D01*
X16479249Y-74685369D01*
X16479252Y-74685368D01*
X16479255Y-74685368D01*
X16649522Y-74625789D01*
X16802262Y-74529816D01*
X16929816Y-74402262D01*
X17025789Y-74249522D01*
X17085368Y-74079255D01*
X17085369Y-74079249D01*
X17105565Y-73900003D01*
X17105565Y-73899996D01*
X17085369Y-73720750D01*
X17085368Y-73720745D01*
X17025788Y-73550476D01*
X16929815Y-73397737D01*
X16802262Y-73270184D01*
X16649523Y-73174211D01*
X16479254Y-73114631D01*
X16479249Y-73114630D01*
X16300004Y-73094435D01*
X16299996Y-73094435D01*
X16120750Y-73114630D01*
X16120745Y-73114631D01*
X15950476Y-73174211D01*
X15797737Y-73270184D01*
X15670184Y-73397737D01*
X15574211Y-73550476D01*
X15514631Y-73720745D01*
X15514630Y-73720750D01*
X15494435Y-73899996D01*
X12127500Y-73899996D01*
X12127500Y-71299994D01*
X36830245Y-71299994D01*
X36830245Y-71300005D01*
X36849245Y-71602011D01*
X36849246Y-71602018D01*
X36905953Y-71899286D01*
X36999466Y-72187091D01*
X36999468Y-72187096D01*
X37128313Y-72460904D01*
X37128317Y-72460910D01*
X37290460Y-72716408D01*
X37371761Y-72814684D01*
X38375047Y-71811399D01*
X38460686Y-71939567D01*
X38600433Y-72079314D01*
X38728599Y-72164952D01*
X37722984Y-73170566D01*
X37722985Y-73170568D01*
X37948786Y-73334621D01*
X38213983Y-73480415D01*
X38213984Y-73480416D01*
X38495340Y-73591811D01*
X38788457Y-73667071D01*
X38788466Y-73667073D01*
X39088678Y-73704999D01*
X39088692Y-73705000D01*
X39391308Y-73705000D01*
X39391321Y-73704999D01*
X39691533Y-73667073D01*
X39691542Y-73667071D01*
X39984659Y-73591811D01*
X40266015Y-73480416D01*
X40266016Y-73480415D01*
X40531208Y-73334624D01*
X40757013Y-73170567D01*
X40757014Y-73170566D01*
X39751399Y-72164952D01*
X39879567Y-72079314D01*
X40019314Y-71939567D01*
X40104952Y-71811399D01*
X41108237Y-72814684D01*
X41189536Y-72716413D01*
X41351682Y-72460910D01*
X41351686Y-72460904D01*
X41480531Y-72187096D01*
X41480533Y-72187091D01*
X41574046Y-71899286D01*
X41630753Y-71602018D01*
X41630754Y-71602011D01*
X41649755Y-71300005D01*
X41649755Y-71299994D01*
X46990245Y-71299994D01*
X46990245Y-71300005D01*
X47009245Y-71602011D01*
X47009246Y-71602018D01*
X47065953Y-71899286D01*
X47159466Y-72187091D01*
X47159468Y-72187096D01*
X47288313Y-72460904D01*
X47288317Y-72460910D01*
X47450460Y-72716408D01*
X47531761Y-72814684D01*
X48535047Y-71811399D01*
X48620686Y-71939567D01*
X48760433Y-72079314D01*
X48888599Y-72164952D01*
X47882984Y-73170566D01*
X47882985Y-73170568D01*
X48108786Y-73334621D01*
X48373983Y-73480415D01*
X48373984Y-73480416D01*
X48655340Y-73591811D01*
X48948457Y-73667071D01*
X48948466Y-73667073D01*
X49248678Y-73704999D01*
X49248692Y-73705000D01*
X49551308Y-73705000D01*
X49551321Y-73704999D01*
X49851533Y-73667073D01*
X49851542Y-73667071D01*
X50144659Y-73591811D01*
X50426015Y-73480416D01*
X50426016Y-73480415D01*
X50691208Y-73334624D01*
X50917013Y-73170567D01*
X50917014Y-73170566D01*
X49911399Y-72164952D01*
X50039567Y-72079314D01*
X50179314Y-71939567D01*
X50264952Y-71811399D01*
X51268237Y-72814684D01*
X51349536Y-72716413D01*
X51511682Y-72460910D01*
X51511686Y-72460904D01*
X51640531Y-72187096D01*
X51640533Y-72187091D01*
X51734046Y-71899286D01*
X51790753Y-71602018D01*
X51790754Y-71602011D01*
X51809755Y-71300005D01*
X51809755Y-71299994D01*
X51790754Y-70997988D01*
X51790753Y-70997981D01*
X51734046Y-70700713D01*
X51733814Y-70699999D01*
X60184341Y-70699999D01*
X60184341Y-70700000D01*
X60204936Y-70935403D01*
X60204938Y-70935413D01*
X60266094Y-71163655D01*
X60266096Y-71163659D01*
X60266097Y-71163663D01*
X60329672Y-71299999D01*
X60365965Y-71377830D01*
X60365967Y-71377834D01*
X60474281Y-71532521D01*
X60501501Y-71571396D01*
X60501506Y-71571402D01*
X60668597Y-71738493D01*
X60668603Y-71738498D01*
X60854594Y-71868730D01*
X60898219Y-71923307D01*
X60905413Y-71992805D01*
X60873890Y-72055160D01*
X60854595Y-72071880D01*
X60668922Y-72201890D01*
X60668920Y-72201891D01*
X60501891Y-72368920D01*
X60501886Y-72368926D01*
X60366400Y-72562420D01*
X60366399Y-72562422D01*
X60266570Y-72776507D01*
X60266567Y-72776513D01*
X60209364Y-72989999D01*
X60209364Y-72990000D01*
X61106988Y-72990000D01*
X61074075Y-73047007D01*
X61040000Y-73174174D01*
X61040000Y-73305826D01*
X61074075Y-73432993D01*
X61106988Y-73490000D01*
X60209364Y-73490000D01*
X60266567Y-73703486D01*
X60266570Y-73703492D01*
X60366399Y-73917578D01*
X60501894Y-74111082D01*
X60668917Y-74278105D01*
X60862421Y-74413600D01*
X61076507Y-74513429D01*
X61076516Y-74513433D01*
X61290000Y-74570634D01*
X61290000Y-73673012D01*
X61347007Y-73705925D01*
X61474174Y-73740000D01*
X61605826Y-73740000D01*
X61732993Y-73705925D01*
X61790000Y-73673012D01*
X61790000Y-74570633D01*
X62003483Y-74513433D01*
X62003492Y-74513429D01*
X62217578Y-74413600D01*
X62411082Y-74278105D01*
X62578105Y-74111082D01*
X62708425Y-73924968D01*
X62763002Y-73881344D01*
X62832501Y-73874151D01*
X62894855Y-73905673D01*
X62911575Y-73924968D01*
X63041894Y-74111082D01*
X63208917Y-74278105D01*
X63402421Y-74413600D01*
X63616507Y-74513429D01*
X63616516Y-74513433D01*
X63830000Y-74570634D01*
X63830000Y-73673012D01*
X63887007Y-73705925D01*
X64014174Y-73740000D01*
X64145826Y-73740000D01*
X64272993Y-73705925D01*
X64330000Y-73673012D01*
X64330000Y-74570633D01*
X64543483Y-74513433D01*
X64543492Y-74513429D01*
X64757578Y-74413600D01*
X64951082Y-74278105D01*
X65118105Y-74111082D01*
X65248425Y-73924968D01*
X65303002Y-73881344D01*
X65372501Y-73874151D01*
X65434855Y-73905673D01*
X65451575Y-73924968D01*
X65581894Y-74111082D01*
X65748917Y-74278105D01*
X65942421Y-74413600D01*
X66156507Y-74513429D01*
X66156516Y-74513433D01*
X66370000Y-74570634D01*
X66370000Y-73673012D01*
X66427007Y-73705925D01*
X66554174Y-73740000D01*
X66685826Y-73740000D01*
X66812993Y-73705925D01*
X66870000Y-73673012D01*
X66870000Y-74570633D01*
X67083483Y-74513433D01*
X67083492Y-74513429D01*
X67297578Y-74413600D01*
X67491082Y-74278105D01*
X67658105Y-74111082D01*
X67788425Y-73924968D01*
X67843002Y-73881344D01*
X67912501Y-73874151D01*
X67974855Y-73905673D01*
X67991575Y-73924968D01*
X68121894Y-74111082D01*
X68288917Y-74278105D01*
X68482421Y-74413600D01*
X68696507Y-74513429D01*
X68696516Y-74513433D01*
X68910000Y-74570634D01*
X68910000Y-73673012D01*
X68967007Y-73705925D01*
X69094174Y-73740000D01*
X69225826Y-73740000D01*
X69352993Y-73705925D01*
X69410000Y-73673012D01*
X69410000Y-74570634D01*
X69623483Y-74513433D01*
X69623492Y-74513429D01*
X69837578Y-74413600D01*
X70031082Y-74278105D01*
X70198105Y-74111082D01*
X70328425Y-73924968D01*
X70383002Y-73881344D01*
X70452501Y-73874151D01*
X70514855Y-73905673D01*
X70531575Y-73924968D01*
X70661894Y-74111082D01*
X70828917Y-74278105D01*
X71022421Y-74413600D01*
X71236507Y-74513429D01*
X71236516Y-74513433D01*
X71450000Y-74570634D01*
X71450000Y-73673012D01*
X71507007Y-73705925D01*
X71634174Y-73740000D01*
X71765826Y-73740000D01*
X71892993Y-73705925D01*
X71950000Y-73673012D01*
X71950000Y-74570634D01*
X72163483Y-74513433D01*
X72163492Y-74513429D01*
X72377578Y-74413600D01*
X72571082Y-74278105D01*
X72738105Y-74111082D01*
X72868425Y-73924968D01*
X72923002Y-73881344D01*
X72992501Y-73874151D01*
X73054855Y-73905673D01*
X73071575Y-73924968D01*
X73201894Y-74111082D01*
X73368917Y-74278105D01*
X73562421Y-74413600D01*
X73776507Y-74513429D01*
X73776516Y-74513433D01*
X73990000Y-74570634D01*
X73990000Y-73673012D01*
X74047007Y-73705925D01*
X74174174Y-73740000D01*
X74305826Y-73740000D01*
X74432993Y-73705925D01*
X74490000Y-73673012D01*
X74490000Y-74570633D01*
X74703483Y-74513433D01*
X74703492Y-74513429D01*
X74917578Y-74413600D01*
X75111082Y-74278105D01*
X75278105Y-74111082D01*
X75413600Y-73917578D01*
X75513429Y-73703492D01*
X75513432Y-73703486D01*
X75570636Y-73490000D01*
X74673012Y-73490000D01*
X74705925Y-73432993D01*
X74740000Y-73305826D01*
X74740000Y-73249994D01*
X90694357Y-73249994D01*
X90694357Y-73250005D01*
X90714890Y-73497812D01*
X90714892Y-73497824D01*
X90775936Y-73738881D01*
X90875826Y-73966606D01*
X91011833Y-74174782D01*
X91011836Y-74174785D01*
X91180256Y-74357738D01*
X91376491Y-74510474D01*
X91381959Y-74513433D01*
X91589572Y-74625788D01*
X91595190Y-74628828D01*
X91830386Y-74709571D01*
X92075665Y-74750500D01*
X92324335Y-74750500D01*
X92569614Y-74709571D01*
X92804810Y-74628828D01*
X93023509Y-74510474D01*
X93219744Y-74357738D01*
X93388164Y-74174785D01*
X93524173Y-73966607D01*
X93624063Y-73738881D01*
X93685108Y-73497821D01*
X93686550Y-73480416D01*
X93705643Y-73250005D01*
X93705643Y-73249994D01*
X102694357Y-73249994D01*
X102694357Y-73250005D01*
X102714890Y-73497812D01*
X102714892Y-73497824D01*
X102775936Y-73738881D01*
X102875826Y-73966606D01*
X103011833Y-74174782D01*
X103011836Y-74174785D01*
X103180256Y-74357738D01*
X103376491Y-74510474D01*
X103381959Y-74513433D01*
X103589572Y-74625788D01*
X103595190Y-74628828D01*
X103830386Y-74709571D01*
X104075665Y-74750500D01*
X104324335Y-74750500D01*
X104569614Y-74709571D01*
X104804810Y-74628828D01*
X105023509Y-74510474D01*
X105219744Y-74357738D01*
X105388164Y-74174785D01*
X105524173Y-73966607D01*
X105624063Y-73738881D01*
X105685108Y-73497821D01*
X105686550Y-73480416D01*
X105705643Y-73250005D01*
X105705643Y-73249994D01*
X105685109Y-73002187D01*
X105685107Y-73002175D01*
X105624063Y-72761118D01*
X105524173Y-72533393D01*
X105388166Y-72325217D01*
X105366557Y-72301744D01*
X105219744Y-72142262D01*
X105023509Y-71989526D01*
X105023507Y-71989525D01*
X105023506Y-71989524D01*
X104804811Y-71871172D01*
X104804802Y-71871169D01*
X104569616Y-71790429D01*
X104324335Y-71749500D01*
X104075665Y-71749500D01*
X103830383Y-71790429D01*
X103595197Y-71871169D01*
X103595188Y-71871172D01*
X103376493Y-71989524D01*
X103180257Y-72142261D01*
X103011833Y-72325217D01*
X102875826Y-72533393D01*
X102775936Y-72761118D01*
X102714892Y-73002175D01*
X102714890Y-73002187D01*
X102694357Y-73249994D01*
X93705643Y-73249994D01*
X93685109Y-73002187D01*
X93685107Y-73002175D01*
X93624063Y-72761118D01*
X93524173Y-72533393D01*
X93388166Y-72325217D01*
X93366557Y-72301744D01*
X93219744Y-72142262D01*
X93023509Y-71989526D01*
X93023507Y-71989525D01*
X93023506Y-71989524D01*
X92804811Y-71871172D01*
X92804802Y-71871169D01*
X92569616Y-71790429D01*
X92324335Y-71749500D01*
X92075665Y-71749500D01*
X91830383Y-71790429D01*
X91595197Y-71871169D01*
X91595188Y-71871172D01*
X91376493Y-71989524D01*
X91180257Y-72142261D01*
X91011833Y-72325217D01*
X90875826Y-72533393D01*
X90775936Y-72761118D01*
X90714892Y-73002175D01*
X90714890Y-73002187D01*
X90694357Y-73249994D01*
X74740000Y-73249994D01*
X74740000Y-73174174D01*
X74705925Y-73047007D01*
X74673012Y-72990000D01*
X75570636Y-72990000D01*
X75570635Y-72989999D01*
X75513432Y-72776513D01*
X75513429Y-72776507D01*
X75413600Y-72562422D01*
X75413599Y-72562420D01*
X75278113Y-72368926D01*
X75278108Y-72368920D01*
X75156053Y-72246865D01*
X75122568Y-72185542D01*
X75127552Y-72115850D01*
X75169424Y-72059917D01*
X75200400Y-72043002D01*
X75332331Y-71993796D01*
X75447546Y-71907546D01*
X75533796Y-71792331D01*
X75584091Y-71657483D01*
X75590500Y-71597873D01*
X75590499Y-69802128D01*
X75584091Y-69742517D01*
X75582810Y-69739083D01*
X75533797Y-69607671D01*
X75533793Y-69607664D01*
X75447547Y-69492455D01*
X75447544Y-69492452D01*
X75332335Y-69406206D01*
X75332328Y-69406202D01*
X75197482Y-69355908D01*
X75197483Y-69355908D01*
X75137883Y-69349501D01*
X75137881Y-69349500D01*
X75137873Y-69349500D01*
X75137864Y-69349500D01*
X73342129Y-69349500D01*
X73342123Y-69349501D01*
X73282516Y-69355908D01*
X73147671Y-69406202D01*
X73147664Y-69406206D01*
X73032455Y-69492452D01*
X73032452Y-69492455D01*
X72946206Y-69607664D01*
X72946203Y-69607669D01*
X72897189Y-69739083D01*
X72855317Y-69795016D01*
X72789853Y-69819433D01*
X72721580Y-69804581D01*
X72693326Y-69783430D01*
X72571402Y-69661506D01*
X72571395Y-69661501D01*
X72377834Y-69525967D01*
X72377830Y-69525965D01*
X72377828Y-69525964D01*
X72163663Y-69426097D01*
X72163659Y-69426096D01*
X72163655Y-69426094D01*
X71935413Y-69364938D01*
X71935403Y-69364936D01*
X71700001Y-69344341D01*
X71699999Y-69344341D01*
X71464596Y-69364936D01*
X71464586Y-69364938D01*
X71236344Y-69426094D01*
X71236335Y-69426098D01*
X71022171Y-69525964D01*
X71022169Y-69525965D01*
X70828597Y-69661505D01*
X70661505Y-69828597D01*
X70531575Y-70014158D01*
X70476998Y-70057783D01*
X70407500Y-70064977D01*
X70345145Y-70033454D01*
X70328425Y-70014158D01*
X70198494Y-69828597D01*
X70031402Y-69661506D01*
X70031395Y-69661501D01*
X69837834Y-69525967D01*
X69837830Y-69525965D01*
X69837828Y-69525964D01*
X69623663Y-69426097D01*
X69623659Y-69426096D01*
X69623655Y-69426094D01*
X69395413Y-69364938D01*
X69395403Y-69364936D01*
X69160001Y-69344341D01*
X69159999Y-69344341D01*
X68924596Y-69364936D01*
X68924586Y-69364938D01*
X68696344Y-69426094D01*
X68696335Y-69426098D01*
X68482171Y-69525964D01*
X68482169Y-69525965D01*
X68288597Y-69661505D01*
X68121505Y-69828597D01*
X67991575Y-70014158D01*
X67936998Y-70057783D01*
X67867500Y-70064977D01*
X67805145Y-70033454D01*
X67788425Y-70014158D01*
X67658494Y-69828597D01*
X67491402Y-69661506D01*
X67491395Y-69661501D01*
X67297834Y-69525967D01*
X67297830Y-69525965D01*
X67297828Y-69525964D01*
X67083663Y-69426097D01*
X67083659Y-69426096D01*
X67083655Y-69426094D01*
X66855413Y-69364938D01*
X66855403Y-69364936D01*
X66620001Y-69344341D01*
X66619999Y-69344341D01*
X66384596Y-69364936D01*
X66384586Y-69364938D01*
X66156344Y-69426094D01*
X66156335Y-69426098D01*
X65942171Y-69525964D01*
X65942169Y-69525965D01*
X65748597Y-69661505D01*
X65581505Y-69828597D01*
X65451575Y-70014158D01*
X65396998Y-70057783D01*
X65327500Y-70064977D01*
X65265145Y-70033454D01*
X65248425Y-70014158D01*
X65118494Y-69828597D01*
X64951402Y-69661506D01*
X64951395Y-69661501D01*
X64757834Y-69525967D01*
X64757830Y-69525965D01*
X64757828Y-69525964D01*
X64543663Y-69426097D01*
X64543659Y-69426096D01*
X64543655Y-69426094D01*
X64315413Y-69364938D01*
X64315403Y-69364936D01*
X64080001Y-69344341D01*
X64079999Y-69344341D01*
X63844596Y-69364936D01*
X63844586Y-69364938D01*
X63616344Y-69426094D01*
X63616335Y-69426098D01*
X63402171Y-69525964D01*
X63402169Y-69525965D01*
X63208597Y-69661505D01*
X63041505Y-69828597D01*
X62911575Y-70014158D01*
X62856998Y-70057783D01*
X62787500Y-70064977D01*
X62725145Y-70033454D01*
X62708425Y-70014158D01*
X62578494Y-69828597D01*
X62411402Y-69661506D01*
X62411395Y-69661501D01*
X62217834Y-69525967D01*
X62217830Y-69525965D01*
X62217828Y-69525964D01*
X62003663Y-69426097D01*
X62003659Y-69426096D01*
X62003655Y-69426094D01*
X61775413Y-69364938D01*
X61775403Y-69364936D01*
X61540001Y-69344341D01*
X61539999Y-69344341D01*
X61304596Y-69364936D01*
X61304586Y-69364938D01*
X61076344Y-69426094D01*
X61076335Y-69426098D01*
X60862171Y-69525964D01*
X60862169Y-69525965D01*
X60668597Y-69661505D01*
X60501505Y-69828597D01*
X60365965Y-70022169D01*
X60365964Y-70022171D01*
X60266098Y-70236335D01*
X60266094Y-70236344D01*
X60204938Y-70464586D01*
X60204936Y-70464596D01*
X60184341Y-70699999D01*
X51733814Y-70699999D01*
X51640533Y-70412908D01*
X51640531Y-70412903D01*
X51511686Y-70139095D01*
X51511682Y-70139089D01*
X51349539Y-69883591D01*
X51268236Y-69785313D01*
X50264951Y-70788599D01*
X50179314Y-70660433D01*
X50039567Y-70520686D01*
X49911398Y-70435046D01*
X50917014Y-69429432D01*
X50917013Y-69429430D01*
X50691213Y-69265378D01*
X50426016Y-69119584D01*
X50426015Y-69119583D01*
X50144659Y-69008188D01*
X49851542Y-68932928D01*
X49851533Y-68932926D01*
X49551321Y-68895000D01*
X49248678Y-68895000D01*
X48948466Y-68932926D01*
X48948457Y-68932928D01*
X48655340Y-69008188D01*
X48373984Y-69119583D01*
X48373983Y-69119584D01*
X48108789Y-69265377D01*
X48108777Y-69265384D01*
X47882985Y-69429431D01*
X47882984Y-69429432D01*
X48888600Y-70435047D01*
X48760433Y-70520686D01*
X48620686Y-70660433D01*
X48535047Y-70788600D01*
X47531761Y-69785313D01*
X47450463Y-69883586D01*
X47288317Y-70139089D01*
X47288313Y-70139095D01*
X47159468Y-70412903D01*
X47159466Y-70412908D01*
X47065953Y-70700713D01*
X47009246Y-70997981D01*
X47009245Y-70997988D01*
X46990245Y-71299994D01*
X41649755Y-71299994D01*
X41630754Y-70997988D01*
X41630753Y-70997981D01*
X41574046Y-70700713D01*
X41480533Y-70412908D01*
X41480531Y-70412903D01*
X41351686Y-70139095D01*
X41351682Y-70139089D01*
X41189539Y-69883591D01*
X41108236Y-69785313D01*
X40104951Y-70788599D01*
X40019314Y-70660433D01*
X39879567Y-70520686D01*
X39751398Y-70435046D01*
X40757014Y-69429432D01*
X40757013Y-69429430D01*
X40531213Y-69265378D01*
X40266016Y-69119584D01*
X40266015Y-69119583D01*
X39984659Y-69008188D01*
X39691542Y-68932928D01*
X39691533Y-68932926D01*
X39391321Y-68895000D01*
X39088678Y-68895000D01*
X38788466Y-68932926D01*
X38788457Y-68932928D01*
X38495340Y-69008188D01*
X38213984Y-69119583D01*
X38213983Y-69119584D01*
X37948789Y-69265377D01*
X37948777Y-69265384D01*
X37722985Y-69429431D01*
X37722984Y-69429432D01*
X38728600Y-70435047D01*
X38600433Y-70520686D01*
X38460686Y-70660433D01*
X38375047Y-70788600D01*
X37371761Y-69785313D01*
X37290463Y-69883586D01*
X37128317Y-70139089D01*
X37128313Y-70139095D01*
X36999468Y-70412903D01*
X36999466Y-70412908D01*
X36905953Y-70700713D01*
X36849246Y-70997981D01*
X36849245Y-70997988D01*
X36830245Y-71299994D01*
X12127500Y-71299994D01*
X12127500Y-68299996D01*
X13594435Y-68299996D01*
X13594435Y-68300003D01*
X13614630Y-68479249D01*
X13614631Y-68479254D01*
X13674211Y-68649523D01*
X13764596Y-68793369D01*
X13770184Y-68802262D01*
X13897738Y-68929816D01*
X14050478Y-69025789D01*
X14220745Y-69085368D01*
X14220750Y-69085369D01*
X14399996Y-69105565D01*
X14400000Y-69105565D01*
X14400004Y-69105565D01*
X14579249Y-69085369D01*
X14579252Y-69085368D01*
X14579255Y-69085368D01*
X14749522Y-69025789D01*
X14902262Y-68929816D01*
X15029816Y-68802262D01*
X15125789Y-68649522D01*
X15185368Y-68479255D01*
X15203067Y-68322171D01*
X15205565Y-68300003D01*
X15205565Y-68299996D01*
X15185369Y-68120750D01*
X15185368Y-68120745D01*
X15129648Y-67961506D01*
X15125789Y-67950478D01*
X15081503Y-67879997D01*
X23935153Y-67879997D01*
X23935153Y-67880002D01*
X23954526Y-68237314D01*
X23954527Y-68237331D01*
X24012415Y-68590431D01*
X24012421Y-68590457D01*
X24108147Y-68935232D01*
X24108149Y-68935239D01*
X24240597Y-69267659D01*
X24240606Y-69267677D01*
X24408218Y-69583827D01*
X24609033Y-69880007D01*
X24736441Y-70030003D01*
X24736442Y-70030004D01*
X25945748Y-68820698D01*
X26019588Y-68922330D01*
X26197670Y-69100412D01*
X26299300Y-69174251D01*
X25087255Y-70386295D01*
X25087256Y-70386296D01*
X25100485Y-70398828D01*
X25100486Y-70398829D01*
X25385367Y-70615388D01*
X25385370Y-70615390D01*
X25691990Y-70799876D01*
X26016739Y-70950122D01*
X26016744Y-70950123D01*
X26355855Y-71064383D01*
X26705339Y-71141311D01*
X27061075Y-71179999D01*
X27061085Y-71180000D01*
X27418915Y-71180000D01*
X27418924Y-71179999D01*
X27774660Y-71141311D01*
X28124144Y-71064383D01*
X28463255Y-70950123D01*
X28463260Y-70950122D01*
X28788009Y-70799876D01*
X29094629Y-70615390D01*
X29094632Y-70615388D01*
X29379504Y-70398836D01*
X29392742Y-70386294D01*
X28180698Y-69174251D01*
X28282330Y-69100412D01*
X28460412Y-68922330D01*
X28534251Y-68820698D01*
X29743556Y-70030003D01*
X29870964Y-69880008D01*
X29870975Y-69879994D01*
X30071781Y-69583827D01*
X30239393Y-69267677D01*
X30239402Y-69267659D01*
X30371850Y-68935239D01*
X30371852Y-68935232D01*
X30467578Y-68590457D01*
X30467584Y-68590431D01*
X30525472Y-68237331D01*
X30525473Y-68237314D01*
X30544847Y-67880002D01*
X30544847Y-67879997D01*
X30525473Y-67522685D01*
X30525472Y-67522668D01*
X30467584Y-67169568D01*
X30467578Y-67169542D01*
X30371852Y-66824767D01*
X30371850Y-66824760D01*
X30239402Y-66492340D01*
X30239393Y-66492322D01*
X30095014Y-66219994D01*
X42862020Y-66219994D01*
X42862020Y-66220005D01*
X42881904Y-66459972D01*
X42941017Y-66693405D01*
X43031639Y-66900003D01*
X43037745Y-66913922D01*
X43169449Y-67115510D01*
X43332537Y-67292671D01*
X43473340Y-67402262D01*
X43522022Y-67440153D01*
X43522561Y-67440572D01*
X43687469Y-67529816D01*
X43733478Y-67554715D01*
X43734336Y-67555179D01*
X43852598Y-67595778D01*
X43962083Y-67633365D01*
X43962085Y-67633365D01*
X43962087Y-67633366D01*
X44199601Y-67673000D01*
X44199602Y-67673000D01*
X44440398Y-67673000D01*
X44440399Y-67673000D01*
X44677913Y-67633366D01*
X44905664Y-67555179D01*
X45117439Y-67440572D01*
X45307463Y-67292671D01*
X45470551Y-67115510D01*
X45486490Y-67091112D01*
X45539635Y-67045757D01*
X45608866Y-67036332D01*
X45644221Y-67052799D01*
X45670882Y-67055564D01*
X46422352Y-66304094D01*
X46445792Y-66391571D01*
X46504311Y-66492930D01*
X46587070Y-66575689D01*
X46688429Y-66634208D01*
X46775905Y-66657647D01*
X46023790Y-67409761D01*
X46023790Y-67409762D01*
X46062832Y-67440150D01*
X46062837Y-67440153D01*
X46274531Y-67554715D01*
X46274545Y-67554721D01*
X46502207Y-67632879D01*
X46739642Y-67672500D01*
X46980358Y-67672500D01*
X47217792Y-67632879D01*
X47445454Y-67554721D01*
X47445468Y-67554715D01*
X47657161Y-67440153D01*
X47657167Y-67440149D01*
X47696208Y-67409762D01*
X47696209Y-67409761D01*
X47536442Y-67249994D01*
X90694357Y-67249994D01*
X90694357Y-67250005D01*
X90714890Y-67497812D01*
X90714892Y-67497824D01*
X90775936Y-67738881D01*
X90875826Y-67966606D01*
X91011833Y-68174782D01*
X91011836Y-68174785D01*
X91180256Y-68357738D01*
X91376491Y-68510474D01*
X91595190Y-68628828D01*
X91830386Y-68709571D01*
X92075665Y-68750500D01*
X92324335Y-68750500D01*
X92569614Y-68709571D01*
X92569617Y-68709570D01*
X92698629Y-68665279D01*
X92768426Y-68662130D01*
X92828847Y-68697216D01*
X92860708Y-68759398D01*
X92862419Y-68793368D01*
X92844341Y-68999998D01*
X92844341Y-69000000D01*
X92864936Y-69235403D01*
X92864938Y-69235413D01*
X92926094Y-69463655D01*
X92926096Y-69463659D01*
X92926097Y-69463663D01*
X92939522Y-69492452D01*
X93025965Y-69677830D01*
X93025967Y-69677834D01*
X93112996Y-69802123D01*
X93161505Y-69871401D01*
X93328599Y-70038495D01*
X93425384Y-70106265D01*
X93522165Y-70174032D01*
X93522167Y-70174033D01*
X93522170Y-70174035D01*
X93736337Y-70273903D01*
X93964592Y-70335063D01*
X94152918Y-70351539D01*
X94199999Y-70355659D01*
X94200000Y-70355659D01*
X94200001Y-70355659D01*
X94239234Y-70352226D01*
X94435408Y-70335063D01*
X94663663Y-70273903D01*
X94877830Y-70174035D01*
X95071401Y-70038495D01*
X95238495Y-69871401D01*
X95374035Y-69677830D01*
X95473903Y-69463663D01*
X95535063Y-69235408D01*
X95555659Y-69000000D01*
X95555659Y-68999999D01*
X96844341Y-68999999D01*
X96844341Y-69000000D01*
X96864936Y-69235403D01*
X96864938Y-69235413D01*
X96926094Y-69463655D01*
X96926096Y-69463659D01*
X96926097Y-69463663D01*
X96939522Y-69492452D01*
X97025965Y-69677830D01*
X97025967Y-69677834D01*
X97112996Y-69802123D01*
X97161505Y-69871401D01*
X97328599Y-70038495D01*
X97425384Y-70106265D01*
X97522165Y-70174032D01*
X97522167Y-70174033D01*
X97522170Y-70174035D01*
X97736337Y-70273903D01*
X97964592Y-70335063D01*
X98152918Y-70351539D01*
X98199999Y-70355659D01*
X98200000Y-70355659D01*
X98200001Y-70355659D01*
X98239234Y-70352226D01*
X98435408Y-70335063D01*
X98663663Y-70273903D01*
X98877830Y-70174035D01*
X99071401Y-70038495D01*
X99238495Y-69871401D01*
X99374035Y-69677830D01*
X99473903Y-69463663D01*
X99535063Y-69235408D01*
X99555659Y-69000000D01*
X99555659Y-68999999D01*
X100844341Y-68999999D01*
X100844341Y-69000000D01*
X100864936Y-69235403D01*
X100864938Y-69235413D01*
X100926094Y-69463655D01*
X100926096Y-69463659D01*
X100926097Y-69463663D01*
X100939522Y-69492452D01*
X101025965Y-69677830D01*
X101025967Y-69677834D01*
X101112996Y-69802123D01*
X101161505Y-69871401D01*
X101328599Y-70038495D01*
X101425384Y-70106265D01*
X101522165Y-70174032D01*
X101522167Y-70174033D01*
X101522170Y-70174035D01*
X101736337Y-70273903D01*
X101964592Y-70335063D01*
X102152918Y-70351539D01*
X102199999Y-70355659D01*
X102200000Y-70355659D01*
X102200001Y-70355659D01*
X102239234Y-70352226D01*
X102435408Y-70335063D01*
X102663663Y-70273903D01*
X102877830Y-70174035D01*
X103071401Y-70038495D01*
X103238495Y-69871401D01*
X103374035Y-69677830D01*
X103473903Y-69463663D01*
X103535063Y-69235408D01*
X103555659Y-69000000D01*
X103537580Y-68793366D01*
X103551346Y-68724869D01*
X103599961Y-68674686D01*
X103667990Y-68658752D01*
X103701370Y-68665279D01*
X103830386Y-68709571D01*
X104075665Y-68750500D01*
X104324335Y-68750500D01*
X104569614Y-68709571D01*
X104804810Y-68628828D01*
X105023509Y-68510474D01*
X105219744Y-68357738D01*
X105388164Y-68174785D01*
X105524173Y-67966607D01*
X105624063Y-67738881D01*
X105685108Y-67497821D01*
X105689852Y-67440570D01*
X105705643Y-67250005D01*
X105705643Y-67249994D01*
X105685109Y-67002187D01*
X105685107Y-67002175D01*
X105624063Y-66761118D01*
X105524173Y-66533393D01*
X105388166Y-66325217D01*
X105291311Y-66220005D01*
X105219744Y-66142262D01*
X105023509Y-65989526D01*
X105023507Y-65989525D01*
X105023506Y-65989524D01*
X104804811Y-65871172D01*
X104804802Y-65871169D01*
X104569616Y-65790429D01*
X104324335Y-65749500D01*
X104075665Y-65749500D01*
X103830383Y-65790429D01*
X103595197Y-65871169D01*
X103595188Y-65871172D01*
X103376493Y-65989524D01*
X103180257Y-66142261D01*
X103011833Y-66325217D01*
X102875826Y-66533393D01*
X102775936Y-66761118D01*
X102714892Y-67002175D01*
X102714890Y-67002187D01*
X102694357Y-67249994D01*
X102694357Y-67250005D01*
X102714890Y-67497812D01*
X102714892Y-67497825D01*
X102728741Y-67552511D01*
X102726115Y-67622332D01*
X102686159Y-67679649D01*
X102621558Y-67706265D01*
X102576442Y-67702726D01*
X102435413Y-67664938D01*
X102435403Y-67664936D01*
X102200001Y-67644341D01*
X102199999Y-67644341D01*
X101964596Y-67664936D01*
X101964586Y-67664938D01*
X101736344Y-67726094D01*
X101736335Y-67726098D01*
X101522171Y-67825964D01*
X101522169Y-67825965D01*
X101328597Y-67961505D01*
X101161505Y-68128597D01*
X101025965Y-68322169D01*
X101025964Y-68322171D01*
X100926098Y-68536335D01*
X100926094Y-68536344D01*
X100864938Y-68764586D01*
X100864936Y-68764596D01*
X100844341Y-68999999D01*
X99555659Y-68999999D01*
X99535063Y-68764592D01*
X99473903Y-68536337D01*
X99374035Y-68322171D01*
X99311985Y-68233553D01*
X99238494Y-68128597D01*
X99071402Y-67961506D01*
X99071395Y-67961501D01*
X98877834Y-67825967D01*
X98877830Y-67825965D01*
X98797756Y-67788626D01*
X98663663Y-67726097D01*
X98663659Y-67726096D01*
X98663655Y-67726094D01*
X98435413Y-67664938D01*
X98435403Y-67664936D01*
X98200001Y-67644341D01*
X98199999Y-67644341D01*
X97964596Y-67664936D01*
X97964586Y-67664938D01*
X97736344Y-67726094D01*
X97736335Y-67726098D01*
X97522171Y-67825964D01*
X97522169Y-67825965D01*
X97328597Y-67961505D01*
X97161505Y-68128597D01*
X97025965Y-68322169D01*
X97025964Y-68322171D01*
X96926098Y-68536335D01*
X96926094Y-68536344D01*
X96864938Y-68764586D01*
X96864936Y-68764596D01*
X96844341Y-68999999D01*
X95555659Y-68999999D01*
X95535063Y-68764592D01*
X95473903Y-68536337D01*
X95374035Y-68322171D01*
X95311985Y-68233553D01*
X95238494Y-68128597D01*
X95071402Y-67961506D01*
X95071395Y-67961501D01*
X94877834Y-67825967D01*
X94877830Y-67825965D01*
X94797756Y-67788626D01*
X94663663Y-67726097D01*
X94663659Y-67726096D01*
X94663655Y-67726094D01*
X94435413Y-67664938D01*
X94435403Y-67664936D01*
X94200001Y-67644341D01*
X94199999Y-67644341D01*
X93964596Y-67664936D01*
X93964586Y-67664938D01*
X93823557Y-67702726D01*
X93753707Y-67701063D01*
X93695844Y-67661900D01*
X93668341Y-67597671D01*
X93671259Y-67552509D01*
X93685106Y-67497829D01*
X93685107Y-67497824D01*
X93685108Y-67497821D01*
X93689852Y-67440570D01*
X93705643Y-67250005D01*
X93705643Y-67249994D01*
X93685109Y-67002187D01*
X93685107Y-67002175D01*
X93624063Y-66761118D01*
X93524173Y-66533393D01*
X93388166Y-66325217D01*
X93291311Y-66220005D01*
X93219744Y-66142262D01*
X93023509Y-65989526D01*
X93023507Y-65989525D01*
X93023506Y-65989524D01*
X92804811Y-65871172D01*
X92804802Y-65871169D01*
X92569616Y-65790429D01*
X92324335Y-65749500D01*
X92075665Y-65749500D01*
X91830383Y-65790429D01*
X91595197Y-65871169D01*
X91595188Y-65871172D01*
X91376493Y-65989524D01*
X91180257Y-66142261D01*
X91011833Y-66325217D01*
X90875826Y-66533393D01*
X90775936Y-66761118D01*
X90714892Y-67002175D01*
X90714890Y-67002187D01*
X90694357Y-67249994D01*
X47536442Y-67249994D01*
X46944094Y-66657647D01*
X47031571Y-66634208D01*
X47132930Y-66575689D01*
X47215689Y-66492930D01*
X47274208Y-66391571D01*
X47297647Y-66304094D01*
X48049116Y-67055564D01*
X48141811Y-66913686D01*
X48141816Y-66913678D01*
X48238508Y-66693240D01*
X48297600Y-66459889D01*
X48317478Y-66220005D01*
X48317478Y-66219994D01*
X48297600Y-65980110D01*
X48238508Y-65746759D01*
X48141813Y-65526315D01*
X48049116Y-65384434D01*
X47297647Y-66135904D01*
X47274208Y-66048429D01*
X47215689Y-65947070D01*
X47132930Y-65864311D01*
X47031571Y-65805792D01*
X46944092Y-65782352D01*
X47696208Y-65030237D01*
X47696208Y-65030235D01*
X47657173Y-64999853D01*
X47657162Y-64999846D01*
X47445468Y-64885284D01*
X47445454Y-64885278D01*
X47217792Y-64807120D01*
X46980358Y-64767500D01*
X46739642Y-64767500D01*
X46502207Y-64807120D01*
X46274545Y-64885278D01*
X46274531Y-64885284D01*
X46062838Y-64999846D01*
X46062835Y-64999848D01*
X46023789Y-65030237D01*
X46775905Y-65782352D01*
X46688429Y-65805792D01*
X46587070Y-65864311D01*
X46504311Y-65947070D01*
X46445792Y-66048429D01*
X46422352Y-66135905D01*
X45670882Y-65384434D01*
X45649900Y-65386610D01*
X45640951Y-65394247D01*
X45571718Y-65403664D01*
X45508385Y-65374157D01*
X45486489Y-65348884D01*
X45470555Y-65324494D01*
X45422547Y-65272344D01*
X45307463Y-65147329D01*
X45157020Y-65030235D01*
X45117441Y-64999429D01*
X44905665Y-64884821D01*
X44905656Y-64884818D01*
X44677916Y-64806634D01*
X44499777Y-64776908D01*
X44440399Y-64767000D01*
X44199601Y-64767000D01*
X44152098Y-64774926D01*
X43962083Y-64806634D01*
X43734343Y-64884818D01*
X43734334Y-64884821D01*
X43522558Y-64999429D01*
X43388456Y-65103805D01*
X43332537Y-65147329D01*
X43332534Y-65147331D01*
X43332534Y-65147332D01*
X43169449Y-65324490D01*
X43037743Y-65526081D01*
X42941017Y-65746594D01*
X42881904Y-65980027D01*
X42862020Y-66219994D01*
X30095014Y-66219994D01*
X30071781Y-66176172D01*
X29870966Y-65879992D01*
X29743557Y-65729995D01*
X29743556Y-65729994D01*
X28534250Y-66939300D01*
X28460412Y-66837670D01*
X28282330Y-66659588D01*
X28180697Y-66585747D01*
X29392743Y-65373703D01*
X29392742Y-65373702D01*
X29379514Y-65361171D01*
X29379513Y-65361170D01*
X29094632Y-65144611D01*
X29094629Y-65144609D01*
X28788009Y-64960123D01*
X28463260Y-64809877D01*
X28463255Y-64809876D01*
X28124144Y-64695616D01*
X27774660Y-64618688D01*
X27418924Y-64580000D01*
X27061075Y-64580000D01*
X26705339Y-64618688D01*
X26355855Y-64695616D01*
X26016744Y-64809876D01*
X26016739Y-64809877D01*
X25691990Y-64960123D01*
X25385370Y-65144609D01*
X25385367Y-65144611D01*
X25100491Y-65361166D01*
X25087256Y-65373703D01*
X25087255Y-65373703D01*
X26299301Y-66585748D01*
X26197670Y-66659588D01*
X26019588Y-66837670D01*
X25945748Y-66939301D01*
X24736442Y-65729994D01*
X24736441Y-65729995D01*
X24609040Y-65879983D01*
X24609033Y-65879993D01*
X24408218Y-66176172D01*
X24240606Y-66492322D01*
X24240597Y-66492340D01*
X24108149Y-66824760D01*
X24108147Y-66824767D01*
X24012421Y-67169542D01*
X24012415Y-67169568D01*
X23954527Y-67522668D01*
X23954526Y-67522685D01*
X23935153Y-67879997D01*
X15081503Y-67879997D01*
X15029816Y-67797738D01*
X14902262Y-67670184D01*
X14893913Y-67664938D01*
X14749523Y-67574211D01*
X14579254Y-67514631D01*
X14579249Y-67514630D01*
X14400004Y-67494435D01*
X14399996Y-67494435D01*
X14220750Y-67514630D01*
X14220745Y-67514631D01*
X14050476Y-67574211D01*
X13897737Y-67670184D01*
X13770184Y-67797737D01*
X13674211Y-67950476D01*
X13614631Y-68120745D01*
X13614630Y-68120750D01*
X13594435Y-68299996D01*
X12127500Y-68299996D01*
X12127500Y-66899996D01*
X19894435Y-66899996D01*
X19894435Y-66900003D01*
X19914630Y-67079249D01*
X19914631Y-67079254D01*
X19974211Y-67249523D01*
X20001323Y-67292671D01*
X20070184Y-67402262D01*
X20197738Y-67529816D01*
X20238103Y-67555179D01*
X20305728Y-67597671D01*
X20350478Y-67625789D01*
X20485399Y-67673000D01*
X20520745Y-67685368D01*
X20520750Y-67685369D01*
X20699996Y-67705565D01*
X20700000Y-67705565D01*
X20700004Y-67705565D01*
X20879249Y-67685369D01*
X20879252Y-67685368D01*
X20879255Y-67685368D01*
X21049522Y-67625789D01*
X21202262Y-67529816D01*
X21329816Y-67402262D01*
X21425789Y-67249522D01*
X21485368Y-67079255D01*
X21485369Y-67079249D01*
X21505565Y-66900003D01*
X21505565Y-66899996D01*
X21485369Y-66720750D01*
X21485368Y-66720745D01*
X21455087Y-66634208D01*
X21425789Y-66550478D01*
X21329816Y-66397738D01*
X21202262Y-66270184D01*
X21122403Y-66220005D01*
X21049523Y-66174211D01*
X20879254Y-66114631D01*
X20879249Y-66114630D01*
X20700004Y-66094435D01*
X20699996Y-66094435D01*
X20520750Y-66114630D01*
X20520745Y-66114631D01*
X20350476Y-66174211D01*
X20197737Y-66270184D01*
X20070184Y-66397737D01*
X19974211Y-66550476D01*
X19914631Y-66720745D01*
X19914630Y-66720750D01*
X19894435Y-66899996D01*
X12127500Y-66899996D01*
X12127500Y-62799997D01*
X74735153Y-62799997D01*
X74735153Y-62800002D01*
X74754526Y-63157314D01*
X74754527Y-63157331D01*
X74812415Y-63510431D01*
X74812421Y-63510457D01*
X74908147Y-63855232D01*
X74908149Y-63855239D01*
X75040597Y-64187659D01*
X75040606Y-64187677D01*
X75208218Y-64503827D01*
X75409033Y-64800007D01*
X75536441Y-64950003D01*
X75536442Y-64950004D01*
X76745748Y-63740698D01*
X76819588Y-63842330D01*
X76997670Y-64020412D01*
X77099300Y-64094251D01*
X75887255Y-65306295D01*
X75887256Y-65306296D01*
X75900485Y-65318828D01*
X75900486Y-65318829D01*
X76185367Y-65535388D01*
X76185370Y-65535390D01*
X76491990Y-65719876D01*
X76816739Y-65870122D01*
X76816744Y-65870123D01*
X77155855Y-65984383D01*
X77505339Y-66061311D01*
X77861075Y-66099999D01*
X77861085Y-66100000D01*
X78218915Y-66100000D01*
X78218924Y-66099999D01*
X78574660Y-66061311D01*
X78924144Y-65984383D01*
X79263255Y-65870123D01*
X79263260Y-65870122D01*
X79588009Y-65719876D01*
X79894629Y-65535390D01*
X79894632Y-65535388D01*
X80179504Y-65318836D01*
X80192742Y-65306294D01*
X78980698Y-64094251D01*
X79082330Y-64020412D01*
X79260412Y-63842330D01*
X79334251Y-63740698D01*
X80543556Y-64950003D01*
X80670964Y-64800008D01*
X80670975Y-64799994D01*
X80871781Y-64503827D01*
X81039393Y-64187677D01*
X81039402Y-64187659D01*
X81171850Y-63855239D01*
X81171852Y-63855232D01*
X81267578Y-63510457D01*
X81267584Y-63510431D01*
X81325472Y-63157331D01*
X81325473Y-63157314D01*
X81344847Y-62800002D01*
X81344847Y-62799997D01*
X81325473Y-62442685D01*
X81325472Y-62442668D01*
X81267584Y-62089568D01*
X81267578Y-62089542D01*
X81171852Y-61744767D01*
X81171850Y-61744760D01*
X81039402Y-61412340D01*
X81039393Y-61412322D01*
X80871781Y-61096172D01*
X80670966Y-60799992D01*
X80543557Y-60649995D01*
X80543556Y-60649994D01*
X79334250Y-61859300D01*
X79260412Y-61757670D01*
X79082330Y-61579588D01*
X78980697Y-61505747D01*
X80192743Y-60293703D01*
X80192742Y-60293702D01*
X80179514Y-60281171D01*
X80179513Y-60281170D01*
X79894632Y-60064611D01*
X79894629Y-60064609D01*
X79588009Y-59880123D01*
X79263260Y-59729877D01*
X79263255Y-59729876D01*
X78924144Y-59615616D01*
X78574660Y-59538688D01*
X78218924Y-59500000D01*
X77861075Y-59500000D01*
X77505339Y-59538688D01*
X77155855Y-59615616D01*
X76816744Y-59729876D01*
X76816739Y-59729877D01*
X76491990Y-59880123D01*
X76185370Y-60064609D01*
X76185367Y-60064611D01*
X75900491Y-60281166D01*
X75887256Y-60293703D01*
X75887255Y-60293703D01*
X77099301Y-61505748D01*
X76997670Y-61579588D01*
X76819588Y-61757670D01*
X76745748Y-61859301D01*
X75536442Y-60649994D01*
X75536441Y-60649995D01*
X75409040Y-60799983D01*
X75409033Y-60799993D01*
X75208218Y-61096172D01*
X75040606Y-61412322D01*
X75040597Y-61412340D01*
X74908149Y-61744760D01*
X74908147Y-61744767D01*
X74812421Y-62089542D01*
X74812415Y-62089568D01*
X74754527Y-62442668D01*
X74754526Y-62442685D01*
X74735153Y-62799997D01*
X12127500Y-62799997D01*
X12127500Y-59099996D01*
X25094435Y-59099996D01*
X25094435Y-59100003D01*
X25114630Y-59279249D01*
X25114631Y-59279254D01*
X25174211Y-59449523D01*
X25205928Y-59500000D01*
X25270184Y-59602262D01*
X25397738Y-59729816D01*
X25550478Y-59825789D01*
X25705756Y-59880123D01*
X25720745Y-59885368D01*
X25720750Y-59885369D01*
X25899996Y-59905565D01*
X25900000Y-59905565D01*
X25900004Y-59905565D01*
X26079249Y-59885369D01*
X26079252Y-59885368D01*
X26079255Y-59885368D01*
X26249522Y-59825789D01*
X26402262Y-59729816D01*
X26529816Y-59602262D01*
X26625789Y-59449522D01*
X26685368Y-59279255D01*
X26685369Y-59279243D01*
X26685473Y-59278793D01*
X26685624Y-59278522D01*
X26687668Y-59272682D01*
X26688690Y-59273039D01*
X26719573Y-59217809D01*
X26773017Y-59188626D01*
X26772682Y-59187668D01*
X26778504Y-59185630D01*
X26778793Y-59185473D01*
X26779243Y-59185369D01*
X26779255Y-59185368D01*
X26949522Y-59125789D01*
X27102262Y-59029816D01*
X27229816Y-58902262D01*
X27325789Y-58749522D01*
X27378110Y-58599996D01*
X42694435Y-58599996D01*
X42694435Y-58600003D01*
X42714630Y-58779249D01*
X42714631Y-58779254D01*
X42774211Y-58949523D01*
X42824662Y-59029815D01*
X42870184Y-59102262D01*
X42997738Y-59229816D01*
X43150478Y-59325789D01*
X43320745Y-59385368D01*
X43320750Y-59385369D01*
X43499996Y-59405565D01*
X43500000Y-59405565D01*
X43500004Y-59405565D01*
X43679249Y-59385369D01*
X43679252Y-59385368D01*
X43679255Y-59385368D01*
X43849522Y-59325789D01*
X43990039Y-59237496D01*
X46194435Y-59237496D01*
X46194435Y-59237503D01*
X46214630Y-59416749D01*
X46214631Y-59416754D01*
X46274211Y-59587023D01*
X46363972Y-59729876D01*
X46370184Y-59739762D01*
X46497738Y-59867316D01*
X46650478Y-59963289D01*
X46820745Y-60022868D01*
X46820750Y-60022869D01*
X46999996Y-60043065D01*
X47000000Y-60043065D01*
X47000004Y-60043065D01*
X47179249Y-60022869D01*
X47179252Y-60022868D01*
X47179255Y-60022868D01*
X47349522Y-59963289D01*
X47502262Y-59867316D01*
X47629816Y-59739762D01*
X47725789Y-59587022D01*
X47785368Y-59416755D01*
X47786629Y-59405565D01*
X47805565Y-59237503D01*
X47805565Y-59237496D01*
X47785369Y-59058250D01*
X47785368Y-59058245D01*
X47775420Y-59029815D01*
X47725789Y-58887978D01*
X47629816Y-58735238D01*
X47502262Y-58607684D01*
X47486433Y-58597738D01*
X47485473Y-58597135D01*
X101104500Y-58597135D01*
X101104500Y-61292870D01*
X101104501Y-61292876D01*
X101110908Y-61352483D01*
X101161202Y-61487328D01*
X101161206Y-61487335D01*
X101247452Y-61602544D01*
X101247455Y-61602547D01*
X101362664Y-61688793D01*
X101362671Y-61688797D01*
X101497517Y-61739091D01*
X101497516Y-61739091D01*
X101504444Y-61739835D01*
X101557127Y-61745500D01*
X104252872Y-61745499D01*
X104312483Y-61739091D01*
X104447331Y-61688796D01*
X104562546Y-61602546D01*
X104648796Y-61487331D01*
X104699091Y-61352483D01*
X104705500Y-61292873D01*
X104705499Y-58597128D01*
X104699091Y-58537517D01*
X104673977Y-58470184D01*
X104648797Y-58402671D01*
X104648793Y-58402664D01*
X104562547Y-58287455D01*
X104562544Y-58287452D01*
X104447335Y-58201206D01*
X104447328Y-58201202D01*
X104312482Y-58150908D01*
X104312483Y-58150908D01*
X104252883Y-58144501D01*
X104252881Y-58144500D01*
X104252873Y-58144500D01*
X104252864Y-58144500D01*
X101557129Y-58144500D01*
X101557123Y-58144501D01*
X101497516Y-58150908D01*
X101362671Y-58201202D01*
X101362664Y-58201206D01*
X101247455Y-58287452D01*
X101247452Y-58287455D01*
X101161206Y-58402664D01*
X101161202Y-58402671D01*
X101110908Y-58537517D01*
X101104501Y-58597116D01*
X101104501Y-58597123D01*
X101104500Y-58597135D01*
X47485473Y-58597135D01*
X47349523Y-58511711D01*
X47179254Y-58452131D01*
X47179249Y-58452130D01*
X47000004Y-58431935D01*
X46999996Y-58431935D01*
X46820750Y-58452130D01*
X46820745Y-58452131D01*
X46650476Y-58511711D01*
X46497737Y-58607684D01*
X46370184Y-58735237D01*
X46274211Y-58887976D01*
X46214631Y-59058245D01*
X46214630Y-59058250D01*
X46194435Y-59237496D01*
X43990039Y-59237496D01*
X44002262Y-59229816D01*
X44129816Y-59102262D01*
X44225789Y-58949522D01*
X44285368Y-58779255D01*
X44285369Y-58779249D01*
X44305565Y-58600003D01*
X44305565Y-58599996D01*
X44285369Y-58420750D01*
X44285368Y-58420745D01*
X44269085Y-58374210D01*
X44225789Y-58250478D01*
X44207106Y-58220745D01*
X44173534Y-58167315D01*
X44129816Y-58097738D01*
X44002262Y-57970184D01*
X43886965Y-57897738D01*
X43849519Y-57874209D01*
X43731954Y-57833071D01*
X43677744Y-57794190D01*
X43620769Y-57807808D01*
X43613207Y-57807189D01*
X43500004Y-57794435D01*
X43499996Y-57794435D01*
X43320750Y-57814630D01*
X43320745Y-57814631D01*
X43150476Y-57874211D01*
X42997737Y-57970184D01*
X42870184Y-58097737D01*
X42774211Y-58250476D01*
X42714631Y-58420745D01*
X42714630Y-58420750D01*
X42694435Y-58599996D01*
X27378110Y-58599996D01*
X27385368Y-58579255D01*
X27393929Y-58503263D01*
X27420994Y-58438853D01*
X27478588Y-58399297D01*
X27503254Y-58393930D01*
X27579255Y-58385368D01*
X27749522Y-58325789D01*
X27902262Y-58229816D01*
X28029816Y-58102262D01*
X28125789Y-57949522D01*
X28185368Y-57779255D01*
X28197204Y-57674210D01*
X28205565Y-57600003D01*
X28205565Y-57599996D01*
X28185369Y-57420750D01*
X28185368Y-57420745D01*
X28125788Y-57250476D01*
X28062354Y-57149522D01*
X28029816Y-57097738D01*
X27902262Y-56970184D01*
X27749523Y-56874211D01*
X27579254Y-56814631D01*
X27579249Y-56814630D01*
X27400004Y-56794435D01*
X27399996Y-56794435D01*
X27220750Y-56814630D01*
X27220745Y-56814631D01*
X27050476Y-56874211D01*
X26897737Y-56970184D01*
X26770184Y-57097737D01*
X26674210Y-57250478D01*
X26614630Y-57420750D01*
X26606069Y-57496733D01*
X26579002Y-57561147D01*
X26521407Y-57600702D01*
X26496733Y-57606069D01*
X26420750Y-57614630D01*
X26250478Y-57674210D01*
X26097737Y-57770184D01*
X25970184Y-57897737D01*
X25874210Y-58050478D01*
X25814628Y-58220755D01*
X25814518Y-58221241D01*
X25814360Y-58221522D01*
X25812333Y-58227317D01*
X25811317Y-58226961D01*
X25780400Y-58282215D01*
X25726984Y-58311381D01*
X25727317Y-58312333D01*
X25721541Y-58314353D01*
X25721241Y-58314518D01*
X25720755Y-58314628D01*
X25550478Y-58374210D01*
X25397737Y-58470184D01*
X25270184Y-58597737D01*
X25174211Y-58750476D01*
X25114631Y-58920745D01*
X25114630Y-58920750D01*
X25094435Y-59099996D01*
X12127500Y-59099996D01*
X12127500Y-53799996D01*
X26194435Y-53799996D01*
X26194435Y-53800003D01*
X26214630Y-53979249D01*
X26214631Y-53979254D01*
X26274211Y-54149523D01*
X26337646Y-54250478D01*
X26370184Y-54302262D01*
X26497738Y-54429816D01*
X26650478Y-54525789D01*
X26820745Y-54585368D01*
X26820750Y-54585369D01*
X26999996Y-54605565D01*
X27000000Y-54605565D01*
X27000004Y-54605565D01*
X27049430Y-54599996D01*
X42394435Y-54599996D01*
X42394435Y-54600003D01*
X42414630Y-54779249D01*
X42414631Y-54779254D01*
X42474211Y-54949523D01*
X42567341Y-55097737D01*
X42570184Y-55102262D01*
X42697738Y-55229816D01*
X42850478Y-55325789D01*
X42900419Y-55343264D01*
X43020745Y-55385368D01*
X43020750Y-55385369D01*
X43199996Y-55405565D01*
X43200000Y-55405565D01*
X43200004Y-55405565D01*
X43379249Y-55385369D01*
X43379252Y-55385368D01*
X43379255Y-55385368D01*
X43549522Y-55325789D01*
X43608660Y-55288629D01*
X43675897Y-55269629D01*
X43742732Y-55289996D01*
X43787946Y-55343264D01*
X43797185Y-55412520D01*
X43795656Y-55420523D01*
X43775435Y-55599996D01*
X43775435Y-55600003D01*
X43795630Y-55779249D01*
X43795632Y-55779257D01*
X43820673Y-55850821D01*
X43824234Y-55920600D01*
X43789505Y-55981227D01*
X43727511Y-56013454D01*
X43722558Y-56014217D01*
X43720753Y-56014629D01*
X43550478Y-56074210D01*
X43397737Y-56170184D01*
X43270184Y-56297737D01*
X43174211Y-56450476D01*
X43114631Y-56620745D01*
X43114630Y-56620750D01*
X43094435Y-56799996D01*
X43094435Y-56800003D01*
X43114630Y-56979249D01*
X43114631Y-56979254D01*
X43174211Y-57149523D01*
X43237646Y-57250478D01*
X43270184Y-57302262D01*
X43397738Y-57429816D01*
X43550478Y-57525789D01*
X43651525Y-57561147D01*
X43668044Y-57566927D01*
X43722254Y-57605808D01*
X43779230Y-57592191D01*
X43786793Y-57592810D01*
X43899997Y-57605565D01*
X43900000Y-57605565D01*
X43900004Y-57605565D01*
X44079249Y-57585369D01*
X44079252Y-57585368D01*
X44079255Y-57585368D01*
X44216065Y-57537496D01*
X94156935Y-57537496D01*
X94156935Y-57537503D01*
X94177130Y-57716749D01*
X94177131Y-57716754D01*
X94236711Y-57887023D01*
X94243444Y-57897738D01*
X94332684Y-58039762D01*
X94460238Y-58167316D01*
X94612978Y-58263289D01*
X94759708Y-58314632D01*
X94783245Y-58322868D01*
X94783250Y-58322869D01*
X94962496Y-58343065D01*
X94962500Y-58343065D01*
X94962504Y-58343065D01*
X95141749Y-58322869D01*
X95141752Y-58322868D01*
X95141755Y-58322868D01*
X95312022Y-58263289D01*
X95464762Y-58167316D01*
X95592316Y-58039762D01*
X95688289Y-57887022D01*
X95747868Y-57716755D01*
X95752662Y-57674210D01*
X95768065Y-57537503D01*
X95768065Y-57537496D01*
X95747869Y-57358250D01*
X95747868Y-57358245D01*
X95688288Y-57187976D01*
X95636646Y-57105789D01*
X95592316Y-57035238D01*
X95464762Y-56907684D01*
X95411490Y-56874211D01*
X95312023Y-56811711D01*
X95141754Y-56752131D01*
X95141749Y-56752130D01*
X94962504Y-56731935D01*
X94962496Y-56731935D01*
X94783250Y-56752130D01*
X94783245Y-56752131D01*
X94612976Y-56811711D01*
X94460237Y-56907684D01*
X94332684Y-57035237D01*
X94236711Y-57187976D01*
X94177131Y-57358245D01*
X94177130Y-57358250D01*
X94156935Y-57537496D01*
X44216065Y-57537496D01*
X44249522Y-57525789D01*
X44402262Y-57429816D01*
X44529816Y-57302262D01*
X44625789Y-57149522D01*
X44685368Y-56979255D01*
X44693432Y-56907684D01*
X44705565Y-56800003D01*
X44705565Y-56799996D01*
X44685369Y-56620750D01*
X44685367Y-56620740D01*
X44663851Y-56559254D01*
X44660325Y-56549178D01*
X44656763Y-56479401D01*
X44691492Y-56418773D01*
X44753485Y-56386546D01*
X44758443Y-56385781D01*
X44760253Y-56385368D01*
X44760255Y-56385368D01*
X44775607Y-56379996D01*
X69594435Y-56379996D01*
X69594435Y-56380003D01*
X69614630Y-56559249D01*
X69614631Y-56559254D01*
X69674211Y-56729523D01*
X69727689Y-56814632D01*
X69770184Y-56882262D01*
X69897738Y-57009816D01*
X70050478Y-57105789D01*
X70175460Y-57149522D01*
X70220745Y-57165368D01*
X70220750Y-57165369D01*
X70399996Y-57185565D01*
X70400000Y-57185565D01*
X70400004Y-57185565D01*
X70579249Y-57165369D01*
X70579252Y-57165368D01*
X70579255Y-57165368D01*
X70749522Y-57105789D01*
X70902262Y-57009816D01*
X71029816Y-56882262D01*
X71125789Y-56729522D01*
X71185368Y-56559255D01*
X71186944Y-56545269D01*
X71205565Y-56380003D01*
X71205565Y-56379996D01*
X71185369Y-56200750D01*
X71185368Y-56200745D01*
X71125788Y-56030476D01*
X71086582Y-55968080D01*
X71029816Y-55877738D01*
X70902262Y-55750184D01*
X70878684Y-55735369D01*
X70749523Y-55654211D01*
X70579254Y-55594631D01*
X70579249Y-55594630D01*
X70400004Y-55574435D01*
X70399996Y-55574435D01*
X70220750Y-55594630D01*
X70220745Y-55594631D01*
X70050476Y-55654211D01*
X69897737Y-55750184D01*
X69770184Y-55877737D01*
X69674211Y-56030476D01*
X69614631Y-56200745D01*
X69614630Y-56200750D01*
X69594435Y-56379996D01*
X44775607Y-56379996D01*
X44930522Y-56325789D01*
X45083262Y-56229816D01*
X45210816Y-56102262D01*
X45306789Y-55949522D01*
X45366368Y-55779255D01*
X45366369Y-55779249D01*
X45386565Y-55600003D01*
X45386565Y-55599996D01*
X45366369Y-55420750D01*
X45366368Y-55420745D01*
X45333141Y-55325788D01*
X45306789Y-55250478D01*
X45210816Y-55097738D01*
X45083262Y-54970184D01*
X45051144Y-54950003D01*
X45051133Y-54949996D01*
X47384435Y-54949996D01*
X47384435Y-54950003D01*
X47404630Y-55129249D01*
X47404631Y-55129254D01*
X47464211Y-55299523D01*
X47540384Y-55420750D01*
X47560184Y-55452262D01*
X47687738Y-55579816D01*
X47840478Y-55675789D01*
X48010745Y-55735368D01*
X48010750Y-55735369D01*
X48189996Y-55755565D01*
X48190000Y-55755565D01*
X48190004Y-55755565D01*
X48369249Y-55735369D01*
X48369252Y-55735368D01*
X48369255Y-55735368D01*
X48539522Y-55675789D01*
X48692262Y-55579816D01*
X48819816Y-55452262D01*
X48915789Y-55299522D01*
X48975368Y-55129255D01*
X48975369Y-55129249D01*
X48995565Y-54950003D01*
X48995565Y-54949996D01*
X48985988Y-54864995D01*
X101099953Y-54864995D01*
X101099953Y-54865004D01*
X101120113Y-55134026D01*
X101120113Y-55134028D01*
X101180142Y-55397033D01*
X101180148Y-55397052D01*
X101278709Y-55648181D01*
X101278708Y-55648181D01*
X101413600Y-55881818D01*
X101467294Y-55949150D01*
X101467295Y-55949150D01*
X102303958Y-55112487D01*
X102328978Y-55172890D01*
X102400112Y-55279351D01*
X102490649Y-55369888D01*
X102597110Y-55441022D01*
X102657511Y-55466041D01*
X101819848Y-56303703D01*
X102002476Y-56428216D01*
X102002485Y-56428221D01*
X102245539Y-56545269D01*
X102245537Y-56545269D01*
X102503337Y-56624790D01*
X102503343Y-56624792D01*
X102770101Y-56664999D01*
X102770110Y-56665000D01*
X103039890Y-56665000D01*
X103039898Y-56664999D01*
X103306656Y-56624792D01*
X103306662Y-56624790D01*
X103564461Y-56545269D01*
X103807516Y-56428221D01*
X103807517Y-56428220D01*
X103990150Y-56303703D01*
X103152487Y-55466041D01*
X103212890Y-55441022D01*
X103319351Y-55369888D01*
X103409888Y-55279351D01*
X103481022Y-55172890D01*
X103506041Y-55112487D01*
X104342703Y-55949150D01*
X104342704Y-55949149D01*
X104396400Y-55881818D01*
X104531290Y-55648181D01*
X104629851Y-55397052D01*
X104629857Y-55397033D01*
X104689886Y-55134028D01*
X104689886Y-55134026D01*
X104710047Y-54865004D01*
X104710047Y-54864995D01*
X104689886Y-54595973D01*
X104689886Y-54595971D01*
X104629857Y-54332966D01*
X104629851Y-54332947D01*
X104531290Y-54081818D01*
X104531291Y-54081818D01*
X104396400Y-53848182D01*
X104396393Y-53848171D01*
X104342704Y-53780849D01*
X104342703Y-53780848D01*
X103506041Y-54617511D01*
X103481022Y-54557110D01*
X103409888Y-54450649D01*
X103319351Y-54360112D01*
X103212890Y-54288978D01*
X103152488Y-54263958D01*
X103990150Y-53426295D01*
X103807524Y-53301783D01*
X103807516Y-53301778D01*
X103564460Y-53184730D01*
X103564462Y-53184730D01*
X103306662Y-53105209D01*
X103306656Y-53105207D01*
X103039898Y-53065000D01*
X102770101Y-53065000D01*
X102503343Y-53105207D01*
X102503337Y-53105209D01*
X102245538Y-53184730D01*
X102002482Y-53301780D01*
X102002469Y-53301787D01*
X101819848Y-53426294D01*
X102657512Y-54263958D01*
X102597110Y-54288978D01*
X102490649Y-54360112D01*
X102400112Y-54450649D01*
X102328978Y-54557110D01*
X102303958Y-54617512D01*
X101467294Y-53780848D01*
X101413602Y-53848177D01*
X101278709Y-54081818D01*
X101180148Y-54332947D01*
X101180142Y-54332966D01*
X101120113Y-54595971D01*
X101120113Y-54595973D01*
X101099953Y-54864995D01*
X48985988Y-54864995D01*
X48975369Y-54770750D01*
X48975368Y-54770745D01*
X48915788Y-54600476D01*
X48819815Y-54447737D01*
X48692262Y-54320184D01*
X48539523Y-54224211D01*
X48369254Y-54164631D01*
X48369249Y-54164630D01*
X48190004Y-54144435D01*
X48189996Y-54144435D01*
X48010750Y-54164630D01*
X48010745Y-54164631D01*
X47840476Y-54224211D01*
X47687737Y-54320184D01*
X47560184Y-54447737D01*
X47464211Y-54600476D01*
X47404631Y-54770745D01*
X47404630Y-54770750D01*
X47384435Y-54949996D01*
X45051133Y-54949996D01*
X44930523Y-54874211D01*
X44760254Y-54814631D01*
X44760249Y-54814630D01*
X44581004Y-54794435D01*
X44580996Y-54794435D01*
X44401750Y-54814630D01*
X44401745Y-54814631D01*
X44231474Y-54874212D01*
X44172337Y-54911370D01*
X44105100Y-54930370D01*
X44038265Y-54910002D01*
X43993052Y-54856733D01*
X43983815Y-54787477D01*
X43985344Y-54779470D01*
X44005565Y-54600003D01*
X44005565Y-54599996D01*
X43985369Y-54420750D01*
X43985368Y-54420745D01*
X43972989Y-54385368D01*
X43925789Y-54250478D01*
X43829816Y-54097738D01*
X43702262Y-53970184D01*
X43669379Y-53949522D01*
X43549523Y-53874211D01*
X43379254Y-53814631D01*
X43379249Y-53814630D01*
X43200004Y-53794435D01*
X43199996Y-53794435D01*
X43020750Y-53814630D01*
X43020745Y-53814631D01*
X42850476Y-53874211D01*
X42697737Y-53970184D01*
X42570184Y-54097737D01*
X42474211Y-54250476D01*
X42414631Y-54420745D01*
X42414630Y-54420750D01*
X42394435Y-54599996D01*
X27049430Y-54599996D01*
X27179249Y-54585369D01*
X27179252Y-54585368D01*
X27179255Y-54585368D01*
X27349522Y-54525789D01*
X27502262Y-54429816D01*
X27629816Y-54302262D01*
X27725789Y-54149522D01*
X27785368Y-53979255D01*
X27797204Y-53874211D01*
X27805565Y-53800003D01*
X27805565Y-53799996D01*
X27785369Y-53620750D01*
X27785368Y-53620745D01*
X27778108Y-53599996D01*
X58494435Y-53599996D01*
X58494435Y-53600003D01*
X58514630Y-53779249D01*
X58514631Y-53779254D01*
X58574211Y-53949523D01*
X58657338Y-54081818D01*
X58670184Y-54102262D01*
X58797738Y-54229816D01*
X58888080Y-54286582D01*
X58941557Y-54320184D01*
X58950478Y-54325789D01*
X59120745Y-54385368D01*
X59120750Y-54385369D01*
X59299996Y-54405565D01*
X59300000Y-54405565D01*
X59300004Y-54405565D01*
X59479249Y-54385369D01*
X59479252Y-54385368D01*
X59479255Y-54385368D01*
X59649522Y-54325789D01*
X59802262Y-54229816D01*
X59929816Y-54102262D01*
X60025789Y-53949522D01*
X60085368Y-53779255D01*
X60105565Y-53600000D01*
X60088718Y-53450478D01*
X60085369Y-53420750D01*
X60085368Y-53420745D01*
X60043740Y-53301780D01*
X60025789Y-53250478D01*
X59929816Y-53097738D01*
X59802262Y-52970184D01*
X59649523Y-52874211D01*
X59479254Y-52814631D01*
X59479249Y-52814630D01*
X59300004Y-52794435D01*
X59299996Y-52794435D01*
X59120750Y-52814630D01*
X59120745Y-52814631D01*
X58950476Y-52874211D01*
X58797737Y-52970184D01*
X58670184Y-53097737D01*
X58574211Y-53250476D01*
X58514631Y-53420745D01*
X58514630Y-53420750D01*
X58494435Y-53599996D01*
X27778108Y-53599996D01*
X27725788Y-53450476D01*
X27632360Y-53301787D01*
X27629816Y-53297738D01*
X27502262Y-53170184D01*
X27431608Y-53125789D01*
X27349523Y-53074211D01*
X27179254Y-53014631D01*
X27179249Y-53014630D01*
X27000004Y-52994435D01*
X26999996Y-52994435D01*
X26820750Y-53014630D01*
X26820745Y-53014631D01*
X26650476Y-53074211D01*
X26497737Y-53170184D01*
X26370184Y-53297737D01*
X26274211Y-53450476D01*
X26214631Y-53620745D01*
X26214630Y-53620750D01*
X26194435Y-53799996D01*
X12127500Y-53799996D01*
X12127500Y-52399996D01*
X71894435Y-52399996D01*
X71894435Y-52400003D01*
X71914630Y-52579249D01*
X71914631Y-52579254D01*
X71974211Y-52749523D01*
X72015122Y-52814632D01*
X72070184Y-52902262D01*
X72197738Y-53029816D01*
X72253733Y-53065000D01*
X72305833Y-53097737D01*
X72350478Y-53125789D01*
X72477352Y-53170184D01*
X72520745Y-53185368D01*
X72520750Y-53185369D01*
X72699996Y-53205565D01*
X72700000Y-53205565D01*
X72700004Y-53205565D01*
X72879249Y-53185369D01*
X72879252Y-53185368D01*
X72879255Y-53185368D01*
X73049522Y-53125789D01*
X73202262Y-53029816D01*
X73329816Y-52902262D01*
X73425789Y-52749522D01*
X73485368Y-52579255D01*
X73487907Y-52556712D01*
X73514973Y-52492300D01*
X73570174Y-52453553D01*
X73649522Y-52425789D01*
X73802262Y-52329816D01*
X73929816Y-52202262D01*
X74025789Y-52049522D01*
X74085368Y-51879255D01*
X74087907Y-51856712D01*
X74114973Y-51792300D01*
X74170174Y-51753553D01*
X74249522Y-51725789D01*
X74402262Y-51629816D01*
X74529816Y-51502262D01*
X74625789Y-51349522D01*
X74685368Y-51179255D01*
X74685369Y-51179249D01*
X74705565Y-51000003D01*
X74705565Y-50999996D01*
X74685369Y-50820750D01*
X74685368Y-50820745D01*
X74667676Y-50770184D01*
X74625789Y-50650478D01*
X74603265Y-50614632D01*
X74529815Y-50497737D01*
X74402262Y-50370184D01*
X74249523Y-50274211D01*
X74079254Y-50214631D01*
X74079249Y-50214630D01*
X73900004Y-50194435D01*
X73899996Y-50194435D01*
X73720750Y-50214630D01*
X73720745Y-50214631D01*
X73550476Y-50274211D01*
X73397737Y-50370184D01*
X73270184Y-50497737D01*
X73174210Y-50650478D01*
X73114630Y-50820750D01*
X73112091Y-50843289D01*
X73085024Y-50907703D01*
X73029827Y-50946445D01*
X72950476Y-50974211D01*
X72950475Y-50974212D01*
X72797737Y-51070184D01*
X72670184Y-51197737D01*
X72574210Y-51350478D01*
X72514630Y-51520750D01*
X72512091Y-51543289D01*
X72485024Y-51607703D01*
X72429827Y-51646445D01*
X72350476Y-51674211D01*
X72350475Y-51674212D01*
X72197737Y-51770184D01*
X72070184Y-51897737D01*
X71974211Y-52050476D01*
X71914631Y-52220745D01*
X71914630Y-52220750D01*
X71894435Y-52399996D01*
X12127500Y-52399996D01*
X12127500Y-51499996D01*
X19756935Y-51499996D01*
X19756935Y-51500003D01*
X19777130Y-51679249D01*
X19777131Y-51679254D01*
X19836711Y-51849523D01*
X19932684Y-52002262D01*
X20060238Y-52129816D01*
X20148648Y-52185368D01*
X20204950Y-52220745D01*
X20212978Y-52225789D01*
X20383245Y-52285368D01*
X20383250Y-52285369D01*
X20562496Y-52305565D01*
X20562500Y-52305565D01*
X20562504Y-52305565D01*
X20741749Y-52285369D01*
X20741752Y-52285368D01*
X20741755Y-52285368D01*
X20912022Y-52225789D01*
X21064762Y-52129816D01*
X21192316Y-52002262D01*
X21288289Y-51849522D01*
X21347868Y-51679255D01*
X21347869Y-51679249D01*
X21368065Y-51500003D01*
X21368065Y-51499996D01*
X21356798Y-51399996D01*
X40594435Y-51399996D01*
X40594435Y-51400003D01*
X40614630Y-51579249D01*
X40614631Y-51579254D01*
X40674211Y-51749523D01*
X40696735Y-51785369D01*
X40770184Y-51902262D01*
X40897738Y-52029816D01*
X41050478Y-52125789D01*
X41061984Y-52129815D01*
X41220745Y-52185368D01*
X41220750Y-52185369D01*
X41399996Y-52205565D01*
X41400000Y-52205565D01*
X41400004Y-52205565D01*
X41579249Y-52185369D01*
X41579252Y-52185368D01*
X41579255Y-52185368D01*
X41749522Y-52125789D01*
X41902262Y-52029816D01*
X42029816Y-51902262D01*
X42125789Y-51749522D01*
X42185368Y-51579255D01*
X42185369Y-51579249D01*
X42205565Y-51400003D01*
X42205565Y-51399996D01*
X42185369Y-51220750D01*
X42185368Y-51220745D01*
X42125789Y-51050478D01*
X42029816Y-50897738D01*
X41902262Y-50770184D01*
X41749523Y-50674211D01*
X41579254Y-50614631D01*
X41579249Y-50614630D01*
X41400004Y-50594435D01*
X41399996Y-50594435D01*
X41220750Y-50614630D01*
X41220745Y-50614631D01*
X41050476Y-50674211D01*
X40897737Y-50770184D01*
X40770184Y-50897737D01*
X40674211Y-51050476D01*
X40614631Y-51220745D01*
X40614630Y-51220750D01*
X40594435Y-51399996D01*
X21356798Y-51399996D01*
X21347869Y-51320750D01*
X21347868Y-51320745D01*
X21304826Y-51197738D01*
X21288289Y-51150478D01*
X21192316Y-50997738D01*
X21064762Y-50870184D01*
X21031879Y-50849522D01*
X20912023Y-50774211D01*
X20741754Y-50714631D01*
X20741749Y-50714630D01*
X20562504Y-50694435D01*
X20562496Y-50694435D01*
X20383250Y-50714630D01*
X20383245Y-50714631D01*
X20212976Y-50774211D01*
X20060237Y-50870184D01*
X19932684Y-50997737D01*
X19836711Y-51150476D01*
X19777131Y-51320745D01*
X19777130Y-51320750D01*
X19756935Y-51499996D01*
X12127500Y-51499996D01*
X12127500Y-49937496D01*
X34756935Y-49937496D01*
X34756935Y-49937503D01*
X34777130Y-50116749D01*
X34777131Y-50116754D01*
X34836711Y-50287023D01*
X34859235Y-50322869D01*
X34932684Y-50439762D01*
X35060238Y-50567316D01*
X35212978Y-50663289D01*
X35359702Y-50714630D01*
X35383245Y-50722868D01*
X35383250Y-50722869D01*
X35562496Y-50743065D01*
X35562500Y-50743065D01*
X35562504Y-50743065D01*
X35741749Y-50722869D01*
X35741752Y-50722868D01*
X35741755Y-50722868D01*
X35912022Y-50663289D01*
X36064762Y-50567316D01*
X36192316Y-50439762D01*
X36288289Y-50287022D01*
X36347868Y-50116755D01*
X36354339Y-50059324D01*
X36354339Y-50059320D01*
X62153759Y-50059320D01*
X62153759Y-50059327D01*
X62173954Y-50238573D01*
X62173955Y-50238578D01*
X62233535Y-50408847D01*
X62329508Y-50561586D01*
X62457062Y-50689140D01*
X62542883Y-50743065D01*
X62592451Y-50774211D01*
X62609802Y-50785113D01*
X62711647Y-50820750D01*
X62780069Y-50844692D01*
X62780074Y-50844693D01*
X62959320Y-50864889D01*
X62959324Y-50864889D01*
X62959328Y-50864889D01*
X63138573Y-50844693D01*
X63138574Y-50844692D01*
X63138579Y-50844692D01*
X63153939Y-50839316D01*
X63223717Y-50835754D01*
X63284344Y-50870482D01*
X63299885Y-50890383D01*
X63370184Y-51002262D01*
X63497738Y-51129816D01*
X63576410Y-51179249D01*
X63642450Y-51220745D01*
X63650478Y-51225789D01*
X63784073Y-51272536D01*
X63820745Y-51285368D01*
X63820750Y-51285369D01*
X63999996Y-51305565D01*
X64000000Y-51305565D01*
X64000004Y-51305565D01*
X64179249Y-51285369D01*
X64179251Y-51285368D01*
X64179255Y-51285368D01*
X64179258Y-51285366D01*
X64179262Y-51285366D01*
X64304994Y-51241370D01*
X64374772Y-51237807D01*
X64435400Y-51272536D01*
X64462990Y-51317455D01*
X64474211Y-51349523D01*
X64474212Y-51349524D01*
X64505926Y-51399996D01*
X64570184Y-51502262D01*
X64697738Y-51629816D01*
X64850478Y-51725789D01*
X64918306Y-51749523D01*
X65020745Y-51785368D01*
X65020750Y-51785369D01*
X65199996Y-51805565D01*
X65200000Y-51805565D01*
X65200004Y-51805565D01*
X65379249Y-51785369D01*
X65379252Y-51785368D01*
X65379255Y-51785368D01*
X65549522Y-51725789D01*
X65702262Y-51629816D01*
X65829816Y-51502262D01*
X65925789Y-51349522D01*
X65985368Y-51179255D01*
X65985369Y-51179249D01*
X66005565Y-51000003D01*
X66005565Y-50999996D01*
X65985369Y-50820750D01*
X65985368Y-50820745D01*
X65967676Y-50770184D01*
X65925789Y-50650478D01*
X65903265Y-50614632D01*
X65829815Y-50497737D01*
X65702262Y-50370184D01*
X65549523Y-50274211D01*
X65379254Y-50214631D01*
X65379249Y-50214630D01*
X65200004Y-50194435D01*
X65199996Y-50194435D01*
X65020750Y-50214630D01*
X65020745Y-50214631D01*
X64895006Y-50258630D01*
X64825227Y-50262191D01*
X64764599Y-50227462D01*
X64737009Y-50182543D01*
X64731681Y-50167316D01*
X64725789Y-50150478D01*
X64704599Y-50116755D01*
X64668513Y-50059324D01*
X64629816Y-49997738D01*
X64502262Y-49870184D01*
X64349523Y-49774211D01*
X64179254Y-49714631D01*
X64179249Y-49714630D01*
X64000004Y-49694435D01*
X63999996Y-49694435D01*
X63820746Y-49714631D01*
X63820744Y-49714631D01*
X63805377Y-49720008D01*
X63735598Y-49723566D01*
X63674973Y-49688833D01*
X63659435Y-49668936D01*
X63608566Y-49587978D01*
X63589140Y-49557062D01*
X63569574Y-49537496D01*
X70156935Y-49537496D01*
X70156935Y-49537503D01*
X70177130Y-49716749D01*
X70177131Y-49716754D01*
X70236711Y-49887023D01*
X70332684Y-50039762D01*
X70460238Y-50167316D01*
X70484472Y-50182543D01*
X70611230Y-50262191D01*
X70612978Y-50263289D01*
X70680806Y-50287023D01*
X70783245Y-50322868D01*
X70783250Y-50322869D01*
X70962496Y-50343065D01*
X70962500Y-50343065D01*
X70962504Y-50343065D01*
X71141749Y-50322869D01*
X71141752Y-50322868D01*
X71141755Y-50322868D01*
X71312022Y-50263289D01*
X71464762Y-50167316D01*
X71592316Y-50039762D01*
X71688289Y-49887022D01*
X71747868Y-49716755D01*
X71747869Y-49716749D01*
X71768065Y-49537503D01*
X71768065Y-49537496D01*
X71747869Y-49358250D01*
X71747868Y-49358245D01*
X71711307Y-49253759D01*
X71688289Y-49187978D01*
X71665765Y-49152132D01*
X71592315Y-49035237D01*
X71464762Y-48907684D01*
X71312023Y-48811711D01*
X71141754Y-48752131D01*
X71141749Y-48752130D01*
X70962504Y-48731935D01*
X70962496Y-48731935D01*
X70783250Y-48752130D01*
X70783245Y-48752131D01*
X70612976Y-48811711D01*
X70460237Y-48907684D01*
X70332684Y-49035237D01*
X70236711Y-49187976D01*
X70177131Y-49358245D01*
X70177130Y-49358250D01*
X70156935Y-49537496D01*
X63569574Y-49537496D01*
X63461586Y-49429508D01*
X63348172Y-49358245D01*
X63308847Y-49333535D01*
X63138578Y-49273955D01*
X63138573Y-49273954D01*
X62959328Y-49253759D01*
X62959320Y-49253759D01*
X62780074Y-49273954D01*
X62780069Y-49273955D01*
X62609800Y-49333535D01*
X62457061Y-49429508D01*
X62329508Y-49557061D01*
X62233535Y-49709800D01*
X62173955Y-49880069D01*
X62173954Y-49880074D01*
X62153759Y-50059320D01*
X36354339Y-50059320D01*
X36368065Y-49937503D01*
X36368065Y-49937496D01*
X36347869Y-49758250D01*
X36347868Y-49758245D01*
X36288288Y-49587976D01*
X36192315Y-49435237D01*
X36064762Y-49307684D01*
X35912023Y-49211711D01*
X35741754Y-49152131D01*
X35741749Y-49152130D01*
X35562504Y-49131935D01*
X35562496Y-49131935D01*
X35383250Y-49152130D01*
X35383245Y-49152131D01*
X35212976Y-49211711D01*
X35060237Y-49307684D01*
X34932684Y-49435237D01*
X34836711Y-49587976D01*
X34777131Y-49758245D01*
X34777130Y-49758250D01*
X34756935Y-49937496D01*
X12127500Y-49937496D01*
X12127500Y-45659994D01*
X14390245Y-45659994D01*
X14390245Y-45660005D01*
X14409245Y-45962011D01*
X14409246Y-45962018D01*
X14465953Y-46259286D01*
X14559466Y-46547091D01*
X14559468Y-46547096D01*
X14688313Y-46820904D01*
X14688317Y-46820910D01*
X14850460Y-47076408D01*
X14931761Y-47174684D01*
X15935047Y-46171399D01*
X16020686Y-46299567D01*
X16160433Y-46439314D01*
X16288599Y-46524952D01*
X15282984Y-47530566D01*
X15282985Y-47530568D01*
X15508786Y-47694621D01*
X15773983Y-47840415D01*
X15773984Y-47840416D01*
X16055340Y-47951811D01*
X16348457Y-48027071D01*
X16348466Y-48027073D01*
X16648678Y-48064999D01*
X16648692Y-48065000D01*
X16951308Y-48065000D01*
X16951321Y-48064999D01*
X17251533Y-48027073D01*
X17251542Y-48027071D01*
X17544659Y-47951811D01*
X17826015Y-47840416D01*
X17826016Y-47840415D01*
X18091208Y-47694624D01*
X18317013Y-47530567D01*
X18317014Y-47530566D01*
X17311399Y-46524952D01*
X17439567Y-46439314D01*
X17579314Y-46299567D01*
X17664952Y-46171399D01*
X18668237Y-47174684D01*
X18709344Y-47124996D01*
X58294435Y-47124996D01*
X58294435Y-47125003D01*
X58314630Y-47304249D01*
X58314631Y-47304254D01*
X58374211Y-47474523D01*
X58409426Y-47530567D01*
X58470184Y-47627262D01*
X58597738Y-47754816D01*
X58750478Y-47850789D01*
X58891104Y-47899996D01*
X58920745Y-47910368D01*
X58920750Y-47910369D01*
X59099996Y-47930565D01*
X59100000Y-47930565D01*
X59100004Y-47930565D01*
X59279249Y-47910369D01*
X59279252Y-47910368D01*
X59279255Y-47910368D01*
X59308896Y-47899996D01*
X63194435Y-47899996D01*
X63194435Y-47900003D01*
X63214630Y-48079249D01*
X63214631Y-48079254D01*
X63274211Y-48249523D01*
X63370184Y-48402262D01*
X63497738Y-48529816D01*
X63650478Y-48625789D01*
X63820745Y-48685368D01*
X63820750Y-48685369D01*
X63999996Y-48705565D01*
X64000000Y-48705565D01*
X64000004Y-48705565D01*
X64179249Y-48685369D01*
X64179252Y-48685368D01*
X64179255Y-48685368D01*
X64349522Y-48625789D01*
X64502262Y-48529816D01*
X64629816Y-48402262D01*
X64725789Y-48249522D01*
X64785368Y-48079255D01*
X64786974Y-48065000D01*
X64805565Y-47900003D01*
X64805565Y-47899996D01*
X64785369Y-47720750D01*
X64785368Y-47720745D01*
X64752657Y-47627262D01*
X64725789Y-47550478D01*
X64713277Y-47530566D01*
X64629815Y-47397737D01*
X64502262Y-47270184D01*
X64349523Y-47174211D01*
X64179254Y-47114631D01*
X64179249Y-47114630D01*
X64000004Y-47094435D01*
X63999996Y-47094435D01*
X63820750Y-47114630D01*
X63820745Y-47114631D01*
X63650476Y-47174211D01*
X63497737Y-47270184D01*
X63370184Y-47397737D01*
X63274211Y-47550476D01*
X63214631Y-47720745D01*
X63214630Y-47720750D01*
X63194435Y-47899996D01*
X59308896Y-47899996D01*
X59449522Y-47850789D01*
X59602262Y-47754816D01*
X59729816Y-47627262D01*
X59825789Y-47474522D01*
X59885368Y-47304255D01*
X59885369Y-47304249D01*
X59905565Y-47125003D01*
X59905565Y-47124996D01*
X59885369Y-46945750D01*
X59885368Y-46945745D01*
X59825788Y-46775476D01*
X59790993Y-46720100D01*
X100435097Y-46720100D01*
X100455059Y-46922782D01*
X100514179Y-47117672D01*
X100610180Y-47297278D01*
X100610184Y-47297285D01*
X100739384Y-47454715D01*
X100896814Y-47583915D01*
X100896821Y-47583919D01*
X101076427Y-47679920D01*
X101076429Y-47679921D01*
X101271320Y-47739041D01*
X101474000Y-47759003D01*
X101676680Y-47739041D01*
X101871571Y-47679921D01*
X102051184Y-47583916D01*
X102208615Y-47454715D01*
X102337816Y-47297284D01*
X102433821Y-47117671D01*
X102492941Y-46922780D01*
X102512903Y-46720100D01*
X102492941Y-46517420D01*
X102433821Y-46322529D01*
X102400017Y-46259286D01*
X102343218Y-46153021D01*
X102328976Y-46084618D01*
X102343218Y-46036114D01*
X102433355Y-45867481D01*
X102492447Y-45672680D01*
X102512399Y-45470100D01*
X102492447Y-45267519D01*
X102433355Y-45072719D01*
X102360756Y-44936896D01*
X101739721Y-45557930D01*
X101753400Y-45506884D01*
X101753400Y-45433316D01*
X101734359Y-45362256D01*
X101697576Y-45298544D01*
X101645556Y-45246524D01*
X101581844Y-45209741D01*
X101510784Y-45190700D01*
X101437216Y-45190700D01*
X101366156Y-45209741D01*
X101302444Y-45246524D01*
X101250424Y-45298544D01*
X101213641Y-45362256D01*
X101194600Y-45433316D01*
X101194600Y-45506884D01*
X101208278Y-45557932D01*
X100587242Y-44936896D01*
X100514646Y-45072714D01*
X100514645Y-45072717D01*
X100455552Y-45267519D01*
X100435600Y-45470100D01*
X100455552Y-45672680D01*
X100514645Y-45867482D01*
X100514646Y-45867485D01*
X100604781Y-46036116D01*
X100619023Y-46104519D01*
X100604781Y-46153022D01*
X100514179Y-46322527D01*
X100455059Y-46517417D01*
X100435097Y-46720100D01*
X59790993Y-46720100D01*
X59729815Y-46622737D01*
X59602262Y-46495184D01*
X59449523Y-46399211D01*
X59279254Y-46339631D01*
X59279249Y-46339630D01*
X59100004Y-46319435D01*
X59099996Y-46319435D01*
X58920750Y-46339630D01*
X58920745Y-46339631D01*
X58750476Y-46399211D01*
X58597737Y-46495184D01*
X58470184Y-46622737D01*
X58374211Y-46775476D01*
X58314631Y-46945745D01*
X58314630Y-46945750D01*
X58294435Y-47124996D01*
X18709344Y-47124996D01*
X18749536Y-47076413D01*
X18911682Y-46820910D01*
X18911686Y-46820904D01*
X19040531Y-46547096D01*
X19040533Y-46547091D01*
X19134046Y-46259286D01*
X19190753Y-45962018D01*
X19190754Y-45962011D01*
X19209755Y-45660005D01*
X19209755Y-45659994D01*
X19190754Y-45357988D01*
X19190753Y-45357981D01*
X19151078Y-45149996D01*
X65604435Y-45149996D01*
X65604435Y-45150003D01*
X65624630Y-45329249D01*
X65624631Y-45329254D01*
X65684211Y-45499523D01*
X65773520Y-45641656D01*
X65780184Y-45652262D01*
X65907738Y-45779816D01*
X66060478Y-45875789D01*
X66230745Y-45935368D01*
X66230750Y-45935369D01*
X66409996Y-45955565D01*
X66410000Y-45955565D01*
X66410004Y-45955565D01*
X66589249Y-45935369D01*
X66589252Y-45935368D01*
X66589255Y-45935368D01*
X66759522Y-45875789D01*
X66912262Y-45779816D01*
X67039816Y-45652262D01*
X67135789Y-45499522D01*
X67195368Y-45329255D01*
X67197938Y-45306446D01*
X67215565Y-45150003D01*
X67215565Y-45149996D01*
X67195369Y-44970750D01*
X67195368Y-44970745D01*
X67135788Y-44800476D01*
X67096582Y-44738080D01*
X67039816Y-44647738D01*
X66975420Y-44583342D01*
X100940796Y-44583342D01*
X101474000Y-45116546D01*
X101474001Y-45116546D01*
X102007202Y-44583343D01*
X101871380Y-44510744D01*
X101676578Y-44451652D01*
X101676582Y-44451652D01*
X101474000Y-44431700D01*
X101271419Y-44451652D01*
X101076617Y-44510745D01*
X101076614Y-44510746D01*
X100940796Y-44583342D01*
X66975420Y-44583342D01*
X66912262Y-44520184D01*
X66878690Y-44499089D01*
X66759523Y-44424211D01*
X66589254Y-44364631D01*
X66589249Y-44364630D01*
X66410004Y-44344435D01*
X66409996Y-44344435D01*
X66230750Y-44364630D01*
X66230745Y-44364631D01*
X66060476Y-44424211D01*
X65907737Y-44520184D01*
X65780184Y-44647737D01*
X65684211Y-44800476D01*
X65624631Y-44970745D01*
X65624630Y-44970750D01*
X65604435Y-45149996D01*
X19151078Y-45149996D01*
X19134046Y-45060713D01*
X19040533Y-44772908D01*
X19040531Y-44772903D01*
X18911686Y-44499095D01*
X18911682Y-44499089D01*
X18749539Y-44243591D01*
X18668236Y-44145313D01*
X17664951Y-45148599D01*
X17579314Y-45020433D01*
X17439567Y-44880686D01*
X17311398Y-44795046D01*
X18317014Y-43789432D01*
X18317013Y-43789430D01*
X18091213Y-43625378D01*
X17826016Y-43479584D01*
X17826015Y-43479583D01*
X17544659Y-43368188D01*
X17251542Y-43292928D01*
X17251533Y-43292926D01*
X16951321Y-43255000D01*
X16648678Y-43255000D01*
X16348466Y-43292926D01*
X16348457Y-43292928D01*
X16055340Y-43368188D01*
X15773984Y-43479583D01*
X15773983Y-43479584D01*
X15508789Y-43625377D01*
X15508777Y-43625384D01*
X15282985Y-43789431D01*
X15282984Y-43789432D01*
X16288600Y-44795047D01*
X16160433Y-44880686D01*
X16020686Y-45020433D01*
X15935047Y-45148600D01*
X14931761Y-44145313D01*
X14850463Y-44243586D01*
X14688317Y-44499089D01*
X14688313Y-44499095D01*
X14559468Y-44772903D01*
X14559466Y-44772908D01*
X14465953Y-45060713D01*
X14409246Y-45357981D01*
X14409245Y-45357988D01*
X14390245Y-45659994D01*
X12127500Y-45659994D01*
X12127500Y-40579994D01*
X20422020Y-40579994D01*
X20422020Y-40580005D01*
X20441904Y-40819972D01*
X20441904Y-40819975D01*
X20441905Y-40819976D01*
X20501017Y-41053405D01*
X20597745Y-41273922D01*
X20729449Y-41475510D01*
X20892537Y-41652671D01*
X21020750Y-41752463D01*
X21061562Y-41809172D01*
X21065237Y-41878945D01*
X21044745Y-41914852D01*
X21043789Y-41930237D01*
X21795905Y-42682352D01*
X21708429Y-42705792D01*
X21607070Y-42764311D01*
X21524311Y-42847070D01*
X21465792Y-42948429D01*
X21442352Y-43035905D01*
X20690882Y-42284434D01*
X20598184Y-42426320D01*
X20501491Y-42646759D01*
X20442399Y-42880110D01*
X20422522Y-43119994D01*
X20422522Y-43120005D01*
X20442399Y-43359889D01*
X20501491Y-43593240D01*
X20598184Y-43813679D01*
X20690882Y-43955564D01*
X21442352Y-43204094D01*
X21465792Y-43291571D01*
X21524311Y-43392930D01*
X21607070Y-43475689D01*
X21708429Y-43534208D01*
X21795905Y-43557647D01*
X21043790Y-44309761D01*
X21043790Y-44309762D01*
X21082832Y-44340150D01*
X21082837Y-44340153D01*
X21294531Y-44454715D01*
X21294545Y-44454721D01*
X21522207Y-44532879D01*
X21759642Y-44572500D01*
X22000358Y-44572500D01*
X22237792Y-44532879D01*
X22465454Y-44454721D01*
X22465468Y-44454715D01*
X22677161Y-44340153D01*
X22677167Y-44340149D01*
X22716208Y-44309762D01*
X22716209Y-44309761D01*
X21964094Y-43557647D01*
X22051571Y-43534208D01*
X22152930Y-43475689D01*
X22235689Y-43392930D01*
X22294208Y-43291571D01*
X22317647Y-43204094D01*
X23069116Y-43955564D01*
X23161811Y-43813686D01*
X23161816Y-43813678D01*
X23258508Y-43593240D01*
X23317600Y-43359889D01*
X23337478Y-43120005D01*
X23337478Y-43119994D01*
X23317600Y-42880110D01*
X23258508Y-42646759D01*
X23161813Y-42426315D01*
X23069116Y-42284434D01*
X22317647Y-43035904D01*
X22294208Y-42948429D01*
X22235689Y-42847070D01*
X22152930Y-42764311D01*
X22051571Y-42705792D01*
X21964092Y-42682352D01*
X22716208Y-41930237D01*
X22715251Y-41914824D01*
X22698436Y-41891459D01*
X22694761Y-41821686D01*
X22729392Y-41761003D01*
X22739231Y-41752477D01*
X22867463Y-41652671D01*
X23030551Y-41475510D01*
X23145220Y-41299996D01*
X86744435Y-41299996D01*
X86744435Y-41300003D01*
X86764630Y-41479249D01*
X86764631Y-41479254D01*
X86824211Y-41649523D01*
X86894259Y-41761003D01*
X86920184Y-41802262D01*
X87047738Y-41929816D01*
X87200478Y-42025789D01*
X87370745Y-42085368D01*
X87370750Y-42085369D01*
X87549996Y-42105565D01*
X87550000Y-42105565D01*
X87550004Y-42105565D01*
X87729249Y-42085369D01*
X87729252Y-42085368D01*
X87729255Y-42085368D01*
X87899522Y-42025789D01*
X88052262Y-41929816D01*
X88179816Y-41802262D01*
X88275789Y-41649522D01*
X88335368Y-41479255D01*
X88355565Y-41300000D01*
X88352626Y-41273918D01*
X88335369Y-41120750D01*
X88335368Y-41120745D01*
X88275788Y-40950476D01*
X88193789Y-40819976D01*
X88179816Y-40797738D01*
X88052262Y-40670184D01*
X87981608Y-40625789D01*
X87899523Y-40574211D01*
X87729254Y-40514631D01*
X87729249Y-40514630D01*
X87550004Y-40494435D01*
X87549996Y-40494435D01*
X87370750Y-40514630D01*
X87370745Y-40514631D01*
X87200476Y-40574211D01*
X87047737Y-40670184D01*
X86920184Y-40797737D01*
X86824211Y-40950476D01*
X86764631Y-41120745D01*
X86764630Y-41120750D01*
X86744435Y-41299996D01*
X23145220Y-41299996D01*
X23162255Y-41273922D01*
X23258983Y-41053405D01*
X23318095Y-40819976D01*
X23335862Y-40605565D01*
X23337980Y-40580005D01*
X23337980Y-40579994D01*
X23318095Y-40340027D01*
X23318095Y-40340024D01*
X23258983Y-40106595D01*
X23162255Y-39886078D01*
X23106015Y-39799996D01*
X39994435Y-39799996D01*
X39994435Y-39800003D01*
X40014630Y-39979249D01*
X40014631Y-39979254D01*
X40074211Y-40149523D01*
X40137045Y-40249522D01*
X40170184Y-40302262D01*
X40297738Y-40429816D01*
X40388080Y-40486582D01*
X40432721Y-40514632D01*
X40450478Y-40525789D01*
X40620745Y-40585368D01*
X40620750Y-40585369D01*
X40799996Y-40605565D01*
X40800000Y-40605565D01*
X40800004Y-40605565D01*
X40979249Y-40585369D01*
X40979252Y-40585368D01*
X40979255Y-40585368D01*
X41149522Y-40525789D01*
X41302262Y-40429816D01*
X41429816Y-40302262D01*
X41525789Y-40149522D01*
X41585368Y-39979255D01*
X41585369Y-39979249D01*
X41594299Y-39899996D01*
X42294435Y-39899996D01*
X42294435Y-39900003D01*
X42314630Y-40079249D01*
X42314631Y-40079254D01*
X42374211Y-40249523D01*
X42431077Y-40340024D01*
X42470184Y-40402262D01*
X42597738Y-40529816D01*
X42750478Y-40625789D01*
X42877352Y-40670184D01*
X42920745Y-40685368D01*
X42920750Y-40685369D01*
X43099996Y-40705565D01*
X43100000Y-40705565D01*
X43100004Y-40705565D01*
X43279249Y-40685369D01*
X43279252Y-40685368D01*
X43279255Y-40685368D01*
X43449522Y-40625789D01*
X43602262Y-40529816D01*
X43729816Y-40402262D01*
X43825789Y-40249522D01*
X43885368Y-40079255D01*
X43885369Y-40079249D01*
X43905565Y-39900003D01*
X43905565Y-39899996D01*
X43885369Y-39720750D01*
X43885368Y-39720745D01*
X43825788Y-39550476D01*
X43762955Y-39450478D01*
X43729816Y-39397738D01*
X43602262Y-39270184D01*
X43561897Y-39244821D01*
X43449523Y-39174211D01*
X43279254Y-39114631D01*
X43279249Y-39114630D01*
X43100004Y-39094435D01*
X43099996Y-39094435D01*
X42920750Y-39114630D01*
X42920745Y-39114631D01*
X42750476Y-39174211D01*
X42597737Y-39270184D01*
X42470184Y-39397737D01*
X42374211Y-39550476D01*
X42314631Y-39720745D01*
X42314630Y-39720750D01*
X42294435Y-39899996D01*
X41594299Y-39899996D01*
X41605565Y-39800003D01*
X41605565Y-39799996D01*
X41585369Y-39620750D01*
X41585368Y-39620745D01*
X41525789Y-39450478D01*
X41429816Y-39297738D01*
X41302262Y-39170184D01*
X41296612Y-39166634D01*
X41149523Y-39074211D01*
X40979254Y-39014631D01*
X40979249Y-39014630D01*
X40800004Y-38994435D01*
X40799996Y-38994435D01*
X40620750Y-39014630D01*
X40620745Y-39014631D01*
X40450476Y-39074211D01*
X40297737Y-39170184D01*
X40170184Y-39297737D01*
X40074211Y-39450476D01*
X40014631Y-39620745D01*
X40014630Y-39620750D01*
X39994435Y-39799996D01*
X23106015Y-39799996D01*
X23030551Y-39684490D01*
X22867463Y-39507329D01*
X22726659Y-39397737D01*
X22677441Y-39359429D01*
X22465665Y-39244821D01*
X22465656Y-39244818D01*
X22237916Y-39166634D01*
X22059777Y-39136908D01*
X22000399Y-39127000D01*
X21759601Y-39127000D01*
X21712098Y-39134926D01*
X21522083Y-39166634D01*
X21294343Y-39244818D01*
X21294334Y-39244821D01*
X21082558Y-39359429D01*
X20965582Y-39450476D01*
X20892537Y-39507329D01*
X20892534Y-39507331D01*
X20892534Y-39507332D01*
X20729449Y-39684490D01*
X20597743Y-39886081D01*
X20501017Y-40106594D01*
X20441904Y-40340027D01*
X20422020Y-40579994D01*
X12127500Y-40579994D01*
X12127500Y-38299996D01*
X62094435Y-38299996D01*
X62094435Y-38300003D01*
X62114630Y-38479249D01*
X62114631Y-38479254D01*
X62174211Y-38649523D01*
X62270184Y-38802262D01*
X62397738Y-38929816D01*
X62488080Y-38986582D01*
X62532721Y-39014632D01*
X62550478Y-39025789D01*
X62688860Y-39074211D01*
X62720745Y-39085368D01*
X62720750Y-39085369D01*
X62899996Y-39105565D01*
X62900000Y-39105565D01*
X62900004Y-39105565D01*
X63079249Y-39085369D01*
X63079252Y-39085368D01*
X63079255Y-39085368D01*
X63249522Y-39025789D01*
X63402262Y-38929816D01*
X63529816Y-38802262D01*
X63625789Y-38649522D01*
X63685368Y-38479255D01*
X63705565Y-38300000D01*
X63692649Y-38185369D01*
X63685369Y-38120750D01*
X63685368Y-38120745D01*
X63625789Y-37950478D01*
X63529816Y-37797738D01*
X63402262Y-37670184D01*
X63249523Y-37574211D01*
X63079254Y-37514631D01*
X63079249Y-37514630D01*
X62900004Y-37494435D01*
X62899996Y-37494435D01*
X62720750Y-37514630D01*
X62720745Y-37514631D01*
X62550476Y-37574211D01*
X62397737Y-37670184D01*
X62270184Y-37797737D01*
X62174211Y-37950476D01*
X62114631Y-38120745D01*
X62114630Y-38120750D01*
X62094435Y-38299996D01*
X12127500Y-38299996D01*
X12127500Y-35499994D01*
X14390245Y-35499994D01*
X14390245Y-35500005D01*
X14409245Y-35802011D01*
X14409246Y-35802018D01*
X14465953Y-36099286D01*
X14559466Y-36387091D01*
X14559468Y-36387096D01*
X14688313Y-36660904D01*
X14688317Y-36660910D01*
X14850460Y-36916408D01*
X14931761Y-37014684D01*
X15935047Y-36011399D01*
X16020686Y-36139567D01*
X16160433Y-36279314D01*
X16288599Y-36364952D01*
X15282984Y-37370566D01*
X15282985Y-37370568D01*
X15508786Y-37534621D01*
X15773983Y-37680415D01*
X15773984Y-37680416D01*
X16055340Y-37791811D01*
X16348457Y-37867071D01*
X16348466Y-37867073D01*
X16648678Y-37904999D01*
X16648692Y-37905000D01*
X16951308Y-37905000D01*
X16951321Y-37904999D01*
X17251533Y-37867073D01*
X17251542Y-37867071D01*
X17544659Y-37791811D01*
X17826015Y-37680416D01*
X17826016Y-37680415D01*
X18091208Y-37534624D01*
X18276507Y-37399996D01*
X30494435Y-37399996D01*
X30494435Y-37400003D01*
X30514630Y-37579249D01*
X30514631Y-37579254D01*
X30574211Y-37749523D01*
X30604507Y-37797738D01*
X30670184Y-37902262D01*
X30797738Y-38029816D01*
X30888080Y-38086582D01*
X30942450Y-38120745D01*
X30950478Y-38125789D01*
X31120745Y-38185368D01*
X31120750Y-38185369D01*
X31299996Y-38205565D01*
X31300000Y-38205565D01*
X31300004Y-38205565D01*
X31479249Y-38185369D01*
X31479252Y-38185368D01*
X31479255Y-38185368D01*
X31649522Y-38125789D01*
X31802262Y-38029816D01*
X31929816Y-37902262D01*
X32025789Y-37749522D01*
X32085368Y-37579255D01*
X32085369Y-37579249D01*
X32105565Y-37400003D01*
X32105565Y-37399996D01*
X32085369Y-37220750D01*
X32085368Y-37220745D01*
X32025788Y-37050476D01*
X31929815Y-36897737D01*
X31802262Y-36770184D01*
X31649523Y-36674211D01*
X31479254Y-36614631D01*
X31479249Y-36614630D01*
X31300004Y-36594435D01*
X31299996Y-36594435D01*
X31120750Y-36614630D01*
X31120745Y-36614631D01*
X30950476Y-36674211D01*
X30797737Y-36770184D01*
X30670184Y-36897737D01*
X30574211Y-37050476D01*
X30514631Y-37220745D01*
X30514630Y-37220750D01*
X30494435Y-37399996D01*
X18276507Y-37399996D01*
X18317013Y-37370567D01*
X18317014Y-37370566D01*
X17311399Y-36364952D01*
X17439567Y-36279314D01*
X17579314Y-36139567D01*
X17664952Y-36011399D01*
X18668237Y-37014684D01*
X18749536Y-36916413D01*
X18911682Y-36660910D01*
X18911686Y-36660904D01*
X19040531Y-36387096D01*
X19040533Y-36387091D01*
X19134046Y-36099286D01*
X19172063Y-35899996D01*
X38994435Y-35899996D01*
X38994435Y-35900003D01*
X39014630Y-36079249D01*
X39014631Y-36079254D01*
X39074211Y-36249523D01*
X39161922Y-36389113D01*
X39170184Y-36402262D01*
X39297738Y-36529816D01*
X39315972Y-36541273D01*
X39432721Y-36614632D01*
X39450478Y-36625789D01*
X39461984Y-36629815D01*
X39620745Y-36685368D01*
X39620750Y-36685369D01*
X39799996Y-36705565D01*
X39800000Y-36705565D01*
X39800004Y-36705565D01*
X39979249Y-36685369D01*
X39979252Y-36685368D01*
X39979255Y-36685368D01*
X40149522Y-36625789D01*
X40167282Y-36614630D01*
X40186965Y-36602262D01*
X40284029Y-36541272D01*
X40351264Y-36522272D01*
X40415970Y-36541272D01*
X40480720Y-36581957D01*
X40550475Y-36625788D01*
X40720745Y-36685368D01*
X40720750Y-36685369D01*
X40899996Y-36705565D01*
X40900000Y-36705565D01*
X40900004Y-36705565D01*
X41079249Y-36685369D01*
X41079252Y-36685368D01*
X41079255Y-36685368D01*
X41249522Y-36625789D01*
X41402262Y-36529816D01*
X41529816Y-36402262D01*
X41625789Y-36249522D01*
X41678110Y-36099996D01*
X51434435Y-36099996D01*
X51434435Y-36100003D01*
X51454630Y-36279249D01*
X51454631Y-36279254D01*
X51514211Y-36449523D01*
X51548002Y-36503300D01*
X51610184Y-36602262D01*
X51737738Y-36729816D01*
X51890478Y-36825789D01*
X52060745Y-36885368D01*
X52060750Y-36885369D01*
X52239996Y-36905565D01*
X52240000Y-36905565D01*
X52240004Y-36905565D01*
X52419249Y-36885369D01*
X52419252Y-36885368D01*
X52419255Y-36885368D01*
X52589522Y-36825789D01*
X52742262Y-36729816D01*
X52869816Y-36602262D01*
X52965789Y-36449522D01*
X53025368Y-36279255D01*
X53028718Y-36249522D01*
X53045565Y-36100003D01*
X53045565Y-36099996D01*
X53034298Y-35999996D01*
X71554435Y-35999996D01*
X71554435Y-36000003D01*
X71574630Y-36179249D01*
X71574631Y-36179254D01*
X71634211Y-36349523D01*
X71730184Y-36502262D01*
X71857738Y-36629816D01*
X72010478Y-36725789D01*
X72021984Y-36729815D01*
X72180745Y-36785368D01*
X72180750Y-36785369D01*
X72359996Y-36805565D01*
X72360000Y-36805565D01*
X72360004Y-36805565D01*
X72539249Y-36785369D01*
X72539252Y-36785368D01*
X72539255Y-36785368D01*
X72709522Y-36725789D01*
X72862262Y-36629816D01*
X72989816Y-36502262D01*
X73085789Y-36349522D01*
X73145368Y-36179255D01*
X73149840Y-36139567D01*
X73165565Y-36000003D01*
X73165565Y-35999996D01*
X73145369Y-35820750D01*
X73145368Y-35820745D01*
X73135538Y-35792652D01*
X73085789Y-35650478D01*
X72989816Y-35497738D01*
X72862262Y-35370184D01*
X72773852Y-35314632D01*
X72709523Y-35274211D01*
X72539254Y-35214631D01*
X72539249Y-35214630D01*
X72360004Y-35194435D01*
X72359996Y-35194435D01*
X72180750Y-35214630D01*
X72180745Y-35214631D01*
X72010476Y-35274211D01*
X71857737Y-35370184D01*
X71730184Y-35497737D01*
X71634211Y-35650476D01*
X71574631Y-35820745D01*
X71574630Y-35820750D01*
X71554435Y-35999996D01*
X53034298Y-35999996D01*
X53025369Y-35920750D01*
X53025368Y-35920745D01*
X53018108Y-35899996D01*
X52965789Y-35750478D01*
X52947106Y-35720745D01*
X52902955Y-35650478D01*
X52869816Y-35597738D01*
X52742262Y-35470184D01*
X52589523Y-35374211D01*
X52419254Y-35314631D01*
X52419249Y-35314630D01*
X52240004Y-35294435D01*
X52239996Y-35294435D01*
X52060750Y-35314630D01*
X52060745Y-35314631D01*
X51890476Y-35374211D01*
X51737737Y-35470184D01*
X51610184Y-35597737D01*
X51514211Y-35750476D01*
X51454631Y-35920745D01*
X51454630Y-35920750D01*
X51434435Y-36099996D01*
X41678110Y-36099996D01*
X41685368Y-36079255D01*
X41685369Y-36079249D01*
X41705565Y-35900003D01*
X41705565Y-35899996D01*
X41685369Y-35720750D01*
X41685368Y-35720745D01*
X41625789Y-35550478D01*
X41529816Y-35397738D01*
X41402262Y-35270184D01*
X41313852Y-35214632D01*
X41249523Y-35174211D01*
X41079254Y-35114631D01*
X41079249Y-35114630D01*
X40900004Y-35094435D01*
X40899996Y-35094435D01*
X40720750Y-35114630D01*
X40720745Y-35114631D01*
X40550476Y-35174211D01*
X40415972Y-35258727D01*
X40348736Y-35277727D01*
X40284028Y-35258727D01*
X40149523Y-35174211D01*
X39979254Y-35114631D01*
X39979249Y-35114630D01*
X39800004Y-35094435D01*
X39799996Y-35094435D01*
X39620750Y-35114630D01*
X39620745Y-35114631D01*
X39450476Y-35174211D01*
X39297737Y-35270184D01*
X39170184Y-35397737D01*
X39074211Y-35550476D01*
X39014631Y-35720745D01*
X39014630Y-35720750D01*
X38994435Y-35899996D01*
X19172063Y-35899996D01*
X19190753Y-35802018D01*
X19190754Y-35802011D01*
X19209755Y-35500005D01*
X19209755Y-35499994D01*
X19190754Y-35197988D01*
X19190753Y-35197981D01*
X19134046Y-34900713D01*
X19040533Y-34612908D01*
X19040531Y-34612903D01*
X18911686Y-34339095D01*
X18911682Y-34339089D01*
X18749539Y-34083591D01*
X18668236Y-33985313D01*
X17664951Y-34988599D01*
X17579314Y-34860433D01*
X17439567Y-34720686D01*
X17311398Y-34635046D01*
X18246450Y-33699996D01*
X69594435Y-33699996D01*
X69594435Y-33700003D01*
X69614630Y-33879249D01*
X69614631Y-33879254D01*
X69674211Y-34049523D01*
X69759569Y-34185368D01*
X69770184Y-34202262D01*
X69897738Y-34329816D01*
X70050478Y-34425789D01*
X70220745Y-34485368D01*
X70220750Y-34485369D01*
X70399996Y-34505565D01*
X70400000Y-34505565D01*
X70400004Y-34505565D01*
X70579249Y-34485369D01*
X70579252Y-34485368D01*
X70579255Y-34485368D01*
X70749522Y-34425789D01*
X70902262Y-34329816D01*
X71029816Y-34202262D01*
X71038343Y-34188691D01*
X71090675Y-34142400D01*
X71159729Y-34131750D01*
X71184292Y-34137621D01*
X71320737Y-34185366D01*
X71320743Y-34185367D01*
X71320745Y-34185368D01*
X71320746Y-34185368D01*
X71320750Y-34185369D01*
X71499996Y-34205565D01*
X71500000Y-34205565D01*
X71500004Y-34205565D01*
X71679249Y-34185369D01*
X71679252Y-34185368D01*
X71679255Y-34185368D01*
X71849522Y-34125789D01*
X72002262Y-34029816D01*
X72129816Y-33902262D01*
X72225789Y-33749522D01*
X72285368Y-33579255D01*
X72285369Y-33579249D01*
X72305565Y-33400003D01*
X72305565Y-33399996D01*
X72285369Y-33220750D01*
X72285368Y-33220745D01*
X72280974Y-33208188D01*
X72225789Y-33050478D01*
X72206166Y-33019249D01*
X72149619Y-32929254D01*
X72129816Y-32897738D01*
X72002262Y-32770184D01*
X71970144Y-32750003D01*
X71849523Y-32674211D01*
X71679254Y-32614631D01*
X71679249Y-32614630D01*
X71500004Y-32594435D01*
X71499996Y-32594435D01*
X71320750Y-32614630D01*
X71320745Y-32614631D01*
X71150476Y-32674211D01*
X70997737Y-32770184D01*
X70870182Y-32897739D01*
X70870179Y-32897743D01*
X70861653Y-32911312D01*
X70809317Y-32957601D01*
X70740263Y-32968247D01*
X70715708Y-32962378D01*
X70579257Y-32914632D01*
X70579249Y-32914630D01*
X70400004Y-32894435D01*
X70399996Y-32894435D01*
X70220750Y-32914630D01*
X70220745Y-32914631D01*
X70050476Y-32974211D01*
X69897737Y-33070184D01*
X69770184Y-33197737D01*
X69674211Y-33350476D01*
X69614631Y-33520745D01*
X69614630Y-33520750D01*
X69594435Y-33699996D01*
X18246450Y-33699996D01*
X18317014Y-33629432D01*
X18317013Y-33629430D01*
X18091213Y-33465378D01*
X17826016Y-33319584D01*
X17826015Y-33319583D01*
X17544659Y-33208188D01*
X17251542Y-33132928D01*
X17251533Y-33132926D01*
X16951321Y-33095000D01*
X16648678Y-33095000D01*
X16348466Y-33132926D01*
X16348457Y-33132928D01*
X16055340Y-33208188D01*
X15773984Y-33319583D01*
X15773983Y-33319584D01*
X15508789Y-33465377D01*
X15508777Y-33465384D01*
X15282985Y-33629431D01*
X15282984Y-33629432D01*
X16288600Y-34635047D01*
X16160433Y-34720686D01*
X16020686Y-34860433D01*
X15935047Y-34988600D01*
X14931761Y-33985313D01*
X14850463Y-34083586D01*
X14688317Y-34339089D01*
X14688313Y-34339095D01*
X14559468Y-34612903D01*
X14559466Y-34612908D01*
X14465953Y-34900713D01*
X14409246Y-35197981D01*
X14409245Y-35197988D01*
X14390245Y-35499994D01*
X12127500Y-35499994D01*
X12127500Y-32839996D01*
X45564435Y-32839996D01*
X45564435Y-32840003D01*
X45584630Y-33019249D01*
X45584631Y-33019254D01*
X45644211Y-33189523D01*
X45689858Y-33262169D01*
X45740184Y-33342262D01*
X45867738Y-33469816D01*
X45948791Y-33520745D01*
X46004206Y-33555565D01*
X46020478Y-33565789D01*
X46058959Y-33579254D01*
X46190745Y-33625368D01*
X46190750Y-33625369D01*
X46369996Y-33645565D01*
X46370000Y-33645565D01*
X46370004Y-33645565D01*
X46549249Y-33625369D01*
X46549252Y-33625368D01*
X46549255Y-33625368D01*
X46719522Y-33565789D01*
X46872262Y-33469816D01*
X46999816Y-33342262D01*
X47095789Y-33189522D01*
X47155368Y-33019255D01*
X47156758Y-33006921D01*
X47175565Y-32840003D01*
X47175565Y-32839996D01*
X47165425Y-32749996D01*
X60544435Y-32749996D01*
X60544435Y-32750003D01*
X60564630Y-32929249D01*
X60564631Y-32929254D01*
X60624211Y-33099523D01*
X60700384Y-33220750D01*
X60720184Y-33252262D01*
X60847738Y-33379816D01*
X60938080Y-33436582D01*
X60983918Y-33465384D01*
X61000478Y-33475789D01*
X61128955Y-33520745D01*
X61170745Y-33535368D01*
X61170750Y-33535369D01*
X61349996Y-33555565D01*
X61350000Y-33555565D01*
X61350004Y-33555565D01*
X61529249Y-33535369D01*
X61529252Y-33535368D01*
X61529255Y-33535368D01*
X61699522Y-33475789D01*
X61852262Y-33379816D01*
X61979816Y-33252262D01*
X62075789Y-33099522D01*
X62135368Y-32929255D01*
X62138919Y-32897738D01*
X62155565Y-32750003D01*
X62155565Y-32749996D01*
X62135369Y-32570750D01*
X62135368Y-32570745D01*
X62089093Y-32438498D01*
X62075789Y-32400478D01*
X61979816Y-32247738D01*
X61852262Y-32120184D01*
X61797607Y-32085842D01*
X61699523Y-32024211D01*
X61529254Y-31964631D01*
X61529249Y-31964630D01*
X61350004Y-31944435D01*
X61349996Y-31944435D01*
X61170750Y-31964630D01*
X61170745Y-31964631D01*
X61000476Y-32024211D01*
X60847737Y-32120184D01*
X60720184Y-32247737D01*
X60624211Y-32400476D01*
X60564631Y-32570745D01*
X60564630Y-32570750D01*
X60544435Y-32749996D01*
X47165425Y-32749996D01*
X47155369Y-32660750D01*
X47155368Y-32660745D01*
X47123877Y-32570750D01*
X47095789Y-32490478D01*
X46999816Y-32337738D01*
X46872262Y-32210184D01*
X46719523Y-32114211D01*
X46549254Y-32054631D01*
X46549249Y-32054630D01*
X46370004Y-32034435D01*
X46369996Y-32034435D01*
X46190750Y-32054630D01*
X46190745Y-32054631D01*
X46020476Y-32114211D01*
X45867737Y-32210184D01*
X45740184Y-32337737D01*
X45644211Y-32490476D01*
X45584631Y-32660745D01*
X45584630Y-32660750D01*
X45564435Y-32839996D01*
X12127500Y-32839996D01*
X12127500Y-15519999D01*
X14764341Y-15519999D01*
X14764341Y-15520000D01*
X14784936Y-15755403D01*
X14784938Y-15755413D01*
X14846094Y-15983655D01*
X14846096Y-15983659D01*
X14846097Y-15983663D01*
X14870663Y-16036344D01*
X14945965Y-16197830D01*
X14945967Y-16197834D01*
X14992708Y-16264586D01*
X15081501Y-16391396D01*
X15081506Y-16391402D01*
X15248597Y-16558493D01*
X15248603Y-16558498D01*
X15434158Y-16688425D01*
X15477783Y-16743002D01*
X15484977Y-16812500D01*
X15453454Y-16874855D01*
X15434158Y-16891575D01*
X15248597Y-17021505D01*
X15081505Y-17188597D01*
X14945965Y-17382169D01*
X14945964Y-17382171D01*
X14846098Y-17596335D01*
X14846094Y-17596344D01*
X14784938Y-17824586D01*
X14784936Y-17824596D01*
X14764341Y-18059999D01*
X14764341Y-18060000D01*
X14784936Y-18295403D01*
X14784938Y-18295413D01*
X14846094Y-18523655D01*
X14846096Y-18523659D01*
X14846097Y-18523663D01*
X14871281Y-18577670D01*
X14945965Y-18737830D01*
X14945967Y-18737834D01*
X15054281Y-18892521D01*
X15081501Y-18931396D01*
X15081506Y-18931402D01*
X15248597Y-19098493D01*
X15248603Y-19098498D01*
X15434158Y-19228425D01*
X15477783Y-19283002D01*
X15484977Y-19352500D01*
X15453454Y-19414855D01*
X15434158Y-19431575D01*
X15248597Y-19561505D01*
X15081505Y-19728597D01*
X14945965Y-19922169D01*
X14945964Y-19922171D01*
X14846098Y-20136335D01*
X14846094Y-20136344D01*
X14784938Y-20364586D01*
X14784936Y-20364596D01*
X14764341Y-20599999D01*
X14764341Y-20600000D01*
X14784936Y-20835403D01*
X14784938Y-20835413D01*
X14846094Y-21063655D01*
X14846096Y-21063659D01*
X14846097Y-21063663D01*
X14900627Y-21180603D01*
X14945965Y-21277830D01*
X14945967Y-21277834D01*
X14978172Y-21323827D01*
X15081501Y-21471396D01*
X15081506Y-21471402D01*
X15248597Y-21638493D01*
X15248603Y-21638498D01*
X15434158Y-21768425D01*
X15477783Y-21823002D01*
X15484977Y-21892500D01*
X15453454Y-21954855D01*
X15434158Y-21971575D01*
X15248597Y-22101505D01*
X15081505Y-22268597D01*
X14945965Y-22462169D01*
X14945964Y-22462171D01*
X14846098Y-22676335D01*
X14846094Y-22676344D01*
X14784938Y-22904586D01*
X14784936Y-22904596D01*
X14764341Y-23139999D01*
X14764341Y-23140000D01*
X14784936Y-23375403D01*
X14784938Y-23375413D01*
X14846094Y-23603655D01*
X14846096Y-23603659D01*
X14846097Y-23603663D01*
X14850000Y-23612032D01*
X14945965Y-23817830D01*
X14945967Y-23817834D01*
X15054281Y-23972521D01*
X15081501Y-24011396D01*
X15081506Y-24011402D01*
X15248597Y-24178493D01*
X15248603Y-24178498D01*
X15434158Y-24308425D01*
X15477783Y-24363002D01*
X15484977Y-24432500D01*
X15453454Y-24494855D01*
X15434158Y-24511575D01*
X15248597Y-24641505D01*
X15081505Y-24808597D01*
X14945965Y-25002169D01*
X14945964Y-25002171D01*
X14846098Y-25216335D01*
X14846094Y-25216344D01*
X14784938Y-25444586D01*
X14784936Y-25444596D01*
X14764341Y-25679999D01*
X14764341Y-25680000D01*
X14784936Y-25915403D01*
X14784938Y-25915413D01*
X14846094Y-26143655D01*
X14846096Y-26143659D01*
X14846097Y-26143663D01*
X14921341Y-26305023D01*
X14945965Y-26357830D01*
X14945967Y-26357834D01*
X15054281Y-26512521D01*
X15081501Y-26551396D01*
X15081506Y-26551402D01*
X15248597Y-26718493D01*
X15248603Y-26718498D01*
X15434158Y-26848425D01*
X15477783Y-26903002D01*
X15484977Y-26972500D01*
X15453454Y-27034855D01*
X15434158Y-27051575D01*
X15248597Y-27181505D01*
X15081505Y-27348597D01*
X14945965Y-27542169D01*
X14945964Y-27542171D01*
X14846098Y-27756335D01*
X14846094Y-27756344D01*
X14784938Y-27984586D01*
X14784936Y-27984596D01*
X14764341Y-28219999D01*
X14764341Y-28220000D01*
X14784936Y-28455403D01*
X14784938Y-28455413D01*
X14846094Y-28683655D01*
X14846096Y-28683659D01*
X14846097Y-28683663D01*
X14886443Y-28770184D01*
X14945965Y-28897830D01*
X14945967Y-28897834D01*
X15052849Y-29050476D01*
X15081501Y-29091396D01*
X15081506Y-29091402D01*
X15248597Y-29258493D01*
X15248603Y-29258498D01*
X15434158Y-29388425D01*
X15477783Y-29443002D01*
X15484977Y-29512500D01*
X15453454Y-29574855D01*
X15434158Y-29591575D01*
X15248597Y-29721505D01*
X15081505Y-29888597D01*
X14945965Y-30082169D01*
X14945964Y-30082171D01*
X14846098Y-30296335D01*
X14846094Y-30296344D01*
X14784938Y-30524586D01*
X14784936Y-30524596D01*
X14764341Y-30759999D01*
X14764341Y-30760000D01*
X14784936Y-30995403D01*
X14784938Y-30995413D01*
X14846094Y-31223655D01*
X14846096Y-31223659D01*
X14846097Y-31223663D01*
X14921341Y-31385023D01*
X14945965Y-31437830D01*
X14945967Y-31437834D01*
X15054281Y-31592521D01*
X15081505Y-31631401D01*
X15248599Y-31798495D01*
X15341657Y-31863655D01*
X15442165Y-31934032D01*
X15442167Y-31934033D01*
X15442170Y-31934035D01*
X15656337Y-32033903D01*
X15656343Y-32033904D01*
X15656344Y-32033905D01*
X15711285Y-32048626D01*
X15884592Y-32095063D01*
X16072918Y-32111539D01*
X16119999Y-32115659D01*
X16120000Y-32115659D01*
X16120001Y-32115659D01*
X16159234Y-32112226D01*
X16355408Y-32095063D01*
X16583663Y-32033903D01*
X16797830Y-31934035D01*
X16991401Y-31798495D01*
X17158495Y-31631401D01*
X17286926Y-31447983D01*
X17341503Y-31404358D01*
X17411001Y-31397164D01*
X17473356Y-31428687D01*
X17490076Y-31447983D01*
X17611505Y-31621401D01*
X17778599Y-31788495D01*
X17792885Y-31798498D01*
X17972165Y-31924032D01*
X17972167Y-31924033D01*
X17972170Y-31924035D01*
X18186337Y-32023903D01*
X18414592Y-32085063D01*
X18602918Y-32101539D01*
X18649999Y-32105659D01*
X18650000Y-32105659D01*
X18650001Y-32105659D01*
X18689234Y-32102226D01*
X18885408Y-32085063D01*
X19113663Y-32023903D01*
X19327830Y-31924035D01*
X19521401Y-31788495D01*
X19688495Y-31621401D01*
X19818425Y-31435842D01*
X19873002Y-31392217D01*
X19942500Y-31385023D01*
X20004855Y-31416546D01*
X20021575Y-31435842D01*
X20151500Y-31621395D01*
X20151505Y-31621401D01*
X20318599Y-31788495D01*
X20332885Y-31798498D01*
X20512165Y-31924032D01*
X20512167Y-31924033D01*
X20512170Y-31924035D01*
X20726337Y-32023903D01*
X20954592Y-32085063D01*
X21142918Y-32101539D01*
X21189999Y-32105659D01*
X21190000Y-32105659D01*
X21190001Y-32105659D01*
X21229234Y-32102226D01*
X21425408Y-32085063D01*
X21653663Y-32023903D01*
X21867830Y-31924035D01*
X22061401Y-31788495D01*
X22228495Y-31621401D01*
X22358425Y-31435842D01*
X22413002Y-31392217D01*
X22482500Y-31385023D01*
X22544855Y-31416546D01*
X22561575Y-31435842D01*
X22691500Y-31621395D01*
X22691505Y-31621401D01*
X22858599Y-31788495D01*
X22872885Y-31798498D01*
X23052165Y-31924032D01*
X23052167Y-31924033D01*
X23052170Y-31924035D01*
X23266337Y-32023903D01*
X23494592Y-32085063D01*
X23682918Y-32101539D01*
X23729999Y-32105659D01*
X23730000Y-32105659D01*
X23730001Y-32105659D01*
X23769234Y-32102226D01*
X23965408Y-32085063D01*
X24193663Y-32023903D01*
X24407830Y-31924035D01*
X24601401Y-31788495D01*
X24768495Y-31621401D01*
X24898425Y-31435842D01*
X24953002Y-31392217D01*
X25022500Y-31385023D01*
X25084855Y-31416546D01*
X25101575Y-31435842D01*
X25231500Y-31621395D01*
X25231505Y-31621401D01*
X25398599Y-31788495D01*
X25412885Y-31798498D01*
X25592165Y-31924032D01*
X25592167Y-31924033D01*
X25592170Y-31924035D01*
X25806337Y-32023903D01*
X26034592Y-32085063D01*
X26222918Y-32101539D01*
X26269999Y-32105659D01*
X26270000Y-32105659D01*
X26270001Y-32105659D01*
X26309234Y-32102226D01*
X26505408Y-32085063D01*
X26733663Y-32023903D01*
X26947830Y-31924035D01*
X27141401Y-31788495D01*
X27308495Y-31621401D01*
X27438425Y-31435842D01*
X27493002Y-31392217D01*
X27562500Y-31385023D01*
X27624855Y-31416546D01*
X27641575Y-31435842D01*
X27771500Y-31621395D01*
X27771505Y-31621401D01*
X27938599Y-31788495D01*
X27952885Y-31798498D01*
X28132165Y-31924032D01*
X28132167Y-31924033D01*
X28132170Y-31924035D01*
X28346337Y-32023903D01*
X28574592Y-32085063D01*
X28762918Y-32101539D01*
X28809999Y-32105659D01*
X28810000Y-32105659D01*
X28810001Y-32105659D01*
X28849234Y-32102226D01*
X29045408Y-32085063D01*
X29273663Y-32023903D01*
X29487830Y-31924035D01*
X29681401Y-31788495D01*
X29848495Y-31621401D01*
X29978425Y-31435842D01*
X30033002Y-31392217D01*
X30102500Y-31385023D01*
X30164855Y-31416546D01*
X30181575Y-31435842D01*
X30311500Y-31621395D01*
X30311505Y-31621401D01*
X30478599Y-31788495D01*
X30492885Y-31798498D01*
X30672165Y-31924032D01*
X30672167Y-31924033D01*
X30672170Y-31924035D01*
X30886337Y-32023903D01*
X31114592Y-32085063D01*
X31302918Y-32101539D01*
X31349999Y-32105659D01*
X31350000Y-32105659D01*
X31350001Y-32105659D01*
X31389234Y-32102226D01*
X31585408Y-32085063D01*
X31813663Y-32023903D01*
X32027830Y-31924035D01*
X32221401Y-31788495D01*
X32388495Y-31621401D01*
X32518425Y-31435842D01*
X32573002Y-31392217D01*
X32642500Y-31385023D01*
X32704855Y-31416546D01*
X32721575Y-31435842D01*
X32851500Y-31621395D01*
X32851505Y-31621401D01*
X33018599Y-31788495D01*
X33032885Y-31798498D01*
X33212165Y-31924032D01*
X33212167Y-31924033D01*
X33212170Y-31924035D01*
X33426337Y-32023903D01*
X33654592Y-32085063D01*
X33842918Y-32101539D01*
X33889999Y-32105659D01*
X33890000Y-32105659D01*
X33890001Y-32105659D01*
X33929234Y-32102226D01*
X34125408Y-32085063D01*
X34353663Y-32023903D01*
X34567830Y-31924035D01*
X34761401Y-31788495D01*
X34928495Y-31621401D01*
X35064035Y-31427830D01*
X35163903Y-31213663D01*
X35225063Y-30985408D01*
X35245659Y-30750000D01*
X35225063Y-30514592D01*
X35166584Y-30296344D01*
X35163905Y-30286344D01*
X35163904Y-30286343D01*
X35163903Y-30286337D01*
X35132967Y-30219996D01*
X67694435Y-30219996D01*
X67694435Y-30220003D01*
X67714630Y-30399249D01*
X67714631Y-30399254D01*
X67774211Y-30569523D01*
X67865092Y-30714158D01*
X67870184Y-30722262D01*
X67997738Y-30849816D01*
X68150478Y-30945789D01*
X68263703Y-30985408D01*
X68320745Y-31005368D01*
X68320750Y-31005369D01*
X68499996Y-31025565D01*
X68500000Y-31025565D01*
X68500004Y-31025565D01*
X68679249Y-31005369D01*
X68679252Y-31005368D01*
X68679255Y-31005368D01*
X68849522Y-30945789D01*
X69002262Y-30849816D01*
X69129816Y-30722262D01*
X69225789Y-30569522D01*
X69285368Y-30399255D01*
X69285369Y-30399249D01*
X69305565Y-30220003D01*
X69305565Y-30219996D01*
X69285369Y-30040750D01*
X69285368Y-30040745D01*
X69281057Y-30028425D01*
X69225789Y-29870478D01*
X69129816Y-29717738D01*
X69002262Y-29590184D01*
X68961951Y-29564855D01*
X68849523Y-29494211D01*
X68679254Y-29434631D01*
X68679249Y-29434630D01*
X68500004Y-29414435D01*
X68499996Y-29414435D01*
X68320750Y-29434630D01*
X68320745Y-29434631D01*
X68150476Y-29494211D01*
X67997737Y-29590184D01*
X67870184Y-29717737D01*
X67774211Y-29870476D01*
X67714631Y-30040745D01*
X67714630Y-30040750D01*
X67694435Y-30219996D01*
X35132967Y-30219996D01*
X35064035Y-30072171D01*
X35058425Y-30064158D01*
X34928494Y-29878597D01*
X34761402Y-29711506D01*
X34761396Y-29711501D01*
X34575842Y-29581575D01*
X34532217Y-29526998D01*
X34525023Y-29457500D01*
X34554094Y-29399996D01*
X59264435Y-29399996D01*
X59264435Y-29400003D01*
X59284630Y-29579249D01*
X59284631Y-29579254D01*
X59344211Y-29749523D01*
X59431598Y-29888597D01*
X59440184Y-29902262D01*
X59567738Y-30029816D01*
X59592134Y-30045145D01*
X59691821Y-30107783D01*
X59720478Y-30125789D01*
X59796814Y-30152500D01*
X59890745Y-30185368D01*
X59890750Y-30185369D01*
X60069996Y-30205565D01*
X60070000Y-30205565D01*
X60070004Y-30205565D01*
X60249249Y-30185369D01*
X60249252Y-30185368D01*
X60249255Y-30185368D01*
X60419522Y-30125789D01*
X60572262Y-30029816D01*
X60699816Y-29902262D01*
X60795789Y-29749522D01*
X60855368Y-29579255D01*
X60855864Y-29574855D01*
X60875565Y-29400003D01*
X60875565Y-29399996D01*
X60855369Y-29220750D01*
X60855368Y-29220745D01*
X60811512Y-29095413D01*
X60795789Y-29050478D01*
X60699816Y-28897738D01*
X60572262Y-28770184D01*
X60419523Y-28674211D01*
X60249254Y-28614631D01*
X60249249Y-28614630D01*
X60070004Y-28594435D01*
X60069996Y-28594435D01*
X59890750Y-28614630D01*
X59890745Y-28614631D01*
X59720476Y-28674211D01*
X59567737Y-28770184D01*
X59440184Y-28897737D01*
X59344211Y-29050476D01*
X59284631Y-29220745D01*
X59284630Y-29220750D01*
X59264435Y-29399996D01*
X34554094Y-29399996D01*
X34556546Y-29395145D01*
X34575842Y-29378425D01*
X34642098Y-29332032D01*
X34761401Y-29248495D01*
X34928495Y-29081401D01*
X35064035Y-28887830D01*
X35163903Y-28673663D01*
X35225063Y-28445408D01*
X35245659Y-28210000D01*
X35225063Y-27974592D01*
X35166584Y-27756344D01*
X35163905Y-27746344D01*
X35163904Y-27746343D01*
X35163903Y-27746337D01*
X35064035Y-27532171D01*
X35058425Y-27524158D01*
X34971486Y-27399996D01*
X42294435Y-27399996D01*
X42294435Y-27400003D01*
X42314630Y-27579249D01*
X42314631Y-27579254D01*
X42374211Y-27749523D01*
X42470184Y-27902262D01*
X42597738Y-28029816D01*
X42750478Y-28125789D01*
X42920745Y-28185368D01*
X42920750Y-28185369D01*
X43099996Y-28205565D01*
X43100000Y-28205565D01*
X43100004Y-28205565D01*
X43279249Y-28185369D01*
X43279252Y-28185368D01*
X43279255Y-28185368D01*
X43449522Y-28125789D01*
X43602262Y-28029816D01*
X43729816Y-27902262D01*
X43825789Y-27749522D01*
X43885368Y-27579255D01*
X43885850Y-27574977D01*
X43905565Y-27400003D01*
X43905565Y-27399996D01*
X43885369Y-27220750D01*
X43885368Y-27220745D01*
X43871636Y-27181501D01*
X43825789Y-27050478D01*
X43822953Y-27045965D01*
X43770331Y-26962217D01*
X43729816Y-26897738D01*
X43602262Y-26770184D01*
X43449523Y-26674211D01*
X43279254Y-26614631D01*
X43279249Y-26614630D01*
X43100004Y-26594435D01*
X43099996Y-26594435D01*
X42920750Y-26614630D01*
X42920745Y-26614631D01*
X42750476Y-26674211D01*
X42597737Y-26770184D01*
X42470184Y-26897737D01*
X42374211Y-27050476D01*
X42314631Y-27220745D01*
X42314630Y-27220750D01*
X42294435Y-27399996D01*
X34971486Y-27399996D01*
X34928494Y-27338597D01*
X34761402Y-27171506D01*
X34761396Y-27171501D01*
X34575842Y-27041575D01*
X34532217Y-26986998D01*
X34525023Y-26917500D01*
X34556546Y-26855145D01*
X34575842Y-26838425D01*
X34642098Y-26792032D01*
X34761401Y-26708495D01*
X34928495Y-26541401D01*
X35064035Y-26347830D01*
X35163903Y-26133663D01*
X35225063Y-25905408D01*
X35245659Y-25670000D01*
X35225063Y-25434592D01*
X35166584Y-25216344D01*
X35163905Y-25206344D01*
X35163904Y-25206343D01*
X35163903Y-25206337D01*
X35064035Y-24992171D01*
X35058425Y-24984158D01*
X34928494Y-24798597D01*
X34761402Y-24631506D01*
X34761395Y-24631501D01*
X34567834Y-24495967D01*
X34567830Y-24495965D01*
X34484265Y-24456998D01*
X34353663Y-24396097D01*
X34353659Y-24396096D01*
X34353655Y-24396094D01*
X34125413Y-24334938D01*
X34125403Y-24334936D01*
X33890001Y-24314341D01*
X33889999Y-24314341D01*
X33654596Y-24334936D01*
X33654586Y-24334938D01*
X33426344Y-24396094D01*
X33426335Y-24396098D01*
X33212171Y-24495964D01*
X33212169Y-24495965D01*
X33018597Y-24631505D01*
X32851505Y-24798597D01*
X32721575Y-24984158D01*
X32666998Y-25027783D01*
X32597500Y-25034977D01*
X32535145Y-25003454D01*
X32518425Y-24984158D01*
X32388494Y-24798597D01*
X32221402Y-24631506D01*
X32221395Y-24631501D01*
X32027834Y-24495967D01*
X32027830Y-24495965D01*
X31944265Y-24456998D01*
X31813663Y-24396097D01*
X31813659Y-24396096D01*
X31813655Y-24396094D01*
X31585413Y-24334938D01*
X31585403Y-24334936D01*
X31350001Y-24314341D01*
X31349999Y-24314341D01*
X31114596Y-24334936D01*
X31114586Y-24334938D01*
X30886344Y-24396094D01*
X30886335Y-24396098D01*
X30672171Y-24495964D01*
X30672169Y-24495965D01*
X30478597Y-24631505D01*
X30311505Y-24798597D01*
X30181575Y-24984158D01*
X30126998Y-25027783D01*
X30057500Y-25034977D01*
X29995145Y-25003454D01*
X29978425Y-24984158D01*
X29848494Y-24798597D01*
X29681402Y-24631506D01*
X29681395Y-24631501D01*
X29487834Y-24495967D01*
X29487830Y-24495965D01*
X29404265Y-24456998D01*
X29273663Y-24396097D01*
X29273659Y-24396096D01*
X29273655Y-24396094D01*
X29045413Y-24334938D01*
X29045403Y-24334936D01*
X28810001Y-24314341D01*
X28809999Y-24314341D01*
X28574596Y-24334936D01*
X28574586Y-24334938D01*
X28346344Y-24396094D01*
X28346335Y-24396098D01*
X28132171Y-24495964D01*
X28132169Y-24495965D01*
X27938597Y-24631505D01*
X27771505Y-24798597D01*
X27641575Y-24984158D01*
X27586998Y-25027783D01*
X27517500Y-25034977D01*
X27455145Y-25003454D01*
X27438425Y-24984158D01*
X27308494Y-24798597D01*
X27141402Y-24631506D01*
X27141395Y-24631501D01*
X26947834Y-24495967D01*
X26947830Y-24495965D01*
X26864265Y-24456998D01*
X26733663Y-24396097D01*
X26733659Y-24396096D01*
X26733655Y-24396094D01*
X26505413Y-24334938D01*
X26505403Y-24334936D01*
X26270001Y-24314341D01*
X26269999Y-24314341D01*
X26034596Y-24334936D01*
X26034586Y-24334938D01*
X25806344Y-24396094D01*
X25806335Y-24396098D01*
X25592171Y-24495964D01*
X25592169Y-24495965D01*
X25398597Y-24631505D01*
X25231505Y-24798597D01*
X25101575Y-24984158D01*
X25046998Y-25027783D01*
X24977500Y-25034977D01*
X24915145Y-25003454D01*
X24898425Y-24984158D01*
X24768494Y-24798597D01*
X24601402Y-24631506D01*
X24601395Y-24631501D01*
X24407834Y-24495967D01*
X24407830Y-24495965D01*
X24324265Y-24456998D01*
X24193663Y-24396097D01*
X24193659Y-24396096D01*
X24193655Y-24396094D01*
X23965413Y-24334938D01*
X23965403Y-24334936D01*
X23730001Y-24314341D01*
X23729999Y-24314341D01*
X23494596Y-24334936D01*
X23494586Y-24334938D01*
X23266344Y-24396094D01*
X23266335Y-24396098D01*
X23052171Y-24495964D01*
X23052169Y-24495965D01*
X22858597Y-24631505D01*
X22691505Y-24798597D01*
X22561575Y-24984158D01*
X22506998Y-25027783D01*
X22437500Y-25034977D01*
X22375145Y-25003454D01*
X22358425Y-24984158D01*
X22228494Y-24798597D01*
X22061402Y-24631506D01*
X22061395Y-24631501D01*
X21887983Y-24510076D01*
X21844358Y-24455499D01*
X21837165Y-24386001D01*
X21868687Y-24323646D01*
X21887983Y-24306926D01*
X21978330Y-24243664D01*
X22071401Y-24178495D01*
X22238495Y-24011401D01*
X22374035Y-23817830D01*
X22473903Y-23603663D01*
X22535063Y-23375408D01*
X22555659Y-23140000D01*
X22553336Y-23113454D01*
X22536411Y-22919999D01*
X22535063Y-22904592D01*
X22473903Y-22676337D01*
X22374035Y-22462171D01*
X22368425Y-22454158D01*
X22238494Y-22268597D01*
X22071402Y-22101506D01*
X22071396Y-22101501D01*
X21885842Y-21971575D01*
X21842217Y-21916998D01*
X21835023Y-21847500D01*
X21866546Y-21785145D01*
X21885842Y-21768425D01*
X21978330Y-21703664D01*
X22071401Y-21638495D01*
X22238495Y-21471401D01*
X22374035Y-21277830D01*
X22473903Y-21063663D01*
X22535063Y-20835408D01*
X22555659Y-20600000D01*
X22553336Y-20573454D01*
X22543286Y-20458583D01*
X22535063Y-20364592D01*
X22473903Y-20136337D01*
X22374035Y-19922171D01*
X22368425Y-19914158D01*
X22238494Y-19728597D01*
X22129893Y-19619997D01*
X23935153Y-19619997D01*
X23935153Y-19620002D01*
X23954526Y-19977314D01*
X23954527Y-19977331D01*
X24012415Y-20330431D01*
X24012421Y-20330457D01*
X24108147Y-20675232D01*
X24108149Y-20675239D01*
X24240597Y-21007659D01*
X24240606Y-21007677D01*
X24408218Y-21323827D01*
X24609033Y-21620007D01*
X24736441Y-21770003D01*
X24736442Y-21770004D01*
X25945748Y-20560698D01*
X26019588Y-20662330D01*
X26197670Y-20840412D01*
X26299300Y-20914251D01*
X25087255Y-22126295D01*
X25087256Y-22126296D01*
X25100485Y-22138828D01*
X25100486Y-22138829D01*
X25385367Y-22355388D01*
X25385370Y-22355390D01*
X25691990Y-22539876D01*
X26016739Y-22690122D01*
X26016744Y-22690123D01*
X26355855Y-22804383D01*
X26705339Y-22881311D01*
X27061075Y-22919999D01*
X27061085Y-22920000D01*
X27418915Y-22920000D01*
X27418924Y-22919999D01*
X27774660Y-22881311D01*
X28124144Y-22804383D01*
X28463255Y-22690123D01*
X28463260Y-22690122D01*
X28788009Y-22539876D01*
X29094629Y-22355390D01*
X29094632Y-22355388D01*
X29379504Y-22138836D01*
X29392742Y-22126294D01*
X28180698Y-20914251D01*
X28282330Y-20840412D01*
X28460412Y-20662330D01*
X28534251Y-20560698D01*
X29743556Y-21770003D01*
X29870964Y-21620008D01*
X29870975Y-21619994D01*
X30071781Y-21323827D01*
X30116224Y-21239999D01*
X75844341Y-21239999D01*
X75844341Y-21240000D01*
X75864936Y-21475403D01*
X75864938Y-21475413D01*
X75926094Y-21703655D01*
X75926096Y-21703659D01*
X75926097Y-21703663D01*
X76006004Y-21875023D01*
X76025965Y-21917830D01*
X76025967Y-21917834D01*
X76134281Y-22072521D01*
X76161501Y-22111396D01*
X76161506Y-22111402D01*
X76328597Y-22278493D01*
X76328603Y-22278498D01*
X76514158Y-22408425D01*
X76557783Y-22463002D01*
X76564977Y-22532500D01*
X76533454Y-22594855D01*
X76514158Y-22611575D01*
X76328597Y-22741505D01*
X76161505Y-22908597D01*
X76025965Y-23102169D01*
X76025964Y-23102171D01*
X75926098Y-23316335D01*
X75926094Y-23316344D01*
X75864938Y-23544586D01*
X75864936Y-23544596D01*
X75844341Y-23779999D01*
X75844341Y-23780000D01*
X75864936Y-24015403D01*
X75864938Y-24015413D01*
X75926094Y-24243655D01*
X75926096Y-24243659D01*
X75926097Y-24243663D01*
X76006004Y-24415023D01*
X76025965Y-24457830D01*
X76025967Y-24457834D01*
X76134281Y-24612521D01*
X76161501Y-24651396D01*
X76161506Y-24651402D01*
X76328597Y-24818493D01*
X76328603Y-24818498D01*
X76514158Y-24948425D01*
X76557783Y-25003002D01*
X76564977Y-25072500D01*
X76533454Y-25134855D01*
X76514158Y-25151575D01*
X76328597Y-25281505D01*
X76161505Y-25448597D01*
X76025965Y-25642169D01*
X76025964Y-25642171D01*
X75926098Y-25856335D01*
X75926094Y-25856344D01*
X75864938Y-26084586D01*
X75864936Y-26084596D01*
X75844341Y-26319999D01*
X75844341Y-26320000D01*
X75864936Y-26555403D01*
X75864938Y-26555413D01*
X75926094Y-26783655D01*
X75926096Y-26783659D01*
X75926097Y-26783663D01*
X76006004Y-26955023D01*
X76025965Y-26997830D01*
X76025967Y-26997834D01*
X76134281Y-27152521D01*
X76161501Y-27191396D01*
X76161506Y-27191402D01*
X76328597Y-27358493D01*
X76328603Y-27358498D01*
X76514158Y-27488425D01*
X76557783Y-27543002D01*
X76564977Y-27612500D01*
X76533454Y-27674855D01*
X76514158Y-27691575D01*
X76328597Y-27821505D01*
X76161505Y-27988597D01*
X76025965Y-28182169D01*
X76025964Y-28182171D01*
X75926098Y-28396335D01*
X75926094Y-28396344D01*
X75864938Y-28624586D01*
X75864936Y-28624596D01*
X75844341Y-28859999D01*
X75844341Y-28860000D01*
X75864936Y-29095403D01*
X75864938Y-29095413D01*
X75926094Y-29323655D01*
X75926096Y-29323659D01*
X75926097Y-29323663D01*
X76005625Y-29494211D01*
X76025965Y-29537830D01*
X76025967Y-29537834D01*
X76134281Y-29692521D01*
X76161501Y-29731396D01*
X76161506Y-29731402D01*
X76328597Y-29898493D01*
X76328603Y-29898498D01*
X76514158Y-30028425D01*
X76557783Y-30083002D01*
X76564977Y-30152500D01*
X76533454Y-30214855D01*
X76514158Y-30231575D01*
X76328597Y-30361505D01*
X76161505Y-30528597D01*
X76025965Y-30722169D01*
X76025964Y-30722171D01*
X75926098Y-30936335D01*
X75926094Y-30936344D01*
X75864938Y-31164586D01*
X75864936Y-31164596D01*
X75844341Y-31399999D01*
X75844341Y-31400000D01*
X75864936Y-31635403D01*
X75864938Y-31635413D01*
X75926094Y-31863655D01*
X75926096Y-31863659D01*
X75926097Y-31863663D01*
X76005482Y-32033905D01*
X76025965Y-32077830D01*
X76025967Y-32077834D01*
X76118640Y-32210184D01*
X76161501Y-32271396D01*
X76161506Y-32271402D01*
X76328597Y-32438493D01*
X76328603Y-32438498D01*
X76514158Y-32568425D01*
X76557783Y-32623002D01*
X76564977Y-32692500D01*
X76533454Y-32754855D01*
X76514158Y-32771575D01*
X76328597Y-32901505D01*
X76161505Y-33068597D01*
X76025965Y-33262169D01*
X76025964Y-33262171D01*
X75926098Y-33476335D01*
X75926094Y-33476344D01*
X75864938Y-33704586D01*
X75864936Y-33704596D01*
X75844341Y-33939999D01*
X75844341Y-33940000D01*
X75864936Y-34175403D01*
X75864938Y-34175413D01*
X75926094Y-34403655D01*
X75926096Y-34403659D01*
X75926097Y-34403663D01*
X76023670Y-34612908D01*
X76025965Y-34617830D01*
X76025967Y-34617834D01*
X76134281Y-34772521D01*
X76161505Y-34811401D01*
X76328599Y-34978495D01*
X76394671Y-35024759D01*
X76522165Y-35114032D01*
X76522167Y-35114033D01*
X76522170Y-35114035D01*
X76736337Y-35213903D01*
X76736343Y-35213904D01*
X76736344Y-35213905D01*
X76791285Y-35228626D01*
X76964592Y-35275063D01*
X77152918Y-35291539D01*
X77199999Y-35295659D01*
X77200000Y-35295659D01*
X77200001Y-35295659D01*
X77239234Y-35292226D01*
X77435408Y-35275063D01*
X77663663Y-35213903D01*
X77877830Y-35114035D01*
X78071401Y-34978495D01*
X78238495Y-34811401D01*
X78368425Y-34625842D01*
X78423002Y-34582217D01*
X78492500Y-34575023D01*
X78554855Y-34606546D01*
X78571575Y-34625842D01*
X78701500Y-34811395D01*
X78701505Y-34811401D01*
X78868599Y-34978495D01*
X78934671Y-35024759D01*
X79062165Y-35114032D01*
X79062167Y-35114033D01*
X79062170Y-35114035D01*
X79276337Y-35213903D01*
X79276343Y-35213904D01*
X79276344Y-35213905D01*
X79331285Y-35228626D01*
X79504592Y-35275063D01*
X79692918Y-35291539D01*
X79739999Y-35295659D01*
X79740000Y-35295659D01*
X79740001Y-35295659D01*
X79779234Y-35292226D01*
X79975408Y-35275063D01*
X80203663Y-35213903D01*
X80417830Y-35114035D01*
X80611401Y-34978495D01*
X80778495Y-34811401D01*
X80908425Y-34625842D01*
X80963002Y-34582217D01*
X81032500Y-34575023D01*
X81094855Y-34606546D01*
X81111575Y-34625842D01*
X81241500Y-34811395D01*
X81241505Y-34811401D01*
X81408599Y-34978495D01*
X81474671Y-35024759D01*
X81602165Y-35114032D01*
X81602167Y-35114033D01*
X81602170Y-35114035D01*
X81816337Y-35213903D01*
X81816343Y-35213904D01*
X81816344Y-35213905D01*
X81871285Y-35228626D01*
X82044592Y-35275063D01*
X82232918Y-35291539D01*
X82279999Y-35295659D01*
X82280000Y-35295659D01*
X82280001Y-35295659D01*
X82319234Y-35292226D01*
X82515408Y-35275063D01*
X82743663Y-35213903D01*
X82957830Y-35114035D01*
X83151401Y-34978495D01*
X83318495Y-34811401D01*
X83448425Y-34625842D01*
X83503002Y-34582217D01*
X83572500Y-34575023D01*
X83634855Y-34606546D01*
X83651575Y-34625842D01*
X83781500Y-34811395D01*
X83781505Y-34811401D01*
X83948599Y-34978495D01*
X84014671Y-35024759D01*
X84142165Y-35114032D01*
X84142167Y-35114033D01*
X84142170Y-35114035D01*
X84356337Y-35213903D01*
X84356343Y-35213904D01*
X84356344Y-35213905D01*
X84411285Y-35228626D01*
X84584592Y-35275063D01*
X84772918Y-35291539D01*
X84819999Y-35295659D01*
X84820000Y-35295659D01*
X84820001Y-35295659D01*
X84859234Y-35292226D01*
X85055408Y-35275063D01*
X85283663Y-35213903D01*
X85497830Y-35114035D01*
X85691401Y-34978495D01*
X85858495Y-34811401D01*
X85988425Y-34625842D01*
X86043002Y-34582217D01*
X86112500Y-34575023D01*
X86174855Y-34606546D01*
X86191575Y-34625842D01*
X86321500Y-34811395D01*
X86321505Y-34811401D01*
X86488599Y-34978495D01*
X86554671Y-35024759D01*
X86682165Y-35114032D01*
X86682167Y-35114033D01*
X86682170Y-35114035D01*
X86896337Y-35213903D01*
X86896343Y-35213904D01*
X86896344Y-35213905D01*
X86951285Y-35228626D01*
X87124592Y-35275063D01*
X87312918Y-35291539D01*
X87359999Y-35295659D01*
X87360000Y-35295659D01*
X87360001Y-35295659D01*
X87399234Y-35292226D01*
X87595408Y-35275063D01*
X87823663Y-35213903D01*
X88037830Y-35114035D01*
X88231401Y-34978495D01*
X88398495Y-34811401D01*
X88528425Y-34625842D01*
X88583002Y-34582217D01*
X88652500Y-34575023D01*
X88714855Y-34606546D01*
X88731575Y-34625842D01*
X88861500Y-34811395D01*
X88861505Y-34811401D01*
X89028599Y-34978495D01*
X89094671Y-35024759D01*
X89222165Y-35114032D01*
X89222167Y-35114033D01*
X89222170Y-35114035D01*
X89436337Y-35213903D01*
X89436343Y-35213904D01*
X89436344Y-35213905D01*
X89491285Y-35228626D01*
X89664592Y-35275063D01*
X89852918Y-35291539D01*
X89899999Y-35295659D01*
X89900000Y-35295659D01*
X89900001Y-35295659D01*
X89939234Y-35292226D01*
X90135408Y-35275063D01*
X90363663Y-35213903D01*
X90577830Y-35114035D01*
X90771401Y-34978495D01*
X90938495Y-34811401D01*
X91068425Y-34625842D01*
X91123002Y-34582217D01*
X91192500Y-34575023D01*
X91254855Y-34606546D01*
X91271575Y-34625842D01*
X91401500Y-34811395D01*
X91401505Y-34811401D01*
X91568599Y-34978495D01*
X91634671Y-35024759D01*
X91762165Y-35114032D01*
X91762167Y-35114033D01*
X91762170Y-35114035D01*
X91976337Y-35213903D01*
X91976343Y-35213904D01*
X91976344Y-35213905D01*
X92031285Y-35228626D01*
X92204592Y-35275063D01*
X92392918Y-35291539D01*
X92439999Y-35295659D01*
X92440000Y-35295659D01*
X92440001Y-35295659D01*
X92479234Y-35292226D01*
X92675408Y-35275063D01*
X92903663Y-35213903D01*
X93117830Y-35114035D01*
X93311401Y-34978495D01*
X93478495Y-34811401D01*
X93614035Y-34617830D01*
X93713903Y-34403663D01*
X93775063Y-34175408D01*
X93795659Y-33940000D01*
X93775063Y-33704592D01*
X93713903Y-33476337D01*
X93614035Y-33262171D01*
X93608425Y-33254158D01*
X93478494Y-33068597D01*
X93311402Y-32901506D01*
X93311396Y-32901501D01*
X93125842Y-32771575D01*
X93082217Y-32716998D01*
X93075023Y-32647500D01*
X93106546Y-32585145D01*
X93125842Y-32568425D01*
X93148026Y-32552891D01*
X93311401Y-32438495D01*
X93478495Y-32271401D01*
X93614035Y-32077830D01*
X93713903Y-31863663D01*
X93775063Y-31635408D01*
X93795659Y-31400000D01*
X93775063Y-31164592D01*
X93713903Y-30936337D01*
X93614035Y-30722171D01*
X93608425Y-30714158D01*
X93478494Y-30528597D01*
X93311402Y-30361506D01*
X93311396Y-30361501D01*
X93125842Y-30231575D01*
X93082217Y-30176998D01*
X93075023Y-30107500D01*
X93106546Y-30045145D01*
X93125842Y-30028425D01*
X93148026Y-30012891D01*
X93311401Y-29898495D01*
X93478495Y-29731401D01*
X93614035Y-29537830D01*
X93713903Y-29323663D01*
X93775063Y-29095408D01*
X93795659Y-28860000D01*
X93775063Y-28624592D01*
X93713903Y-28396337D01*
X93614035Y-28182171D01*
X93608425Y-28174158D01*
X93478494Y-27988597D01*
X93311402Y-27821506D01*
X93311396Y-27821501D01*
X93125842Y-27691575D01*
X93082217Y-27636998D01*
X93075023Y-27567500D01*
X93106546Y-27505145D01*
X93125842Y-27488425D01*
X93252121Y-27400003D01*
X93311401Y-27358495D01*
X93478495Y-27191401D01*
X93614035Y-26997830D01*
X93713903Y-26783663D01*
X93775063Y-26555408D01*
X93795659Y-26320000D01*
X93775063Y-26084592D01*
X93713903Y-25856337D01*
X93614035Y-25642171D01*
X93608425Y-25634158D01*
X93478494Y-25448597D01*
X93311402Y-25281506D01*
X93311396Y-25281501D01*
X93125842Y-25151575D01*
X93082217Y-25096998D01*
X93075023Y-25027500D01*
X93106546Y-24965145D01*
X93125842Y-24948425D01*
X93148026Y-24932891D01*
X93311401Y-24818495D01*
X93478495Y-24651401D01*
X93614035Y-24457830D01*
X93713903Y-24243663D01*
X93775063Y-24015408D01*
X93795659Y-23780000D01*
X93775063Y-23544592D01*
X93713903Y-23316337D01*
X93614035Y-23102171D01*
X93608425Y-23094158D01*
X93478494Y-22908597D01*
X93311402Y-22741506D01*
X93311396Y-22741501D01*
X93125842Y-22611575D01*
X93082217Y-22556998D01*
X93075023Y-22487500D01*
X93106546Y-22425145D01*
X93125842Y-22408425D01*
X93148026Y-22392891D01*
X93311401Y-22278495D01*
X93478495Y-22111401D01*
X93614035Y-21917830D01*
X93713903Y-21703663D01*
X93775063Y-21475408D01*
X93795659Y-21240000D01*
X93775063Y-21004592D01*
X93713903Y-20776337D01*
X93614035Y-20562171D01*
X93608425Y-20554158D01*
X93478494Y-20368597D01*
X93311402Y-20201506D01*
X93311395Y-20201501D01*
X93117834Y-20065967D01*
X93117830Y-20065965D01*
X93117828Y-20065964D01*
X92903663Y-19966097D01*
X92903659Y-19966096D01*
X92903655Y-19966094D01*
X92675413Y-19904938D01*
X92675403Y-19904936D01*
X92440001Y-19884341D01*
X92439999Y-19884341D01*
X92204596Y-19904936D01*
X92204586Y-19904938D01*
X91976344Y-19966094D01*
X91976335Y-19966098D01*
X91762171Y-20065964D01*
X91762169Y-20065965D01*
X91568597Y-20201505D01*
X91401505Y-20368597D01*
X91271575Y-20554158D01*
X91216998Y-20597783D01*
X91147500Y-20604977D01*
X91085145Y-20573454D01*
X91068425Y-20554158D01*
X90938494Y-20368597D01*
X90771402Y-20201506D01*
X90771395Y-20201501D01*
X90577834Y-20065967D01*
X90577830Y-20065965D01*
X90577828Y-20065964D01*
X90363663Y-19966097D01*
X90363659Y-19966096D01*
X90363655Y-19966094D01*
X90135413Y-19904938D01*
X90135403Y-19904936D01*
X89900001Y-19884341D01*
X89899999Y-19884341D01*
X89664596Y-19904936D01*
X89664586Y-19904938D01*
X89436344Y-19966094D01*
X89436335Y-19966098D01*
X89222171Y-20065964D01*
X89222169Y-20065965D01*
X89028597Y-20201505D01*
X88861505Y-20368597D01*
X88731575Y-20554158D01*
X88676998Y-20597783D01*
X88607500Y-20604977D01*
X88545145Y-20573454D01*
X88528425Y-20554158D01*
X88398494Y-20368597D01*
X88231402Y-20201506D01*
X88231395Y-20201501D01*
X88037834Y-20065967D01*
X88037830Y-20065965D01*
X88037828Y-20065964D01*
X87823663Y-19966097D01*
X87823659Y-19966096D01*
X87823655Y-19966094D01*
X87595413Y-19904938D01*
X87595403Y-19904936D01*
X87360001Y-19884341D01*
X87359999Y-19884341D01*
X87124596Y-19904936D01*
X87124586Y-19904938D01*
X86896344Y-19966094D01*
X86896335Y-19966098D01*
X86682171Y-20065964D01*
X86682169Y-20065965D01*
X86488597Y-20201505D01*
X86321505Y-20368597D01*
X86191575Y-20554158D01*
X86136998Y-20597783D01*
X86067500Y-20604977D01*
X86005145Y-20573454D01*
X85988425Y-20554158D01*
X85858494Y-20368597D01*
X85691402Y-20201506D01*
X85691395Y-20201501D01*
X85497834Y-20065967D01*
X85497830Y-20065965D01*
X85497828Y-20065964D01*
X85283663Y-19966097D01*
X85283659Y-19966096D01*
X85283655Y-19966094D01*
X85055413Y-19904938D01*
X85055403Y-19904936D01*
X84820001Y-19884341D01*
X84819999Y-19884341D01*
X84584596Y-19904936D01*
X84584586Y-19904938D01*
X84356344Y-19966094D01*
X84356335Y-19966098D01*
X84142171Y-20065964D01*
X84142169Y-20065965D01*
X83948597Y-20201505D01*
X83781505Y-20368597D01*
X83651575Y-20554158D01*
X83596998Y-20597783D01*
X83527500Y-20604977D01*
X83465145Y-20573454D01*
X83448425Y-20554158D01*
X83318494Y-20368597D01*
X83151402Y-20201506D01*
X83151395Y-20201501D01*
X82957834Y-20065967D01*
X82957830Y-20065965D01*
X82957828Y-20065964D01*
X82743663Y-19966097D01*
X82743659Y-19966096D01*
X82743655Y-19966094D01*
X82515413Y-19904938D01*
X82515403Y-19904936D01*
X82280001Y-19884341D01*
X82279999Y-19884341D01*
X82044596Y-19904936D01*
X82044586Y-19904938D01*
X81816344Y-19966094D01*
X81816335Y-19966098D01*
X81602171Y-20065964D01*
X81602169Y-20065965D01*
X81408597Y-20201505D01*
X81241505Y-20368597D01*
X81111575Y-20554158D01*
X81056998Y-20597783D01*
X80987500Y-20604977D01*
X80925145Y-20573454D01*
X80908425Y-20554158D01*
X80778494Y-20368597D01*
X80611402Y-20201506D01*
X80611395Y-20201501D01*
X80417834Y-20065967D01*
X80417830Y-20065965D01*
X80417828Y-20065964D01*
X80203663Y-19966097D01*
X80203659Y-19966096D01*
X80203655Y-19966094D01*
X79975413Y-19904938D01*
X79975403Y-19904936D01*
X79740001Y-19884341D01*
X79739999Y-19884341D01*
X79504596Y-19904936D01*
X79504586Y-19904938D01*
X79276344Y-19966094D01*
X79276335Y-19966098D01*
X79062171Y-20065964D01*
X79062169Y-20065965D01*
X78868597Y-20201505D01*
X78701505Y-20368597D01*
X78571575Y-20554158D01*
X78516998Y-20597783D01*
X78447500Y-20604977D01*
X78385145Y-20573454D01*
X78368425Y-20554158D01*
X78238494Y-20368597D01*
X78071402Y-20201506D01*
X78071395Y-20201501D01*
X77877834Y-20065967D01*
X77877830Y-20065965D01*
X77877828Y-20065964D01*
X77663663Y-19966097D01*
X77663659Y-19966096D01*
X77663655Y-19966094D01*
X77435413Y-19904938D01*
X77435403Y-19904936D01*
X77200001Y-19884341D01*
X77199999Y-19884341D01*
X76964596Y-19904936D01*
X76964586Y-19904938D01*
X76736344Y-19966094D01*
X76736335Y-19966098D01*
X76522171Y-20065964D01*
X76522169Y-20065965D01*
X76328597Y-20201505D01*
X76161505Y-20368597D01*
X76025965Y-20562169D01*
X76025964Y-20562171D01*
X75926098Y-20776335D01*
X75926094Y-20776344D01*
X75864938Y-21004586D01*
X75864936Y-21004596D01*
X75844341Y-21239999D01*
X30116224Y-21239999D01*
X30239393Y-21007677D01*
X30239402Y-21007659D01*
X30371850Y-20675239D01*
X30371852Y-20675232D01*
X30467578Y-20330457D01*
X30467584Y-20330431D01*
X30525472Y-19977331D01*
X30525473Y-19977314D01*
X30544847Y-19620002D01*
X30544847Y-19619997D01*
X98865153Y-19619997D01*
X98865153Y-19620002D01*
X98884526Y-19977314D01*
X98884527Y-19977331D01*
X98942415Y-20330431D01*
X98942421Y-20330457D01*
X99038147Y-20675232D01*
X99038149Y-20675239D01*
X99170597Y-21007659D01*
X99170606Y-21007677D01*
X99338218Y-21323827D01*
X99539033Y-21620007D01*
X99666441Y-21770003D01*
X99666442Y-21770004D01*
X100875748Y-20560698D01*
X100949588Y-20662330D01*
X101127670Y-20840412D01*
X101229300Y-20914251D01*
X100017255Y-22126295D01*
X100017256Y-22126296D01*
X100030485Y-22138828D01*
X100030486Y-22138829D01*
X100315367Y-22355388D01*
X100315370Y-22355390D01*
X100621990Y-22539876D01*
X100946739Y-22690122D01*
X100946744Y-22690123D01*
X101285855Y-22804383D01*
X101635339Y-22881311D01*
X101991075Y-22919999D01*
X101991085Y-22920000D01*
X102348915Y-22920000D01*
X102348924Y-22919999D01*
X102704660Y-22881311D01*
X103054144Y-22804383D01*
X103393255Y-22690123D01*
X103393260Y-22690122D01*
X103718009Y-22539876D01*
X104024629Y-22355390D01*
X104024632Y-22355388D01*
X104309504Y-22138836D01*
X104322742Y-22126294D01*
X103110698Y-20914251D01*
X103212330Y-20840412D01*
X103390412Y-20662330D01*
X103464251Y-20560698D01*
X104673556Y-21770003D01*
X104800964Y-21620008D01*
X104800975Y-21619994D01*
X105001781Y-21323827D01*
X105169393Y-21007677D01*
X105169402Y-21007659D01*
X105301850Y-20675239D01*
X105301852Y-20675232D01*
X105397578Y-20330457D01*
X105397584Y-20330431D01*
X105455472Y-19977331D01*
X105455473Y-19977314D01*
X105474847Y-19620002D01*
X105474847Y-19619997D01*
X105455473Y-19262685D01*
X105455472Y-19262668D01*
X105397584Y-18909568D01*
X105397578Y-18909542D01*
X105301852Y-18564767D01*
X105301850Y-18564760D01*
X105169402Y-18232340D01*
X105169393Y-18232322D01*
X105001781Y-17916172D01*
X104800966Y-17619992D01*
X104673557Y-17469995D01*
X104673556Y-17469994D01*
X103464250Y-18679300D01*
X103390412Y-18577670D01*
X103212330Y-18399588D01*
X103110697Y-18325747D01*
X104322743Y-17113703D01*
X104322742Y-17113702D01*
X104309514Y-17101171D01*
X104309513Y-17101170D01*
X104024632Y-16884611D01*
X104024629Y-16884609D01*
X103718009Y-16700123D01*
X103393260Y-16549877D01*
X103393255Y-16549876D01*
X103054144Y-16435616D01*
X102704660Y-16358688D01*
X102348924Y-16320000D01*
X101991075Y-16320000D01*
X101635339Y-16358688D01*
X101285855Y-16435616D01*
X100946744Y-16549876D01*
X100946739Y-16549877D01*
X100621990Y-16700123D01*
X100315370Y-16884609D01*
X100315367Y-16884611D01*
X100030491Y-17101166D01*
X100017256Y-17113703D01*
X100017255Y-17113703D01*
X101229301Y-18325748D01*
X101127670Y-18399588D01*
X100949588Y-18577670D01*
X100875748Y-18679301D01*
X99666442Y-17469994D01*
X99666441Y-17469995D01*
X99539040Y-17619983D01*
X99539033Y-17619993D01*
X99338218Y-17916172D01*
X99170606Y-18232322D01*
X99170597Y-18232340D01*
X99038149Y-18564760D01*
X99038147Y-18564767D01*
X98942421Y-18909542D01*
X98942415Y-18909568D01*
X98884527Y-19262668D01*
X98884526Y-19262685D01*
X98865153Y-19619997D01*
X30544847Y-19619997D01*
X30525473Y-19262685D01*
X30525472Y-19262668D01*
X30467584Y-18909568D01*
X30467578Y-18909542D01*
X30371852Y-18564767D01*
X30371850Y-18564760D01*
X30239402Y-18232340D01*
X30239393Y-18232322D01*
X30071781Y-17916172D01*
X29870966Y-17619992D01*
X29743557Y-17469995D01*
X29743556Y-17469994D01*
X28534250Y-18679300D01*
X28460412Y-18577670D01*
X28282330Y-18399588D01*
X28180697Y-18325747D01*
X29392743Y-17113703D01*
X29392742Y-17113702D01*
X29379514Y-17101171D01*
X29379513Y-17101170D01*
X29094632Y-16884611D01*
X29094629Y-16884609D01*
X28788009Y-16700123D01*
X28463260Y-16549877D01*
X28463255Y-16549876D01*
X28124144Y-16435616D01*
X27774660Y-16358688D01*
X27418924Y-16320000D01*
X27061075Y-16320000D01*
X26705339Y-16358688D01*
X26355855Y-16435616D01*
X26016744Y-16549876D01*
X26016739Y-16549877D01*
X25691990Y-16700123D01*
X25385370Y-16884609D01*
X25385367Y-16884611D01*
X25100491Y-17101166D01*
X25087256Y-17113703D01*
X25087255Y-17113703D01*
X26299301Y-18325748D01*
X26197670Y-18399588D01*
X26019588Y-18577670D01*
X25945748Y-18679301D01*
X24736442Y-17469994D01*
X24736441Y-17469995D01*
X24609040Y-17619983D01*
X24609033Y-17619993D01*
X24408218Y-17916172D01*
X24240606Y-18232322D01*
X24240597Y-18232340D01*
X24108149Y-18564760D01*
X24108147Y-18564767D01*
X24012421Y-18909542D01*
X24012415Y-18909568D01*
X23954527Y-19262668D01*
X23954526Y-19262685D01*
X23935153Y-19619997D01*
X22129893Y-19619997D01*
X22071402Y-19561506D01*
X22071396Y-19561501D01*
X21885842Y-19431575D01*
X21842217Y-19376998D01*
X21835023Y-19307500D01*
X21866546Y-19245145D01*
X21885842Y-19228425D01*
X21908026Y-19212891D01*
X22071401Y-19098495D01*
X22238495Y-18931401D01*
X22374035Y-18737830D01*
X22473903Y-18523663D01*
X22535063Y-18295408D01*
X22555659Y-18060000D01*
X22535063Y-17824592D01*
X22473903Y-17596337D01*
X22374035Y-17382171D01*
X22372912Y-17380566D01*
X22238494Y-17188597D01*
X22071402Y-17021506D01*
X22071396Y-17021501D01*
X21885842Y-16891575D01*
X21842217Y-16836998D01*
X21835023Y-16767500D01*
X21866546Y-16705145D01*
X21885842Y-16688425D01*
X21908026Y-16672891D01*
X22071401Y-16558495D01*
X22238495Y-16391401D01*
X22374035Y-16197830D01*
X22473903Y-15983663D01*
X22535063Y-15755408D01*
X22548473Y-15602135D01*
X30969500Y-15602135D01*
X30969500Y-17397870D01*
X30969501Y-17397876D01*
X30975908Y-17457483D01*
X31026202Y-17592328D01*
X31026206Y-17592335D01*
X31112452Y-17707544D01*
X31112455Y-17707547D01*
X31227664Y-17793793D01*
X31227671Y-17793797D01*
X31362517Y-17844091D01*
X31362516Y-17844091D01*
X31369444Y-17844835D01*
X31422127Y-17850500D01*
X33217872Y-17850499D01*
X33277483Y-17844091D01*
X33412331Y-17793796D01*
X33527546Y-17707546D01*
X33613796Y-17592331D01*
X33662810Y-17460916D01*
X33704681Y-17404984D01*
X33770145Y-17380566D01*
X33838418Y-17395417D01*
X33866673Y-17416569D01*
X33988599Y-17538495D01*
X34071203Y-17596335D01*
X34182165Y-17674032D01*
X34182167Y-17674033D01*
X34182170Y-17674035D01*
X34396337Y-17773903D01*
X34624592Y-17835063D01*
X34801034Y-17850500D01*
X34859999Y-17855659D01*
X34860000Y-17855659D01*
X34860001Y-17855659D01*
X34918966Y-17850500D01*
X35095408Y-17835063D01*
X35323663Y-17773903D01*
X35537830Y-17674035D01*
X35731401Y-17538495D01*
X35898495Y-17371401D01*
X36012891Y-17208026D01*
X36028425Y-17185842D01*
X36083002Y-17142217D01*
X36152500Y-17135023D01*
X36214855Y-17166546D01*
X36231575Y-17185842D01*
X36361500Y-17371395D01*
X36361505Y-17371401D01*
X36528599Y-17538495D01*
X36611203Y-17596335D01*
X36722165Y-17674032D01*
X36722167Y-17674033D01*
X36722170Y-17674035D01*
X36936337Y-17773903D01*
X37164592Y-17835063D01*
X37341034Y-17850500D01*
X37399999Y-17855659D01*
X37400000Y-17855659D01*
X37400001Y-17855659D01*
X37458966Y-17850500D01*
X37635408Y-17835063D01*
X37863663Y-17773903D01*
X38077830Y-17674035D01*
X38271401Y-17538495D01*
X38438495Y-17371401D01*
X38552891Y-17208026D01*
X38568425Y-17185842D01*
X38623002Y-17142217D01*
X38692500Y-17135023D01*
X38754855Y-17166546D01*
X38771575Y-17185842D01*
X38901500Y-17371395D01*
X38901505Y-17371401D01*
X39068599Y-17538495D01*
X39151203Y-17596335D01*
X39262165Y-17674032D01*
X39262167Y-17674033D01*
X39262170Y-17674035D01*
X39476337Y-17773903D01*
X39704592Y-17835063D01*
X39881034Y-17850500D01*
X39939999Y-17855659D01*
X39940000Y-17855659D01*
X39940001Y-17855659D01*
X39998966Y-17850500D01*
X40175408Y-17835063D01*
X40403663Y-17773903D01*
X40617830Y-17674035D01*
X40811401Y-17538495D01*
X40978495Y-17371401D01*
X41092891Y-17208026D01*
X41108425Y-17185842D01*
X41163002Y-17142217D01*
X41232500Y-17135023D01*
X41294855Y-17166546D01*
X41311575Y-17185842D01*
X41441500Y-17371395D01*
X41441505Y-17371401D01*
X41608599Y-17538495D01*
X41691203Y-17596335D01*
X41802165Y-17674032D01*
X41802167Y-17674033D01*
X41802170Y-17674035D01*
X42016337Y-17773903D01*
X42244592Y-17835063D01*
X42421034Y-17850500D01*
X42479999Y-17855659D01*
X42480000Y-17855659D01*
X42480001Y-17855659D01*
X42538966Y-17850500D01*
X42715408Y-17835063D01*
X42943663Y-17773903D01*
X43157830Y-17674035D01*
X43351401Y-17538495D01*
X43518495Y-17371401D01*
X43632891Y-17208026D01*
X43648425Y-17185842D01*
X43703002Y-17142217D01*
X43772500Y-17135023D01*
X43834855Y-17166546D01*
X43851575Y-17185842D01*
X43981500Y-17371395D01*
X43981505Y-17371401D01*
X44148599Y-17538495D01*
X44231203Y-17596335D01*
X44342165Y-17674032D01*
X44342167Y-17674033D01*
X44342170Y-17674035D01*
X44556337Y-17773903D01*
X44784592Y-17835063D01*
X44961034Y-17850500D01*
X45019999Y-17855659D01*
X45020000Y-17855659D01*
X45020001Y-17855659D01*
X45078966Y-17850500D01*
X45255408Y-17835063D01*
X45483663Y-17773903D01*
X45697830Y-17674035D01*
X45891401Y-17538495D01*
X46058495Y-17371401D01*
X46172891Y-17208026D01*
X46188425Y-17185842D01*
X46243002Y-17142217D01*
X46312500Y-17135023D01*
X46374855Y-17166546D01*
X46391575Y-17185842D01*
X46521500Y-17371395D01*
X46521505Y-17371401D01*
X46688599Y-17538495D01*
X46771203Y-17596335D01*
X46882165Y-17674032D01*
X46882167Y-17674033D01*
X46882170Y-17674035D01*
X47096337Y-17773903D01*
X47324592Y-17835063D01*
X47501034Y-17850500D01*
X47559999Y-17855659D01*
X47560000Y-17855659D01*
X47560001Y-17855659D01*
X47618966Y-17850500D01*
X47795408Y-17835063D01*
X48023663Y-17773903D01*
X48237830Y-17674035D01*
X48431401Y-17538495D01*
X48598495Y-17371401D01*
X48712891Y-17208026D01*
X48728425Y-17185842D01*
X48783002Y-17142217D01*
X48852500Y-17135023D01*
X48914855Y-17166546D01*
X48931575Y-17185842D01*
X49061500Y-17371395D01*
X49061505Y-17371401D01*
X49228599Y-17538495D01*
X49311203Y-17596335D01*
X49422165Y-17674032D01*
X49422167Y-17674033D01*
X49422170Y-17674035D01*
X49636337Y-17773903D01*
X49864592Y-17835063D01*
X50041034Y-17850500D01*
X50099999Y-17855659D01*
X50100000Y-17855659D01*
X50100001Y-17855659D01*
X50158966Y-17850500D01*
X50335408Y-17835063D01*
X50563663Y-17773903D01*
X50777830Y-17674035D01*
X50971401Y-17538495D01*
X51138495Y-17371401D01*
X51252891Y-17208026D01*
X51268425Y-17185842D01*
X51323002Y-17142217D01*
X51392500Y-17135023D01*
X51454855Y-17166546D01*
X51471575Y-17185842D01*
X51601500Y-17371395D01*
X51601505Y-17371401D01*
X51768599Y-17538495D01*
X51851203Y-17596335D01*
X51962165Y-17674032D01*
X51962167Y-17674033D01*
X51962170Y-17674035D01*
X52176337Y-17773903D01*
X52404592Y-17835063D01*
X52581034Y-17850500D01*
X52639999Y-17855659D01*
X52640000Y-17855659D01*
X52640001Y-17855659D01*
X52698966Y-17850500D01*
X52875408Y-17835063D01*
X53103663Y-17773903D01*
X53317830Y-17674035D01*
X53511401Y-17538495D01*
X53678495Y-17371401D01*
X53792891Y-17208026D01*
X53808425Y-17185842D01*
X53863002Y-17142217D01*
X53932500Y-17135023D01*
X53994855Y-17166546D01*
X54011575Y-17185842D01*
X54141500Y-17371395D01*
X54141505Y-17371401D01*
X54308599Y-17538495D01*
X54391203Y-17596335D01*
X54502165Y-17674032D01*
X54502167Y-17674033D01*
X54502170Y-17674035D01*
X54716337Y-17773903D01*
X54944592Y-17835063D01*
X55121034Y-17850500D01*
X55179999Y-17855659D01*
X55180000Y-17855659D01*
X55180001Y-17855659D01*
X55238966Y-17850500D01*
X55415408Y-17835063D01*
X55643663Y-17773903D01*
X55857830Y-17674035D01*
X56051401Y-17538495D01*
X56218495Y-17371401D01*
X56354035Y-17177830D01*
X56453903Y-16963663D01*
X56515063Y-16735408D01*
X56535659Y-16500000D01*
X56515063Y-16264592D01*
X56453903Y-16036337D01*
X56354035Y-15822171D01*
X56348425Y-15814158D01*
X56218494Y-15628597D01*
X56192032Y-15602135D01*
X59999500Y-15602135D01*
X59999500Y-17397870D01*
X59999501Y-17397876D01*
X60005908Y-17457483D01*
X60056202Y-17592328D01*
X60056206Y-17592335D01*
X60142452Y-17707544D01*
X60142455Y-17707547D01*
X60257664Y-17793793D01*
X60257671Y-17793797D01*
X60392517Y-17844091D01*
X60392516Y-17844091D01*
X60399444Y-17844835D01*
X60452127Y-17850500D01*
X62247872Y-17850499D01*
X62307483Y-17844091D01*
X62442331Y-17793796D01*
X62557546Y-17707546D01*
X62643796Y-17592331D01*
X62692810Y-17460916D01*
X62734681Y-17404984D01*
X62800145Y-17380566D01*
X62868418Y-17395417D01*
X62896673Y-17416569D01*
X63018599Y-17538495D01*
X63101203Y-17596335D01*
X63212165Y-17674032D01*
X63212167Y-17674033D01*
X63212170Y-17674035D01*
X63426337Y-17773903D01*
X63654592Y-17835063D01*
X63831034Y-17850500D01*
X63889999Y-17855659D01*
X63890000Y-17855659D01*
X63890001Y-17855659D01*
X63948966Y-17850500D01*
X64125408Y-17835063D01*
X64353663Y-17773903D01*
X64567830Y-17674035D01*
X64761401Y-17538495D01*
X64928495Y-17371401D01*
X65042891Y-17208026D01*
X65058425Y-17185842D01*
X65113002Y-17142217D01*
X65182500Y-17135023D01*
X65244855Y-17166546D01*
X65261575Y-17185842D01*
X65391500Y-17371395D01*
X65391505Y-17371401D01*
X65558599Y-17538495D01*
X65641203Y-17596335D01*
X65752165Y-17674032D01*
X65752167Y-17674033D01*
X65752170Y-17674035D01*
X65966337Y-17773903D01*
X66194592Y-17835063D01*
X66371034Y-17850500D01*
X66429999Y-17855659D01*
X66430000Y-17855659D01*
X66430001Y-17855659D01*
X66488966Y-17850500D01*
X66665408Y-17835063D01*
X66893663Y-17773903D01*
X67107830Y-17674035D01*
X67301401Y-17538495D01*
X67468495Y-17371401D01*
X67582891Y-17208026D01*
X67598425Y-17185842D01*
X67653002Y-17142217D01*
X67722500Y-17135023D01*
X67784855Y-17166546D01*
X67801575Y-17185842D01*
X67931500Y-17371395D01*
X67931505Y-17371401D01*
X68098599Y-17538495D01*
X68181203Y-17596335D01*
X68292165Y-17674032D01*
X68292167Y-17674033D01*
X68292170Y-17674035D01*
X68506337Y-17773903D01*
X68734592Y-17835063D01*
X68911034Y-17850500D01*
X68969999Y-17855659D01*
X68970000Y-17855659D01*
X68970001Y-17855659D01*
X69028966Y-17850500D01*
X69205408Y-17835063D01*
X69433663Y-17773903D01*
X69647830Y-17674035D01*
X69841401Y-17538495D01*
X70008495Y-17371401D01*
X70122891Y-17208026D01*
X70138425Y-17185842D01*
X70193002Y-17142217D01*
X70262500Y-17135023D01*
X70324855Y-17166546D01*
X70341575Y-17185842D01*
X70471500Y-17371395D01*
X70471505Y-17371401D01*
X70638599Y-17538495D01*
X70721203Y-17596335D01*
X70832165Y-17674032D01*
X70832167Y-17674033D01*
X70832170Y-17674035D01*
X71046337Y-17773903D01*
X71274592Y-17835063D01*
X71451034Y-17850500D01*
X71509999Y-17855659D01*
X71510000Y-17855659D01*
X71510001Y-17855659D01*
X71568966Y-17850500D01*
X71745408Y-17835063D01*
X71973663Y-17773903D01*
X72187830Y-17674035D01*
X72381401Y-17538495D01*
X72548495Y-17371401D01*
X72662891Y-17208026D01*
X72678425Y-17185842D01*
X72733002Y-17142217D01*
X72802500Y-17135023D01*
X72864855Y-17166546D01*
X72881575Y-17185842D01*
X73011500Y-17371395D01*
X73011505Y-17371401D01*
X73178599Y-17538495D01*
X73261203Y-17596335D01*
X73372165Y-17674032D01*
X73372167Y-17674033D01*
X73372170Y-17674035D01*
X73586337Y-17773903D01*
X73814592Y-17835063D01*
X73991034Y-17850500D01*
X74049999Y-17855659D01*
X74050000Y-17855659D01*
X74050001Y-17855659D01*
X74108966Y-17850500D01*
X74285408Y-17835063D01*
X74513663Y-17773903D01*
X74727830Y-17674035D01*
X74921401Y-17538495D01*
X75088495Y-17371401D01*
X75224035Y-17177830D01*
X75323903Y-16963663D01*
X75385063Y-16735408D01*
X75405659Y-16500000D01*
X75385063Y-16264592D01*
X75323903Y-16036337D01*
X75224035Y-15822171D01*
X75218425Y-15814158D01*
X75088494Y-15628597D01*
X75062032Y-15602135D01*
X77959500Y-15602135D01*
X77959500Y-17397870D01*
X77959501Y-17397876D01*
X77965908Y-17457483D01*
X78016202Y-17592328D01*
X78016206Y-17592335D01*
X78102452Y-17707544D01*
X78102455Y-17707547D01*
X78217664Y-17793793D01*
X78217671Y-17793797D01*
X78352517Y-17844091D01*
X78352516Y-17844091D01*
X78359444Y-17844835D01*
X78412127Y-17850500D01*
X80207872Y-17850499D01*
X80267483Y-17844091D01*
X80402331Y-17793796D01*
X80517546Y-17707546D01*
X80603796Y-17592331D01*
X80652810Y-17460916D01*
X80694681Y-17404984D01*
X80760145Y-17380566D01*
X80828418Y-17395417D01*
X80856673Y-17416569D01*
X80978599Y-17538495D01*
X81061203Y-17596335D01*
X81172165Y-17674032D01*
X81172167Y-17674033D01*
X81172170Y-17674035D01*
X81386337Y-17773903D01*
X81614592Y-17835063D01*
X81791034Y-17850500D01*
X81849999Y-17855659D01*
X81850000Y-17855659D01*
X81850001Y-17855659D01*
X81908966Y-17850500D01*
X82085408Y-17835063D01*
X82313663Y-17773903D01*
X82527830Y-17674035D01*
X82721401Y-17538495D01*
X82888495Y-17371401D01*
X83002891Y-17208026D01*
X83018425Y-17185842D01*
X83073002Y-17142217D01*
X83142500Y-17135023D01*
X83204855Y-17166546D01*
X83221575Y-17185842D01*
X83351500Y-17371395D01*
X83351505Y-17371401D01*
X83518599Y-17538495D01*
X83601203Y-17596335D01*
X83712165Y-17674032D01*
X83712167Y-17674033D01*
X83712170Y-17674035D01*
X83926337Y-17773903D01*
X84154592Y-17835063D01*
X84331034Y-17850500D01*
X84389999Y-17855659D01*
X84390000Y-17855659D01*
X84390001Y-17855659D01*
X84448966Y-17850500D01*
X84625408Y-17835063D01*
X84853663Y-17773903D01*
X85067830Y-17674035D01*
X85261401Y-17538495D01*
X85428495Y-17371401D01*
X85542891Y-17208026D01*
X85558425Y-17185842D01*
X85613002Y-17142217D01*
X85682500Y-17135023D01*
X85744855Y-17166546D01*
X85761575Y-17185842D01*
X85891500Y-17371395D01*
X85891505Y-17371401D01*
X86058599Y-17538495D01*
X86141203Y-17596335D01*
X86252165Y-17674032D01*
X86252167Y-17674033D01*
X86252170Y-17674035D01*
X86466337Y-17773903D01*
X86694592Y-17835063D01*
X86871034Y-17850500D01*
X86929999Y-17855659D01*
X86930000Y-17855659D01*
X86930001Y-17855659D01*
X86988966Y-17850500D01*
X87165408Y-17835063D01*
X87393663Y-17773903D01*
X87607830Y-17674035D01*
X87801401Y-17538495D01*
X87968495Y-17371401D01*
X88082891Y-17208026D01*
X88098425Y-17185842D01*
X88153002Y-17142217D01*
X88222500Y-17135023D01*
X88284855Y-17166546D01*
X88301575Y-17185842D01*
X88431500Y-17371395D01*
X88431505Y-17371401D01*
X88598599Y-17538495D01*
X88681203Y-17596335D01*
X88792165Y-17674032D01*
X88792167Y-17674033D01*
X88792170Y-17674035D01*
X89006337Y-17773903D01*
X89234592Y-17835063D01*
X89411034Y-17850500D01*
X89469999Y-17855659D01*
X89470000Y-17855659D01*
X89470001Y-17855659D01*
X89528966Y-17850500D01*
X89705408Y-17835063D01*
X89933663Y-17773903D01*
X90147830Y-17674035D01*
X90341401Y-17538495D01*
X90508495Y-17371401D01*
X90622891Y-17208026D01*
X90638425Y-17185842D01*
X90693002Y-17142217D01*
X90762500Y-17135023D01*
X90824855Y-17166546D01*
X90841575Y-17185842D01*
X90971500Y-17371395D01*
X90971505Y-17371401D01*
X91138599Y-17538495D01*
X91221203Y-17596335D01*
X91332165Y-17674032D01*
X91332167Y-17674033D01*
X91332170Y-17674035D01*
X91546337Y-17773903D01*
X91774592Y-17835063D01*
X91951034Y-17850500D01*
X92009999Y-17855659D01*
X92010000Y-17855659D01*
X92010001Y-17855659D01*
X92068966Y-17850500D01*
X92245408Y-17835063D01*
X92473663Y-17773903D01*
X92687830Y-17674035D01*
X92881401Y-17538495D01*
X93048495Y-17371401D01*
X93162891Y-17208026D01*
X93178425Y-17185842D01*
X93233002Y-17142217D01*
X93302500Y-17135023D01*
X93364855Y-17166546D01*
X93381575Y-17185842D01*
X93511500Y-17371395D01*
X93511505Y-17371401D01*
X93678599Y-17538495D01*
X93761203Y-17596335D01*
X93872165Y-17674032D01*
X93872167Y-17674033D01*
X93872170Y-17674035D01*
X94086337Y-17773903D01*
X94314592Y-17835063D01*
X94491034Y-17850500D01*
X94549999Y-17855659D01*
X94550000Y-17855659D01*
X94550001Y-17855659D01*
X94608966Y-17850500D01*
X94785408Y-17835063D01*
X95013663Y-17773903D01*
X95227830Y-17674035D01*
X95421401Y-17538495D01*
X95588495Y-17371401D01*
X95702891Y-17208026D01*
X95718425Y-17185842D01*
X95773002Y-17142217D01*
X95842500Y-17135023D01*
X95904855Y-17166546D01*
X95921575Y-17185842D01*
X96051500Y-17371395D01*
X96051505Y-17371401D01*
X96218599Y-17538495D01*
X96301203Y-17596335D01*
X96412165Y-17674032D01*
X96412167Y-17674033D01*
X96412170Y-17674035D01*
X96626337Y-17773903D01*
X96854592Y-17835063D01*
X97031034Y-17850500D01*
X97089999Y-17855659D01*
X97090000Y-17855659D01*
X97090001Y-17855659D01*
X97148966Y-17850500D01*
X97325408Y-17835063D01*
X97553663Y-17773903D01*
X97767830Y-17674035D01*
X97961401Y-17538495D01*
X98128495Y-17371401D01*
X98264035Y-17177830D01*
X98363903Y-16963663D01*
X98425063Y-16735408D01*
X98445659Y-16500000D01*
X98425063Y-16264592D01*
X98363903Y-16036337D01*
X98264035Y-15822171D01*
X98258425Y-15814158D01*
X98128494Y-15628597D01*
X97961402Y-15461506D01*
X97961401Y-15461505D01*
X97775405Y-15331269D01*
X97731781Y-15276692D01*
X97724588Y-15207193D01*
X97756110Y-15144839D01*
X97775405Y-15128119D01*
X97961082Y-14998105D01*
X98128105Y-14831082D01*
X98263600Y-14637578D01*
X98363429Y-14423492D01*
X98363432Y-14423486D01*
X98420636Y-14210000D01*
X97523012Y-14210000D01*
X97555925Y-14152993D01*
X97590000Y-14025826D01*
X97590000Y-13894174D01*
X97555925Y-13767007D01*
X97523012Y-13710000D01*
X98420636Y-13710000D01*
X98420635Y-13709999D01*
X98363432Y-13496513D01*
X98363429Y-13496507D01*
X98263600Y-13282422D01*
X98263599Y-13282420D01*
X98128113Y-13088926D01*
X98128108Y-13088920D01*
X97961082Y-12921894D01*
X97767578Y-12786399D01*
X97553492Y-12686570D01*
X97553486Y-12686567D01*
X97340000Y-12629364D01*
X97340000Y-13526988D01*
X97282993Y-13494075D01*
X97155826Y-13460000D01*
X97024174Y-13460000D01*
X96897007Y-13494075D01*
X96840000Y-13526988D01*
X96840000Y-12629364D01*
X96839999Y-12629364D01*
X96626513Y-12686567D01*
X96626507Y-12686570D01*
X96412422Y-12786399D01*
X96412420Y-12786400D01*
X96218926Y-12921886D01*
X96218920Y-12921891D01*
X96051891Y-13088920D01*
X96051890Y-13088922D01*
X95921575Y-13275031D01*
X95866998Y-13318655D01*
X95797499Y-13325848D01*
X95735145Y-13294326D01*
X95718425Y-13275031D01*
X95588109Y-13088922D01*
X95588108Y-13088920D01*
X95421082Y-12921894D01*
X95227578Y-12786399D01*
X95013492Y-12686570D01*
X95013486Y-12686567D01*
X94800000Y-12629364D01*
X94800000Y-13526988D01*
X94742993Y-13494075D01*
X94615826Y-13460000D01*
X94484174Y-13460000D01*
X94357007Y-13494075D01*
X94300000Y-13526988D01*
X94300000Y-12629364D01*
X94299999Y-12629364D01*
X94086513Y-12686567D01*
X94086507Y-12686570D01*
X93872422Y-12786399D01*
X93872420Y-12786400D01*
X93678926Y-12921886D01*
X93678920Y-12921891D01*
X93511891Y-13088920D01*
X93511890Y-13088922D01*
X93381575Y-13275031D01*
X93326998Y-13318655D01*
X93257499Y-13325848D01*
X93195145Y-13294326D01*
X93178425Y-13275031D01*
X93048109Y-13088922D01*
X93048108Y-13088920D01*
X92881082Y-12921894D01*
X92687578Y-12786399D01*
X92473492Y-12686570D01*
X92473486Y-12686567D01*
X92260000Y-12629364D01*
X92260000Y-13526988D01*
X92202993Y-13494075D01*
X92075826Y-13460000D01*
X91944174Y-13460000D01*
X91817007Y-13494075D01*
X91760000Y-13526988D01*
X91760000Y-12629364D01*
X91759999Y-12629364D01*
X91546513Y-12686567D01*
X91546507Y-12686570D01*
X91332422Y-12786399D01*
X91332420Y-12786400D01*
X91138926Y-12921886D01*
X91138920Y-12921891D01*
X90971891Y-13088920D01*
X90971890Y-13088922D01*
X90841575Y-13275031D01*
X90786998Y-13318655D01*
X90717499Y-13325848D01*
X90655145Y-13294326D01*
X90638425Y-13275031D01*
X90508109Y-13088922D01*
X90508108Y-13088920D01*
X90341082Y-12921894D01*
X90147578Y-12786399D01*
X89933492Y-12686570D01*
X89933486Y-12686567D01*
X89720000Y-12629364D01*
X89720000Y-13526988D01*
X89662993Y-13494075D01*
X89535826Y-13460000D01*
X89404174Y-13460000D01*
X89277007Y-13494075D01*
X89220000Y-13526988D01*
X89220000Y-12629364D01*
X89219999Y-12629364D01*
X89006513Y-12686567D01*
X89006507Y-12686570D01*
X88792422Y-12786399D01*
X88792420Y-12786400D01*
X88598926Y-12921886D01*
X88598920Y-12921891D01*
X88431891Y-13088920D01*
X88431890Y-13088922D01*
X88301575Y-13275031D01*
X88246998Y-13318655D01*
X88177499Y-13325848D01*
X88115145Y-13294326D01*
X88098425Y-13275031D01*
X87968109Y-13088922D01*
X87968108Y-13088920D01*
X87801082Y-12921894D01*
X87607578Y-12786399D01*
X87393492Y-12686570D01*
X87393486Y-12686567D01*
X87180000Y-12629364D01*
X87180000Y-13526988D01*
X87122993Y-13494075D01*
X86995826Y-13460000D01*
X86864174Y-13460000D01*
X86737007Y-13494075D01*
X86680000Y-13526988D01*
X86680000Y-12629364D01*
X86679999Y-12629364D01*
X86466513Y-12686567D01*
X86466507Y-12686570D01*
X86252422Y-12786399D01*
X86252420Y-12786400D01*
X86058926Y-12921886D01*
X86058920Y-12921891D01*
X85891891Y-13088920D01*
X85891890Y-13088922D01*
X85761575Y-13275031D01*
X85706998Y-13318655D01*
X85637499Y-13325848D01*
X85575145Y-13294326D01*
X85558425Y-13275031D01*
X85428109Y-13088922D01*
X85428108Y-13088920D01*
X85261082Y-12921894D01*
X85067578Y-12786399D01*
X84853492Y-12686570D01*
X84853486Y-12686567D01*
X84640000Y-12629364D01*
X84640000Y-13526988D01*
X84582993Y-13494075D01*
X84455826Y-13460000D01*
X84324174Y-13460000D01*
X84197007Y-13494075D01*
X84140000Y-13526988D01*
X84140000Y-12629364D01*
X84139999Y-12629364D01*
X83926513Y-12686567D01*
X83926507Y-12686570D01*
X83712422Y-12786399D01*
X83712420Y-12786400D01*
X83518926Y-12921886D01*
X83518920Y-12921891D01*
X83351891Y-13088920D01*
X83351890Y-13088922D01*
X83221575Y-13275031D01*
X83166998Y-13318655D01*
X83097499Y-13325848D01*
X83035145Y-13294326D01*
X83018425Y-13275031D01*
X82888109Y-13088922D01*
X82888108Y-13088920D01*
X82721082Y-12921894D01*
X82527578Y-12786399D01*
X82313492Y-12686570D01*
X82313486Y-12686567D01*
X82100000Y-12629364D01*
X82100000Y-13526988D01*
X82042993Y-13494075D01*
X81915826Y-13460000D01*
X81784174Y-13460000D01*
X81657007Y-13494075D01*
X81600000Y-13526988D01*
X81600000Y-12629364D01*
X81599999Y-12629364D01*
X81386513Y-12686567D01*
X81386507Y-12686570D01*
X81172422Y-12786399D01*
X81172420Y-12786400D01*
X80978926Y-12921886D01*
X80978920Y-12921891D01*
X80811891Y-13088920D01*
X80811890Y-13088922D01*
X80681575Y-13275031D01*
X80626998Y-13318655D01*
X80557499Y-13325848D01*
X80495145Y-13294326D01*
X80478425Y-13275031D01*
X80348109Y-13088922D01*
X80348108Y-13088920D01*
X80181082Y-12921894D01*
X79987578Y-12786399D01*
X79773492Y-12686570D01*
X79773486Y-12686567D01*
X79560000Y-12629364D01*
X79560000Y-13526988D01*
X79502993Y-13494075D01*
X79375826Y-13460000D01*
X79244174Y-13460000D01*
X79117007Y-13494075D01*
X79060000Y-13526988D01*
X79060000Y-12629364D01*
X79059999Y-12629364D01*
X78846513Y-12686567D01*
X78846507Y-12686570D01*
X78632422Y-12786399D01*
X78632420Y-12786400D01*
X78438926Y-12921886D01*
X78438920Y-12921891D01*
X78271891Y-13088920D01*
X78271886Y-13088926D01*
X78136400Y-13282420D01*
X78136399Y-13282422D01*
X78036570Y-13496507D01*
X78036567Y-13496513D01*
X77979364Y-13709999D01*
X77979364Y-13710000D01*
X78876988Y-13710000D01*
X78844075Y-13767007D01*
X78810000Y-13894174D01*
X78810000Y-14025826D01*
X78844075Y-14152993D01*
X78876988Y-14210000D01*
X77979364Y-14210000D01*
X78036567Y-14423486D01*
X78036570Y-14423492D01*
X78136399Y-14637578D01*
X78271894Y-14831082D01*
X78393946Y-14953134D01*
X78427431Y-15014457D01*
X78422447Y-15084149D01*
X78380575Y-15140082D01*
X78349598Y-15156997D01*
X78217671Y-15206202D01*
X78217664Y-15206206D01*
X78102455Y-15292452D01*
X78102452Y-15292455D01*
X78016206Y-15407664D01*
X78016202Y-15407671D01*
X77965908Y-15542517D01*
X77959501Y-15602116D01*
X77959500Y-15602135D01*
X75062032Y-15602135D01*
X74921402Y-15461506D01*
X74921401Y-15461505D01*
X74735405Y-15331269D01*
X74691781Y-15276692D01*
X74684588Y-15207193D01*
X74716110Y-15144839D01*
X74735405Y-15128119D01*
X74921082Y-14998105D01*
X75088105Y-14831082D01*
X75223600Y-14637578D01*
X75323429Y-14423492D01*
X75323432Y-14423486D01*
X75380636Y-14210000D01*
X74483012Y-14210000D01*
X74515925Y-14152993D01*
X74550000Y-14025826D01*
X74550000Y-13894174D01*
X74515925Y-13767007D01*
X74483012Y-13710000D01*
X75380636Y-13710000D01*
X75380635Y-13709999D01*
X75323432Y-13496513D01*
X75323429Y-13496507D01*
X75223600Y-13282422D01*
X75223599Y-13282420D01*
X75088113Y-13088926D01*
X75088108Y-13088920D01*
X74921082Y-12921894D01*
X74727578Y-12786399D01*
X74513492Y-12686570D01*
X74513486Y-12686567D01*
X74300000Y-12629364D01*
X74300000Y-13526988D01*
X74242993Y-13494075D01*
X74115826Y-13460000D01*
X73984174Y-13460000D01*
X73857007Y-13494075D01*
X73800000Y-13526988D01*
X73800000Y-12629364D01*
X73799999Y-12629364D01*
X73586513Y-12686567D01*
X73586507Y-12686570D01*
X73372422Y-12786399D01*
X73372420Y-12786400D01*
X73178926Y-12921886D01*
X73178920Y-12921891D01*
X73011891Y-13088920D01*
X73011890Y-13088922D01*
X72881575Y-13275031D01*
X72826998Y-13318655D01*
X72757499Y-13325848D01*
X72695145Y-13294326D01*
X72678425Y-13275031D01*
X72548109Y-13088922D01*
X72548108Y-13088920D01*
X72381082Y-12921894D01*
X72187578Y-12786399D01*
X71973492Y-12686570D01*
X71973486Y-12686567D01*
X71760000Y-12629364D01*
X71760000Y-13526988D01*
X71702993Y-13494075D01*
X71575826Y-13460000D01*
X71444174Y-13460000D01*
X71317007Y-13494075D01*
X71260000Y-13526988D01*
X71260000Y-12629364D01*
X71259999Y-12629364D01*
X71046513Y-12686567D01*
X71046507Y-12686570D01*
X70832422Y-12786399D01*
X70832420Y-12786400D01*
X70638926Y-12921886D01*
X70638920Y-12921891D01*
X70471891Y-13088920D01*
X70471890Y-13088922D01*
X70341575Y-13275031D01*
X70286998Y-13318655D01*
X70217499Y-13325848D01*
X70155145Y-13294326D01*
X70138425Y-13275031D01*
X70008109Y-13088922D01*
X70008108Y-13088920D01*
X69841082Y-12921894D01*
X69647578Y-12786399D01*
X69433492Y-12686570D01*
X69433486Y-12686567D01*
X69220000Y-12629364D01*
X69220000Y-13526988D01*
X69162993Y-13494075D01*
X69035826Y-13460000D01*
X68904174Y-13460000D01*
X68777007Y-13494075D01*
X68720000Y-13526988D01*
X68720000Y-12629364D01*
X68719999Y-12629364D01*
X68506513Y-12686567D01*
X68506507Y-12686570D01*
X68292422Y-12786399D01*
X68292420Y-12786400D01*
X68098926Y-12921886D01*
X68098920Y-12921891D01*
X67931891Y-13088920D01*
X67931890Y-13088922D01*
X67801575Y-13275031D01*
X67746998Y-13318655D01*
X67677499Y-13325848D01*
X67615145Y-13294326D01*
X67598425Y-13275031D01*
X67468109Y-13088922D01*
X67468108Y-13088920D01*
X67301082Y-12921894D01*
X67107578Y-12786399D01*
X66893492Y-12686570D01*
X66893486Y-12686567D01*
X66680000Y-12629364D01*
X66680000Y-13526988D01*
X66622993Y-13494075D01*
X66495826Y-13460000D01*
X66364174Y-13460000D01*
X66237007Y-13494075D01*
X66180000Y-13526988D01*
X66180000Y-12629364D01*
X66179999Y-12629364D01*
X65966513Y-12686567D01*
X65966507Y-12686570D01*
X65752422Y-12786399D01*
X65752420Y-12786400D01*
X65558926Y-12921886D01*
X65558920Y-12921891D01*
X65391891Y-13088920D01*
X65391890Y-13088922D01*
X65261575Y-13275031D01*
X65206998Y-13318655D01*
X65137499Y-13325848D01*
X65075145Y-13294326D01*
X65058425Y-13275031D01*
X64928109Y-13088922D01*
X64928108Y-13088920D01*
X64761082Y-12921894D01*
X64567578Y-12786399D01*
X64353492Y-12686570D01*
X64353486Y-12686567D01*
X64140000Y-12629364D01*
X64140000Y-13526988D01*
X64082993Y-13494075D01*
X63955826Y-13460000D01*
X63824174Y-13460000D01*
X63697007Y-13494075D01*
X63640000Y-13526988D01*
X63640000Y-12629364D01*
X63639999Y-12629364D01*
X63426513Y-12686567D01*
X63426507Y-12686570D01*
X63212422Y-12786399D01*
X63212420Y-12786400D01*
X63018926Y-12921886D01*
X63018920Y-12921891D01*
X62851891Y-13088920D01*
X62851890Y-13088922D01*
X62721575Y-13275031D01*
X62666998Y-13318655D01*
X62597499Y-13325848D01*
X62535145Y-13294326D01*
X62518425Y-13275031D01*
X62388109Y-13088922D01*
X62388108Y-13088920D01*
X62221082Y-12921894D01*
X62027578Y-12786399D01*
X61813492Y-12686570D01*
X61813486Y-12686567D01*
X61600000Y-12629364D01*
X61600000Y-13526988D01*
X61542993Y-13494075D01*
X61415826Y-13460000D01*
X61284174Y-13460000D01*
X61157007Y-13494075D01*
X61100000Y-13526988D01*
X61100000Y-12629364D01*
X61099999Y-12629364D01*
X60886513Y-12686567D01*
X60886507Y-12686570D01*
X60672422Y-12786399D01*
X60672420Y-12786400D01*
X60478926Y-12921886D01*
X60478920Y-12921891D01*
X60311891Y-13088920D01*
X60311886Y-13088926D01*
X60176400Y-13282420D01*
X60176399Y-13282422D01*
X60076570Y-13496507D01*
X60076567Y-13496513D01*
X60019364Y-13709999D01*
X60019364Y-13710000D01*
X60916988Y-13710000D01*
X60884075Y-13767007D01*
X60850000Y-13894174D01*
X60850000Y-14025826D01*
X60884075Y-14152993D01*
X60916988Y-14210000D01*
X60019364Y-14210000D01*
X60076567Y-14423486D01*
X60076570Y-14423492D01*
X60176399Y-14637578D01*
X60311894Y-14831082D01*
X60433946Y-14953134D01*
X60467431Y-15014457D01*
X60462447Y-15084149D01*
X60420575Y-15140082D01*
X60389598Y-15156997D01*
X60257671Y-15206202D01*
X60257664Y-15206206D01*
X60142455Y-15292452D01*
X60142452Y-15292455D01*
X60056206Y-15407664D01*
X60056202Y-15407671D01*
X60005908Y-15542517D01*
X59999501Y-15602116D01*
X59999500Y-15602135D01*
X56192032Y-15602135D01*
X56051402Y-15461506D01*
X56051401Y-15461505D01*
X55865405Y-15331269D01*
X55821781Y-15276692D01*
X55814588Y-15207193D01*
X55846110Y-15144839D01*
X55865405Y-15128119D01*
X56051082Y-14998105D01*
X56218105Y-14831082D01*
X56353600Y-14637578D01*
X56453429Y-14423492D01*
X56453432Y-14423486D01*
X56510636Y-14210000D01*
X55613012Y-14210000D01*
X55645925Y-14152993D01*
X55680000Y-14025826D01*
X55680000Y-13894174D01*
X55645925Y-13767007D01*
X55613012Y-13710000D01*
X56510636Y-13710000D01*
X56510635Y-13709999D01*
X56453432Y-13496513D01*
X56453429Y-13496507D01*
X56353600Y-13282422D01*
X56353599Y-13282420D01*
X56218113Y-13088926D01*
X56218108Y-13088920D01*
X56051082Y-12921894D01*
X55857578Y-12786399D01*
X55643492Y-12686570D01*
X55643486Y-12686567D01*
X55430000Y-12629364D01*
X55430000Y-13526988D01*
X55372993Y-13494075D01*
X55245826Y-13460000D01*
X55114174Y-13460000D01*
X54987007Y-13494075D01*
X54930000Y-13526988D01*
X54930000Y-12629364D01*
X54929999Y-12629364D01*
X54716513Y-12686567D01*
X54716507Y-12686570D01*
X54502422Y-12786399D01*
X54502420Y-12786400D01*
X54308926Y-12921886D01*
X54308920Y-12921891D01*
X54141891Y-13088920D01*
X54141890Y-13088922D01*
X54011575Y-13275031D01*
X53956998Y-13318655D01*
X53887499Y-13325848D01*
X53825145Y-13294326D01*
X53808425Y-13275031D01*
X53678109Y-13088922D01*
X53678108Y-13088920D01*
X53511082Y-12921894D01*
X53317578Y-12786399D01*
X53103492Y-12686570D01*
X53103486Y-12686567D01*
X52890000Y-12629364D01*
X52890000Y-13526988D01*
X52832993Y-13494075D01*
X52705826Y-13460000D01*
X52574174Y-13460000D01*
X52447007Y-13494075D01*
X52390000Y-13526988D01*
X52390000Y-12629364D01*
X52389999Y-12629364D01*
X52176513Y-12686567D01*
X52176507Y-12686570D01*
X51962422Y-12786399D01*
X51962420Y-12786400D01*
X51768926Y-12921886D01*
X51768920Y-12921891D01*
X51601891Y-13088920D01*
X51601890Y-13088922D01*
X51471575Y-13275031D01*
X51416998Y-13318655D01*
X51347499Y-13325848D01*
X51285145Y-13294326D01*
X51268425Y-13275031D01*
X51138109Y-13088922D01*
X51138108Y-13088920D01*
X50971082Y-12921894D01*
X50777578Y-12786399D01*
X50563492Y-12686570D01*
X50563486Y-12686567D01*
X50350000Y-12629364D01*
X50350000Y-13526988D01*
X50292993Y-13494075D01*
X50165826Y-13460000D01*
X50034174Y-13460000D01*
X49907007Y-13494075D01*
X49850000Y-13526988D01*
X49850000Y-12629364D01*
X49849999Y-12629364D01*
X49636513Y-12686567D01*
X49636507Y-12686570D01*
X49422422Y-12786399D01*
X49422420Y-12786400D01*
X49228926Y-12921886D01*
X49228920Y-12921891D01*
X49061891Y-13088920D01*
X49061890Y-13088922D01*
X48931575Y-13275031D01*
X48876998Y-13318655D01*
X48807499Y-13325848D01*
X48745145Y-13294326D01*
X48728425Y-13275031D01*
X48598109Y-13088922D01*
X48598108Y-13088920D01*
X48431082Y-12921894D01*
X48237578Y-12786399D01*
X48023492Y-12686570D01*
X48023486Y-12686567D01*
X47810000Y-12629364D01*
X47810000Y-13526988D01*
X47752993Y-13494075D01*
X47625826Y-13460000D01*
X47494174Y-13460000D01*
X47367007Y-13494075D01*
X47310000Y-13526988D01*
X47310000Y-12629364D01*
X47309999Y-12629364D01*
X47096513Y-12686567D01*
X47096507Y-12686570D01*
X46882422Y-12786399D01*
X46882420Y-12786400D01*
X46688926Y-12921886D01*
X46688920Y-12921891D01*
X46521891Y-13088920D01*
X46521890Y-13088922D01*
X46391575Y-13275031D01*
X46336998Y-13318655D01*
X46267499Y-13325848D01*
X46205145Y-13294326D01*
X46188425Y-13275031D01*
X46058109Y-13088922D01*
X46058108Y-13088920D01*
X45891082Y-12921894D01*
X45697578Y-12786399D01*
X45483492Y-12686570D01*
X45483486Y-12686567D01*
X45270000Y-12629364D01*
X45270000Y-13526988D01*
X45212993Y-13494075D01*
X45085826Y-13460000D01*
X44954174Y-13460000D01*
X44827007Y-13494075D01*
X44770000Y-13526988D01*
X44770000Y-12629364D01*
X44769999Y-12629364D01*
X44556513Y-12686567D01*
X44556507Y-12686570D01*
X44342422Y-12786399D01*
X44342420Y-12786400D01*
X44148926Y-12921886D01*
X44148920Y-12921891D01*
X43981891Y-13088920D01*
X43981890Y-13088922D01*
X43851575Y-13275031D01*
X43796998Y-13318655D01*
X43727499Y-13325848D01*
X43665145Y-13294326D01*
X43648425Y-13275031D01*
X43518109Y-13088922D01*
X43518108Y-13088920D01*
X43351082Y-12921894D01*
X43157578Y-12786399D01*
X42943492Y-12686570D01*
X42943486Y-12686567D01*
X42730000Y-12629364D01*
X42730000Y-13526988D01*
X42672993Y-13494075D01*
X42545826Y-13460000D01*
X42414174Y-13460000D01*
X42287007Y-13494075D01*
X42230000Y-13526988D01*
X42230000Y-12629364D01*
X42229999Y-12629364D01*
X42016513Y-12686567D01*
X42016507Y-12686570D01*
X41802422Y-12786399D01*
X41802420Y-12786400D01*
X41608926Y-12921886D01*
X41608920Y-12921891D01*
X41441891Y-13088920D01*
X41441890Y-13088922D01*
X41311575Y-13275031D01*
X41256998Y-13318655D01*
X41187499Y-13325848D01*
X41125145Y-13294326D01*
X41108425Y-13275031D01*
X40978109Y-13088922D01*
X40978108Y-13088920D01*
X40811082Y-12921894D01*
X40617578Y-12786399D01*
X40403492Y-12686570D01*
X40403486Y-12686567D01*
X40190000Y-12629364D01*
X40190000Y-13526988D01*
X40132993Y-13494075D01*
X40005826Y-13460000D01*
X39874174Y-13460000D01*
X39747007Y-13494075D01*
X39690000Y-13526988D01*
X39690000Y-12629364D01*
X39689999Y-12629364D01*
X39476513Y-12686567D01*
X39476507Y-12686570D01*
X39262422Y-12786399D01*
X39262420Y-12786400D01*
X39068926Y-12921886D01*
X39068920Y-12921891D01*
X38901891Y-13088920D01*
X38901890Y-13088922D01*
X38771575Y-13275031D01*
X38716998Y-13318655D01*
X38647499Y-13325848D01*
X38585145Y-13294326D01*
X38568425Y-13275031D01*
X38438109Y-13088922D01*
X38438108Y-13088920D01*
X38271082Y-12921894D01*
X38077578Y-12786399D01*
X37863492Y-12686570D01*
X37863486Y-12686567D01*
X37650000Y-12629364D01*
X37650000Y-13526988D01*
X37592993Y-13494075D01*
X37465826Y-13460000D01*
X37334174Y-13460000D01*
X37207007Y-13494075D01*
X37150000Y-13526988D01*
X37150000Y-12629364D01*
X37149999Y-12629364D01*
X36936513Y-12686567D01*
X36936507Y-12686570D01*
X36722422Y-12786399D01*
X36722420Y-12786400D01*
X36528926Y-12921886D01*
X36528920Y-12921891D01*
X36361891Y-13088920D01*
X36361890Y-13088922D01*
X36231575Y-13275031D01*
X36176998Y-13318655D01*
X36107499Y-13325848D01*
X36045145Y-13294326D01*
X36028425Y-13275031D01*
X35898109Y-13088922D01*
X35898108Y-13088920D01*
X35731082Y-12921894D01*
X35537578Y-12786399D01*
X35323492Y-12686570D01*
X35323486Y-12686567D01*
X35110000Y-12629364D01*
X35110000Y-13526988D01*
X35052993Y-13494075D01*
X34925826Y-13460000D01*
X34794174Y-13460000D01*
X34667007Y-13494075D01*
X34610000Y-13526988D01*
X34610000Y-12629364D01*
X34609999Y-12629364D01*
X34396513Y-12686567D01*
X34396507Y-12686570D01*
X34182422Y-12786399D01*
X34182420Y-12786400D01*
X33988926Y-12921886D01*
X33988920Y-12921891D01*
X33821891Y-13088920D01*
X33821890Y-13088922D01*
X33691575Y-13275031D01*
X33636998Y-13318655D01*
X33567499Y-13325848D01*
X33505145Y-13294326D01*
X33488425Y-13275031D01*
X33358109Y-13088922D01*
X33358108Y-13088920D01*
X33191082Y-12921894D01*
X32997578Y-12786399D01*
X32783492Y-12686570D01*
X32783486Y-12686567D01*
X32570000Y-12629364D01*
X32570000Y-13526988D01*
X32512993Y-13494075D01*
X32385826Y-13460000D01*
X32254174Y-13460000D01*
X32127007Y-13494075D01*
X32070000Y-13526988D01*
X32070000Y-12629364D01*
X32069999Y-12629364D01*
X31856513Y-12686567D01*
X31856507Y-12686570D01*
X31642422Y-12786399D01*
X31642420Y-12786400D01*
X31448926Y-12921886D01*
X31448920Y-12921891D01*
X31281891Y-13088920D01*
X31281886Y-13088926D01*
X31146400Y-13282420D01*
X31146399Y-13282422D01*
X31046570Y-13496507D01*
X31046567Y-13496513D01*
X30989364Y-13709999D01*
X30989364Y-13710000D01*
X31886988Y-13710000D01*
X31854075Y-13767007D01*
X31820000Y-13894174D01*
X31820000Y-14025826D01*
X31854075Y-14152993D01*
X31886988Y-14210000D01*
X30989364Y-14210000D01*
X31046567Y-14423486D01*
X31046570Y-14423492D01*
X31146399Y-14637578D01*
X31281894Y-14831082D01*
X31403946Y-14953134D01*
X31437431Y-15014457D01*
X31432447Y-15084149D01*
X31390575Y-15140082D01*
X31359598Y-15156997D01*
X31227671Y-15206202D01*
X31227664Y-15206206D01*
X31112455Y-15292452D01*
X31112452Y-15292455D01*
X31026206Y-15407664D01*
X31026202Y-15407671D01*
X30975908Y-15542517D01*
X30969501Y-15602116D01*
X30969500Y-15602135D01*
X22548473Y-15602135D01*
X22555659Y-15520000D01*
X22535063Y-15284592D01*
X22473903Y-15056337D01*
X22374035Y-14842171D01*
X22368425Y-14834158D01*
X22238494Y-14648597D01*
X22071402Y-14481506D01*
X22071395Y-14481501D01*
X21877834Y-14345967D01*
X21877830Y-14345965D01*
X21877828Y-14345964D01*
X21663663Y-14246097D01*
X21663659Y-14246096D01*
X21663655Y-14246094D01*
X21435413Y-14184938D01*
X21435403Y-14184936D01*
X21200001Y-14164341D01*
X21199999Y-14164341D01*
X20964596Y-14184936D01*
X20964586Y-14184938D01*
X20736344Y-14246094D01*
X20736335Y-14246098D01*
X20522171Y-14345964D01*
X20522169Y-14345965D01*
X20328597Y-14481505D01*
X20161505Y-14648597D01*
X20031575Y-14834158D01*
X19976998Y-14877783D01*
X19907500Y-14884977D01*
X19845145Y-14853454D01*
X19828425Y-14834158D01*
X19698494Y-14648597D01*
X19531402Y-14481506D01*
X19531395Y-14481501D01*
X19337834Y-14345967D01*
X19337830Y-14345965D01*
X19337828Y-14345964D01*
X19123663Y-14246097D01*
X19123659Y-14246096D01*
X19123655Y-14246094D01*
X18895413Y-14184938D01*
X18895403Y-14184936D01*
X18660001Y-14164341D01*
X18659999Y-14164341D01*
X18424596Y-14184936D01*
X18424586Y-14184938D01*
X18196344Y-14246094D01*
X18196335Y-14246098D01*
X17982171Y-14345964D01*
X17982169Y-14345965D01*
X17788597Y-14481505D01*
X17621505Y-14648597D01*
X17491575Y-14834158D01*
X17436998Y-14877783D01*
X17367500Y-14884977D01*
X17305145Y-14853454D01*
X17288425Y-14834158D01*
X17158494Y-14648597D01*
X16991402Y-14481506D01*
X16991395Y-14481501D01*
X16797834Y-14345967D01*
X16797830Y-14345965D01*
X16797828Y-14345964D01*
X16583663Y-14246097D01*
X16583659Y-14246096D01*
X16583655Y-14246094D01*
X16355413Y-14184938D01*
X16355403Y-14184936D01*
X16120001Y-14164341D01*
X16119999Y-14164341D01*
X15884596Y-14184936D01*
X15884586Y-14184938D01*
X15656344Y-14246094D01*
X15656335Y-14246098D01*
X15442171Y-14345964D01*
X15442169Y-14345965D01*
X15248597Y-14481505D01*
X15081505Y-14648597D01*
X14945965Y-14842169D01*
X14945964Y-14842171D01*
X14846098Y-15056335D01*
X14846094Y-15056344D01*
X14784938Y-15284586D01*
X14784936Y-15284596D01*
X14764341Y-15519999D01*
X12127500Y-15519999D01*
X12127500Y-12251500D01*
X12147185Y-12184461D01*
X12199989Y-12138706D01*
X12251500Y-12127500D01*
X108268500Y-12127500D01*
X108335539Y-12147185D01*
G37*
%TD.AperFunction*%
%TD*%
M02*
