%TF.GenerationSoftware,KiCad,Pcbnew,8.0.8*%
%TF.CreationDate,2025-07-15T12:33:29-07:00*%
%TF.ProjectId,complete_SR1,636f6d70-6c65-4746-955f-5352312e6b69,rev?*%
%TF.SameCoordinates,Original*%
%TF.FileFunction,Copper,L1,Top*%
%TF.FilePolarity,Positive*%
%FSLAX46Y46*%
G04 Gerber Fmt 4.6, Leading zero omitted, Abs format (unit mm)*
G04 Created by KiCad (PCBNEW 8.0.8) date 2025-07-15 12:33:29*
%MOMM*%
%LPD*%
G01*
G04 APERTURE LIST*
G04 Aperture macros list*
%AMRoundRect*
0 Rectangle with rounded corners*
0 $1 Rounding radius*
0 $2 $3 $4 $5 $6 $7 $8 $9 X,Y pos of 4 corners*
0 Add a 4 corners polygon primitive as box body*
4,1,4,$2,$3,$4,$5,$6,$7,$8,$9,$2,$3,0*
0 Add four circle primitives for the rounded corners*
1,1,$1+$1,$2,$3*
1,1,$1+$1,$4,$5*
1,1,$1+$1,$6,$7*
1,1,$1+$1,$8,$9*
0 Add four rect primitives between the rounded corners*
20,1,$1+$1,$2,$3,$4,$5,0*
20,1,$1+$1,$4,$5,$6,$7,0*
20,1,$1+$1,$6,$7,$8,$9,0*
20,1,$1+$1,$8,$9,$2,$3,0*%
G04 Aperture macros list end*
%TA.AperFunction,SMDPad,CuDef*%
%ADD10R,2.000000X2.000000*%
%TD*%
%TA.AperFunction,ComponentPad*%
%ADD11C,1.700000*%
%TD*%
%TA.AperFunction,SMDPad,CuDef*%
%ADD12RoundRect,0.100000X0.100000X-0.637500X0.100000X0.637500X-0.100000X0.637500X-0.100000X-0.637500X0*%
%TD*%
%TA.AperFunction,SMDPad,CuDef*%
%ADD13RoundRect,0.125000X0.125000X-0.687500X0.125000X0.687500X-0.125000X0.687500X-0.125000X-0.687500X0*%
%TD*%
%TA.AperFunction,SMDPad,CuDef*%
%ADD14RoundRect,0.100000X-0.637500X-0.100000X0.637500X-0.100000X0.637500X0.100000X-0.637500X0.100000X0*%
%TD*%
%TA.AperFunction,SMDPad,CuDef*%
%ADD15RoundRect,0.250000X-0.350000X-0.450000X0.350000X-0.450000X0.350000X0.450000X-0.350000X0.450000X0*%
%TD*%
%TA.AperFunction,SMDPad,CuDef*%
%ADD16RoundRect,0.250000X0.337500X0.475000X-0.337500X0.475000X-0.337500X-0.475000X0.337500X-0.475000X0*%
%TD*%
%TA.AperFunction,SMDPad,CuDef*%
%ADD17RoundRect,0.150000X0.475000X-0.150000X0.475000X0.150000X-0.475000X0.150000X-0.475000X-0.150000X0*%
%TD*%
%TA.AperFunction,SMDPad,CuDef*%
%ADD18RoundRect,0.225000X0.625000X-0.225000X0.625000X0.225000X-0.625000X0.225000X-0.625000X-0.225000X0*%
%TD*%
%TA.AperFunction,ComponentPad*%
%ADD19C,1.066800*%
%TD*%
%TA.AperFunction,ComponentPad*%
%ADD20C,5.600000*%
%TD*%
%TA.AperFunction,ComponentPad*%
%ADD21C,2.000000*%
%TD*%
%TA.AperFunction,ComponentPad*%
%ADD22R,1.700000X1.700000*%
%TD*%
%TA.AperFunction,ComponentPad*%
%ADD23O,1.700000X1.700000*%
%TD*%
%TA.AperFunction,ComponentPad*%
%ADD24R,2.600000X2.600000*%
%TD*%
%TA.AperFunction,ComponentPad*%
%ADD25C,2.600000*%
%TD*%
%TA.AperFunction,SMDPad,CuDef*%
%ADD26RoundRect,0.250000X-0.475000X0.337500X-0.475000X-0.337500X0.475000X-0.337500X0.475000X0.337500X0*%
%TD*%
%TA.AperFunction,SMDPad,CuDef*%
%ADD27RoundRect,0.250000X-0.337500X-0.475000X0.337500X-0.475000X0.337500X0.475000X-0.337500X0.475000X0*%
%TD*%
%TA.AperFunction,SMDPad,CuDef*%
%ADD28RoundRect,0.250000X0.475000X-0.337500X0.475000X0.337500X-0.475000X0.337500X-0.475000X-0.337500X0*%
%TD*%
%TA.AperFunction,SMDPad,CuDef*%
%ADD29R,0.457200X1.524000*%
%TD*%
%TA.AperFunction,SMDPad,CuDef*%
%ADD30RoundRect,0.062500X-0.365000X-0.062500X0.365000X-0.062500X0.365000X0.062500X-0.365000X0.062500X0*%
%TD*%
%TA.AperFunction,HeatsinkPad*%
%ADD31R,1.640000X2.380000*%
%TD*%
%TA.AperFunction,SMDPad,CuDef*%
%ADD32RoundRect,0.150000X-0.512500X-0.150000X0.512500X-0.150000X0.512500X0.150000X-0.512500X0.150000X0*%
%TD*%
%TA.AperFunction,SMDPad,CuDef*%
%ADD33R,0.330200X1.524000*%
%TD*%
%TA.AperFunction,SMDPad,CuDef*%
%ADD34R,1.524000X0.330200*%
%TD*%
%TA.AperFunction,SMDPad,CuDef*%
%ADD35RoundRect,0.100000X-0.712500X-0.100000X0.712500X-0.100000X0.712500X0.100000X-0.712500X0.100000X0*%
%TD*%
%TA.AperFunction,SMDPad,CuDef*%
%ADD36RoundRect,0.250000X0.450000X-0.350000X0.450000X0.350000X-0.450000X0.350000X-0.450000X-0.350000X0*%
%TD*%
%TA.AperFunction,SMDPad,CuDef*%
%ADD37RoundRect,0.250000X0.350000X0.450000X-0.350000X0.450000X-0.350000X-0.450000X0.350000X-0.450000X0*%
%TD*%
%TA.AperFunction,SMDPad,CuDef*%
%ADD38RoundRect,0.250000X-0.450000X0.350000X-0.450000X-0.350000X0.450000X-0.350000X0.450000X0.350000X0*%
%TD*%
%TA.AperFunction,ComponentPad*%
%ADD39C,1.905000*%
%TD*%
%TA.AperFunction,ComponentPad*%
%ADD40C,3.810000*%
%TD*%
%TA.AperFunction,SMDPad,CuDef*%
%ADD41RoundRect,0.250000X0.325000X0.450000X-0.325000X0.450000X-0.325000X-0.450000X0.325000X-0.450000X0*%
%TD*%
%TA.AperFunction,SMDPad,CuDef*%
%ADD42RoundRect,0.250000X0.450000X-0.325000X0.450000X0.325000X-0.450000X0.325000X-0.450000X-0.325000X0*%
%TD*%
%TA.AperFunction,ViaPad*%
%ADD43C,0.600000*%
%TD*%
%TA.AperFunction,Conductor*%
%ADD44C,0.762000*%
%TD*%
%TA.AperFunction,Conductor*%
%ADD45C,0.381000*%
%TD*%
%TA.AperFunction,Conductor*%
%ADD46C,0.254000*%
%TD*%
%TA.AperFunction,Conductor*%
%ADD47C,1.270000*%
%TD*%
%TA.AperFunction,Conductor*%
%ADD48C,0.508000*%
%TD*%
G04 APERTURE END LIST*
D10*
%TO.P,TP3,1,1*%
%TO.N,Net-(C1-Pad1)*%
X53800000Y-53600000D03*
%TD*%
%TO.P,TP5,1,1*%
%TO.N,/R_A20*%
X32300000Y-54000000D03*
%TD*%
%TO.P,TP11,1,1*%
%TO.N,/AIN0*%
X78070000Y-46260000D03*
%TD*%
D11*
%TO.P,REF\u002A\u002A554,*%
%TO.N,*%
X21200000Y-15520000D03*
%TD*%
%TO.P,REF\u002A\u002A554,*%
%TO.N,*%
X21200000Y-18060000D03*
%TD*%
%TO.P,REF\u002A\u002A554,*%
%TO.N,*%
X21200000Y-23140000D03*
%TD*%
%TO.P,REF\u002A\u002A554,*%
%TO.N,*%
X21200000Y-20600000D03*
%TD*%
%TO.P,REF\u002A\u002A554,*%
%TO.N,*%
X18660000Y-15520000D03*
%TD*%
%TO.P,REF\u002A\u002A554,*%
%TO.N,*%
X18660000Y-18060000D03*
%TD*%
%TO.P,REF\u002A\u002A554,*%
%TO.N,*%
X18660000Y-23140000D03*
%TD*%
%TO.P,REF\u002A\u002A554,*%
%TO.N,*%
X18660000Y-20600000D03*
%TD*%
%TO.P,REF\u002A\u002A554,*%
%TO.N,*%
X16120000Y-23140000D03*
%TD*%
%TO.P,REF\u002A\u002A554,*%
%TO.N,*%
X16120000Y-25680000D03*
%TD*%
%TO.P,REF\u002A\u002A554,*%
%TO.N,*%
X16120000Y-15520000D03*
%TD*%
%TO.P,REF\u002A\u002A554,*%
%TO.N,*%
X16120000Y-30760000D03*
%TD*%
%TO.P,REF\u002A\u002A554,*%
%TO.N,*%
X16120000Y-28220000D03*
%TD*%
%TO.P,REF\u002A\u002A554,*%
%TO.N,*%
X16120000Y-20600000D03*
%TD*%
%TO.P,REF\u002A\u002A554,*%
%TO.N,*%
X16120000Y-18060000D03*
%TD*%
%TO.P,REF\u002A\u002A554,*%
%TO.N,*%
X26270000Y-30750000D03*
%TD*%
%TO.P,REF\u002A\u002A554,*%
%TO.N,*%
X23730000Y-30750000D03*
%TD*%
%TO.P,REF\u002A\u002A554,*%
%TO.N,*%
X33890000Y-30750000D03*
%TD*%
%TO.P,REF\u002A\u002A554,*%
%TO.N,*%
X18650000Y-30750000D03*
%TD*%
%TO.P,REF\u002A\u002A554,*%
%TO.N,*%
X21190000Y-30750000D03*
%TD*%
%TO.P,REF\u002A\u002A554,*%
%TO.N,*%
X28810000Y-30750000D03*
%TD*%
%TO.P,REF\u002A\u002A554,*%
%TO.N,*%
X31350000Y-30750000D03*
%TD*%
%TO.P,REF\u002A\u002A554,*%
%TO.N,*%
X21190000Y-28210000D03*
%TD*%
%TO.P,REF\u002A\u002A554,*%
%TO.N,*%
X26270000Y-28210000D03*
%TD*%
%TO.P,REF\u002A\u002A554,*%
%TO.N,*%
X23730000Y-28210000D03*
%TD*%
%TO.P,REF\u002A\u002A554,*%
%TO.N,*%
X28810000Y-28210000D03*
%TD*%
%TO.P,REF\u002A\u002A554,*%
%TO.N,*%
X33890000Y-28210000D03*
%TD*%
%TO.P,REF\u002A\u002A554,*%
%TO.N,*%
X18650000Y-28210000D03*
%TD*%
%TO.P,REF\u002A\u002A554,*%
%TO.N,*%
X31350000Y-28210000D03*
%TD*%
%TO.P,REF\u002A\u002A554,*%
%TO.N,*%
X21190000Y-25670000D03*
%TD*%
%TO.P,REF\u002A\u002A554,*%
%TO.N,*%
X31350000Y-25670000D03*
%TD*%
%TO.P,REF\u002A\u002A554,*%
%TO.N,*%
X26270000Y-25670000D03*
%TD*%
%TO.P,REF\u002A\u002A554,*%
%TO.N,*%
X18650000Y-25670000D03*
%TD*%
%TO.P,REF\u002A\u002A554,*%
%TO.N,*%
X23730000Y-25670000D03*
%TD*%
%TO.P,REF\u002A\u002A554,*%
%TO.N,*%
X28810000Y-25670000D03*
%TD*%
%TO.P,REF\u002A\u002A554,*%
%TO.N,*%
X33890000Y-25670000D03*
%TD*%
%TO.P,REF\u002A\u002A554,*%
%TO.N,*%
X79740000Y-33940000D03*
%TD*%
%TO.P,REF\u002A\u002A554,*%
%TO.N,*%
X89900000Y-33940000D03*
%TD*%
%TO.P,REF\u002A\u002A554,*%
%TO.N,*%
X84820000Y-33940000D03*
%TD*%
%TO.P,REF\u002A\u002A554,*%
%TO.N,*%
X77200000Y-33940000D03*
%TD*%
%TO.P,REF\u002A\u002A554,*%
%TO.N,*%
X82280000Y-33940000D03*
%TD*%
%TO.P,REF\u002A\u002A554,*%
%TO.N,*%
X87360000Y-33940000D03*
%TD*%
%TO.P,REF\u002A\u002A554,*%
%TO.N,*%
X92440000Y-33940000D03*
%TD*%
%TO.P,REF\u002A\u002A554,*%
%TO.N,*%
X84820000Y-31400000D03*
%TD*%
%TO.P,REF\u002A\u002A554,*%
%TO.N,*%
X79740000Y-31400000D03*
%TD*%
%TO.P,REF\u002A\u002A554,*%
%TO.N,*%
X87360000Y-31400000D03*
%TD*%
%TO.P,REF\u002A\u002A554,*%
%TO.N,*%
X89900000Y-31400000D03*
%TD*%
%TO.P,REF\u002A\u002A554,*%
%TO.N,*%
X82280000Y-31400000D03*
%TD*%
%TO.P,REF\u002A\u002A554,*%
%TO.N,*%
X77200000Y-31400000D03*
%TD*%
%TO.P,REF\u002A\u002A554,*%
%TO.N,*%
X92440000Y-31400000D03*
%TD*%
%TO.P,REF\u002A\u002A554,*%
%TO.N,*%
X84820000Y-28860000D03*
%TD*%
%TO.P,REF\u002A\u002A554,*%
%TO.N,*%
X89900000Y-28860000D03*
%TD*%
%TO.P,REF\u002A\u002A554,*%
%TO.N,*%
X79740000Y-28860000D03*
%TD*%
%TO.P,REF\u002A\u002A554,*%
%TO.N,*%
X77200000Y-28860000D03*
%TD*%
%TO.P,REF\u002A\u002A554,*%
%TO.N,*%
X92440000Y-28860000D03*
%TD*%
%TO.P,REF\u002A\u002A554,*%
%TO.N,*%
X87360000Y-28860000D03*
%TD*%
%TO.P,REF\u002A\u002A554,*%
%TO.N,*%
X82280000Y-28860000D03*
%TD*%
%TO.P,REF\u002A\u002A554,*%
%TO.N,*%
X89900000Y-26320000D03*
%TD*%
%TO.P,REF\u002A\u002A554,*%
%TO.N,*%
X79740000Y-26320000D03*
%TD*%
%TO.P,REF\u002A\u002A554,*%
%TO.N,*%
X84820000Y-26320000D03*
%TD*%
%TO.P,REF\u002A\u002A554,*%
%TO.N,*%
X92440000Y-26320000D03*
%TD*%
%TO.P,REF\u002A\u002A554,*%
%TO.N,*%
X87360000Y-26320000D03*
%TD*%
%TO.P,REF\u002A\u002A554,*%
%TO.N,*%
X82280000Y-26320000D03*
%TD*%
%TO.P,REF\u002A\u002A554,*%
%TO.N,*%
X77200000Y-26320000D03*
%TD*%
%TO.P,REF\u002A\u002A554,*%
%TO.N,*%
X92440000Y-23780000D03*
%TD*%
%TO.P,REF\u002A\u002A554,*%
%TO.N,*%
X89900000Y-23780000D03*
%TD*%
%TO.P,REF\u002A\u002A554,*%
%TO.N,*%
X79740000Y-23780000D03*
%TD*%
%TO.P,REF\u002A\u002A554,*%
%TO.N,*%
X84820000Y-23780000D03*
%TD*%
%TO.P,REF\u002A\u002A554,*%
%TO.N,*%
X87360000Y-23780000D03*
%TD*%
%TO.P,REF\u002A\u002A554,*%
%TO.N,*%
X82280000Y-23780000D03*
%TD*%
%TO.P,REF\u002A\u002A554,*%
%TO.N,*%
X77200000Y-23780000D03*
%TD*%
%TO.P,REF\u002A\u002A554,*%
%TO.N,*%
X92440000Y-21240000D03*
%TD*%
%TO.P,REF\u002A\u002A554,*%
%TO.N,*%
X89900000Y-21240000D03*
%TD*%
%TO.P,REF\u002A\u002A554,*%
%TO.N,*%
X87360000Y-21240000D03*
%TD*%
%TO.P,REF\u002A\u002A554,*%
%TO.N,*%
X84820000Y-21240000D03*
%TD*%
%TO.P,REF\u002A\u002A554,*%
%TO.N,*%
X82280000Y-21240000D03*
%TD*%
%TO.P,REF\u002A\u002A554,*%
%TO.N,*%
X79740000Y-21240000D03*
%TD*%
%TO.P,REF\u002A\u002A554,*%
%TO.N,*%
X77200000Y-21240000D03*
%TD*%
D12*
%TO.P,U11,1,A0*%
%TO.N,/MUX0*%
X46025000Y-41832500D03*
%TO.P,U11,2,EN*%
%TO.N,/MUX_EN*%
X46675000Y-41832500D03*
%TO.P,U11,3,VSS*%
%TO.N,GND*%
X47325000Y-41832500D03*
%TO.P,U11,4,S1*%
%TO.N,/100K*%
X47975000Y-41832500D03*
%TO.P,U11,5,S2*%
%TO.N,/1M*%
X48625000Y-41832500D03*
%TO.P,U11,6,S3*%
%TO.N,/10M*%
X49275000Y-41832500D03*
%TO.P,U11,7,S4*%
%TO.N,/100M*%
X49925000Y-41832500D03*
%TO.P,U11,8,D*%
%TO.N,/DATA_IN*%
X50575000Y-41832500D03*
%TO.P,U11,9,S8*%
%TO.N,/EXC{slash}AIN5*%
X50575000Y-36107500D03*
%TO.P,U11,10,S7*%
%TO.N,/100G*%
X49925000Y-36107500D03*
%TO.P,U11,11,S6*%
%TO.N,/10G*%
X49275000Y-36107500D03*
%TO.P,U11,12,S5*%
%TO.N,/1G*%
X48625000Y-36107500D03*
%TO.P,U11,13,VDD*%
%TO.N,/3V3*%
X47975000Y-36107500D03*
%TO.P,U11,14,GND*%
%TO.N,GND*%
X47325000Y-36107500D03*
%TO.P,U11,15,A2*%
%TO.N,/MUX2*%
X46675000Y-36107500D03*
%TO.P,U11,16,A1*%
%TO.N,/MUX1*%
X46025000Y-36107500D03*
%TD*%
D13*
%TO.P,U8,1,RG*%
%TO.N,/R_A100*%
X56750000Y-41162500D03*
%TO.P,U8,2,VIN-*%
%TO.N,Net-(U15B--)*%
X57400000Y-41162500D03*
%TO.P,U8,3,VIN+*%
%TO.N,/V_INN{slash}AIN2*%
X58050000Y-41162500D03*
%TO.P,U8,4,V-*%
%TO.N,GND*%
X58700000Y-41162500D03*
%TO.P,U8,5,REF*%
%TO.N,/V_REF{slash}AIN3*%
X58700000Y-36937500D03*
%TO.P,U8,6,VOUT*%
%TO.N,/R_W100*%
X58050000Y-36937500D03*
%TO.P,U8,7,V+*%
%TO.N,/3V3*%
X57400000Y-36937500D03*
%TO.P,U8,8,SHDN*%
%TO.N,/INAMP_SHDN*%
X56750000Y-36937500D03*
%TD*%
D14*
%TO.P,U3,1,VOUTA*%
%TO.N,/V_VG{slash}AIN1*%
X61137500Y-47125000D03*
%TO.P,U3,2,VOUTB*%
%TO.N,/V_INN{slash}AIN2*%
X61137500Y-47775000D03*
%TO.P,U3,3,VREFH/VREFOUT*%
%TO.N,Net-(U3-VREFH{slash}VREFOUT)*%
X61137500Y-48425000D03*
%TO.P,U3,4,AVDD*%
%TO.N,/3V3*%
X61137500Y-49075000D03*
%TO.P,U3,5,VREFL*%
%TO.N,GND*%
X61137500Y-49725000D03*
%TO.P,U3,6,GND*%
X61137500Y-50375000D03*
%TO.P,U3,7,VOUTC*%
%TO.N,/V_REF{slash}AIN3*%
X61137500Y-51025000D03*
%TO.P,U3,8,VOUTD*%
%TO.N,/V_FS{slash}AIN4*%
X61137500Y-51675000D03*
%TO.P,U3,9,~{SYNC}*%
%TO.N,/DAC_SYNC*%
X66862500Y-51675000D03*
%TO.P,U3,10,SCLK*%
%TO.N,/DAC_SCLK*%
X66862500Y-51025000D03*
%TO.P,U3,11,DIN*%
%TO.N,/DAC_DIN*%
X66862500Y-50375000D03*
%TO.P,U3,12,IOVDD*%
%TO.N,/3V3*%
X66862500Y-49725000D03*
%TO.P,U3,13,A0*%
%TO.N,GND*%
X66862500Y-49075000D03*
%TO.P,U3,14,A1*%
X66862500Y-48425000D03*
%TO.P,U3,15,~{ENABLE}*%
X66862500Y-47775000D03*
%TO.P,U3,16,LDAC*%
X66862500Y-47125000D03*
%TD*%
D15*
%TO.P,R10,1*%
%TO.N,/R_W100*%
X75960000Y-39420000D03*
%TO.P,R10,2*%
%TO.N,/AIN0*%
X77960000Y-39420000D03*
%TD*%
D16*
%TO.P,C3,1*%
%TO.N,/AIN0*%
X77927500Y-41840000D03*
%TO.P,C3,2*%
%TO.N,GND*%
X75852500Y-41840000D03*
%TD*%
D17*
%TO.P,J10,1,Pin_1*%
%TO.N,/D3V3*%
X101175000Y-39500000D03*
%TO.P,J10,2,Pin_2*%
%TO.N,GND*%
X101175000Y-38500000D03*
D18*
%TO.P,J10,MP*%
%TO.N,N/C*%
X104300000Y-40950000D03*
X104300000Y-37050000D03*
%TD*%
D19*
%TO.P,J3,2,Pin_2*%
%TO.N,GND*%
X101474000Y-45470100D03*
%TO.P,J3,1,Pin_1*%
%TO.N,/3V7B*%
X101474000Y-46720100D03*
%TD*%
D20*
%TO.P,H4,1,1*%
%TO.N,GND*%
X78040000Y-62800000D03*
%TD*%
%TO.P,H3,1,1*%
%TO.N,GND*%
X102170000Y-19620000D03*
%TD*%
%TO.P,H2,1,1*%
%TO.N,GND*%
X27240000Y-19620000D03*
%TD*%
%TO.P,H1,1,1*%
%TO.N,GND*%
X27240000Y-67880000D03*
%TD*%
D21*
%TO.P,SW1,*%
%TO.N,*%
X92200000Y-67250000D03*
X92200000Y-73250000D03*
X104200000Y-67250000D03*
X104200000Y-73250000D03*
D11*
%TO.P,SW1,1,C*%
%TO.N,/3V7P*%
X94200000Y-69000000D03*
%TO.P,SW1,2,B*%
%TO.N,/3V7*%
X98200000Y-69000000D03*
%TO.P,SW1,3,A*%
%TO.N,/3V7B*%
X102200000Y-69000000D03*
%TD*%
D22*
%TO.P,J8,1,Pin_1*%
%TO.N,unconnected-(J8-Pin_1-Pad1)*%
X79310000Y-16500000D03*
D23*
%TO.P,J8,2,Pin_2*%
%TO.N,GND*%
X79310000Y-13960000D03*
%TO.P,J8,3,Pin_3*%
%TO.N,/DAC_DIN*%
X81850000Y-16500000D03*
%TO.P,J8,4,Pin_4*%
%TO.N,GND*%
X81850000Y-13960000D03*
%TO.P,J8,5,Pin_5*%
%TO.N,/DAC_SCLK*%
X84390000Y-16500000D03*
%TO.P,J8,6,Pin_6*%
%TO.N,GND*%
X84390000Y-13960000D03*
%TO.P,J8,7,Pin_7*%
%TO.N,unconnected-(J8-Pin_7-Pad7)*%
X86930000Y-16500000D03*
%TO.P,J8,8,Pin_8*%
%TO.N,GND*%
X86930000Y-13960000D03*
%TO.P,J8,9,Pin_9*%
%TO.N,unconnected-(J8-Pin_9-Pad9)*%
X89470000Y-16500000D03*
%TO.P,J8,10,Pin_10*%
%TO.N,GND*%
X89470000Y-13960000D03*
%TO.P,J8,11,Pin_11*%
%TO.N,unconnected-(J8-Pin_11-Pad11)*%
X92010000Y-16500000D03*
%TO.P,J8,12,Pin_12*%
%TO.N,GND*%
X92010000Y-13960000D03*
%TO.P,J8,13,Pin_13*%
%TO.N,/DAC_SYNC*%
X94550000Y-16500000D03*
%TO.P,J8,14,Pin_14*%
%TO.N,GND*%
X94550000Y-13960000D03*
%TO.P,J8,15,Pin_15*%
%TO.N,/PWR_EN*%
X97090000Y-16500000D03*
%TO.P,J8,16,Pin_16*%
%TO.N,GND*%
X97090000Y-13960000D03*
%TD*%
D24*
%TO.P,J2,1,Pin_1*%
%TO.N,/3V7P*%
X102905000Y-59945000D03*
D25*
%TO.P,J2,2,Pin_2*%
%TO.N,GND*%
X102905000Y-54865000D03*
%TD*%
D26*
%TO.P,XC32,1*%
%TO.N,GND*%
X48500000Y-57162500D03*
%TO.P,XC32,2*%
%TO.N,/3V3*%
X48500000Y-59237500D03*
%TD*%
D16*
%TO.P,XC31,1*%
%TO.N,/3V3*%
X29837500Y-37400000D03*
%TO.P,XC31,2*%
%TO.N,GND*%
X27762500Y-37400000D03*
%TD*%
%TO.P,XC30,1*%
%TO.N,/3V3*%
X29837500Y-39700000D03*
%TO.P,XC30,2*%
%TO.N,GND*%
X27762500Y-39700000D03*
%TD*%
D27*
%TO.P,XC29,1*%
%TO.N,/3V3*%
X35562500Y-54610000D03*
%TO.P,XC29,2*%
%TO.N,GND*%
X37637500Y-54610000D03*
%TD*%
D16*
%TO.P,XC28,1*%
%TO.N,GND*%
X37637500Y-51600000D03*
%TO.P,XC28,2*%
%TO.N,/3V3*%
X35562500Y-51600000D03*
%TD*%
D28*
%TO.P,XC27,1*%
%TO.N,Net-(U5-EXT_CAP)*%
X33700000Y-61137500D03*
%TO.P,XC27,2*%
%TO.N,GND*%
X33700000Y-59062500D03*
%TD*%
%TO.P,XC26,1*%
%TO.N,/R_A20*%
X24900000Y-53237500D03*
%TO.P,XC26,2*%
%TO.N,GND*%
X24900000Y-51162500D03*
%TD*%
D16*
%TO.P,XC25,1*%
%TO.N,/3V3*%
X18627500Y-53100000D03*
%TO.P,XC25,2*%
%TO.N,GND*%
X16552500Y-53100000D03*
%TD*%
%TO.P,XC24,1*%
%TO.N,/3V3*%
X18627500Y-55472500D03*
%TO.P,XC24,2*%
%TO.N,GND*%
X16552500Y-55472500D03*
%TD*%
D26*
%TO.P,XC23,1*%
%TO.N,Net-(U14-CAP{slash}2.5V)*%
X16300000Y-59500000D03*
%TO.P,XC23,2*%
%TO.N,GND*%
X16300000Y-61575000D03*
%TD*%
%TO.P,XC22,2*%
%TO.N,GND*%
X18710000Y-61575000D03*
%TO.P,XC22,1*%
%TO.N,Net-(U14-CAP{slash}2.5V)*%
X18710000Y-59500000D03*
%TD*%
%TO.P,XC21,1*%
%TO.N,/3V3*%
X20700000Y-68462500D03*
%TO.P,XC21,2*%
%TO.N,GND*%
X20700000Y-70537500D03*
%TD*%
D28*
%TO.P,XC14,1*%
%TO.N,GND*%
X57800000Y-50437500D03*
%TO.P,XC14,2*%
%TO.N,Net-(U3-VREFH{slash}VREFOUT)*%
X57800000Y-48362500D03*
%TD*%
%TO.P,XC12,1*%
%TO.N,/3V3*%
X69600000Y-49537500D03*
%TO.P,XC12,2*%
%TO.N,GND*%
X69600000Y-47462500D03*
%TD*%
D16*
%TO.P,XC11,1*%
%TO.N,Net-(U7-EXT_CAP)*%
X72437500Y-43400000D03*
%TO.P,XC11,2*%
%TO.N,GND*%
X70362500Y-43400000D03*
%TD*%
%TO.P,XC10,1*%
%TO.N,/3V3*%
X66137500Y-41000000D03*
%TO.P,XC10,2*%
%TO.N,GND*%
X64062500Y-41000000D03*
%TD*%
%TO.P,XC9,1*%
%TO.N,/3V3*%
X66137500Y-43211299D03*
%TO.P,XC9,2*%
%TO.N,GND*%
X64062500Y-43211299D03*
%TD*%
D27*
%TO.P,XC8,1*%
%TO.N,/3V3*%
X57862500Y-34600000D03*
%TO.P,XC8,2*%
%TO.N,GND*%
X59937500Y-34600000D03*
%TD*%
D28*
%TO.P,XC7,1*%
%TO.N,/3V3*%
X48140000Y-33207500D03*
%TO.P,XC7,2*%
%TO.N,GND*%
X48140000Y-31132500D03*
%TD*%
D26*
%TO.P,XC6,1*%
%TO.N,GND*%
X93437500Y-45622500D03*
%TO.P,XC6,2*%
%TO.N,/D3V3*%
X93437500Y-47697500D03*
%TD*%
D28*
%TO.P,XC5,1*%
%TO.N,GND*%
X93437500Y-52335000D03*
%TO.P,XC5,2*%
%TO.N,Net-(U13-BP)*%
X93437500Y-50260000D03*
%TD*%
%TO.P,XC4,1*%
%TO.N,GND*%
X86437500Y-50297500D03*
%TO.P,XC4,2*%
%TO.N,/3V7*%
X86437500Y-48222500D03*
%TD*%
D26*
%TO.P,XC3,1*%
%TO.N,GND*%
X93325000Y-55462500D03*
%TO.P,XC3,2*%
%TO.N,/3V3*%
X93325000Y-57537500D03*
%TD*%
D28*
%TO.P,XC2,1*%
%TO.N,GND*%
X93425000Y-62437500D03*
%TO.P,XC2,2*%
%TO.N,Net-(U12-BP)*%
X93425000Y-60362500D03*
%TD*%
%TO.P,XC1,1*%
%TO.N,GND*%
X86650000Y-60147500D03*
%TO.P,XC1,2*%
%TO.N,/3V7*%
X86650000Y-58072500D03*
%TD*%
D29*
%TO.P,U15,1*%
%TO.N,Net-(C1-Pad2)*%
X31650002Y-44487200D03*
%TO.P,U15,2,-*%
%TO.N,Net-(U15A--)*%
X32300000Y-44487200D03*
%TO.P,U15,3,+*%
%TO.N,/R_W20*%
X32950002Y-44487200D03*
%TO.P,U15,4,V-*%
%TO.N,GND*%
X33600000Y-44487200D03*
%TO.P,U15,5,+*%
%TO.N,/DATA_IN*%
X33600000Y-40400000D03*
%TO.P,U15,6,-*%
%TO.N,Net-(U15B--)*%
X32950002Y-40400000D03*
%TO.P,U15,7*%
X32300000Y-40400000D03*
%TO.P,U15,8,V+*%
%TO.N,/3V3*%
X31650002Y-40400000D03*
%TD*%
D30*
%TO.P,U14,1,COMP*%
%TO.N,/COMP*%
X20952500Y-55752500D03*
%TO.P,U14,2,VDD*%
%TO.N,/3V3*%
X20952500Y-56252500D03*
%TO.P,U14,3,CAP/2.5V*%
%TO.N,Net-(U14-CAP{slash}2.5V)*%
X20952500Y-56752500D03*
%TO.P,U14,4,DGND*%
%TO.N,GND*%
X20952500Y-57252500D03*
%TO.P,U14,5,MCLK*%
%TO.N,/MCLK*%
X20952500Y-57752500D03*
%TO.P,U14,6,SDATA*%
%TO.N,/DDS_SDATA*%
X23847500Y-57752500D03*
%TO.P,U14,7,SCLK*%
%TO.N,/DDS_SCLK*%
X23847500Y-57252500D03*
%TO.P,U14,8,~{FSYNC}*%
%TO.N,/DDS_FSYNC*%
X23847500Y-56752500D03*
%TO.P,U14,9,AGND*%
%TO.N,GND*%
X23847500Y-56252500D03*
%TO.P,U14,10,VOUT*%
%TO.N,/R_A20*%
X23847500Y-55752500D03*
D31*
%TO.P,U14,11,PAD*%
%TO.N,GND*%
X22400000Y-56752500D03*
%TD*%
D32*
%TO.P,U13,5,VOUT*%
%TO.N,/D3V3*%
X91200000Y-48200000D03*
%TO.P,U13,4,BP*%
%TO.N,Net-(U13-BP)*%
X91200000Y-50100000D03*
%TO.P,U13,3,ON/~{OFF}*%
%TO.N,/3V7*%
X88925000Y-50100000D03*
%TO.P,U13,2,GND*%
%TO.N,GND*%
X88925000Y-49150000D03*
%TO.P,U13,1,VIN*%
%TO.N,/3V7*%
X88925000Y-48200000D03*
%TD*%
%TO.P,U12,1,VIN*%
%TO.N,/3V7*%
X88787500Y-58150000D03*
%TO.P,U12,2,GND*%
%TO.N,GND*%
X88787500Y-59100000D03*
%TO.P,U12,3,ON/~{OFF}*%
%TO.N,/PWR_EN*%
X88787500Y-60050000D03*
%TO.P,U12,4,BP*%
%TO.N,Net-(U12-BP)*%
X91062500Y-60050000D03*
%TO.P,U12,5,VOUT*%
%TO.N,/3V3*%
X91062500Y-58150000D03*
%TD*%
D33*
%TO.P,U7,10,\u002ASYNC*%
%TO.N,/RHEO_SYNC_100*%
X68099999Y-36428300D03*
%TO.P,U7,9,SCLK*%
%TO.N,/RHEO_SCLK*%
X68600001Y-36428300D03*
%TO.P,U7,8,DIN*%
%TO.N,/RHEO_DIN*%
X69100000Y-36428300D03*
%TO.P,U7,7,SDO*%
%TO.N,/RHEO_SDO*%
X69599999Y-36428300D03*
%TO.P,U7,6,GND*%
%TO.N,GND*%
X70100001Y-36428300D03*
%TO.P,U7,5,EXT_CAP*%
%TO.N,Net-(U7-EXT_CAP)*%
X70100001Y-40771700D03*
%TO.P,U7,4,VSS*%
%TO.N,GND*%
X69599999Y-40771700D03*
%TO.P,U7,3,W*%
%TO.N,/R_W100*%
X69100000Y-40771700D03*
%TO.P,U7,2,A*%
%TO.N,/R_A100*%
X68600001Y-40771700D03*
%TO.P,U7,1,VDD*%
%TO.N,/3V3*%
X68099999Y-40771700D03*
%TD*%
D32*
%TO.P,U6,1,GND*%
%TO.N,GND*%
X16262500Y-66350000D03*
%TO.P,U6,2,NC*%
%TO.N,unconnected-(U6-NC-Pad2)*%
X16262500Y-67300000D03*
%TO.P,U6,3,ST*%
%TO.N,/OSC_OE*%
X16262500Y-68250000D03*
%TO.P,U6,4,VDD*%
%TO.N,/3V3*%
X18537500Y-68250000D03*
%TO.P,U6,5,OUT*%
%TO.N,/MCLK*%
X18537500Y-66350000D03*
%TD*%
D34*
%TO.P,U5,1,VDD*%
%TO.N,/3V3*%
X36628300Y-56799999D03*
%TO.P,U5,2,A*%
%TO.N,/R_A20*%
X36628300Y-57300001D03*
%TO.P,U5,3,W*%
%TO.N,/R_W20*%
X36628300Y-57800000D03*
%TO.P,U5,4,VSS*%
%TO.N,GND*%
X36628300Y-58299999D03*
%TO.P,U5,5,EXT_CAP*%
%TO.N,Net-(U5-EXT_CAP)*%
X36628300Y-58800001D03*
%TO.P,U5,6,GND*%
%TO.N,GND*%
X40971700Y-58800001D03*
%TO.P,U5,7,SDO*%
%TO.N,/RHEO_SDO*%
X40971700Y-58299999D03*
%TO.P,U5,8,DIN*%
%TO.N,/RHEO_DIN*%
X40971700Y-57800000D03*
%TO.P,U5,9,SCLK*%
%TO.N,/RHEO_SCLK*%
X40971700Y-57300001D03*
%TO.P,U5,10,\u002ASYNC*%
%TO.N,/RHEO_SYNC_20*%
X40971700Y-56799999D03*
%TD*%
D35*
%TO.P,U2,1*%
%TO.N,/EXC{slash}AIN5*%
X50987500Y-56025000D03*
%TO.P,U2,2*%
%TO.N,/V_FS{slash}AIN4*%
X50987500Y-56675000D03*
%TO.P,U2,3,GND*%
%TO.N,GND*%
X50987500Y-57325000D03*
%TO.P,U2,4,VDD*%
%TO.N,/3V3*%
X50987500Y-57975000D03*
%TO.P,U2,5,NC*%
%TO.N,unconnected-(U2B-NC-Pad5)*%
X55212500Y-57975000D03*
%TO.P,U2,6*%
%TO.N,/SINE_MODE*%
X55212500Y-57325000D03*
%TO.P,U2,7,VSS*%
%TO.N,GND*%
X55212500Y-56675000D03*
%TO.P,U2,8*%
%TO.N,Net-(C1-Pad1)*%
X55212500Y-56025000D03*
%TD*%
D10*
%TO.P,TP12,1,1*%
%TO.N,/R_A100*%
X61200000Y-42600000D03*
%TD*%
%TO.P,TP10,1,1*%
%TO.N,/V_FS{slash}AIN4*%
X58700000Y-63200000D03*
%TD*%
%TO.P,TP9,1,1*%
%TO.N,/V_REF{slash}AIN3*%
X63900000Y-35700000D03*
%TD*%
%TO.P,TP8,1,1*%
%TO.N,/V_INN{slash}AIN2*%
X58100000Y-45300000D03*
%TD*%
%TO.P,TP7,1,1*%
%TO.N,/V_VG{slash}AIN1*%
X67300000Y-56300000D03*
%TD*%
%TO.P,TP6,1,1*%
%TO.N,Net-(U15B--)*%
X37600000Y-36100000D03*
%TD*%
%TO.P,TP4,1,1*%
%TO.N,/EXC{slash}AIN5*%
X56890000Y-68370000D03*
%TD*%
%TO.P,TP2,1,1*%
%TO.N,/R_W20*%
X40500000Y-47500000D03*
%TD*%
D36*
%TO.P,RP13,1*%
%TO.N,/RHEO_SYNC_20*%
X41400000Y-54700000D03*
%TO.P,RP13,2*%
%TO.N,/3V3*%
X41400000Y-52700000D03*
%TD*%
%TO.P,RP12,1*%
%TO.N,/RHEO_SYNC_100*%
X68500000Y-33500000D03*
%TO.P,RP12,2*%
%TO.N,/3V3*%
X68500000Y-31500000D03*
%TD*%
D15*
%TO.P,RP11,1*%
%TO.N,/DDS_FSYNC*%
X25600000Y-55400000D03*
%TO.P,RP11,2*%
%TO.N,/3V3*%
X27600000Y-55400000D03*
%TD*%
D37*
%TO.P,RP10,2*%
%TO.N,GND*%
X42090000Y-31090000D03*
%TO.P,RP10,1*%
%TO.N,/MUX2*%
X44090000Y-31090000D03*
%TD*%
D15*
%TO.P,RP9,2*%
%TO.N,/3V3*%
X59900000Y-31300000D03*
%TO.P,RP9,1*%
%TO.N,/INAMP_SHDN*%
X57900000Y-31300000D03*
%TD*%
D37*
%TO.P,RP8,2*%
%TO.N,GND*%
X42090000Y-33510000D03*
%TO.P,RP8,1*%
%TO.N,/MUX1*%
X44090000Y-33510000D03*
%TD*%
D36*
%TO.P,RP7,1*%
%TO.N,/3V3*%
X70300000Y-54900000D03*
%TO.P,RP7,2*%
%TO.N,/DAC_SYNC*%
X70300000Y-52900000D03*
%TD*%
D38*
%TO.P,RP6,2*%
%TO.N,GND*%
X40800000Y-43400000D03*
%TO.P,RP6,1*%
%TO.N,/MUX0*%
X40800000Y-41400000D03*
%TD*%
%TO.P,RP4,2*%
%TO.N,GND*%
X43100000Y-43400000D03*
%TO.P,RP4,1*%
%TO.N,/MUX_EN*%
X43100000Y-41400000D03*
%TD*%
D15*
%TO.P,RP2,1*%
%TO.N,/PWR_EN*%
X88725000Y-62400000D03*
%TO.P,RP2,2*%
%TO.N,GND*%
X90725000Y-62400000D03*
%TD*%
D36*
%TO.P,RP1,1*%
%TO.N,/SINE_MODE*%
X57600000Y-55100000D03*
%TO.P,RP1,2*%
%TO.N,GND*%
X57600000Y-53100000D03*
%TD*%
D38*
%TO.P,R25,1*%
%TO.N,Net-(D10-K)*%
X42500000Y-24200000D03*
%TO.P,R25,2*%
%TO.N,GND*%
X42500000Y-26200000D03*
%TD*%
%TO.P,R24,2*%
%TO.N,GND*%
X63600000Y-26100000D03*
%TO.P,R24,1*%
%TO.N,Net-(D9-K)*%
X63600000Y-24100000D03*
%TD*%
%TO.P,R23,2*%
%TO.N,GND*%
X55500000Y-26100000D03*
%TO.P,R23,1*%
%TO.N,Net-(D8-K)*%
X55500000Y-24100000D03*
%TD*%
%TO.P,R22,2*%
%TO.N,GND*%
X52200000Y-26200000D03*
%TO.P,R22,1*%
%TO.N,Net-(D7-K)*%
X52200000Y-24200000D03*
%TD*%
%TO.P,R21,2*%
%TO.N,GND*%
X49000000Y-26200000D03*
%TO.P,R21,1*%
%TO.N,Net-(D6-K)*%
X49000000Y-24200000D03*
%TD*%
%TO.P,R20,2*%
%TO.N,GND*%
X45800000Y-26200000D03*
%TO.P,R20,1*%
%TO.N,Net-(D5-K)*%
X45800000Y-24200000D03*
%TD*%
%TO.P,R19,2*%
%TO.N,GND*%
X96700000Y-27100000D03*
%TO.P,R19,1*%
%TO.N,Net-(D4-K)*%
X96700000Y-25100000D03*
%TD*%
D15*
%TO.P,R18,2*%
%TO.N,GND*%
X95450000Y-41200000D03*
%TO.P,R18,1*%
%TO.N,Net-(D3-K)*%
X93450000Y-41200000D03*
%TD*%
D38*
%TO.P,R17,1*%
%TO.N,GND*%
X37700000Y-46100000D03*
%TO.P,R17,2*%
%TO.N,/R_W20*%
X37700000Y-48100000D03*
%TD*%
D37*
%TO.P,R16,1*%
%TO.N,Net-(U15A--)*%
X33600000Y-46800000D03*
%TO.P,R16,2*%
%TO.N,Net-(C1-Pad2)*%
X31600000Y-46800000D03*
%TD*%
%TO.P,R15,1*%
%TO.N,Net-(U15A--)*%
X33600000Y-49000000D03*
%TO.P,R15,2*%
%TO.N,GND*%
X31600000Y-49000000D03*
%TD*%
D36*
%TO.P,R14,1*%
%TO.N,/3V3*%
X16300000Y-72200000D03*
%TO.P,R14,2*%
%TO.N,/OSC_OE*%
X16300000Y-70200000D03*
%TD*%
D15*
%TO.P,R13,1*%
%TO.N,Net-(C1-Pad1)*%
X47900000Y-53100000D03*
%TO.P,R13,2*%
%TO.N,/V_VG{slash}AIN1*%
X49900000Y-53100000D03*
%TD*%
%TO.P,R9,2*%
%TO.N,GND*%
X95475000Y-37300000D03*
%TO.P,R9,1*%
%TO.N,Net-(D12-K)*%
X93475000Y-37300000D03*
%TD*%
D36*
%TO.P,R8,2*%
%TO.N,/V_REF{slash}AIN3*%
X61200000Y-38100000D03*
%TO.P,R8,1*%
%TO.N,/R_A100*%
X61200000Y-40100000D03*
%TD*%
%TO.P,R7,2*%
%TO.N,GND*%
X54980000Y-31417500D03*
%TO.P,R7,1*%
%TO.N,/100G*%
X54980000Y-33417500D03*
%TD*%
%TO.P,R6,2*%
%TO.N,GND*%
X52770000Y-31430000D03*
%TO.P,R6,1*%
%TO.N,/10G*%
X52770000Y-33430000D03*
%TD*%
%TO.P,R5,2*%
%TO.N,GND*%
X50500000Y-31417500D03*
%TO.P,R5,1*%
%TO.N,/1G*%
X50500000Y-33417500D03*
%TD*%
D38*
%TO.P,R4,1*%
%TO.N,/100M*%
X53200000Y-44800000D03*
%TO.P,R4,2*%
%TO.N,GND*%
X53200000Y-46800000D03*
%TD*%
%TO.P,R3,1*%
%TO.N,/10M*%
X51000000Y-44800000D03*
%TO.P,R3,2*%
%TO.N,GND*%
X51000000Y-46800000D03*
%TD*%
%TO.P,R2,1*%
%TO.N,/1M*%
X48800000Y-44800000D03*
%TO.P,R2,2*%
%TO.N,GND*%
X48800000Y-46800000D03*
%TD*%
%TO.P,R1,1*%
%TO.N,/100K*%
X46600000Y-44800000D03*
%TO.P,R1,2*%
%TO.N,GND*%
X46600000Y-46800000D03*
%TD*%
D22*
%TO.P,J9,1,Pin_1*%
%TO.N,/AIN0*%
X74240000Y-70700000D03*
D23*
%TO.P,J9,2,Pin_2*%
%TO.N,GND*%
X74240000Y-73240000D03*
%TO.P,J9,3,Pin_3*%
%TO.N,/V_VG{slash}AIN1*%
X71700000Y-70700000D03*
%TO.P,J9,4,Pin_4*%
%TO.N,GND*%
X71700000Y-73240000D03*
%TO.P,J9,5,Pin_5*%
%TO.N,/V_INN{slash}AIN2*%
X69160000Y-70700000D03*
%TO.P,J9,6,Pin_6*%
%TO.N,GND*%
X69160000Y-73240000D03*
%TO.P,J9,7,Pin_7*%
%TO.N,/V_REF{slash}AIN3*%
X66620000Y-70700000D03*
%TO.P,J9,8,Pin_8*%
%TO.N,GND*%
X66620000Y-73240000D03*
%TO.P,J9,9,Pin_9*%
%TO.N,/V_FS{slash}AIN4*%
X64080000Y-70700000D03*
%TO.P,J9,10,Pin_10*%
%TO.N,GND*%
X64080000Y-73240000D03*
%TO.P,J9,11,Pin_11*%
%TO.N,/EXC{slash}AIN5*%
X61540000Y-70700000D03*
%TO.P,J9,12,Pin_12*%
%TO.N,GND*%
X61540000Y-73240000D03*
%TD*%
D22*
%TO.P,J7,1,Pin_1*%
%TO.N,/SINE_MODE*%
X61350000Y-16500000D03*
D23*
%TO.P,J7,2,Pin_2*%
%TO.N,GND*%
X61350000Y-13960000D03*
%TO.P,J7,3,Pin_3*%
%TO.N,/RHEO_SYNC_100*%
X63890000Y-16500000D03*
%TO.P,J7,4,Pin_4*%
%TO.N,GND*%
X63890000Y-13960000D03*
%TO.P,J7,5,Pin_5*%
%TO.N,/RHEO_SCLK*%
X66430000Y-16500000D03*
%TO.P,J7,6,Pin_6*%
%TO.N,GND*%
X66430000Y-13960000D03*
%TO.P,J7,7,Pin_7*%
%TO.N,/RHEO_DIN*%
X68970000Y-16500000D03*
%TO.P,J7,8,Pin_8*%
%TO.N,GND*%
X68970000Y-13960000D03*
%TO.P,J7,9,Pin_9*%
%TO.N,/RHEO_SDO*%
X71510000Y-16500000D03*
%TO.P,J7,10,Pin_10*%
%TO.N,GND*%
X71510000Y-13960000D03*
%TO.P,J7,11,Pin_11*%
%TO.N,/INAMP_SHDN*%
X74050000Y-16500000D03*
%TO.P,J7,12,Pin_12*%
%TO.N,GND*%
X74050000Y-13960000D03*
%TD*%
D22*
%TO.P,J6,1,Pin_1*%
%TO.N,/OSC_OE*%
X32320000Y-16500000D03*
D23*
%TO.P,J6,2,Pin_2*%
%TO.N,GND*%
X32320000Y-13960000D03*
%TO.P,J6,3,Pin_3*%
%TO.N,/DDS_FSYNC*%
X34860000Y-16500000D03*
%TO.P,J6,4,Pin_4*%
%TO.N,GND*%
X34860000Y-13960000D03*
%TO.P,J6,5,Pin_5*%
%TO.N,/DDS_SCLK*%
X37400000Y-16500000D03*
%TO.P,J6,6,Pin_6*%
%TO.N,GND*%
X37400000Y-13960000D03*
%TO.P,J6,7,Pin_7*%
%TO.N,unconnected-(J6-Pin_7-Pad7)*%
X39940000Y-16500000D03*
%TO.P,J6,8,Pin_8*%
%TO.N,GND*%
X39940000Y-13960000D03*
%TO.P,J6,9,Pin_9*%
%TO.N,/DDS_SDATA*%
X42480000Y-16500000D03*
%TO.P,J6,10,Pin_10*%
%TO.N,GND*%
X42480000Y-13960000D03*
%TO.P,J6,11,Pin_11*%
%TO.N,/RHEO_SYNC_20*%
X45020000Y-16500000D03*
%TO.P,J6,12,Pin_12*%
%TO.N,GND*%
X45020000Y-13960000D03*
%TO.P,J6,13,Pin_13*%
%TO.N,/MUX_EN*%
X47560000Y-16500000D03*
%TO.P,J6,14,Pin_14*%
%TO.N,GND*%
X47560000Y-13960000D03*
%TO.P,J6,15,Pin_15*%
%TO.N,/MUX0*%
X50100000Y-16500000D03*
%TO.P,J6,16,Pin_16*%
%TO.N,GND*%
X50100000Y-13960000D03*
%TO.P,J6,17,Pin_17*%
%TO.N,/MUX1*%
X52640000Y-16500000D03*
%TO.P,J6,18,Pin_18*%
%TO.N,GND*%
X52640000Y-13960000D03*
%TO.P,J6,19,Pin_19*%
%TO.N,/MUX2*%
X55180000Y-16500000D03*
%TO.P,J6,20,Pin_20*%
%TO.N,GND*%
X55180000Y-13960000D03*
%TD*%
D39*
%TO.P,J5,1,In*%
%TO.N,/EXC{slash}AIN5*%
X44320000Y-66220000D03*
D40*
%TO.P,J5,2,Ext*%
%TO.N,GND*%
X49400000Y-71300000D03*
D39*
X46860000Y-66220000D03*
D40*
X39240000Y-71300000D03*
%TD*%
%TO.P,J1,2,Ext*%
%TO.N,GND*%
X16800000Y-35500000D03*
D39*
X21880000Y-43120000D03*
D40*
X16800000Y-45660000D03*
D39*
%TO.P,J1,1,In*%
%TO.N,/DATA_IN*%
X21880000Y-40580000D03*
%TD*%
D41*
%TO.P,D12,1,K*%
%TO.N,Net-(D12-K)*%
X91225000Y-37300000D03*
%TO.P,D12,2,A*%
%TO.N,Net-(D11-K)*%
X89175000Y-37300000D03*
%TD*%
%TO.P,D11,1,K*%
%TO.N,Net-(D11-K)*%
X87000000Y-37300000D03*
%TO.P,D11,2,A*%
%TO.N,/3V7*%
X84950000Y-37300000D03*
%TD*%
D42*
%TO.P,D10,1,K*%
%TO.N,Net-(D10-K)*%
X42500000Y-21725000D03*
%TO.P,D10,2,A*%
%TO.N,/RHEO_SYNC_20*%
X42500000Y-19675000D03*
%TD*%
%TO.P,D9,1,K*%
%TO.N,Net-(D9-K)*%
X63600000Y-21350000D03*
%TO.P,D9,2,A*%
%TO.N,/RHEO_SYNC_100*%
X63600000Y-19300000D03*
%TD*%
%TO.P,D8,1,K*%
%TO.N,Net-(D8-K)*%
X55500000Y-21525000D03*
%TO.P,D8,2,A*%
%TO.N,/MUX2*%
X55500000Y-19475000D03*
%TD*%
%TO.P,D7,1,K*%
%TO.N,Net-(D7-K)*%
X52200000Y-21550000D03*
%TO.P,D7,2,A*%
%TO.N,/MUX1*%
X52200000Y-19500000D03*
%TD*%
%TO.P,D6,1,K*%
%TO.N,Net-(D6-K)*%
X49000000Y-21625000D03*
%TO.P,D6,2,A*%
%TO.N,/MUX0*%
X49000000Y-19575000D03*
%TD*%
%TO.P,D5,1,K*%
%TO.N,Net-(D5-K)*%
X45800000Y-21600000D03*
%TO.P,D5,2,A*%
%TO.N,/MUX_EN*%
X45800000Y-19550000D03*
%TD*%
%TO.P,D4,1,K*%
%TO.N,Net-(D4-K)*%
X96700000Y-21850000D03*
%TO.P,D4,2,A*%
%TO.N,/PWR_EN*%
X96700000Y-19800000D03*
%TD*%
D41*
%TO.P,D3,2,A*%
%TO.N,/3V3*%
X89125000Y-41245000D03*
%TO.P,D3,1,K*%
%TO.N,Net-(D3-K)*%
X91175000Y-41245000D03*
%TD*%
D16*
%TO.P,C2,1*%
%TO.N,/COMP*%
X22637500Y-53100000D03*
%TO.P,C2,2*%
%TO.N,/3V3*%
X20562500Y-53100000D03*
%TD*%
D28*
%TO.P,C1,1*%
%TO.N,Net-(C1-Pad1)*%
X45600000Y-53237500D03*
%TO.P,C1,2*%
%TO.N,Net-(C1-Pad2)*%
X45600000Y-51162500D03*
%TD*%
D10*
%TO.P,TP1,1,1*%
%TO.N,/MCLK*%
X22500000Y-63000000D03*
%TD*%
D43*
%TO.N,GND*%
X75852500Y-43267500D03*
X20640000Y-72230000D03*
X59740000Y-40490000D03*
X30060000Y-49010000D03*
X96700000Y-28940000D03*
%TO.N,/3V3*%
X70400000Y-56380000D03*
%TO.N,GND*%
X68650000Y-43440000D03*
%TO.N,/3V3*%
X66410000Y-45150000D03*
%TO.N,GND*%
X64110000Y-44990000D03*
X50380000Y-38420000D03*
%TO.N,/3V3*%
X46370000Y-32840000D03*
X68500000Y-30220000D03*
%TO.N,GND*%
X52150000Y-27730000D03*
X48520000Y-27720000D03*
X45900000Y-27650000D03*
X40840000Y-26270000D03*
X55620000Y-27880000D03*
X63600000Y-27460000D03*
%TO.N,/3V3*%
X60070000Y-29400000D03*
%TO.N,GND*%
X61560000Y-34590000D03*
%TO.N,/EXC{slash}AIN5*%
X48190000Y-54950000D03*
X52240000Y-36100000D03*
%TO.N,GND*%
X41860000Y-35200000D03*
X43480000Y-44930000D03*
X16300000Y-62950000D03*
%TO.N,/OSC_OE*%
X14400000Y-68300000D03*
%TO.N,/DDS_FSYNC*%
X27400000Y-57600000D03*
%TO.N,/DDS_SCLK*%
X26600000Y-58400000D03*
%TO.N,/DDS_SDATA*%
X25900000Y-59100000D03*
%TO.N,/DAC_SYNC*%
X72700000Y-52400000D03*
%TO.N,/DAC_SCLK*%
X73300000Y-51700000D03*
%TO.N,/DAC_DIN*%
X73900000Y-51000000D03*
%TO.N,/RHEO_SDO*%
X43500000Y-58600000D03*
%TO.N,/RHEO_DIN*%
X43900000Y-56800000D03*
%TO.N,/RHEO_SDO*%
X72360000Y-36000000D03*
%TO.N,/RHEO_DIN*%
X71500000Y-33400000D03*
%TO.N,/RHEO_SCLK*%
X44581000Y-55600000D03*
X70400000Y-33700000D03*
%TO.N,/SINE_MODE*%
X59300000Y-53600000D03*
X61350000Y-32750000D03*
%TO.N,/RHEO_SYNC_20*%
X43200000Y-54600000D03*
X39800000Y-35900000D03*
%TO.N,GND*%
X45200000Y-46800000D03*
X54980000Y-30017500D03*
%TO.N,/MUX0*%
X40900000Y-35900000D03*
%TO.N,/MUX_EN*%
X43100000Y-27400000D03*
X43100000Y-39900000D03*
%TO.N,/MUX0*%
X40800000Y-39800000D03*
%TO.N,/V_VG{slash}AIN1*%
X59100000Y-47125000D03*
X65200000Y-51000000D03*
%TO.N,/V_INN{slash}AIN2*%
X64000000Y-47900000D03*
X64000000Y-50500000D03*
%TO.N,GND*%
X56300000Y-53100000D03*
X56100000Y-50500000D03*
%TO.N,/3V3*%
X70962500Y-49537500D03*
%TO.N,GND*%
X71262500Y-47462500D03*
%TO.N,/V_REF{slash}AIN3*%
X62900000Y-38300000D03*
X62959324Y-50059324D03*
%TO.N,GND*%
X95062500Y-62437500D03*
X86200000Y-61700000D03*
X99300000Y-38500000D03*
X97200000Y-41200000D03*
X97300000Y-37300000D03*
%TO.N,/3V3*%
X87550000Y-41300000D03*
%TO.N,GND*%
X91777500Y-45622500D03*
X91835000Y-52335000D03*
X86437500Y-51662500D03*
%TO.N,/3V3*%
X94962500Y-57537500D03*
%TO.N,GND*%
X71500000Y-36000000D03*
X47037500Y-57162500D03*
%TO.N,/3V3*%
X47000000Y-59237500D03*
%TO.N,GND*%
X56875000Y-56675000D03*
X27762500Y-41337500D03*
%TO.N,/3V3*%
X31300000Y-37400000D03*
%TO.N,GND*%
X35100000Y-45300000D03*
X37700000Y-44800000D03*
%TO.N,/3V3*%
X41400000Y-51400000D03*
X35562500Y-49937500D03*
%TO.N,GND*%
X38800000Y-51600000D03*
X32100000Y-59000000D03*
X24900000Y-49800000D03*
%TO.N,/3V3*%
X27000000Y-53800000D03*
%TO.N,GND*%
X16552500Y-51647500D03*
%TO.N,/3V3*%
X20562500Y-51500000D03*
%TO.N,GND*%
X22426250Y-56726250D03*
X14450000Y-66350000D03*
%TO.N,/3V3*%
X20700000Y-66900000D03*
X16300000Y-73900000D03*
%TD*%
D44*
%TO.N,*%
X18650000Y-25670000D02*
X31350000Y-25670000D01*
X33890000Y-25670000D02*
X33890000Y-30750000D01*
X18650000Y-30750000D02*
X31350000Y-30750000D01*
X18650000Y-28210000D02*
X31350000Y-28210000D01*
X16120000Y-30760000D02*
X16120000Y-25680000D01*
X16120000Y-23140000D02*
X21200000Y-23140000D01*
X16120000Y-20600000D02*
X21200000Y-20600000D01*
X16120000Y-18060000D02*
X21200000Y-18060000D01*
X16120000Y-15520000D02*
X21200000Y-15520000D01*
X87360000Y-33940000D02*
X92440000Y-33940000D01*
X87360000Y-31400000D02*
X92440000Y-31400000D01*
X87360000Y-28860000D02*
X92440000Y-28860000D01*
X87360000Y-26320000D02*
X92440000Y-26320000D01*
X87360000Y-23780000D02*
X92440000Y-23780000D01*
X77200000Y-33940000D02*
X84820000Y-33940000D01*
X77200000Y-31400000D02*
X84820000Y-31400000D01*
X77200000Y-28860000D02*
X84820000Y-28860000D01*
X77200000Y-26320000D02*
X84820000Y-26320000D01*
X77200000Y-23780000D02*
X84820000Y-23780000D01*
X87360000Y-21240000D02*
X92440000Y-21240000D01*
X77200000Y-21240000D02*
X84820000Y-21240000D01*
%TO.N,GND*%
X75852500Y-41840000D02*
X75852500Y-43267500D01*
D45*
%TO.N,/AIN0*%
X74240000Y-54140000D02*
X74240000Y-70700000D01*
X74140000Y-54040000D02*
X74240000Y-54140000D01*
X78070000Y-50110000D02*
X74140000Y-54040000D01*
X78070000Y-46260000D02*
X78070000Y-50110000D01*
X77927500Y-46117500D02*
X78070000Y-46260000D01*
X77927500Y-41840000D02*
X77927500Y-46117500D01*
X77960000Y-41807500D02*
X77927500Y-41840000D01*
X77960000Y-39420000D02*
X77960000Y-41807500D01*
D46*
%TO.N,/R_W100*%
X69370599Y-39420000D02*
X75960000Y-39420000D01*
X69100000Y-39690599D02*
X69370599Y-39420000D01*
X69100000Y-40771700D02*
X69100000Y-39690599D01*
D47*
%TO.N,/3V7B*%
X105670000Y-51034500D02*
X101474000Y-46838500D01*
X105670000Y-63184918D02*
X105670000Y-51034500D01*
X102200000Y-66654918D02*
X105670000Y-63184918D01*
X102200000Y-69000000D02*
X102200000Y-66654918D01*
D46*
%TO.N,/3V3*%
X69412500Y-49725000D02*
X69600000Y-49537500D01*
D45*
X66862500Y-49725000D02*
X69412500Y-49725000D01*
D48*
X69408500Y-49729000D02*
X69400500Y-49721000D01*
X69600000Y-49537500D02*
X69408500Y-49729000D01*
D46*
%TO.N,/R_W100*%
X68651452Y-39100000D02*
X69100000Y-39548548D01*
X58050000Y-37810000D02*
X59340000Y-39100000D01*
X69100000Y-39548548D02*
X69100000Y-39800000D01*
X58050000Y-36900000D02*
X58050000Y-37810000D01*
X59340000Y-39100000D02*
X68651452Y-39100000D01*
X58000000Y-36850000D02*
X58050000Y-36900000D01*
%TO.N,/R_W20*%
X32950002Y-43492598D02*
X32950002Y-44487200D01*
X33192600Y-43250000D02*
X32950002Y-43492598D01*
X36673000Y-47073000D02*
X36673000Y-45573000D01*
X37700000Y-48100000D02*
X36673000Y-47073000D01*
X36673000Y-45573000D02*
X34350000Y-43250000D01*
X34350000Y-43250000D02*
X33192600Y-43250000D01*
D44*
%TO.N,GND*%
X20700000Y-72170000D02*
X20640000Y-72230000D01*
X20700000Y-70537500D02*
X20700000Y-72170000D01*
D45*
X59410000Y-40490000D02*
X59740000Y-40490000D01*
X58700000Y-41200000D02*
X59410000Y-40490000D01*
%TO.N,/R_A100*%
X60740000Y-39640000D02*
X61200000Y-40100000D01*
X57370000Y-39640000D02*
X60740000Y-39640000D01*
X56750000Y-40260000D02*
X57370000Y-39640000D01*
X56750000Y-41200000D02*
X56750000Y-40260000D01*
%TO.N,Net-(C1-Pad2)*%
X31650002Y-43365598D02*
X31650002Y-44487200D01*
X32315600Y-42700000D02*
X31650002Y-43365598D01*
X37720000Y-42700000D02*
X32315600Y-42700000D01*
X41700000Y-44960000D02*
X39980000Y-44960000D01*
X42700000Y-48800000D02*
X42700000Y-45960000D01*
X42700000Y-45960000D02*
X41700000Y-44960000D01*
X45062500Y-51162500D02*
X42700000Y-48800000D01*
X39980000Y-44960000D02*
X37720000Y-42700000D01*
X45600000Y-51162500D02*
X45062500Y-51162500D01*
%TO.N,/1G*%
X48625000Y-34905000D02*
X50050000Y-33480000D01*
X50050000Y-33480000D02*
X50050000Y-33400000D01*
X48625000Y-36100000D02*
X48625000Y-34905000D01*
%TO.N,/10G*%
X52325000Y-34640000D02*
X52325000Y-33400000D01*
X49810000Y-34640000D02*
X52325000Y-34640000D01*
X49275000Y-35175000D02*
X49810000Y-34640000D01*
X49275000Y-36100000D02*
X49275000Y-35175000D01*
D44*
%TO.N,GND*%
X31590000Y-49010000D02*
X31600000Y-49000000D01*
X30060000Y-49010000D02*
X31590000Y-49010000D01*
D45*
%TO.N,Net-(D4-K)*%
X96700000Y-21850000D02*
X96700000Y-25100000D01*
D44*
%TO.N,GND*%
X96700000Y-27100000D02*
X96700000Y-28940000D01*
%TO.N,/3V3*%
X70400000Y-56380000D02*
X70400000Y-55000000D01*
X70400000Y-55000000D02*
X70300000Y-54900000D01*
D46*
%TO.N,/DAC_SYNC*%
X70910000Y-52900000D02*
X70300000Y-52900000D01*
X70910000Y-51675000D02*
X70910000Y-52900000D01*
X70910000Y-51675000D02*
X71975000Y-51675000D01*
X66870000Y-51675000D02*
X70910000Y-51675000D01*
D44*
%TO.N,GND*%
X70322500Y-43440000D02*
X70362500Y-43400000D01*
X68650000Y-43440000D02*
X70322500Y-43440000D01*
%TO.N,/3V3*%
X66137500Y-44877500D02*
X66410000Y-45150000D01*
X66137500Y-43211299D02*
X66137500Y-44877500D01*
%TO.N,GND*%
X64062500Y-44942500D02*
X64110000Y-44990000D01*
X64062500Y-43211299D02*
X64062500Y-44942500D01*
D45*
X49450000Y-37490000D02*
X50380000Y-38420000D01*
X47851352Y-37490000D02*
X49450000Y-37490000D01*
X47325000Y-36963648D02*
X47851352Y-37490000D01*
X47325000Y-36100000D02*
X47325000Y-36963648D01*
D44*
%TO.N,/3V3*%
X47665000Y-32840000D02*
X48280000Y-33455000D01*
X46370000Y-32840000D02*
X47665000Y-32840000D01*
D45*
%TO.N,/MUX2*%
X45080500Y-32958842D02*
X46675000Y-34553342D01*
X45080500Y-32550500D02*
X45080500Y-32958842D01*
X44090000Y-31560000D02*
X45080500Y-32550500D01*
X44090000Y-31090000D02*
X44090000Y-31560000D01*
X46675000Y-34553342D02*
X46675000Y-36100000D01*
X44790000Y-31090000D02*
X44090000Y-31090000D01*
X46099000Y-29781000D02*
X44790000Y-31090000D01*
%TO.N,/MUX1*%
X44810000Y-33510000D02*
X46025000Y-34725000D01*
X44090000Y-33510000D02*
X44810000Y-33510000D01*
X43099500Y-32519500D02*
X44090000Y-33510000D01*
X43099500Y-30367768D02*
X43099500Y-32519500D01*
X44267268Y-29200000D02*
X43099500Y-30367768D01*
X50680000Y-26880000D02*
X48360000Y-29200000D01*
X50680000Y-21020000D02*
X50680000Y-26880000D01*
X52200000Y-19500000D02*
X50680000Y-21020000D01*
X48360000Y-29200000D02*
X44267268Y-29200000D01*
D44*
%TO.N,GND*%
X42090000Y-34970000D02*
X42090000Y-33510000D01*
X41860000Y-35200000D02*
X42090000Y-34970000D01*
X42090000Y-31090000D02*
X42090000Y-33510000D01*
D45*
%TO.N,/MUX0*%
X40560000Y-35560000D02*
X40900000Y-35900000D01*
X41720000Y-28500000D02*
X40560000Y-29660000D01*
X40560000Y-29660000D02*
X40560000Y-35560000D01*
X47460000Y-28500000D02*
X41720000Y-28500000D01*
X49000000Y-19575000D02*
X47460000Y-21115000D01*
X47460000Y-21115000D02*
X47460000Y-28500000D01*
%TO.N,/3V3*%
X59900000Y-32375000D02*
X59900000Y-31300000D01*
X57862500Y-34412500D02*
X59900000Y-32375000D01*
X57862500Y-34600000D02*
X57862500Y-34412500D01*
D44*
X68500000Y-31500000D02*
X68500000Y-30220000D01*
D45*
%TO.N,Net-(D10-K)*%
X42500000Y-21725000D02*
X42500000Y-24200000D01*
D44*
%TO.N,GND*%
X40910000Y-26200000D02*
X40840000Y-26270000D01*
X42500000Y-26200000D02*
X40910000Y-26200000D01*
X45800000Y-27550000D02*
X45900000Y-27650000D01*
X45800000Y-26200000D02*
X45800000Y-27550000D01*
X49000000Y-27240000D02*
X48520000Y-27720000D01*
X49000000Y-26200000D02*
X49000000Y-27240000D01*
X52200000Y-27680000D02*
X52150000Y-27730000D01*
X52200000Y-26200000D02*
X52200000Y-27680000D01*
X55500000Y-27760000D02*
X55620000Y-27880000D01*
X55500000Y-26100000D02*
X55500000Y-27760000D01*
D45*
%TO.N,/MUX2*%
X48628390Y-29781000D02*
X46099000Y-29781000D01*
X49669390Y-28740000D02*
X48628390Y-29781000D01*
X54409500Y-26990500D02*
X52660000Y-28740000D01*
X54409500Y-20565500D02*
X54409500Y-26990500D01*
X52660000Y-28740000D02*
X49669390Y-28740000D01*
X55500000Y-19475000D02*
X54409500Y-20565500D01*
D44*
%TO.N,GND*%
X63600000Y-26100000D02*
X63600000Y-27460000D01*
X61550000Y-34600000D02*
X61560000Y-34590000D01*
X59937500Y-34600000D02*
X61550000Y-34600000D01*
%TO.N,/3V3*%
X59900000Y-29570000D02*
X60070000Y-29400000D01*
X59900000Y-31300000D02*
X59900000Y-29570000D01*
D45*
%TO.N,/EXC{slash}AIN5*%
X47850000Y-54950000D02*
X46775000Y-56025000D01*
X48190000Y-54950000D02*
X47850000Y-54950000D01*
X50575000Y-36100000D02*
X52240000Y-36100000D01*
%TO.N,/100G*%
X54600000Y-36070000D02*
X54600000Y-33400000D01*
X50261352Y-37300000D02*
X53370000Y-37300000D01*
X49925000Y-36963648D02*
X50261352Y-37300000D01*
X53370000Y-37300000D02*
X54600000Y-36070000D01*
X49925000Y-36100000D02*
X49925000Y-36963648D01*
D44*
%TO.N,GND*%
X43100000Y-44550000D02*
X43480000Y-44930000D01*
X43100000Y-43400000D02*
X43100000Y-44550000D01*
X40800000Y-43400000D02*
X43100000Y-43400000D01*
X16300000Y-61575000D02*
X16300000Y-62950000D01*
X18710000Y-61575000D02*
X16300000Y-61575000D01*
D45*
%TO.N,Net-(U15B--)*%
X37600000Y-37600000D02*
X37100000Y-38100000D01*
X37600000Y-36100000D02*
X37600000Y-37600000D01*
X37100000Y-38100000D02*
X34107002Y-38100000D01*
X48520306Y-38100000D02*
X37100000Y-38100000D01*
%TO.N,/OSC_OE*%
X14450000Y-68250000D02*
X14400000Y-68300000D01*
X16262500Y-68250000D02*
X14450000Y-68250000D01*
D46*
%TO.N,/DDS_FSYNC*%
X24600000Y-56752500D02*
X26552500Y-56752500D01*
X26552500Y-56752500D02*
X27400000Y-57600000D01*
X24600000Y-56752500D02*
X23847500Y-56752500D01*
X24947500Y-56752500D02*
X24600000Y-56752500D01*
%TO.N,/DDS_SCLK*%
X25452500Y-57252500D02*
X26600000Y-58400000D01*
X23847500Y-57252500D02*
X25452500Y-57252500D01*
%TO.N,/DDS_SDATA*%
X24552500Y-57752500D02*
X25900000Y-59100000D01*
X23847500Y-57752500D02*
X24552500Y-57752500D01*
%TO.N,/DAC_DIN*%
X67654999Y-50375000D02*
X66870000Y-50375000D01*
X67779999Y-50500000D02*
X67654999Y-50375000D01*
X73400000Y-50500000D02*
X67779999Y-50500000D01*
X73900000Y-51000000D02*
X73400000Y-50500000D01*
%TO.N,/DAC_SYNC*%
X71975000Y-51675000D02*
X72700000Y-52400000D01*
%TO.N,/RHEO_SDO*%
X43199999Y-58299999D02*
X43500000Y-58600000D01*
X40971700Y-58299999D02*
X43199999Y-58299999D01*
%TO.N,/RHEO_DIN*%
X43415054Y-57800000D02*
X43900000Y-57315054D01*
X43900000Y-57315054D02*
X43900000Y-56800000D01*
X40971700Y-57800000D02*
X43415054Y-57800000D01*
%TO.N,/RHEO_SCLK*%
X43273000Y-57300001D02*
X40971700Y-57300001D01*
X43273000Y-56273000D02*
X43273000Y-57300001D01*
X44581000Y-55600000D02*
X43946000Y-55600000D01*
%TO.N,/RHEO_SDO*%
X72360000Y-36000000D02*
X72360000Y-36026712D01*
%TO.N,/RHEO_DIN*%
X71200000Y-33786712D02*
X71200000Y-33700000D01*
X70262252Y-34327000D02*
X70659712Y-34327000D01*
X69100000Y-35489252D02*
X70262252Y-34327000D01*
X70659712Y-34327000D02*
X71200000Y-33786712D01*
X69100000Y-36428300D02*
X69100000Y-35489252D01*
D45*
X71500000Y-33400000D02*
X71200000Y-33700000D01*
X71500000Y-19030000D02*
X71500000Y-33400000D01*
X68970000Y-16500000D02*
X71500000Y-19030000D01*
D46*
%TO.N,/INAMP_SHDN*%
X57900000Y-17600000D02*
X57900000Y-31300000D01*
X60177000Y-15323000D02*
X57900000Y-17600000D01*
X72873000Y-15323000D02*
X60177000Y-15323000D01*
X74050000Y-16500000D02*
X72873000Y-15323000D01*
%TO.N,/RHEO_SDO*%
X69607901Y-37517300D02*
X69599999Y-37509398D01*
X70869412Y-37517300D02*
X69607901Y-37517300D01*
X72360000Y-36026712D02*
X70869412Y-37517300D01*
X69599999Y-37509398D02*
X69599999Y-36428300D01*
X72360000Y-17350000D02*
X72360000Y-36000000D01*
X71510000Y-16500000D02*
X72360000Y-17350000D01*
D45*
%TO.N,/SINE_MODE*%
X59100000Y-53600000D02*
X57600000Y-55100000D01*
X59300000Y-53600000D02*
X59100000Y-53600000D01*
X61350000Y-16500000D02*
X61350000Y-32750000D01*
%TO.N,Net-(D9-K)*%
X63600000Y-24100000D02*
X63600000Y-21350000D01*
%TO.N,/RHEO_SYNC_100*%
X68500000Y-33500000D02*
X68044401Y-33955599D01*
X68044401Y-33955599D02*
X68044401Y-36428300D01*
X67409500Y-32409500D02*
X68500000Y-33500000D01*
X67409500Y-23109500D02*
X67409500Y-32409500D01*
X63600000Y-19300000D02*
X67409500Y-23109500D01*
X63600000Y-16790000D02*
X63890000Y-16500000D01*
X63600000Y-19300000D02*
X63600000Y-16790000D01*
%TO.N,/PWR_EN*%
X98300000Y-21400000D02*
X96700000Y-19800000D01*
X95988000Y-46412000D02*
X102600000Y-39800000D01*
X95988000Y-62812000D02*
X95988000Y-46412000D01*
X102600000Y-35300000D02*
X98300000Y-31000000D01*
X95300000Y-63500000D02*
X95988000Y-62812000D01*
X98300000Y-31000000D02*
X98300000Y-21400000D01*
X102600000Y-39800000D02*
X102600000Y-35300000D01*
X89825000Y-63500000D02*
X95300000Y-63500000D01*
X88725000Y-62400000D02*
X89825000Y-63500000D01*
X96700000Y-16890000D02*
X97090000Y-16500000D01*
X96700000Y-19800000D02*
X96700000Y-16890000D01*
%TO.N,/RHEO_SYNC_20*%
X43200000Y-54600000D02*
X41500000Y-54600000D01*
X41500000Y-54600000D02*
X41400000Y-54700000D01*
X39800000Y-22375000D02*
X39800000Y-35900000D01*
X42500000Y-19675000D02*
X39800000Y-22375000D01*
X42500000Y-19020000D02*
X45020000Y-16500000D01*
X42500000Y-19675000D02*
X42500000Y-19020000D01*
%TO.N,/MUX_EN*%
X44000000Y-27400000D02*
X43100000Y-27400000D01*
X44400000Y-27000000D02*
X44000000Y-27400000D01*
X44400000Y-20950000D02*
X44400000Y-27000000D01*
X45800000Y-19550000D02*
X44400000Y-20950000D01*
%TO.N,GND*%
X46600000Y-46800000D02*
X45200000Y-46800000D01*
D48*
X53200000Y-46800000D02*
X46600000Y-46800000D01*
X54980000Y-31417500D02*
X54980000Y-30017500D01*
X54942500Y-31380000D02*
X54980000Y-31417500D01*
X48280000Y-31380000D02*
X54942500Y-31380000D01*
D45*
%TO.N,Net-(D5-K)*%
X45800000Y-24200000D02*
X45800000Y-21600000D01*
%TO.N,Net-(D6-K)*%
X49000000Y-24200000D02*
X49000000Y-21625000D01*
%TO.N,Net-(D7-K)*%
X52200000Y-24200000D02*
X52200000Y-21550000D01*
%TO.N,Net-(D8-K)*%
X55500000Y-24100000D02*
X55500000Y-21525000D01*
%TO.N,/MUX_EN*%
X45800000Y-18260000D02*
X47560000Y-16500000D01*
X45800000Y-19550000D02*
X45800000Y-18260000D01*
%TO.N,/MUX0*%
X49000000Y-17600000D02*
X50100000Y-16500000D01*
X49000000Y-19575000D02*
X49000000Y-17600000D01*
%TO.N,/MUX1*%
X52200000Y-16940000D02*
X52640000Y-16500000D01*
X52200000Y-19500000D02*
X52200000Y-16940000D01*
%TO.N,/MUX2*%
X55500000Y-16820000D02*
X55180000Y-16500000D01*
X55500000Y-19475000D02*
X55500000Y-16820000D01*
%TO.N,/MUX_EN*%
X43100000Y-41400000D02*
X43100000Y-39900000D01*
%TO.N,/MUX0*%
X40800000Y-41400000D02*
X40800000Y-39800000D01*
%TO.N,/DATA_IN*%
X48398648Y-38800000D02*
X35200000Y-38800000D01*
X35200000Y-38800000D02*
X33600000Y-40400000D01*
X50575000Y-40976352D02*
X48398648Y-38800000D01*
X50575000Y-41840000D02*
X50575000Y-40976352D01*
%TO.N,Net-(U15B--)*%
X34107002Y-38100000D02*
X32950002Y-39257000D01*
X52820306Y-42400000D02*
X48520306Y-38100000D01*
X32950002Y-39257000D02*
X32950002Y-40400000D01*
X57400000Y-42043766D02*
X57043766Y-42400000D01*
X57400000Y-41200000D02*
X57400000Y-42043766D01*
X57043766Y-42400000D02*
X52820306Y-42400000D01*
%TO.N,/MUX_EN*%
X46675000Y-40976352D02*
X46298648Y-40600000D01*
X46298648Y-40600000D02*
X43900000Y-40600000D01*
X46675000Y-41840000D02*
X46675000Y-40976352D01*
X43900000Y-40600000D02*
X43100000Y-41400000D01*
%TO.N,/MUX0*%
X41790500Y-42390500D02*
X40800000Y-41400000D01*
X45474500Y-42390500D02*
X41790500Y-42390500D01*
X46025000Y-41840000D02*
X45474500Y-42390500D01*
%TO.N,GND*%
X45500000Y-44187268D02*
X45500000Y-45700000D01*
X45500000Y-45700000D02*
X46600000Y-46800000D01*
X46400306Y-43800000D02*
X45887268Y-43800000D01*
X47325000Y-42875306D02*
X46400306Y-43800000D01*
X47325000Y-41840000D02*
X47325000Y-42875306D01*
X45887268Y-43800000D02*
X45500000Y-44187268D01*
%TO.N,/MUX1*%
X46025000Y-36100000D02*
X46025000Y-34725000D01*
%TO.N,/V_REF{slash}AIN3*%
X62959324Y-50059324D02*
X61993648Y-51025000D01*
%TO.N,/V_VG{slash}AIN1*%
X65200000Y-51000000D02*
X65200000Y-56100000D01*
D46*
%TO.N,/R_W100*%
X69100000Y-40771700D02*
X69100000Y-39800000D01*
D45*
%TO.N,/V_FS{slash}AIN4*%
X61030000Y-63200000D02*
X61130000Y-63100000D01*
X61130000Y-63100000D02*
X61130000Y-54200000D01*
X58700000Y-63200000D02*
X61030000Y-63200000D01*
X61130000Y-67330000D02*
X61130000Y-63100000D01*
%TO.N,/V_VG{slash}AIN1*%
X65400000Y-56300000D02*
X65200000Y-56100000D01*
X67300000Y-56300000D02*
X65400000Y-56300000D01*
X65200000Y-56100000D02*
X65200000Y-64200000D01*
%TO.N,/V_FS{slash}AIN4*%
X64080000Y-70700000D02*
X64080000Y-70280000D01*
X64080000Y-70280000D02*
X61130000Y-67330000D01*
%TO.N,/V_REF{slash}AIN3*%
X62305500Y-51336852D02*
X61993648Y-51025000D01*
X62305500Y-66385500D02*
X62305500Y-51336852D01*
X66620000Y-70700000D02*
X62305500Y-66385500D01*
%TO.N,/V_INN{slash}AIN2*%
X69160000Y-70700000D02*
X64000000Y-65540000D01*
X64000000Y-65540000D02*
X64000000Y-50500000D01*
%TO.N,/V_VG{slash}AIN1*%
X65200000Y-64200000D02*
X71700000Y-70700000D01*
%TO.N,/V_INN{slash}AIN2*%
X58000000Y-45000000D02*
X58000000Y-42403424D01*
X58000000Y-42403424D02*
X58050000Y-42353424D01*
X62300000Y-45000000D02*
X58000000Y-45000000D01*
X62400000Y-45100000D02*
X62300000Y-45000000D01*
X61993648Y-47775000D02*
X62400000Y-47368648D01*
X58050000Y-42353424D02*
X58050000Y-41200000D01*
X61130000Y-47775000D02*
X61993648Y-47775000D01*
X62400000Y-47368648D02*
X62400000Y-45100000D01*
X63875000Y-47775000D02*
X61130000Y-47775000D01*
X64000000Y-47900000D02*
X63875000Y-47775000D01*
%TO.N,/V_FS{slash}AIN4*%
X61130000Y-54200000D02*
X61130000Y-54591658D01*
X61130000Y-51675000D02*
X61130000Y-54200000D01*
%TO.N,/EXC{slash}AIN5*%
X59140000Y-68300000D02*
X61540000Y-70700000D01*
X46400000Y-68300000D02*
X59140000Y-68300000D01*
X44320000Y-66220000D02*
X46400000Y-68300000D01*
%TO.N,/V_REF{slash}AIN3*%
X61500000Y-38100000D02*
X63900000Y-35700000D01*
X61200000Y-38100000D02*
X61500000Y-38100000D01*
D44*
%TO.N,GND*%
X57600000Y-53100000D02*
X56300000Y-53100000D01*
X57737500Y-50500000D02*
X57800000Y-50437500D01*
X56100000Y-50500000D02*
X57737500Y-50500000D01*
D45*
X58512500Y-49725000D02*
X57800000Y-50437500D01*
X61130000Y-49725000D02*
X58512500Y-49725000D01*
X61130000Y-50375000D02*
X61130000Y-49725000D01*
%TO.N,Net-(U3-VREFH{slash}VREFOUT)*%
X57862500Y-48425000D02*
X57800000Y-48362500D01*
X61130000Y-48425000D02*
X57862500Y-48425000D01*
%TO.N,GND*%
X74064500Y-73275000D02*
X74230000Y-73275000D01*
D48*
%TO.N,/3V3*%
X69600000Y-49537500D02*
X70962500Y-49537500D01*
D44*
%TO.N,GND*%
X69600000Y-47462500D02*
X71262500Y-47462500D01*
X67207500Y-47462500D02*
X66870000Y-47125000D01*
X69600000Y-47462500D02*
X67207500Y-47462500D01*
D45*
X66870000Y-49075000D02*
X66870000Y-47125000D01*
%TO.N,/3V3*%
X65356352Y-49075000D02*
X66006352Y-49725000D01*
X61130000Y-49075000D02*
X65356352Y-49075000D01*
X66006352Y-49725000D02*
X66870000Y-49725000D01*
%TO.N,/V_REF{slash}AIN3*%
X61993648Y-51025000D02*
X61130000Y-51025000D01*
X61400000Y-38300000D02*
X61200000Y-38100000D01*
X62900000Y-38300000D02*
X61400000Y-38300000D01*
%TO.N,/V_FS{slash}AIN4*%
X51846444Y-56675000D02*
X50987500Y-56675000D01*
X53871444Y-58700000D02*
X51846444Y-56675000D01*
X57021658Y-58700000D02*
X53871444Y-58700000D01*
X61130000Y-54591658D02*
X57021658Y-58700000D01*
%TO.N,/V_VG{slash}AIN1*%
X55875000Y-47125000D02*
X49900000Y-53100000D01*
X61130000Y-47125000D02*
X55875000Y-47125000D01*
D44*
%TO.N,GND*%
X93325000Y-52447500D02*
X93437500Y-52335000D01*
X93325000Y-55462500D02*
X93325000Y-52447500D01*
D48*
X86125000Y-61625000D02*
X86200000Y-61700000D01*
X86125000Y-60137500D02*
X86125000Y-61625000D01*
D44*
X93425000Y-62437500D02*
X95062500Y-62437500D01*
X93387500Y-62400000D02*
X93425000Y-62437500D01*
X90725000Y-62400000D02*
X93387500Y-62400000D01*
X101175000Y-38500000D02*
X99300000Y-38500000D01*
X95475000Y-37300000D02*
X97300000Y-37300000D01*
X95450000Y-41200000D02*
X97200000Y-41200000D01*
D47*
%TO.N,/3V7*%
X84950000Y-46735000D02*
X84950000Y-37300000D01*
X86437500Y-48222500D02*
X84950000Y-46735000D01*
D45*
%TO.N,Net-(D11-K)*%
X89175000Y-37300000D02*
X87000000Y-37300000D01*
%TO.N,Net-(D12-K)*%
X91225000Y-37300000D02*
X93475000Y-37300000D01*
%TO.N,Net-(D3-K)*%
X91175000Y-41245000D02*
X93405000Y-41245000D01*
X93405000Y-41245000D02*
X93450000Y-41200000D01*
D44*
%TO.N,/3V3*%
X89070000Y-41300000D02*
X89125000Y-41245000D01*
X87550000Y-41300000D02*
X89070000Y-41300000D01*
%TO.N,GND*%
X93437500Y-45622500D02*
X91777500Y-45622500D01*
X93437500Y-52335000D02*
X91835000Y-52335000D01*
D48*
X86437500Y-50297500D02*
X86437500Y-51662500D01*
X87585000Y-49150000D02*
X88925000Y-49150000D01*
X86437500Y-50297500D02*
X87585000Y-49150000D01*
D45*
%TO.N,Net-(U13-BP)*%
X93277500Y-50100000D02*
X93437500Y-50260000D01*
X91200000Y-50100000D02*
X93277500Y-50100000D01*
%TO.N,/3V7*%
X89587499Y-48200000D02*
X88925000Y-48200000D01*
X89978000Y-48590501D02*
X89587499Y-48200000D01*
X89587499Y-50100000D02*
X89978000Y-49709499D01*
X88925000Y-50100000D02*
X89587499Y-50100000D01*
X89978000Y-49709499D02*
X89978000Y-48590501D01*
D47*
%TO.N,/3V3*%
X93325000Y-57537500D02*
X94962500Y-57537500D01*
X92712500Y-58150000D02*
X93325000Y-57537500D01*
X91062500Y-58150000D02*
X92712500Y-58150000D01*
D44*
%TO.N,/D3V3*%
X101175000Y-39960000D02*
X101175000Y-39500000D01*
X93437500Y-47697500D02*
X101175000Y-39960000D01*
X92935000Y-48200000D02*
X93437500Y-47697500D01*
X91200000Y-48200000D02*
X92935000Y-48200000D01*
%TO.N,/3V7*%
X86125000Y-58062500D02*
X88700000Y-58062500D01*
X88700000Y-58062500D02*
X88787500Y-58150000D01*
D47*
X87185000Y-48015000D02*
X88925000Y-48015000D01*
X86437500Y-48222500D02*
X86977500Y-48222500D01*
X86977500Y-48222500D02*
X87185000Y-48015000D01*
X85712500Y-48222500D02*
X86437500Y-48222500D01*
X84565000Y-49370000D02*
X85712500Y-48222500D01*
X84565000Y-59343650D02*
X84565000Y-49370000D01*
X85846150Y-58062500D02*
X86125000Y-58062500D01*
X84565000Y-59343650D02*
X85846150Y-58062500D01*
%TO.N,/3V7P*%
X94200000Y-69000000D02*
X94200000Y-68650000D01*
X94200000Y-68650000D02*
X102905000Y-59945000D01*
D48*
%TO.N,GND*%
X87162500Y-59100000D02*
X86125000Y-60137500D01*
X88787500Y-59100000D02*
X87162500Y-59100000D01*
D44*
%TO.N,/3V7*%
X86212500Y-58150000D02*
X86125000Y-58062500D01*
%TO.N,/PWR_EN*%
X88725000Y-60112500D02*
X88787500Y-60050000D01*
X88725000Y-62400000D02*
X88725000Y-60112500D01*
%TO.N,Net-(U12-BP)*%
X93112500Y-60050000D02*
X93425000Y-60362500D01*
X91062500Y-60050000D02*
X93112500Y-60050000D01*
D45*
%TO.N,/SINE_MODE*%
X57600000Y-57300000D02*
X57600000Y-55100000D01*
X57500000Y-57400000D02*
X57600000Y-57300000D01*
%TO.N,Net-(C1-Pad1)*%
X48990500Y-54190500D02*
X47900000Y-53100000D01*
X53378000Y-54190500D02*
X48990500Y-54190500D01*
X55212500Y-56025000D02*
X53378000Y-54190500D01*
D48*
%TO.N,GND*%
X70528301Y-36000000D02*
X70219099Y-36309202D01*
X71500000Y-36000000D02*
X70528301Y-36000000D01*
X70219099Y-36309202D02*
X70219099Y-36428300D01*
D44*
X64062500Y-43211299D02*
X64062500Y-41000000D01*
%TO.N,/3V3*%
X66137500Y-43211299D02*
X66137500Y-41000000D01*
X67625601Y-41000000D02*
X67853901Y-40771700D01*
X66137500Y-41000000D02*
X67625601Y-41000000D01*
D46*
%TO.N,Net-(U7-EXT_CAP)*%
X72437500Y-43109199D02*
X72437500Y-43400000D01*
X70100001Y-40771700D02*
X72437500Y-43109199D01*
%TO.N,GND*%
X69599999Y-40771700D02*
X69599999Y-42637499D01*
X69599999Y-42637499D02*
X70362500Y-43400000D01*
%TO.N,/R_A100*%
X61617300Y-39682700D02*
X61200000Y-40100000D01*
X68600001Y-39690602D02*
X68592099Y-39682700D01*
X68592099Y-39682700D02*
X61617300Y-39682700D01*
X68600001Y-40771700D02*
X68600001Y-39690602D01*
X61200000Y-42600000D02*
X61200000Y-40100000D01*
X61252000Y-42652000D02*
X61200000Y-42600000D01*
D45*
%TO.N,/INAMP_SHDN*%
X56750000Y-32450000D02*
X57900000Y-31300000D01*
X56750000Y-36900000D02*
X56750000Y-32450000D01*
%TO.N,/3V3*%
X57400000Y-35062500D02*
X57862500Y-34600000D01*
X57400000Y-36900000D02*
X57400000Y-35062500D01*
%TO.N,/V_REF{slash}AIN3*%
X59900000Y-38100000D02*
X58700000Y-36900000D01*
X61200000Y-38100000D02*
X59900000Y-38100000D01*
%TO.N,/100K*%
X47975000Y-43225000D02*
X46600000Y-44600000D01*
X47975000Y-41840000D02*
X47975000Y-43225000D01*
%TO.N,/1M*%
X48625000Y-44425000D02*
X48800000Y-44600000D01*
X48625000Y-41840000D02*
X48625000Y-44425000D01*
%TO.N,/10M*%
X49275000Y-42875000D02*
X51000000Y-44600000D01*
X49275000Y-41840000D02*
X49275000Y-42875000D01*
%TO.N,/100M*%
X52100000Y-43500000D02*
X53200000Y-44600000D01*
X49925000Y-42703648D02*
X50721352Y-43500000D01*
X49925000Y-41840000D02*
X49925000Y-42703648D01*
X50721352Y-43500000D02*
X52100000Y-43500000D01*
%TO.N,/3V3*%
X47975000Y-33512500D02*
X47900000Y-33437500D01*
X47975000Y-36100000D02*
X47975000Y-33512500D01*
%TO.N,/SINE_MODE*%
X56024999Y-57325000D02*
X56099999Y-57400000D01*
X56099999Y-57400000D02*
X57500000Y-57400000D01*
X55212500Y-57325000D02*
X56024999Y-57325000D01*
D44*
%TO.N,/3V3*%
X47000000Y-59237500D02*
X46962500Y-59237500D01*
D45*
%TO.N,GND*%
X55212500Y-56675000D02*
X56875000Y-56675000D01*
X48662500Y-57325000D02*
X48500000Y-57162500D01*
X50987500Y-57325000D02*
X48662500Y-57325000D01*
D44*
%TO.N,/3V3*%
X48500000Y-59237500D02*
X49856000Y-59237500D01*
X49856000Y-59237500D02*
X50987500Y-58106000D01*
X48500000Y-59237500D02*
X47000000Y-59237500D01*
%TO.N,GND*%
X48500000Y-57162500D02*
X47037500Y-57162500D01*
D45*
%TO.N,/EXC{slash}AIN5*%
X44320000Y-58480000D02*
X44320000Y-66220000D01*
X46775000Y-56025000D02*
X44320000Y-58480000D01*
X50987500Y-56025000D02*
X46775000Y-56025000D01*
%TO.N,Net-(C1-Pad1)*%
X47762500Y-53237500D02*
X47900000Y-53100000D01*
X45600000Y-53237500D02*
X47762500Y-53237500D01*
D46*
%TO.N,/R_W20*%
X39508000Y-49908000D02*
X37700000Y-48100000D01*
X39500000Y-55200000D02*
X39508000Y-55192000D01*
X37709401Y-57800000D02*
X39500000Y-56009401D01*
X39500000Y-56009401D02*
X39500000Y-55200000D01*
X36628300Y-57800000D02*
X37709401Y-57800000D01*
X39508000Y-55192000D02*
X39508000Y-49908000D01*
D45*
%TO.N,/DATA_IN*%
X33012602Y-42109000D02*
X33600000Y-41521602D01*
X33600000Y-41521602D02*
X33600000Y-40400000D01*
X27133934Y-41800000D02*
X27442934Y-42109000D01*
X27442934Y-42109000D02*
X33012602Y-42109000D01*
X23100000Y-41800000D02*
X27133934Y-41800000D01*
X21880000Y-40580000D02*
X23100000Y-41800000D01*
%TO.N,Net-(U15B--)*%
X32950002Y-40400000D02*
X32300000Y-40400000D01*
D44*
%TO.N,GND*%
X27762500Y-39700000D02*
X27762500Y-41337500D01*
X27762500Y-39700000D02*
X27762500Y-37400000D01*
%TO.N,/3V3*%
X29837500Y-37400000D02*
X31300000Y-37400000D01*
X29837500Y-39700000D02*
X29837500Y-37400000D01*
X30790400Y-39700000D02*
X31490400Y-40400000D01*
X29837500Y-39700000D02*
X30790400Y-39700000D01*
D45*
%TO.N,GND*%
X34287200Y-44487200D02*
X35100000Y-45300000D01*
X33600000Y-44487200D02*
X34287200Y-44487200D01*
%TO.N,Net-(U15A--)*%
X33600000Y-46800000D02*
X33600000Y-49000000D01*
X32300000Y-45500000D02*
X32300000Y-44487200D01*
X33600000Y-46800000D02*
X32300000Y-45500000D01*
%TO.N,Net-(C1-Pad2)*%
X31650002Y-46749998D02*
X31600000Y-46800000D01*
X31650002Y-44487200D02*
X31650002Y-46749998D01*
D44*
%TO.N,GND*%
X37700000Y-46100000D02*
X37700000Y-44800000D01*
%TO.N,/3V3*%
X41400000Y-52700000D02*
X41400000Y-51400000D01*
D45*
%TO.N,/RHEO_SYNC_20*%
X41400000Y-56316101D02*
X40971700Y-56744401D01*
X41400000Y-54700000D02*
X41400000Y-56316101D01*
%TO.N,/R_W20*%
X41200000Y-48100000D02*
X37700000Y-48100000D01*
D44*
%TO.N,/3V3*%
X35562500Y-51600000D02*
X35562500Y-49937500D01*
%TO.N,GND*%
X37637500Y-51600000D02*
X38800000Y-51600000D01*
X37637500Y-54610000D02*
X37637500Y-51600000D01*
%TO.N,/3V3*%
X35562500Y-54610000D02*
X35562500Y-55488101D01*
X35562500Y-55488101D02*
X36628300Y-56553901D01*
X35562500Y-51600000D02*
X35562500Y-54610000D01*
%TO.N,GND*%
X33637500Y-59000000D02*
X33700000Y-59062500D01*
X32100000Y-59000000D02*
X33637500Y-59000000D01*
D46*
%TO.N,Net-(U5-EXT_CAP)*%
X34290801Y-61137500D02*
X36628300Y-58800001D01*
X33700000Y-61137500D02*
X34290801Y-61137500D01*
%TO.N,GND*%
X39955700Y-58800001D02*
X39455698Y-58299999D01*
X39455698Y-58299999D02*
X36628300Y-58299999D01*
X40971700Y-58800001D02*
X39955700Y-58800001D01*
X34462501Y-58299999D02*
X33700000Y-59062500D01*
X36628300Y-58299999D02*
X34462501Y-58299999D01*
%TO.N,/R_A20*%
X35600001Y-57300001D02*
X32300000Y-54000000D01*
X36628300Y-57300001D02*
X35600001Y-57300001D01*
D45*
X25346500Y-53028500D02*
X31328500Y-53028500D01*
X31328500Y-53028500D02*
X32300000Y-54000000D01*
X25137500Y-53237500D02*
X25346500Y-53028500D01*
X24900000Y-53237500D02*
X25137500Y-53237500D01*
D44*
%TO.N,/3V3*%
X27600000Y-54400000D02*
X27000000Y-53800000D01*
X27600000Y-55400000D02*
X27600000Y-54400000D01*
%TO.N,GND*%
X24900000Y-51162500D02*
X24900000Y-49800000D01*
D46*
%TO.N,/DDS_FSYNC*%
X25600000Y-56100000D02*
X24947500Y-56752500D01*
X25600000Y-55400000D02*
X25600000Y-56100000D01*
D45*
%TO.N,/R_A20*%
X23847500Y-54290000D02*
X23847500Y-55735000D01*
X24900000Y-53237500D02*
X23847500Y-54290000D01*
D44*
%TO.N,GND*%
X16552500Y-53100000D02*
X16552500Y-51647500D01*
X16552500Y-53100000D02*
X16552500Y-55472500D01*
D45*
%TO.N,/COMP*%
X22637500Y-53100000D02*
X20952500Y-54785000D01*
X20952500Y-54785000D02*
X20952500Y-55735000D01*
D44*
%TO.N,/3V3*%
X20562500Y-51500000D02*
X20562500Y-51437500D01*
X20562500Y-53100000D02*
X20562500Y-51500000D01*
X18627500Y-53100000D02*
X20562500Y-53100000D01*
X18627500Y-53100000D02*
X18627500Y-55472500D01*
D46*
X19407500Y-56252500D02*
X20952500Y-56252500D01*
X18627500Y-55472500D02*
X19407500Y-56252500D01*
%TO.N,GND*%
X22426250Y-56726250D02*
X22400000Y-56752500D01*
X22900000Y-56252500D02*
X22426250Y-56726250D01*
X23847500Y-56252500D02*
X22900000Y-56252500D01*
X21900000Y-57252500D02*
X22400000Y-56752500D01*
X20952500Y-57252500D02*
X21900000Y-57252500D01*
%TO.N,/MCLK*%
X21887500Y-63000000D02*
X18537500Y-66350000D01*
X22500000Y-63000000D02*
X21887500Y-63000000D01*
X20952500Y-61452500D02*
X22500000Y-63000000D01*
X20952500Y-57752500D02*
X20952500Y-61452500D01*
D45*
%TO.N,Net-(U14-CAP{slash}2.5V)*%
X16300000Y-59500000D02*
X18710000Y-59500000D01*
D46*
X18710000Y-58514932D02*
X20472432Y-56752500D01*
X18710000Y-59500000D02*
X18710000Y-58514932D01*
X20472432Y-56752500D02*
X20952500Y-56752500D01*
D44*
%TO.N,GND*%
X16262500Y-66350000D02*
X14450000Y-66350000D01*
D45*
%TO.N,/OSC_OE*%
X16300000Y-68287500D02*
X16262500Y-68250000D01*
X16300000Y-70200000D02*
X16300000Y-68287500D01*
D44*
%TO.N,/3V3*%
X16300000Y-72200000D02*
X16300000Y-73900000D01*
X20700000Y-68462500D02*
X20700000Y-66900000D01*
X20487500Y-68250000D02*
X20700000Y-68462500D01*
X18537500Y-68250000D02*
X20487500Y-68250000D01*
D45*
%TO.N,/RHEO_SCLK*%
X66430000Y-16500000D02*
X70400000Y-20470000D01*
X70400000Y-20470000D02*
X70400000Y-33700000D01*
D46*
X68600001Y-36428300D02*
X68600001Y-35347199D01*
X68600001Y-35347199D02*
X70247200Y-33700000D01*
X70247200Y-33700000D02*
X70400000Y-33700000D01*
%TO.N,/DAC_SCLK*%
X66870000Y-51025000D02*
X72625000Y-51025000D01*
X72625000Y-51025000D02*
X73300000Y-51700000D01*
%TO.N,/RHEO_SCLK*%
X43946000Y-55600000D02*
X43273000Y-56273000D01*
D47*
%TO.N,/3V7*%
X84565000Y-62210082D02*
X84565000Y-59343650D01*
X93039918Y-70685000D02*
X84565000Y-62210082D01*
X96515000Y-70685000D02*
X93039918Y-70685000D01*
X98200000Y-69000000D02*
X96515000Y-70685000D01*
%TD*%
M02*
