%TF.GenerationSoftware,KiCad,Pcbnew,8.0.8*%
%TF.CreationDate,2025-07-15T12:33:29-07:00*%
%TF.ProjectId,complete_SR1,636f6d70-6c65-4746-955f-5352312e6b69,rev?*%
%TF.SameCoordinates,Original*%
%TF.FileFunction,Other,User*%
%FSLAX46Y46*%
G04 Gerber Fmt 4.6, Leading zero omitted, Abs format (unit mm)*
G04 Created by KiCad (PCBNEW 8.0.8) date 2025-07-15 12:33:29*
%MOMM*%
%LPD*%
G01*
G04 APERTURE LIST*
%ADD10C,0.050000*%
%ADD11C,0.030000*%
%ADD12C,0.152400*%
G04 APERTURE END LIST*
D10*
%TO.C,TP3*%
X52300000Y-52100000D02*
X52300000Y-55100000D01*
X52300000Y-52100000D02*
X55300000Y-52100000D01*
X55300000Y-55100000D02*
X52300000Y-55100000D01*
X55300000Y-55100000D02*
X55300000Y-52100000D01*
%TO.C,TP5*%
X30800000Y-52500000D02*
X30800000Y-55500000D01*
X30800000Y-52500000D02*
X33800000Y-52500000D01*
X33800000Y-55500000D02*
X30800000Y-55500000D01*
X33800000Y-55500000D02*
X33800000Y-52500000D01*
%TO.C,TP11*%
X76570000Y-44760000D02*
X76570000Y-47760000D01*
X76570000Y-44760000D02*
X79570000Y-44760000D01*
X79570000Y-47760000D02*
X76570000Y-47760000D01*
X79570000Y-47760000D02*
X79570000Y-44760000D01*
D11*
%TO.C,REF\u002A\u002A554*%
X22180816Y-15520000D02*
G75*
G02*
X20219184Y-15520000I-980816J0D01*
G01*
X20219184Y-15520000D02*
G75*
G02*
X22180816Y-15520000I980816J0D01*
G01*
X22180816Y-18060000D02*
G75*
G02*
X20219184Y-18060000I-980816J0D01*
G01*
X20219184Y-18060000D02*
G75*
G02*
X22180816Y-18060000I980816J0D01*
G01*
X22180816Y-23140000D02*
G75*
G02*
X20219184Y-23140000I-980816J0D01*
G01*
X20219184Y-23140000D02*
G75*
G02*
X22180816Y-23140000I980816J0D01*
G01*
X22180816Y-20600000D02*
G75*
G02*
X20219184Y-20600000I-980816J0D01*
G01*
X20219184Y-20600000D02*
G75*
G02*
X22180816Y-20600000I980816J0D01*
G01*
X19640816Y-15520000D02*
G75*
G02*
X17679184Y-15520000I-980816J0D01*
G01*
X17679184Y-15520000D02*
G75*
G02*
X19640816Y-15520000I980816J0D01*
G01*
X19640816Y-18060000D02*
G75*
G02*
X17679184Y-18060000I-980816J0D01*
G01*
X17679184Y-18060000D02*
G75*
G02*
X19640816Y-18060000I980816J0D01*
G01*
X19640816Y-23140000D02*
G75*
G02*
X17679184Y-23140000I-980816J0D01*
G01*
X17679184Y-23140000D02*
G75*
G02*
X19640816Y-23140000I980816J0D01*
G01*
X19640816Y-20600000D02*
G75*
G02*
X17679184Y-20600000I-980816J0D01*
G01*
X17679184Y-20600000D02*
G75*
G02*
X19640816Y-20600000I980816J0D01*
G01*
X17100816Y-23140000D02*
G75*
G02*
X15139184Y-23140000I-980816J0D01*
G01*
X15139184Y-23140000D02*
G75*
G02*
X17100816Y-23140000I980816J0D01*
G01*
X17100816Y-25680000D02*
G75*
G02*
X15139184Y-25680000I-980816J0D01*
G01*
X15139184Y-25680000D02*
G75*
G02*
X17100816Y-25680000I980816J0D01*
G01*
X17100816Y-15520000D02*
G75*
G02*
X15139184Y-15520000I-980816J0D01*
G01*
X15139184Y-15520000D02*
G75*
G02*
X17100816Y-15520000I980816J0D01*
G01*
X17100816Y-30760000D02*
G75*
G02*
X15139184Y-30760000I-980816J0D01*
G01*
X15139184Y-30760000D02*
G75*
G02*
X17100816Y-30760000I980816J0D01*
G01*
X17100816Y-28220000D02*
G75*
G02*
X15139184Y-28220000I-980816J0D01*
G01*
X15139184Y-28220000D02*
G75*
G02*
X17100816Y-28220000I980816J0D01*
G01*
X17100816Y-20600000D02*
G75*
G02*
X15139184Y-20600000I-980816J0D01*
G01*
X15139184Y-20600000D02*
G75*
G02*
X17100816Y-20600000I980816J0D01*
G01*
X17100816Y-18060000D02*
G75*
G02*
X15139184Y-18060000I-980816J0D01*
G01*
X15139184Y-18060000D02*
G75*
G02*
X17100816Y-18060000I980816J0D01*
G01*
X27250816Y-30750000D02*
G75*
G02*
X25289184Y-30750000I-980816J0D01*
G01*
X25289184Y-30750000D02*
G75*
G02*
X27250816Y-30750000I980816J0D01*
G01*
X24710816Y-30750000D02*
G75*
G02*
X22749184Y-30750000I-980816J0D01*
G01*
X22749184Y-30750000D02*
G75*
G02*
X24710816Y-30750000I980816J0D01*
G01*
X34870816Y-30750000D02*
G75*
G02*
X32909184Y-30750000I-980816J0D01*
G01*
X32909184Y-30750000D02*
G75*
G02*
X34870816Y-30750000I980816J0D01*
G01*
X19630816Y-30750000D02*
G75*
G02*
X17669184Y-30750000I-980816J0D01*
G01*
X17669184Y-30750000D02*
G75*
G02*
X19630816Y-30750000I980816J0D01*
G01*
X22170816Y-30750000D02*
G75*
G02*
X20209184Y-30750000I-980816J0D01*
G01*
X20209184Y-30750000D02*
G75*
G02*
X22170816Y-30750000I980816J0D01*
G01*
X29790816Y-30750000D02*
G75*
G02*
X27829184Y-30750000I-980816J0D01*
G01*
X27829184Y-30750000D02*
G75*
G02*
X29790816Y-30750000I980816J0D01*
G01*
X32330816Y-30750000D02*
G75*
G02*
X30369184Y-30750000I-980816J0D01*
G01*
X30369184Y-30750000D02*
G75*
G02*
X32330816Y-30750000I980816J0D01*
G01*
X22170816Y-28210000D02*
G75*
G02*
X20209184Y-28210000I-980816J0D01*
G01*
X20209184Y-28210000D02*
G75*
G02*
X22170816Y-28210000I980816J0D01*
G01*
X27250816Y-28210000D02*
G75*
G02*
X25289184Y-28210000I-980816J0D01*
G01*
X25289184Y-28210000D02*
G75*
G02*
X27250816Y-28210000I980816J0D01*
G01*
X24710816Y-28210000D02*
G75*
G02*
X22749184Y-28210000I-980816J0D01*
G01*
X22749184Y-28210000D02*
G75*
G02*
X24710816Y-28210000I980816J0D01*
G01*
X29790816Y-28210000D02*
G75*
G02*
X27829184Y-28210000I-980816J0D01*
G01*
X27829184Y-28210000D02*
G75*
G02*
X29790816Y-28210000I980816J0D01*
G01*
X34870816Y-28210000D02*
G75*
G02*
X32909184Y-28210000I-980816J0D01*
G01*
X32909184Y-28210000D02*
G75*
G02*
X34870816Y-28210000I980816J0D01*
G01*
X19630816Y-28210000D02*
G75*
G02*
X17669184Y-28210000I-980816J0D01*
G01*
X17669184Y-28210000D02*
G75*
G02*
X19630816Y-28210000I980816J0D01*
G01*
X32330816Y-28210000D02*
G75*
G02*
X30369184Y-28210000I-980816J0D01*
G01*
X30369184Y-28210000D02*
G75*
G02*
X32330816Y-28210000I980816J0D01*
G01*
X22170816Y-25670000D02*
G75*
G02*
X20209184Y-25670000I-980816J0D01*
G01*
X20209184Y-25670000D02*
G75*
G02*
X22170816Y-25670000I980816J0D01*
G01*
X32330816Y-25670000D02*
G75*
G02*
X30369184Y-25670000I-980816J0D01*
G01*
X30369184Y-25670000D02*
G75*
G02*
X32330816Y-25670000I980816J0D01*
G01*
X27250816Y-25670000D02*
G75*
G02*
X25289184Y-25670000I-980816J0D01*
G01*
X25289184Y-25670000D02*
G75*
G02*
X27250816Y-25670000I980816J0D01*
G01*
X19630816Y-25670000D02*
G75*
G02*
X17669184Y-25670000I-980816J0D01*
G01*
X17669184Y-25670000D02*
G75*
G02*
X19630816Y-25670000I980816J0D01*
G01*
X24710816Y-25670000D02*
G75*
G02*
X22749184Y-25670000I-980816J0D01*
G01*
X22749184Y-25670000D02*
G75*
G02*
X24710816Y-25670000I980816J0D01*
G01*
X29790816Y-25670000D02*
G75*
G02*
X27829184Y-25670000I-980816J0D01*
G01*
X27829184Y-25670000D02*
G75*
G02*
X29790816Y-25670000I980816J0D01*
G01*
X34870816Y-25670000D02*
G75*
G02*
X32909184Y-25670000I-980816J0D01*
G01*
X32909184Y-25670000D02*
G75*
G02*
X34870816Y-25670000I980816J0D01*
G01*
X80720816Y-33940000D02*
G75*
G02*
X78759184Y-33940000I-980816J0D01*
G01*
X78759184Y-33940000D02*
G75*
G02*
X80720816Y-33940000I980816J0D01*
G01*
X90880816Y-33940000D02*
G75*
G02*
X88919184Y-33940000I-980816J0D01*
G01*
X88919184Y-33940000D02*
G75*
G02*
X90880816Y-33940000I980816J0D01*
G01*
X85800816Y-33940000D02*
G75*
G02*
X83839184Y-33940000I-980816J0D01*
G01*
X83839184Y-33940000D02*
G75*
G02*
X85800816Y-33940000I980816J0D01*
G01*
X78180816Y-33940000D02*
G75*
G02*
X76219184Y-33940000I-980816J0D01*
G01*
X76219184Y-33940000D02*
G75*
G02*
X78180816Y-33940000I980816J0D01*
G01*
X83260816Y-33940000D02*
G75*
G02*
X81299184Y-33940000I-980816J0D01*
G01*
X81299184Y-33940000D02*
G75*
G02*
X83260816Y-33940000I980816J0D01*
G01*
X88340816Y-33940000D02*
G75*
G02*
X86379184Y-33940000I-980816J0D01*
G01*
X86379184Y-33940000D02*
G75*
G02*
X88340816Y-33940000I980816J0D01*
G01*
X93420816Y-33940000D02*
G75*
G02*
X91459184Y-33940000I-980816J0D01*
G01*
X91459184Y-33940000D02*
G75*
G02*
X93420816Y-33940000I980816J0D01*
G01*
X85800816Y-31400000D02*
G75*
G02*
X83839184Y-31400000I-980816J0D01*
G01*
X83839184Y-31400000D02*
G75*
G02*
X85800816Y-31400000I980816J0D01*
G01*
X80720816Y-31400000D02*
G75*
G02*
X78759184Y-31400000I-980816J0D01*
G01*
X78759184Y-31400000D02*
G75*
G02*
X80720816Y-31400000I980816J0D01*
G01*
X88340816Y-31400000D02*
G75*
G02*
X86379184Y-31400000I-980816J0D01*
G01*
X86379184Y-31400000D02*
G75*
G02*
X88340816Y-31400000I980816J0D01*
G01*
X90880816Y-31400000D02*
G75*
G02*
X88919184Y-31400000I-980816J0D01*
G01*
X88919184Y-31400000D02*
G75*
G02*
X90880816Y-31400000I980816J0D01*
G01*
X83260816Y-31400000D02*
G75*
G02*
X81299184Y-31400000I-980816J0D01*
G01*
X81299184Y-31400000D02*
G75*
G02*
X83260816Y-31400000I980816J0D01*
G01*
X78180816Y-31400000D02*
G75*
G02*
X76219184Y-31400000I-980816J0D01*
G01*
X76219184Y-31400000D02*
G75*
G02*
X78180816Y-31400000I980816J0D01*
G01*
X93420816Y-31400000D02*
G75*
G02*
X91459184Y-31400000I-980816J0D01*
G01*
X91459184Y-31400000D02*
G75*
G02*
X93420816Y-31400000I980816J0D01*
G01*
X85800816Y-28860000D02*
G75*
G02*
X83839184Y-28860000I-980816J0D01*
G01*
X83839184Y-28860000D02*
G75*
G02*
X85800816Y-28860000I980816J0D01*
G01*
X90880816Y-28860000D02*
G75*
G02*
X88919184Y-28860000I-980816J0D01*
G01*
X88919184Y-28860000D02*
G75*
G02*
X90880816Y-28860000I980816J0D01*
G01*
X80720816Y-28860000D02*
G75*
G02*
X78759184Y-28860000I-980816J0D01*
G01*
X78759184Y-28860000D02*
G75*
G02*
X80720816Y-28860000I980816J0D01*
G01*
X78180816Y-28860000D02*
G75*
G02*
X76219184Y-28860000I-980816J0D01*
G01*
X76219184Y-28860000D02*
G75*
G02*
X78180816Y-28860000I980816J0D01*
G01*
X93420816Y-28860000D02*
G75*
G02*
X91459184Y-28860000I-980816J0D01*
G01*
X91459184Y-28860000D02*
G75*
G02*
X93420816Y-28860000I980816J0D01*
G01*
X88340816Y-28860000D02*
G75*
G02*
X86379184Y-28860000I-980816J0D01*
G01*
X86379184Y-28860000D02*
G75*
G02*
X88340816Y-28860000I980816J0D01*
G01*
X83260816Y-28860000D02*
G75*
G02*
X81299184Y-28860000I-980816J0D01*
G01*
X81299184Y-28860000D02*
G75*
G02*
X83260816Y-28860000I980816J0D01*
G01*
X90880816Y-26320000D02*
G75*
G02*
X88919184Y-26320000I-980816J0D01*
G01*
X88919184Y-26320000D02*
G75*
G02*
X90880816Y-26320000I980816J0D01*
G01*
X80720816Y-26320000D02*
G75*
G02*
X78759184Y-26320000I-980816J0D01*
G01*
X78759184Y-26320000D02*
G75*
G02*
X80720816Y-26320000I980816J0D01*
G01*
X85800816Y-26320000D02*
G75*
G02*
X83839184Y-26320000I-980816J0D01*
G01*
X83839184Y-26320000D02*
G75*
G02*
X85800816Y-26320000I980816J0D01*
G01*
X93420816Y-26320000D02*
G75*
G02*
X91459184Y-26320000I-980816J0D01*
G01*
X91459184Y-26320000D02*
G75*
G02*
X93420816Y-26320000I980816J0D01*
G01*
X88340816Y-26320000D02*
G75*
G02*
X86379184Y-26320000I-980816J0D01*
G01*
X86379184Y-26320000D02*
G75*
G02*
X88340816Y-26320000I980816J0D01*
G01*
X83260816Y-26320000D02*
G75*
G02*
X81299184Y-26320000I-980816J0D01*
G01*
X81299184Y-26320000D02*
G75*
G02*
X83260816Y-26320000I980816J0D01*
G01*
X78180816Y-26320000D02*
G75*
G02*
X76219184Y-26320000I-980816J0D01*
G01*
X76219184Y-26320000D02*
G75*
G02*
X78180816Y-26320000I980816J0D01*
G01*
X93420816Y-23780000D02*
G75*
G02*
X91459184Y-23780000I-980816J0D01*
G01*
X91459184Y-23780000D02*
G75*
G02*
X93420816Y-23780000I980816J0D01*
G01*
X90880816Y-23780000D02*
G75*
G02*
X88919184Y-23780000I-980816J0D01*
G01*
X88919184Y-23780000D02*
G75*
G02*
X90880816Y-23780000I980816J0D01*
G01*
X80720816Y-23780000D02*
G75*
G02*
X78759184Y-23780000I-980816J0D01*
G01*
X78759184Y-23780000D02*
G75*
G02*
X80720816Y-23780000I980816J0D01*
G01*
X85800816Y-23780000D02*
G75*
G02*
X83839184Y-23780000I-980816J0D01*
G01*
X83839184Y-23780000D02*
G75*
G02*
X85800816Y-23780000I980816J0D01*
G01*
X88340816Y-23780000D02*
G75*
G02*
X86379184Y-23780000I-980816J0D01*
G01*
X86379184Y-23780000D02*
G75*
G02*
X88340816Y-23780000I980816J0D01*
G01*
X83260816Y-23780000D02*
G75*
G02*
X81299184Y-23780000I-980816J0D01*
G01*
X81299184Y-23780000D02*
G75*
G02*
X83260816Y-23780000I980816J0D01*
G01*
X78180816Y-23780000D02*
G75*
G02*
X76219184Y-23780000I-980816J0D01*
G01*
X76219184Y-23780000D02*
G75*
G02*
X78180816Y-23780000I980816J0D01*
G01*
X93420816Y-21240000D02*
G75*
G02*
X91459184Y-21240000I-980816J0D01*
G01*
X91459184Y-21240000D02*
G75*
G02*
X93420816Y-21240000I980816J0D01*
G01*
X90880816Y-21240000D02*
G75*
G02*
X88919184Y-21240000I-980816J0D01*
G01*
X88919184Y-21240000D02*
G75*
G02*
X90880816Y-21240000I980816J0D01*
G01*
X88340816Y-21240000D02*
G75*
G02*
X86379184Y-21240000I-980816J0D01*
G01*
X86379184Y-21240000D02*
G75*
G02*
X88340816Y-21240000I980816J0D01*
G01*
X85800816Y-21240000D02*
G75*
G02*
X83839184Y-21240000I-980816J0D01*
G01*
X83839184Y-21240000D02*
G75*
G02*
X85800816Y-21240000I980816J0D01*
G01*
X83260816Y-21240000D02*
G75*
G02*
X81299184Y-21240000I-980816J0D01*
G01*
X81299184Y-21240000D02*
G75*
G02*
X83260816Y-21240000I980816J0D01*
G01*
X80720816Y-21240000D02*
G75*
G02*
X78759184Y-21240000I-980816J0D01*
G01*
X78759184Y-21240000D02*
G75*
G02*
X80720816Y-21240000I980816J0D01*
G01*
X78180816Y-21240000D02*
G75*
G02*
X76219184Y-21240000I-980816J0D01*
G01*
X76219184Y-21240000D02*
G75*
G02*
X78180816Y-21240000I980816J0D01*
G01*
D10*
%TO.C,U11*%
X45550000Y-42820000D02*
X51050000Y-42820000D01*
X51050000Y-42820000D02*
X51050000Y-35120000D01*
X45550000Y-35120000D02*
X45550000Y-42820000D01*
X51050000Y-35120000D02*
X45550000Y-35120000D01*
%TO.C,U8*%
X55975000Y-42230000D02*
X59475000Y-42230000D01*
X59475000Y-42230000D02*
X59475000Y-35870000D01*
X55975000Y-35870000D02*
X55975000Y-42230000D01*
X59475000Y-35870000D02*
X55975000Y-35870000D01*
%TO.C,U3*%
X60150000Y-46650000D02*
X60150000Y-52150000D01*
X60150000Y-52150000D02*
X67850000Y-52150000D01*
X67850000Y-46650000D02*
X60150000Y-46650000D01*
X67850000Y-52150000D02*
X67850000Y-46650000D01*
%TO.C,R10*%
X75110000Y-38470000D02*
X78810000Y-38470000D01*
X75110000Y-40370000D02*
X75110000Y-38470000D01*
X78810000Y-38470000D02*
X78810000Y-40370000D01*
X78810000Y-40370000D02*
X75110000Y-40370000D01*
%TO.C,C3*%
X78770000Y-42820000D02*
X75010000Y-42820000D01*
X78770000Y-40860000D02*
X78770000Y-42820000D01*
X75010000Y-42820000D02*
X75010000Y-40860000D01*
X75010000Y-40860000D02*
X78770000Y-40860000D01*
%TO.C,J10*%
X100050000Y-41900000D02*
X106350000Y-41900000D01*
X106350000Y-41900000D02*
X106350000Y-36100000D01*
X100050000Y-36100000D02*
X100050000Y-41900000D01*
X106350000Y-36100000D02*
X100050000Y-36100000D01*
D12*
%TO.C,J3*%
X100170000Y-43720200D02*
X100170000Y-48470000D01*
X106189800Y-43720200D02*
X100170000Y-43720200D01*
X106189800Y-48470000D02*
X106189800Y-43720200D01*
X100170000Y-48470000D02*
X106189800Y-48470000D01*
D10*
%TO.C,H4*%
X81090000Y-62800000D02*
G75*
G02*
X74990000Y-62800000I-3050000J0D01*
G01*
X74990000Y-62800000D02*
G75*
G02*
X81090000Y-62800000I3050000J0D01*
G01*
%TO.C,H3*%
X105220000Y-19620000D02*
G75*
G02*
X99120000Y-19620000I-3050000J0D01*
G01*
X99120000Y-19620000D02*
G75*
G02*
X105220000Y-19620000I3050000J0D01*
G01*
%TO.C,H2*%
X30290000Y-19620000D02*
G75*
G02*
X24190000Y-19620000I-3050000J0D01*
G01*
X24190000Y-19620000D02*
G75*
G02*
X30290000Y-19620000I3050000J0D01*
G01*
%TO.C,H1*%
X30290000Y-67880000D02*
G75*
G02*
X24190000Y-67880000I-3050000J0D01*
G01*
X24190000Y-67880000D02*
G75*
G02*
X30290000Y-67880000I3050000J0D01*
G01*
%TO.C,SW1*%
X90950000Y-66000000D02*
X105450000Y-66000000D01*
X90950000Y-74500000D02*
X90950000Y-66000000D01*
X93450000Y-74500000D02*
X90950000Y-74500000D01*
X93450000Y-82750000D02*
X93450000Y-74500000D01*
X102950000Y-74500000D02*
X102950000Y-82750000D01*
X102950000Y-82750000D02*
X93450000Y-82750000D01*
X105450000Y-66000000D02*
X105450000Y-74500000D01*
X105450000Y-74500000D02*
X102950000Y-74500000D01*
%TO.C,J8*%
X77510000Y-18300000D02*
X98860000Y-18300000D01*
X98860000Y-18300000D02*
X98860000Y-12150000D01*
X77510000Y-12150000D02*
X77510000Y-18300000D01*
X98860000Y-12150000D02*
X77510000Y-12150000D01*
%TO.C,J2*%
X97195000Y-62985000D02*
X108005000Y-62985000D01*
X108005000Y-62985000D02*
X108005000Y-51815000D01*
X97195000Y-51815000D02*
X97195000Y-62985000D01*
X108005000Y-51815000D02*
X97195000Y-51815000D01*
%TO.C,XC32*%
X49480000Y-56320000D02*
X49480000Y-60080000D01*
X47520000Y-56320000D02*
X49480000Y-56320000D01*
X49480000Y-60080000D02*
X47520000Y-60080000D01*
X47520000Y-60080000D02*
X47520000Y-56320000D01*
%TO.C,XC31*%
X30680000Y-38380000D02*
X26920000Y-38380000D01*
X30680000Y-36420000D02*
X30680000Y-38380000D01*
X26920000Y-38380000D02*
X26920000Y-36420000D01*
X26920000Y-36420000D02*
X30680000Y-36420000D01*
%TO.C,XC30*%
X30680000Y-40680000D02*
X26920000Y-40680000D01*
X30680000Y-38720000D02*
X30680000Y-40680000D01*
X26920000Y-40680000D02*
X26920000Y-38720000D01*
X26920000Y-38720000D02*
X30680000Y-38720000D01*
%TO.C,XC29*%
X34720000Y-53630000D02*
X38480000Y-53630000D01*
X34720000Y-55590000D02*
X34720000Y-53630000D01*
X38480000Y-53630000D02*
X38480000Y-55590000D01*
X38480000Y-55590000D02*
X34720000Y-55590000D01*
%TO.C,XC28*%
X38480000Y-52580000D02*
X34720000Y-52580000D01*
X38480000Y-50620000D02*
X38480000Y-52580000D01*
X34720000Y-52580000D02*
X34720000Y-50620000D01*
X34720000Y-50620000D02*
X38480000Y-50620000D01*
%TO.C,XC27*%
X32720000Y-61980000D02*
X32720000Y-58220000D01*
X34680000Y-61980000D02*
X32720000Y-61980000D01*
X32720000Y-58220000D02*
X34680000Y-58220000D01*
X34680000Y-58220000D02*
X34680000Y-61980000D01*
%TO.C,XC26*%
X23920000Y-54080000D02*
X23920000Y-50320000D01*
X25880000Y-54080000D02*
X23920000Y-54080000D01*
X23920000Y-50320000D02*
X25880000Y-50320000D01*
X25880000Y-50320000D02*
X25880000Y-54080000D01*
%TO.C,XC25*%
X19470000Y-54080000D02*
X15710000Y-54080000D01*
X19470000Y-52120000D02*
X19470000Y-54080000D01*
X15710000Y-54080000D02*
X15710000Y-52120000D01*
X15710000Y-52120000D02*
X19470000Y-52120000D01*
%TO.C,XC24*%
X19470000Y-56452500D02*
X15710000Y-56452500D01*
X19470000Y-54492500D02*
X19470000Y-56452500D01*
X15710000Y-56452500D02*
X15710000Y-54492500D01*
X15710000Y-54492500D02*
X19470000Y-54492500D01*
%TO.C,XC23*%
X17280000Y-58657500D02*
X17280000Y-62417500D01*
X15320000Y-58657500D02*
X17280000Y-58657500D01*
X17280000Y-62417500D02*
X15320000Y-62417500D01*
X15320000Y-62417500D02*
X15320000Y-58657500D01*
%TO.C,XC22*%
X17730000Y-62417500D02*
X17730000Y-58657500D01*
X19690000Y-62417500D02*
X17730000Y-62417500D01*
X17730000Y-58657500D02*
X19690000Y-58657500D01*
X19690000Y-58657500D02*
X19690000Y-62417500D01*
%TO.C,XC21*%
X21680000Y-67620000D02*
X21680000Y-71380000D01*
X19720000Y-67620000D02*
X21680000Y-67620000D01*
X21680000Y-71380000D02*
X19720000Y-71380000D01*
X19720000Y-71380000D02*
X19720000Y-67620000D01*
%TO.C,XC14*%
X56820000Y-51280000D02*
X56820000Y-47520000D01*
X58780000Y-51280000D02*
X56820000Y-51280000D01*
X56820000Y-47520000D02*
X58780000Y-47520000D01*
X58780000Y-47520000D02*
X58780000Y-51280000D01*
%TO.C,XC12*%
X68620000Y-50380000D02*
X68620000Y-46620000D01*
X70580000Y-50380000D02*
X68620000Y-50380000D01*
X68620000Y-46620000D02*
X70580000Y-46620000D01*
X70580000Y-46620000D02*
X70580000Y-50380000D01*
%TO.C,XC11*%
X73280000Y-44380000D02*
X69520000Y-44380000D01*
X73280000Y-42420000D02*
X73280000Y-44380000D01*
X69520000Y-44380000D02*
X69520000Y-42420000D01*
X69520000Y-42420000D02*
X73280000Y-42420000D01*
%TO.C,XC10*%
X66980000Y-41980000D02*
X63220000Y-41980000D01*
X66980000Y-40020000D02*
X66980000Y-41980000D01*
X63220000Y-41980000D02*
X63220000Y-40020000D01*
X63220000Y-40020000D02*
X66980000Y-40020000D01*
%TO.C,XC9*%
X66980000Y-44191299D02*
X63220000Y-44191299D01*
X66980000Y-42231299D02*
X66980000Y-44191299D01*
X63220000Y-44191299D02*
X63220000Y-42231299D01*
X63220000Y-42231299D02*
X66980000Y-42231299D01*
%TO.C,XC8*%
X57020000Y-33620000D02*
X60780000Y-33620000D01*
X57020000Y-35580000D02*
X57020000Y-33620000D01*
X60780000Y-33620000D02*
X60780000Y-35580000D01*
X60780000Y-35580000D02*
X57020000Y-35580000D01*
%TO.C,XC7*%
X47160000Y-34050000D02*
X47160000Y-30290000D01*
X49120000Y-34050000D02*
X47160000Y-34050000D01*
X47160000Y-30290000D02*
X49120000Y-30290000D01*
X49120000Y-30290000D02*
X49120000Y-34050000D01*
%TO.C,XC6*%
X94417500Y-44780000D02*
X94417500Y-48540000D01*
X92457500Y-44780000D02*
X94417500Y-44780000D01*
X94417500Y-48540000D02*
X92457500Y-48540000D01*
X92457500Y-48540000D02*
X92457500Y-44780000D01*
%TO.C,XC5*%
X92457500Y-53177500D02*
X92457500Y-49417500D01*
X94417500Y-53177500D02*
X92457500Y-53177500D01*
X92457500Y-49417500D02*
X94417500Y-49417500D01*
X94417500Y-49417500D02*
X94417500Y-53177500D01*
%TO.C,XC4*%
X85457500Y-51140000D02*
X85457500Y-47380000D01*
X87417500Y-51140000D02*
X85457500Y-51140000D01*
X85457500Y-47380000D02*
X87417500Y-47380000D01*
X87417500Y-47380000D02*
X87417500Y-51140000D01*
%TO.C,XC3*%
X94305000Y-54620000D02*
X94305000Y-58380000D01*
X92345000Y-54620000D02*
X94305000Y-54620000D01*
X94305000Y-58380000D02*
X92345000Y-58380000D01*
X92345000Y-58380000D02*
X92345000Y-54620000D01*
%TO.C,XC2*%
X92445000Y-63280000D02*
X92445000Y-59520000D01*
X94405000Y-63280000D02*
X92445000Y-63280000D01*
X92445000Y-59520000D02*
X94405000Y-59520000D01*
X94405000Y-59520000D02*
X94405000Y-63280000D01*
%TO.C,XC1*%
X85670000Y-60990000D02*
X85670000Y-57230000D01*
X87630000Y-60990000D02*
X85670000Y-60990000D01*
X85670000Y-57230000D02*
X87630000Y-57230000D01*
X87630000Y-57230000D02*
X87630000Y-60990000D01*
D12*
%TO.C,U15*%
X34082601Y-45503200D02*
X31167401Y-45503200D01*
X31167401Y-45503200D02*
X31167401Y-44197600D01*
X31167401Y-44197600D02*
X30871001Y-44197600D01*
X30871001Y-44197600D02*
X30871001Y-40689600D01*
X30871001Y-40689600D02*
X31167401Y-40689600D01*
X31167401Y-39384000D02*
X31167401Y-40689600D01*
X31167401Y-39384000D02*
X34082601Y-39384000D01*
X34082601Y-39384000D02*
X34082601Y-40689600D01*
X34082601Y-40689600D02*
X34379001Y-40689600D01*
X34379001Y-40689600D02*
X34379001Y-44197600D01*
X34379001Y-44197600D02*
X34082601Y-44197600D01*
X34082601Y-45503200D02*
X34082601Y-44197600D01*
D10*
%TO.C,U14*%
X20270000Y-55002500D02*
X20270000Y-58502500D01*
X20270000Y-58502500D02*
X24530000Y-58502500D01*
X24530000Y-55002500D02*
X20270000Y-55002500D01*
X24530000Y-58502500D02*
X24530000Y-55002500D01*
%TO.C,U13*%
X92112500Y-50850000D02*
X92112500Y-47450000D01*
X92112500Y-47450000D02*
X88012500Y-47450000D01*
X88012500Y-50850000D02*
X92112500Y-50850000D01*
X88012500Y-47450000D02*
X88012500Y-50850000D01*
%TO.C,U12*%
X87875000Y-57400000D02*
X87875000Y-60800000D01*
X87875000Y-60800000D02*
X91975000Y-60800000D01*
X91975000Y-57400000D02*
X87875000Y-57400000D01*
X91975000Y-60800000D02*
X91975000Y-57400000D01*
D12*
%TO.C,U7*%
X70519100Y-41787700D02*
X70519100Y-40403400D01*
X70903400Y-40403400D02*
X70519100Y-40403400D01*
X70903400Y-36796600D02*
X70903400Y-40403400D01*
X70519100Y-36796600D02*
X70903400Y-36796600D01*
X70519100Y-35412300D02*
X70519100Y-36796600D01*
X67680900Y-35412300D02*
X70519100Y-35412300D01*
X67680900Y-35412300D02*
X67680900Y-36796600D01*
X67296600Y-36796600D02*
X67680900Y-36796600D01*
X67296600Y-40403400D02*
X67296600Y-36796600D01*
X67680900Y-40403400D02*
X67296600Y-40403400D01*
X67680900Y-41787700D02*
X67680900Y-40403400D01*
X70519100Y-41787700D02*
X67680900Y-41787700D01*
D10*
%TO.C,U6*%
X15350000Y-65600000D02*
X15350000Y-69000000D01*
X15350000Y-69000000D02*
X19450000Y-69000000D01*
X19450000Y-65600000D02*
X15350000Y-65600000D01*
X19450000Y-69000000D02*
X19450000Y-65600000D01*
D12*
%TO.C,U5*%
X35612300Y-59219100D02*
X35612300Y-56380900D01*
X35612300Y-56380900D02*
X36996600Y-56380900D01*
X36996600Y-56380900D02*
X36996600Y-55996600D01*
X36996600Y-55996600D02*
X40603400Y-55996600D01*
X40603400Y-55996600D02*
X40603400Y-56380900D01*
X41987700Y-56380900D02*
X40603400Y-56380900D01*
X41987700Y-56380900D02*
X41987700Y-59219100D01*
X41987700Y-59219100D02*
X40603400Y-59219100D01*
X40603400Y-59219100D02*
X40603400Y-59603400D01*
X40603400Y-59603400D02*
X36996600Y-59603400D01*
X36996600Y-59603400D02*
X36996600Y-59219100D01*
X35612300Y-59219100D02*
X36996600Y-59219100D01*
D10*
%TO.C,U2*%
X49920000Y-55250000D02*
X49920000Y-58750000D01*
X49920000Y-58750000D02*
X56280000Y-58750000D01*
X56280000Y-55250000D02*
X49920000Y-55250000D01*
X56280000Y-58750000D02*
X56280000Y-55250000D01*
%TO.C,TP12*%
X59700000Y-41100000D02*
X59700000Y-44100000D01*
X59700000Y-41100000D02*
X62700000Y-41100000D01*
X62700000Y-44100000D02*
X59700000Y-44100000D01*
X62700000Y-44100000D02*
X62700000Y-41100000D01*
%TO.C,TP10*%
X60200000Y-64700000D02*
X60200000Y-61700000D01*
X60200000Y-64700000D02*
X57200000Y-64700000D01*
X57200000Y-61700000D02*
X60200000Y-61700000D01*
X57200000Y-61700000D02*
X57200000Y-64700000D01*
%TO.C,TP9*%
X65400000Y-37200000D02*
X65400000Y-34200000D01*
X65400000Y-37200000D02*
X62400000Y-37200000D01*
X62400000Y-34200000D02*
X65400000Y-34200000D01*
X62400000Y-34200000D02*
X62400000Y-37200000D01*
%TO.C,TP8*%
X59600000Y-46800000D02*
X59600000Y-43800000D01*
X59600000Y-46800000D02*
X56600000Y-46800000D01*
X56600000Y-43800000D02*
X59600000Y-43800000D01*
X56600000Y-43800000D02*
X56600000Y-46800000D01*
%TO.C,TP7*%
X68800000Y-57800000D02*
X68800000Y-54800000D01*
X68800000Y-57800000D02*
X65800000Y-57800000D01*
X65800000Y-54800000D02*
X68800000Y-54800000D01*
X65800000Y-54800000D02*
X65800000Y-57800000D01*
%TO.C,TP6*%
X36100000Y-34600000D02*
X36100000Y-37600000D01*
X36100000Y-34600000D02*
X39100000Y-34600000D01*
X39100000Y-37600000D02*
X36100000Y-37600000D01*
X39100000Y-37600000D02*
X39100000Y-34600000D01*
%TO.C,TP4*%
X55390000Y-66870000D02*
X55390000Y-69870000D01*
X55390000Y-66870000D02*
X58390000Y-66870000D01*
X58390000Y-69870000D02*
X55390000Y-69870000D01*
X58390000Y-69870000D02*
X58390000Y-66870000D01*
%TO.C,TP2*%
X39000000Y-46000000D02*
X39000000Y-49000000D01*
X39000000Y-46000000D02*
X42000000Y-46000000D01*
X42000000Y-49000000D02*
X39000000Y-49000000D01*
X42000000Y-49000000D02*
X42000000Y-46000000D01*
%TO.C,RP13*%
X40450000Y-55550000D02*
X40450000Y-51850000D01*
X42350000Y-55550000D02*
X40450000Y-55550000D01*
X40450000Y-51850000D02*
X42350000Y-51850000D01*
X42350000Y-51850000D02*
X42350000Y-55550000D01*
%TO.C,RP12*%
X67550000Y-34350000D02*
X67550000Y-30650000D01*
X69450000Y-34350000D02*
X67550000Y-34350000D01*
X67550000Y-30650000D02*
X69450000Y-30650000D01*
X69450000Y-30650000D02*
X69450000Y-34350000D01*
%TO.C,RP11*%
X24750000Y-54450000D02*
X28450000Y-54450000D01*
X24750000Y-56350000D02*
X24750000Y-54450000D01*
X28450000Y-54450000D02*
X28450000Y-56350000D01*
X28450000Y-56350000D02*
X24750000Y-56350000D01*
%TO.C,RP10*%
X41240000Y-30140000D02*
X44940000Y-30140000D01*
X41240000Y-32040000D02*
X41240000Y-30140000D01*
X44940000Y-30140000D02*
X44940000Y-32040000D01*
X44940000Y-32040000D02*
X41240000Y-32040000D01*
%TO.C,RP9*%
X60750000Y-32250000D02*
X57050000Y-32250000D01*
X60750000Y-30350000D02*
X60750000Y-32250000D01*
X57050000Y-32250000D02*
X57050000Y-30350000D01*
X57050000Y-30350000D02*
X60750000Y-30350000D01*
%TO.C,RP8*%
X41240000Y-32560000D02*
X44940000Y-32560000D01*
X41240000Y-34460000D02*
X41240000Y-32560000D01*
X44940000Y-32560000D02*
X44940000Y-34460000D01*
X44940000Y-34460000D02*
X41240000Y-34460000D01*
%TO.C,RP7*%
X69350000Y-55750000D02*
X69350000Y-52050000D01*
X71250000Y-55750000D02*
X69350000Y-55750000D01*
X69350000Y-52050000D02*
X71250000Y-52050000D01*
X71250000Y-52050000D02*
X71250000Y-55750000D01*
%TO.C,RP6*%
X39850000Y-44250000D02*
X39850000Y-40550000D01*
X41750000Y-44250000D02*
X39850000Y-44250000D01*
X39850000Y-40550000D02*
X41750000Y-40550000D01*
X41750000Y-40550000D02*
X41750000Y-44250000D01*
%TO.C,RP4*%
X42150000Y-44250000D02*
X42150000Y-40550000D01*
X44050000Y-44250000D02*
X42150000Y-44250000D01*
X42150000Y-40550000D02*
X44050000Y-40550000D01*
X44050000Y-40550000D02*
X44050000Y-44250000D01*
%TO.C,RP2*%
X87875000Y-61450000D02*
X91575000Y-61450000D01*
X87875000Y-63350000D02*
X87875000Y-61450000D01*
X91575000Y-61450000D02*
X91575000Y-63350000D01*
X91575000Y-63350000D02*
X87875000Y-63350000D01*
%TO.C,RP1*%
X56650000Y-55950000D02*
X56650000Y-52250000D01*
X58550000Y-55950000D02*
X56650000Y-55950000D01*
X56650000Y-52250000D02*
X58550000Y-52250000D01*
X58550000Y-52250000D02*
X58550000Y-55950000D01*
%TO.C,R25*%
X43450000Y-23350000D02*
X43450000Y-27050000D01*
X41550000Y-23350000D02*
X43450000Y-23350000D01*
X43450000Y-27050000D02*
X41550000Y-27050000D01*
X41550000Y-27050000D02*
X41550000Y-23350000D01*
%TO.C,R24*%
X62650000Y-26950000D02*
X62650000Y-23250000D01*
X64550000Y-26950000D02*
X62650000Y-26950000D01*
X62650000Y-23250000D02*
X64550000Y-23250000D01*
X64550000Y-23250000D02*
X64550000Y-26950000D01*
%TO.C,R23*%
X54550000Y-26950000D02*
X54550000Y-23250000D01*
X56450000Y-26950000D02*
X54550000Y-26950000D01*
X54550000Y-23250000D02*
X56450000Y-23250000D01*
X56450000Y-23250000D02*
X56450000Y-26950000D01*
%TO.C,R22*%
X51250000Y-27050000D02*
X51250000Y-23350000D01*
X53150000Y-27050000D02*
X51250000Y-27050000D01*
X51250000Y-23350000D02*
X53150000Y-23350000D01*
X53150000Y-23350000D02*
X53150000Y-27050000D01*
%TO.C,R21*%
X48050000Y-27050000D02*
X48050000Y-23350000D01*
X49950000Y-27050000D02*
X48050000Y-27050000D01*
X48050000Y-23350000D02*
X49950000Y-23350000D01*
X49950000Y-23350000D02*
X49950000Y-27050000D01*
%TO.C,R20*%
X44850000Y-27050000D02*
X44850000Y-23350000D01*
X46750000Y-27050000D02*
X44850000Y-27050000D01*
X44850000Y-23350000D02*
X46750000Y-23350000D01*
X46750000Y-23350000D02*
X46750000Y-27050000D01*
%TO.C,R19*%
X95750000Y-27950000D02*
X95750000Y-24250000D01*
X97650000Y-27950000D02*
X95750000Y-27950000D01*
X95750000Y-24250000D02*
X97650000Y-24250000D01*
X97650000Y-24250000D02*
X97650000Y-27950000D01*
%TO.C,R18*%
X96300000Y-42150000D02*
X92600000Y-42150000D01*
X96300000Y-40250000D02*
X96300000Y-42150000D01*
X92600000Y-42150000D02*
X92600000Y-40250000D01*
X92600000Y-40250000D02*
X96300000Y-40250000D01*
%TO.C,R17*%
X38650000Y-45250000D02*
X38650000Y-48950000D01*
X36750000Y-45250000D02*
X38650000Y-45250000D01*
X38650000Y-48950000D02*
X36750000Y-48950000D01*
X36750000Y-48950000D02*
X36750000Y-45250000D01*
%TO.C,R16*%
X34450000Y-47750000D02*
X30750000Y-47750000D01*
X34450000Y-45850000D02*
X34450000Y-47750000D01*
X30750000Y-47750000D02*
X30750000Y-45850000D01*
X30750000Y-45850000D02*
X34450000Y-45850000D01*
%TO.C,R15*%
X34450000Y-49950000D02*
X30750000Y-49950000D01*
X34450000Y-48050000D02*
X34450000Y-49950000D01*
X30750000Y-49950000D02*
X30750000Y-48050000D01*
X30750000Y-48050000D02*
X34450000Y-48050000D01*
%TO.C,R14*%
X15350000Y-73050000D02*
X15350000Y-69350000D01*
X17250000Y-73050000D02*
X15350000Y-73050000D01*
X15350000Y-69350000D02*
X17250000Y-69350000D01*
X17250000Y-69350000D02*
X17250000Y-73050000D01*
%TO.C,R13*%
X47050000Y-52150000D02*
X50750000Y-52150000D01*
X47050000Y-54050000D02*
X47050000Y-52150000D01*
X50750000Y-52150000D02*
X50750000Y-54050000D01*
X50750000Y-54050000D02*
X47050000Y-54050000D01*
%TO.C,R9*%
X96325000Y-38250000D02*
X92625000Y-38250000D01*
X96325000Y-36350000D02*
X96325000Y-38250000D01*
X92625000Y-38250000D02*
X92625000Y-36350000D01*
X92625000Y-36350000D02*
X96325000Y-36350000D01*
%TO.C,R8*%
X62150000Y-37250000D02*
X62150000Y-40950000D01*
X60250000Y-37250000D02*
X62150000Y-37250000D01*
X62150000Y-40950000D02*
X60250000Y-40950000D01*
X60250000Y-40950000D02*
X60250000Y-37250000D01*
%TO.C,R7*%
X55930000Y-30567500D02*
X55930000Y-34267500D01*
X54030000Y-30567500D02*
X55930000Y-30567500D01*
X55930000Y-34267500D02*
X54030000Y-34267500D01*
X54030000Y-34267500D02*
X54030000Y-30567500D01*
%TO.C,R6*%
X53720000Y-30580000D02*
X53720000Y-34280000D01*
X51820000Y-30580000D02*
X53720000Y-30580000D01*
X53720000Y-34280000D02*
X51820000Y-34280000D01*
X51820000Y-34280000D02*
X51820000Y-30580000D01*
%TO.C,R5*%
X51450000Y-30567500D02*
X51450000Y-34267500D01*
X49550000Y-30567500D02*
X51450000Y-30567500D01*
X51450000Y-34267500D02*
X49550000Y-34267500D01*
X49550000Y-34267500D02*
X49550000Y-30567500D01*
%TO.C,R4*%
X54150000Y-43950000D02*
X54150000Y-47650000D01*
X52250000Y-43950000D02*
X54150000Y-43950000D01*
X54150000Y-47650000D02*
X52250000Y-47650000D01*
X52250000Y-47650000D02*
X52250000Y-43950000D01*
%TO.C,R3*%
X51950000Y-43950000D02*
X51950000Y-47650000D01*
X50050000Y-43950000D02*
X51950000Y-43950000D01*
X51950000Y-47650000D02*
X50050000Y-47650000D01*
X50050000Y-47650000D02*
X50050000Y-43950000D01*
%TO.C,R2*%
X49750000Y-43950000D02*
X49750000Y-47650000D01*
X47850000Y-43950000D02*
X49750000Y-43950000D01*
X49750000Y-47650000D02*
X47850000Y-47650000D01*
X47850000Y-47650000D02*
X47850000Y-43950000D01*
%TO.C,R1*%
X47550000Y-43950000D02*
X47550000Y-47650000D01*
X45650000Y-43950000D02*
X47550000Y-43950000D01*
X47550000Y-47650000D02*
X45650000Y-47650000D01*
X45650000Y-47650000D02*
X45650000Y-43950000D01*
%TO.C,J9*%
X76040000Y-68900000D02*
X59740000Y-68900000D01*
X59740000Y-68900000D02*
X59740000Y-75050000D01*
X76040000Y-75050000D02*
X76040000Y-68900000D01*
X59740000Y-75050000D02*
X76040000Y-75050000D01*
%TO.C,J7*%
X59550000Y-18300000D02*
X75850000Y-18300000D01*
X75850000Y-18300000D02*
X75850000Y-12150000D01*
X59550000Y-12150000D02*
X59550000Y-18300000D01*
X75850000Y-12150000D02*
X59550000Y-12150000D01*
%TO.C,J6*%
X30520000Y-18300000D02*
X56970000Y-18300000D01*
X56970000Y-18300000D02*
X56970000Y-12150000D01*
X30520000Y-12150000D02*
X30520000Y-18300000D01*
X56970000Y-12150000D02*
X30520000Y-12150000D01*
%TO.C,D12*%
X92050000Y-38250000D02*
X88350000Y-38250000D01*
X92050000Y-36350000D02*
X92050000Y-38250000D01*
X88350000Y-38250000D02*
X88350000Y-36350000D01*
X88350000Y-36350000D02*
X92050000Y-36350000D01*
%TO.C,D11*%
X87825000Y-38250000D02*
X84125000Y-38250000D01*
X87825000Y-36350000D02*
X87825000Y-38250000D01*
X84125000Y-38250000D02*
X84125000Y-36350000D01*
X84125000Y-36350000D02*
X87825000Y-36350000D01*
%TO.C,D10*%
X41550000Y-22550000D02*
X41550000Y-18850000D01*
X43450000Y-22550000D02*
X41550000Y-22550000D01*
X41550000Y-18850000D02*
X43450000Y-18850000D01*
X43450000Y-18850000D02*
X43450000Y-22550000D01*
%TO.C,D9*%
X62650000Y-22175000D02*
X62650000Y-18475000D01*
X64550000Y-22175000D02*
X62650000Y-22175000D01*
X62650000Y-18475000D02*
X64550000Y-18475000D01*
X64550000Y-18475000D02*
X64550000Y-22175000D01*
%TO.C,D8*%
X54550000Y-22350000D02*
X54550000Y-18650000D01*
X56450000Y-22350000D02*
X54550000Y-22350000D01*
X54550000Y-18650000D02*
X56450000Y-18650000D01*
X56450000Y-18650000D02*
X56450000Y-22350000D01*
%TO.C,D7*%
X51250000Y-22375000D02*
X51250000Y-18675000D01*
X53150000Y-22375000D02*
X51250000Y-22375000D01*
X51250000Y-18675000D02*
X53150000Y-18675000D01*
X53150000Y-18675000D02*
X53150000Y-22375000D01*
%TO.C,D6*%
X48050000Y-22450000D02*
X48050000Y-18750000D01*
X49950000Y-22450000D02*
X48050000Y-22450000D01*
X48050000Y-18750000D02*
X49950000Y-18750000D01*
X49950000Y-18750000D02*
X49950000Y-22450000D01*
%TO.C,D5*%
X44850000Y-22425000D02*
X44850000Y-18725000D01*
X46750000Y-22425000D02*
X44850000Y-22425000D01*
X44850000Y-18725000D02*
X46750000Y-18725000D01*
X46750000Y-18725000D02*
X46750000Y-22425000D01*
%TO.C,D4*%
X95750000Y-22675000D02*
X95750000Y-18975000D01*
X97650000Y-22675000D02*
X95750000Y-22675000D01*
X95750000Y-18975000D02*
X97650000Y-18975000D01*
X97650000Y-18975000D02*
X97650000Y-22675000D01*
%TO.C,D3*%
X88300000Y-40295000D02*
X92000000Y-40295000D01*
X88300000Y-42195000D02*
X88300000Y-40295000D01*
X92000000Y-40295000D02*
X92000000Y-42195000D01*
X92000000Y-42195000D02*
X88300000Y-42195000D01*
%TO.C,C2*%
X23480000Y-54080000D02*
X19720000Y-54080000D01*
X23480000Y-52120000D02*
X23480000Y-54080000D01*
X19720000Y-54080000D02*
X19720000Y-52120000D01*
X19720000Y-52120000D02*
X23480000Y-52120000D01*
%TO.C,C1*%
X44620000Y-54080000D02*
X44620000Y-50320000D01*
X46580000Y-54080000D02*
X44620000Y-54080000D01*
X44620000Y-50320000D02*
X46580000Y-50320000D01*
X46580000Y-50320000D02*
X46580000Y-54080000D01*
%TO.C,TP1*%
X24000000Y-64500000D02*
X24000000Y-61500000D01*
X24000000Y-64500000D02*
X21000000Y-64500000D01*
X21000000Y-61500000D02*
X24000000Y-61500000D01*
X21000000Y-61500000D02*
X21000000Y-64500000D01*
%TD*%
M02*
